<svg width="102" height="102" viewBox="0 0 102 102" fill="none" xmlns="http://www.w3.org/2000/svg">
<rect width="102" height="102" rx="10" fill="#F75B5B"/>
<path fill-rule="evenodd" clip-rule="evenodd" d="M99.4977 50.1763V49.9888C99.4288 49.9547 99.3772 49.9206 99.3083 49.8865C98.6366 49.5285 97.9305 49.1876 97.2416 48.8808L95.6227 43.3239L95.2782 43.4262L96.811 48.7103C96.191 48.4547 95.5882 48.216 94.951 47.9944C93.9177 47.6365 92.8671 47.3637 91.7993 47.1421C91.9715 46.8524 92.0576 46.5626 92.0404 46.3069L91.3171 40.8523L91.2309 40.2387L91.0587 38.8921L90.9726 38.2785L90.6282 38.7898L87.0287 44.0228L87.0459 44.0399H87.0114L87.3731 46.7501C86.7703 46.7501 86.1503 46.7671 85.5475 46.8012C84.7553 46.8524 83.9458 46.9206 83.1708 47.0569C82.3786 47.1762 81.6036 47.3296 80.8286 47.5171C80.0536 47.7046 79.2958 47.9262 78.538 48.199L78.2624 48.3012L77.9869 48.4035C77.7974 48.4717 77.608 48.5399 77.4357 48.6251L76.8846 48.8467L76.7468 48.8978C76.7124 48.9149 76.678 48.9149 76.6435 48.9149C76.5918 48.9149 76.5402 48.9149 76.4885 48.9149C76.4541 48.9149 76.4196 48.9319 76.4024 48.9319C76.368 48.9319 76.3507 48.949 76.3163 48.966H76.3335L75.9029 49.1194L75.4896 49.3069L74.6974 49.716L73.7329 50.1251C73.5607 50.1933 73.4057 50.2615 73.2507 50.3297L72.7685 50.5513L72.2862 50.7728C72.1312 50.841 71.959 50.9263 71.804 50.9944L70.8395 51.4717C70.6845 51.5569 70.5295 51.6422 70.3745 51.7274L69.9095 51.9831C69.6512 52.1194 69.4101 52.2388 69.169 52.3922L67.0506 47.9092L66.5856 48.1308L68.7212 52.6308L68.0495 53.0058L67.1367 53.5513L66.6889 53.824L66.2411 54.0967L65.3456 54.6592L64.45 55.2217C64.295 55.307 64.1572 55.4092 64.0022 55.4945L63.5544 55.7501L62.6244 56.2786C62.3316 56.4661 62.0216 56.6365 61.7116 56.807L61.2466 57.0626L60.7816 57.3183L60.3166 57.574L59.8516 57.8126L59.3866 58.0683L58.9216 58.307L58.4393 58.5456C58.2843 58.6308 58.1121 58.699 57.9571 58.7672L57.4749 58.9888C57.3199 59.057 57.1477 59.1252 56.9927 59.2104L56.5104 59.432L56.4415 59.4661H56.4071H56.3899L56.2693 59.5172L56.011 59.6195L55.0121 59.9945C54.8571 60.0627 54.6848 60.1308 54.5126 60.182L54.0132 60.3524C53.9615 60.3695 53.9098 60.3865 53.8409 60.4206C53.996 60.1649 54.1682 59.9092 54.3232 59.6706C54.771 58.9717 55.236 58.2729 55.6665 57.574C56.0971 56.8751 56.5277 56.1763 56.9238 55.4604C57.3199 54.7445 57.6816 54.0115 57.9916 53.2615C58.3016 52.5115 58.5427 51.7615 58.7321 50.9774C58.9216 50.1933 59.0249 49.4092 59.0421 48.6251C59.0421 48.5228 59.0421 48.4206 59.0421 48.3353L59.0249 48.0456C59.0249 47.9433 59.0249 47.8581 59.0077 47.7558L58.9732 47.466C58.956 47.3637 58.956 47.2785 58.9388 47.1762L58.8871 46.8865C58.8699 46.8012 58.8527 46.699 58.8355 46.5967L58.7666 46.3069L58.7321 46.1706L58.7149 46.1024C58.7149 46.0853 58.6977 46.0512 58.6977 46.0342L58.5427 45.6251C58.5255 45.574 58.5082 45.5399 58.491 45.4887L58.3705 45.216C58.181 44.8751 57.9743 44.5342 57.716 44.2444C57.3888 43.8694 57.0099 43.5455 56.5965 43.2728C56.5277 43.1705 56.4588 43.0512 56.3899 42.9489C56.0454 42.4035 55.5804 41.9433 55.0465 41.5683C54.926 41.3296 54.7882 41.091 54.6332 40.8694C54.3404 40.4603 53.9959 40.1023 53.6343 39.7955C53.6343 39.7785 53.6343 39.7785 53.6171 39.7614C53.5482 39.5739 53.4448 39.4205 53.3587 39.2501L53.2037 39.0114L53.1348 38.8921L53.0487 38.7728L52.8937 38.5342L52.7215 38.3126L52.6354 38.2103L52.532 38.108C52.4804 38.0398 52.4287 37.9887 52.377 37.9376C52.1876 37.4091 51.912 36.9319 51.6365 36.4546C51.5504 36.3012 51.447 36.1648 51.3781 36.0285L51.3437 35.9773L51.3265 35.9603C51.3092 35.9432 51.3265 35.9432 51.3092 35.9432V35.9262L51.2231 35.8239L51.0509 35.5682C50.827 35.2955 50.6031 35.0398 50.3448 34.8012C49.8626 34.3239 49.2942 33.8978 48.7086 33.5569C48.1059 33.1989 47.4858 32.9091 46.8486 32.6705C46.2114 32.4148 45.5569 32.2103 44.9197 32.0057C44.7647 31.9716 44.6097 31.9205 44.4375 31.8693L43.1458 25L42.698 25.0852L43.9552 31.7671H43.938L43.4386 31.6478L43.1974 31.5796L41.9402 31.3409C41.613 31.2898 41.2685 31.2387 40.9413 31.1875C40.5969 31.1364 40.2696 31.1023 39.9252 31.0682L39.4085 31.0171C39.2363 31 39.0813 30.983 38.8918 30.983C38.1168 30.9148 37.359 30.8637 36.584 30.8125L36.3773 29.3637L36.2396 28.4091L35.9468 26.2955L35.809 25.3409L35.2751 26.1421L32.244 30.6421C31.7445 30.6421 31.245 30.625 30.7628 30.625H29.7467H29.23H28.7133L27.6972 30.6421C27.37 30.6421 27.0255 30.6591 26.6811 30.6762C25.9922 30.6932 25.3205 30.7443 24.6488 30.7784C24.3216 30.7955 23.9772 30.8296 23.6327 30.8466C23.2883 30.8807 22.9438 30.8978 22.6166 30.9318L21.6005 31.0341L21.101 31.0853C20.9288 31.1193 20.7738 31.1364 20.6016 31.1534L19.5854 31.3068C19.4132 31.3239 19.2582 31.358 19.086 31.3921L18.5865 31.4943L18.0871 31.5796C17.9149 31.6137 17.7598 31.6478 17.5876 31.6818L16.5887 31.9034C16.4337 31.9375 16.2615 31.9716 16.0893 32.0228L15.607 32.1591L14.7804 32.3807C14.4704 31.3921 14.0398 30.4034 13.4887 29.483C13.1098 28.8523 12.6792 28.2557 12.197 27.7102C11.8525 27.3011 11.3703 26.9943 10.957 26.6534C10.7331 26.6875 10.492 26.7046 10.2681 26.7386C10.2336 26.8068 10.2336 26.875 10.1992 26.8921C8.82138 27.8125 8.11526 29.1762 7.6847 30.7103C7.49525 31.375 7.37469 32.0569 7.28858 32.7387C7.03024 35.0398 7.18524 37.6648 8.02915 39.8467C8.25304 40.4603 8.51138 41.0739 8.73527 41.6876C8.80416 41.8921 9.2175 42.6933 9.0625 42.9149C8.64916 43.4603 8.25304 44.0058 7.82248 44.5512C6.65135 46.0853 5.56633 47.6706 4.68799 49.3922C3.98186 50.7728 3.43074 52.4092 3.15518 53.9092C2.25962 58.682 5.34244 63.6422 9.76862 65.5343C11.8353 66.4036 13.9709 66.557 16.1409 65.9434C16.3476 65.8752 16.5887 65.8411 16.8643 65.7559C17.1226 66.4036 17.3982 67.0513 17.6565 67.6991C17.9321 68.432 18.2249 69.1479 18.4315 69.8979C18.6382 70.6479 18.7932 71.415 18.8793 72.182C19.1204 74.415 17.691 75.6934 15.8826 76.1877C15.2798 76.3582 14.6598 76.4434 14.0398 76.1877C13.9709 76.1536 13.8848 76.1195 13.7642 76.0343C13.902 75.9661 13.9709 75.915 14.057 75.8809C15.3143 75.3014 16.0032 74.2105 15.8309 72.8468C15.6759 71.5514 14.987 70.5798 13.7642 70.0684C12.5242 69.54 11.1809 69.915 10.337 70.9718C8.82138 72.915 9.18305 75.7445 11.5253 77.1423C13.0581 78.0457 14.9698 78.1991 16.6576 77.6707C19.3788 76.8355 21.101 74.1423 20.5154 71.3638C20.1366 69.5911 19.4304 67.9207 18.8449 66.2161C18.7243 65.8581 18.6038 65.5172 18.4832 65.1422C18.6382 64.9718 18.8449 64.7502 19.086 64.4945C19.9299 63.9149 20.636 63.182 21.1527 62.3297C21.256 62.2274 21.3766 62.1081 21.4799 62.0059C21.6694 61.8013 21.8932 61.5797 22.1171 61.3581C22.5649 60.9149 23.0472 60.4377 23.5638 59.9433C23.8222 59.6877 24.0977 59.432 24.3733 59.1763C24.6488 58.9206 24.9416 58.6479 25.2344 58.3752C27.6111 56.1933 30.5906 53.6365 34.2418 50.9944C36.0673 49.6649 38.0652 48.3694 40.2524 47.1081C41.3546 46.4774 42.4913 45.8637 43.6797 45.2842C44.2652 44.9944 44.8853 44.7046 45.5053 44.4149C46.1253 44.1251 46.7453 43.8694 47.3997 43.6137C48.6914 43.1194 50.052 42.7103 51.4642 42.5399C51.6537 42.5228 51.8431 42.5058 52.0154 42.4887C51.9981 42.5569 51.9637 42.6251 51.9465 42.6933L51.912 42.8126C51.912 42.8296 51.8948 42.8467 51.8948 42.8637L51.8776 42.9319L51.7743 43.1535L51.5676 43.6137L51.3437 44.0569C51.3265 44.108 51.292 44.1592 51.2748 44.2103C51.2576 44.2103 51.2404 44.2103 51.2404 44.2103C51.1715 44.1933 51.1026 44.1933 51.0509 44.1762C51.0509 44.1762 51.0509 44.1933 51.0337 44.1933C51.1026 44.2274 51.1715 44.2785 51.2231 44.3126C50.9648 44.824 50.6892 45.3183 50.3965 45.8126C49.0187 48.1137 47.3136 50.2103 45.7808 52.4263C45.5742 52.716 45.3675 53.0399 45.1608 53.3467L43.5247 51.6933L43.2491 51.949L44.9541 53.6706C44.8508 53.824 44.7647 53.9774 44.6614 54.1308C44.2997 54.6933 43.9725 55.307 43.7141 55.9376C43.4558 56.5683 43.3008 57.2501 43.2663 57.932V58.0683V58.1365V58.1536V58.2047C43.2663 58.2899 43.2663 58.3752 43.2836 58.4604L43.3008 58.5967L43.3352 58.7331C43.3525 58.8183 43.3697 58.9036 43.4041 58.9888C43.5075 59.3297 43.6625 59.6536 43.8863 59.9263C44.2308 60.3013 44.6269 60.6081 45.0575 60.8638C45.0575 60.932 45.0575 61.0002 45.0747 61.0683C45.1264 61.4945 45.2469 61.9206 45.4536 62.3127C45.643 62.7047 45.9358 63.0456 46.2458 63.3354C46.2803 63.3695 46.3147 63.4036 46.3664 63.4547L46.5042 63.557C46.5903 63.6252 46.6764 63.6934 46.7625 63.7445C46.7625 63.7445 46.7625 63.7445 46.7797 63.7615C46.7969 64.0002 46.8314 64.2559 46.9003 64.4945C47.107 65.3297 47.5547 66.0968 48.1403 66.7275C48.2264 66.8297 48.3298 66.932 48.4331 67.0172C48.4503 67.2559 48.4848 67.4945 48.5364 67.7161C48.6914 68.5172 48.9842 69.3013 49.4148 70.0173C49.5525 70.2388 49.7076 70.4604 49.8798 70.682C49.8798 70.9036 49.9142 71.1082 49.9314 71.3298C49.9487 71.5513 50.0003 71.7729 50.0348 71.9945C50.0864 72.2161 50.1209 72.4207 50.1898 72.6423C50.3103 73.0684 50.4653 73.4945 50.672 73.8866C50.8787 74.2957 51.1026 74.6707 51.3954 75.0286C51.6709 75.3866 51.9981 75.6934 52.3598 75.9832C52.7215 76.2559 53.1004 76.4946 53.5309 76.6821L53.8409 76.8014C53.9443 76.8355 54.0476 76.8866 54.151 76.9207C54.3748 76.9889 54.5987 77.0741 54.8226 77.1082C55.701 77.3127 56.6138 77.3809 57.5266 77.3639H57.871H58.0432L58.2155 77.3468C58.4393 77.3298 58.6632 77.3298 58.8871 77.3127C59.111 77.2957 59.3349 77.2786 59.5588 77.2446C59.7827 77.2105 60.0066 77.1934 60.2305 77.1423C61.1261 77.0059 62.0216 76.8014 62.9 76.5457L63.2272 76.4434L63.5544 76.3411L64.2089 76.1195C64.3122 76.0855 64.4155 76.0514 64.5361 76.0173L64.8461 75.8809L65.4833 75.6252C67.1884 74.9264 68.8073 74.0741 70.3917 73.1366C70.7879 72.8979 71.1668 72.6593 71.5801 72.4207C71.959 72.165 72.3551 71.9263 72.7512 71.6877C73.5262 71.1763 74.3013 70.682 75.0763 70.1877C75.8513 69.6763 76.6091 69.182 77.3841 68.6707L78.5552 67.9207L79.1408 67.5456C79.3302 67.4263 79.5369 67.29 79.7263 67.1706L80.9147 66.4547L81.5175 66.0968L81.8103 65.9263L82.1203 65.7559L83.1192 65.2104V65.2275C83.1881 65.3127 83.2569 65.415 83.3431 65.4661C83.5153 65.6025 83.7392 65.6195 83.9458 65.6195C84.0147 65.6195 84.1008 65.6195 84.1697 65.6195C84.3247 65.5854 84.4625 65.5513 84.6175 65.5172C84.7553 65.449 84.8759 65.3979 85.0136 65.3297C85.5303 65.04 85.8403 64.6138 85.9609 64.0343C85.9781 63.932 85.9953 63.8297 85.9953 63.7445C88.8542 62.3638 91.7821 61.1877 94.7788 60.199C96.3632 59.6706 97.9649 59.1933 99.5838 58.7842V58.6138C97.9477 59.0229 96.3288 59.5002 94.7271 60.0456C91.7648 61.0172 88.837 62.1763 85.9953 63.5399C85.9953 63.3695 85.9609 63.199 85.9264 63.0286C85.6509 61.8184 85.3753 60.5911 85.0998 59.3808C85.8059 59.1422 86.512 58.9036 87.2181 58.699C87.442 59.1252 87.5453 59.5854 87.5626 60.0627C87.5798 60.6422 87.5281 61.2047 87.4076 61.7672C87.3903 61.8524 87.3731 61.9547 87.3559 62.0399C87.3559 62.0399 87.3731 62.057 87.3903 62.057C87.3903 62.0399 87.3903 62.0229 87.3903 62.0059C87.4937 61.7502 87.6142 61.4774 87.7003 61.2047C87.8381 60.7615 87.907 60.3013 87.8898 59.8411C87.8898 59.7729 87.8898 59.6877 87.8898 59.6195C87.8553 59.432 87.8209 59.2615 87.7692 59.0911C87.752 59.057 87.7348 59.0229 87.7348 59.0058C87.6831 58.8695 87.6315 58.7502 87.5626 58.6138C88.062 58.4774 88.5615 58.3411 89.0609 58.2047C92.4882 57.3695 96.0016 56.8581 99.5322 56.7047H99.6011V56.5342H99.515C95.9844 56.6876 92.4537 57.199 89.0093 58.0342C88.4926 58.1536 87.9759 58.2899 87.4592 58.4433C87.4248 58.3922 87.3903 58.3411 87.3387 58.2729C87.0976 57.932 86.7876 57.6422 86.4603 57.3865C86.0987 57.1138 85.737 56.8411 85.3925 56.5513C84.9792 56.1933 84.6175 55.8013 84.2731 55.3751C85.1859 55.1195 86.1159 54.8979 87.0287 54.7104L87.7003 54.591C87.9242 54.557 88.1481 54.5058 88.372 54.4717L89.3709 54.3183L89.5431 54.3013C89.5776 54.3013 89.5948 54.3013 89.6293 54.3013L89.7154 54.2842L91.0759 54.1649C91.5237 54.1479 91.9715 54.1308 92.4365 54.0967C94.2449 54.0456 96.0532 54.1479 97.8444 54.3524C98.2922 54.4035 98.7399 54.4376 99.1877 54.5058L99.5666 54.557V54.3865L99.205 54.3354C98.7572 54.2672 98.3094 54.216 97.8616 54.1649C96.0532 53.9604 94.2449 53.8751 92.4193 53.9092C91.9715 53.9263 91.5065 53.9433 91.0415 53.9774L89.6809 54.0967H89.5948C89.5776 54.0967 89.5431 54.0967 89.5087 54.1138L89.3365 54.1308L89.0093 54.182L88.3376 54.2842C88.1137 54.3183 87.8898 54.3524 87.6659 54.3865L86.9942 54.5229C86.0298 54.7104 85.0825 54.949 84.1353 55.2217C84.032 55.0854 83.9458 54.966 83.8425 54.8297C83.7908 54.7615 83.7392 54.6933 83.6875 54.6251C83.6875 54.6251 83.6703 54.6251 83.6703 54.6422C83.7219 54.8638 83.7736 55.0854 83.8253 55.307C81.7069 55.9206 79.6574 56.7047 77.6596 57.6251L76.368 53.7899C76.833 53.5854 77.3152 53.3808 77.7802 53.1933C79.468 52.5115 81.1902 51.9149 82.9642 51.4717C84.6003 51.0626 86.2709 50.7728 87.9415 50.6535L88.0792 51.7103C87.6315 51.5399 86.977 51.6592 86.3914 52.0683C85.5992 52.6138 85.2375 53.449 85.582 53.9433C85.9264 54.4547 86.8564 54.4206 87.6487 53.8751C88.2859 53.449 88.6304 52.8183 88.5787 52.341L88.3548 50.6365C88.3548 50.6365 88.3548 50.6365 88.372 50.6365C90.1976 50.5342 92.0232 50.6194 93.8315 50.9092C94.2104 50.9774 94.5721 51.0456 94.9338 51.1138C94.7788 51.5399 94.8132 51.949 95.0716 52.2217C95.3127 52.4774 95.726 52.5626 96.1738 52.4263C96.4838 52.341 96.811 52.1535 97.0694 51.8979C97.1383 51.8297 97.2244 51.7444 97.276 51.6763C97.8961 51.8467 98.4988 52.0342 99.1188 52.2388C99.2738 52.2899 99.4116 52.341 99.5666 52.3922V52.2047C99.4461 52.1706 99.3083 52.1194 99.1877 52.0683C98.6022 51.8638 97.9994 51.6933 97.4138 51.5228C97.7066 51.0967 97.8272 50.6535 97.7238 50.2785L97.3622 49.0683C98.0166 49.3581 98.6538 49.6649 99.2911 49.9888C99.3083 50.074 99.4116 50.1251 99.4977 50.1763ZM91.5237 45.6592C91.0759 45.4887 90.4043 45.608 89.8359 46.0171C89.5087 46.2387 89.2676 46.5115 89.0954 46.7842C88.6992 46.7671 88.3031 46.7501 87.907 46.7331C87.8553 46.7331 87.8037 46.7331 87.752 46.7331L87.6659 46.1024L90.9382 41.3467L91.5237 45.6592ZM90.6971 39.3864L90.8693 40.733L87.597 45.4887L87.4076 44.1421L90.6971 39.3864ZM54.0476 60.5911L54.5471 60.4036C54.7193 60.3524 54.8743 60.2843 55.0465 60.2161L56.0454 59.8411L56.3038 59.7558L56.4243 59.7047L56.4588 59.6877L56.4932 59.6706L56.5621 59.6365L57.0443 59.4149C57.1993 59.3467 57.3716 59.2615 57.5266 59.1933L58.0088 58.9717C58.1638 58.8865 58.336 58.8183 58.491 58.7331L58.9732 58.4945L59.4555 58.2558L59.9205 58.0002L60.3855 57.7615L61.3155 57.2501L61.7805 56.9945C62.0905 56.824 62.4005 56.6536 62.7105 56.4661L63.6233 55.9376L64.0883 55.6649C64.2433 55.5797 64.3811 55.4774 64.5361 55.3751L65.4317 54.8126L66.3272 54.2672L66.775 53.9945L67.2228 53.7217L68.1356 53.1763L68.7901 52.8013L70.5295 56.4661C70.3918 56.5513 70.254 56.6365 70.099 56.7047C69.9267 56.7388 69.7373 56.7899 69.5478 56.8751C69.2206 57.0286 68.8934 57.2672 68.6178 57.574C68.3939 57.7104 68.1701 57.8297 67.9634 57.9661C66.4306 58.9036 64.915 59.8752 63.365 60.7615C62.6933 61.1536 62.0216 61.5286 61.3327 61.8865V59.7729L60.9538 60.199L58.0432 63.4377H58.026C57.8193 63.5229 57.6127 63.5911 57.4232 63.6763C57.2166 63.7445 57.0099 63.8297 56.8032 63.8979L56.4932 64.0172C56.3899 64.0513 56.2865 64.0684 56.1832 64.1195C55.9765 64.1877 55.7699 64.2388 55.5632 64.307C55.3565 64.3581 55.1326 64.4093 54.926 64.4604L54.5987 64.5286C54.4954 64.5456 54.3921 64.5627 54.2887 64.5968L53.9615 64.665L53.6343 64.7161C53.2037 64.7843 52.7732 64.8354 52.3426 64.8695C51.9809 64.8865 51.6365 64.9036 51.2748 64.8865C51.4126 64.5797 51.5504 64.2729 51.7054 63.9831C52.2737 62.8752 52.9109 61.8183 53.5826 60.7615C53.7204 60.7104 53.8926 60.6593 54.0476 60.5911ZM68.7901 58.1706C69.0656 57.8127 69.4101 57.5399 69.7717 57.3695C70.2023 57.1649 70.5984 57.1649 70.8395 57.3524C71.3218 57.7274 71.2012 58.7161 70.564 59.5172C70.2884 59.8752 69.944 60.1479 69.5995 60.3183C69.169 60.5229 68.7728 60.5229 68.5145 60.3183C68.0323 59.9774 68.1528 58.9888 68.7901 58.1706ZM57.0615 64.5286H57.0271V68.3979C56.4588 68.5343 55.8732 68.6536 55.2876 68.7218C54.4265 68.8241 53.5654 68.8582 52.7215 68.7559C51.8776 68.6536 51.0509 68.432 50.2759 68.0741C50.4653 67.0513 50.7753 66.0627 51.1715 65.1081C51.5676 65.1252 51.9637 65.1252 52.3598 65.0911C52.7904 65.057 53.2382 65.0059 53.6687 64.9377L53.9959 64.8865L54.3232 64.8184C54.4265 64.8013 54.5298 64.7843 54.6504 64.7502L54.9604 64.682C55.1671 64.6309 55.391 64.5797 55.5976 64.5286C55.8215 64.4604 56.0282 64.4093 56.2349 64.3411C56.3382 64.307 56.4588 64.2729 56.5621 64.2388L56.8721 64.1365C57.0788 64.0684 57.2854 63.9831 57.4921 63.915C57.561 63.8809 57.6127 63.8638 57.6643 63.8468L57.0615 64.5286ZM47.882 59.9433C48.3298 59.8922 48.812 59.432 49.0359 58.7672C49.1737 58.3922 49.1909 58.0172 49.122 57.7104C49.1392 57.6763 49.1564 57.6592 49.1737 57.6422C49.8281 56.5854 50.517 55.5797 51.2059 54.557C51.7226 54.9149 52.2393 55.2558 52.7559 55.5967C52.7387 55.6138 52.7215 55.6308 52.7215 55.6308C52.4459 55.8183 52.2393 56.057 52.1359 56.3638C51.9809 56.7729 51.9465 57.182 52.067 57.574C51.7915 57.9831 51.5159 58.4092 51.2404 58.8354C50.7237 59.6365 50.2242 60.4547 49.7764 61.324C49.1048 61.4093 48.4159 61.4433 47.7442 61.4093C47.5892 61.3922 47.4514 61.3752 47.3136 61.3752C47.4686 60.8638 47.6753 60.4036 47.882 59.9433ZM47.7959 35.8921C47.8303 35.9091 47.8475 35.9262 47.882 35.9432C48.1748 36.0966 48.4331 36.2671 48.6742 36.5057C48.9153 36.7444 49.1048 37.0341 49.1909 37.358C49.2598 37.6137 49.2942 37.8694 49.2598 38.1421C49.122 38.1251 49.0014 38.108 48.8636 38.108C48.3986 38.0739 47.9336 38.0569 47.4858 38.0569C47.4858 37.3239 47.4858 36.591 47.4858 35.858C47.4858 35.841 47.4858 35.841 47.4858 35.8239C47.5892 35.841 47.6925 35.858 47.7959 35.8921ZM52.2048 38.3637L52.2565 38.6023C52.2737 38.6876 52.2909 38.7557 52.3081 38.841L52.3254 38.9262C51.8948 38.7217 51.447 38.5682 50.9992 38.4489C50.517 38.3126 50.0348 38.2273 49.5698 38.1762C49.5698 38.0398 49.5698 37.9035 49.5698 37.7671C49.5698 37.733 49.5525 37.716 49.5525 37.6989C49.5353 37.4773 49.4664 37.2898 49.3975 37.0853C49.277 36.7955 49.0875 36.5228 48.8809 36.2841C48.8464 36.2501 48.8292 36.216 48.7948 36.1819C48.8636 36.1989 48.9325 36.216 49.0014 36.2501C49.1564 36.3012 49.3287 36.3523 49.4837 36.4376C49.8109 36.5569 50.1209 36.7103 50.4309 36.8637C50.5859 36.9489 50.7409 37.0341 50.8959 37.1194C51.0509 37.2046 51.1887 37.3069 51.3265 37.4091C51.602 37.6137 51.8776 37.8353 52.1015 38.0739C52.1359 38.1592 52.1704 38.2444 52.2048 38.3637ZM48.8636 38.4148C48.9842 38.4319 49.122 38.4319 49.2425 38.4489C49.1737 38.8921 49.0187 39.3012 48.8292 39.7103C48.7948 39.7785 48.7603 39.8467 48.7431 39.9148C48.7431 39.9148 48.7603 39.9319 48.7775 39.9319C48.7775 39.9148 48.7775 39.8978 48.7775 39.8978C48.8981 39.7103 49.0359 39.5228 49.1564 39.3523C49.3114 39.0796 49.432 38.7898 49.4837 38.483C49.9659 38.5512 50.4309 38.6364 50.8959 38.7557C51.3954 38.8921 51.8776 39.0626 52.3426 39.3012V39.3182C52.3598 39.6421 52.377 39.983 52.3598 40.3069C52.3598 40.358 52.3598 40.4092 52.3598 40.4603C52.2565 40.4433 52.1359 40.4262 52.0326 40.4092L51.912 40.3921L51.7915 40.3751L51.5504 40.358L51.292 40.3239H51.0509C50.8787 40.3239 50.7237 40.3069 50.5515 40.3069C50.3965 40.3069 50.2242 40.3069 50.0692 40.3069C49.742 40.3239 49.4148 40.341 49.1048 40.3751C48.7775 40.4092 48.4675 40.4433 48.1575 40.4944C47.9336 40.5285 47.727 40.5626 47.5031 40.6137C47.5031 40.5455 47.5031 40.4944 47.5031 40.4262C47.5031 39.7444 47.5031 39.0626 47.5031 38.3807C47.9336 38.3637 48.3986 38.3807 48.8636 38.4148ZM53.6515 40.7842C53.4448 40.716 53.2382 40.6478 53.0143 40.5967L52.7732 40.5285L52.6698 40.5114C52.6698 40.4433 52.6698 40.3921 52.6698 40.3239C52.687 40.0342 52.6698 39.7614 52.6698 39.4717C52.7215 39.5057 52.7732 39.5398 52.8248 39.5739C53.0143 39.6932 53.1865 39.8126 53.3587 39.9489C53.4793 40.2046 53.5654 40.4944 53.6515 40.7842ZM52.6526 40.8183L52.7043 40.8353L52.9454 40.8864C53.2037 40.9546 53.4621 41.0398 53.7204 41.1421C53.7548 41.3978 53.7893 41.6535 53.8065 41.9092C53.8065 42.0285 53.8065 42.1308 53.8065 42.2501C53.7548 42.2501 53.6859 42.233 53.6343 42.233C53.2209 42.1819 52.8248 42.1819 52.4115 42.1819C52.532 41.7387 52.6181 41.2955 52.6526 40.8183ZM54.8054 41.7387C54.8398 41.8069 54.8571 41.858 54.8915 41.9262C54.9776 42.1308 55.0637 42.3353 55.1326 42.5569C55.0121 42.5228 54.8915 42.4887 54.7537 42.4546L54.4782 42.3864L54.2026 42.3353C54.1682 42.3353 54.1509 42.3353 54.1165 42.3183C54.1165 42.1819 54.1165 42.0455 54.1165 41.9092C54.1165 41.7046 54.0821 41.5001 54.0648 41.3126C54.2887 41.4319 54.5126 41.5512 54.7365 41.6876C54.7537 41.7046 54.771 41.7217 54.8054 41.7387ZM56.5793 43.9546C56.6999 44.2615 56.8032 44.5853 56.8721 44.9262C56.9754 45.3694 57.0099 45.8467 57.0271 46.3069C56.9582 46.1365 56.8893 45.966 56.8032 45.7955C56.6482 45.4717 56.4415 45.1819 56.166 44.9262C56.1315 44.8921 56.0799 44.841 56.0454 44.8069C55.9249 44.7387 55.8215 44.6535 55.701 44.5853C55.7182 44.074 55.6837 43.5626 55.5804 43.0512C55.6321 43.0683 55.6838 43.0853 55.7354 43.1194C55.9421 43.2217 56.1488 43.3239 56.3554 43.4433C56.4243 43.5967 56.4932 43.7671 56.5793 43.9546ZM56.3726 47.8581C56.1488 48.0285 55.9593 48.2331 55.856 48.5058C55.6493 49.0342 55.701 49.5456 55.9765 50.0399C56.0454 50.1422 56.1315 50.2444 56.2004 50.3467C56.2004 50.3467 56.2004 50.3467 56.2176 50.3467C56.1143 50.6024 56.0282 50.841 55.9076 51.0967C55.6149 51.7615 55.2876 52.4092 54.926 53.074C54.5643 53.7217 54.1854 54.3524 53.7721 54.9831C53.6343 55.2047 53.4965 55.4092 53.3415 55.6308C53.2898 55.5797 53.2209 55.5456 53.1693 55.5115C52.5665 55.1024 51.9637 54.6933 51.3609 54.3013C51.5159 54.0797 51.6709 53.841 51.8259 53.6024C52.0326 53.2956 52.2393 52.9888 52.4459 52.6819C52.7904 53.0229 53.0832 53.4149 53.3415 53.824C53.3759 53.8922 53.4276 53.9604 53.4793 54.0285C53.4965 54.0285 53.5137 54.0285 53.5137 54.0285C53.5137 54.0115 53.4965 54.0115 53.4965 53.9945C53.3932 53.7729 53.307 53.5342 53.2037 53.2956C53.0487 52.9888 52.8593 52.699 52.6182 52.4433C52.8076 52.1535 52.9798 51.8808 53.152 51.6081C53.3415 51.2672 53.5482 50.9263 53.7376 50.5853C53.9271 50.2444 54.1165 49.8865 54.2887 49.5456C54.6332 48.8467 54.926 48.1308 55.1671 47.3978C55.2015 47.2956 55.236 47.1762 55.2704 47.074C55.6493 47.3296 56.0282 47.5853 56.4071 47.841C56.3899 47.841 56.3899 47.8581 56.3726 47.8581ZM55.3393 46.8012C55.4943 46.2558 55.5976 45.7103 55.6493 45.1478C55.6493 45.0626 55.6665 44.9603 55.6665 44.8751C55.8215 44.9774 55.9593 45.0967 56.0971 45.216C56.4243 45.5228 56.6827 45.8808 56.9238 46.2387C56.9582 46.2899 56.9754 46.324 57.0099 46.3751C57.0099 46.5626 57.0099 46.7671 56.9927 46.9546C56.9754 47.1251 56.9582 47.2956 56.941 47.466C56.9238 47.5853 56.9065 47.6876 56.8893 47.8069C56.8549 47.7728 56.8204 47.7558 56.7688 47.7217C56.2865 47.4319 55.8215 47.1251 55.3393 46.8012ZM53.8754 44.1762C53.9615 43.8012 54.0304 43.4262 54.0648 43.0512C54.0648 42.8978 54.0821 42.7614 54.0993 42.608C54.4782 42.6762 54.8571 42.7614 55.2187 42.8978C55.2187 42.9149 55.2187 42.9319 55.2187 42.9319C55.3393 43.4262 55.3737 43.9205 55.3737 44.4319C55.2532 44.3978 55.1326 44.3467 54.9949 44.3296C54.6676 44.2615 54.3576 44.2615 54.0304 44.2955C53.9615 44.2955 53.8926 44.3126 53.8237 44.3296C53.8582 44.2785 53.8754 44.2274 53.8754 44.1762ZM54.151 44.5853C54.4782 44.5171 54.8226 44.5342 55.1499 44.6365C55.2187 44.6705 55.3049 44.6876 55.3737 44.7217C55.3737 44.858 55.3565 44.9774 55.3393 45.1137C55.2876 45.6251 55.2015 46.1194 55.0637 46.6137C54.5298 46.2558 53.9959 45.8978 53.4621 45.5399C53.5654 45.2501 53.6515 44.9603 53.7376 44.6876C53.8754 44.6535 54.0132 44.6194 54.151 44.5853ZM53.2209 45.3865C53.1348 45.3183 53.0315 45.2671 52.9454 45.199C52.9282 45.1819 52.9109 45.1649 52.8765 45.1478C52.8937 45.1308 52.9109 45.1137 52.9282 45.1137C53.0315 45.0455 53.1348 44.9944 53.2382 44.9262C53.2898 44.8921 53.3415 44.8751 53.3932 44.841C53.3415 45.0285 53.2898 45.199 53.2209 45.3865ZM53.3759 45.8126C53.9098 46.1706 54.461 46.5285 54.9949 46.8865C54.9604 47.0228 54.926 47.1592 54.8743 47.2956C54.6504 48.0115 54.3576 48.7274 54.0304 49.4092C53.5482 50.3808 52.997 51.3013 52.4115 52.2217C52.3943 52.2047 52.377 52.1876 52.3426 52.1706C52.2048 52.0853 52.0843 51.9831 51.9465 51.9149C51.912 51.8978 51.8948 51.8978 51.8604 51.8808C51.6365 51.7615 51.4126 51.6933 51.1887 51.6422C50.827 51.574 50.4653 51.574 50.1037 51.6081C50.0692 51.6081 50.0348 51.6081 50.0003 51.6081C50.7409 50.5683 51.447 49.5285 52.067 48.4376C52.4631 47.7558 52.8248 47.074 53.152 46.3581C53.2382 46.1876 53.307 46.0001 53.3759 45.8126ZM50.2242 51.9319C50.6031 51.8638 50.982 51.8638 51.3609 52.0001C51.6881 52.1024 51.9809 52.2899 52.2565 52.4944C51.8948 53.0399 51.5159 53.6024 51.137 54.1479C50.4653 53.7047 49.8109 53.2615 49.1564 52.8183C49.2425 52.6819 49.3459 52.5626 49.432 52.4263C49.5181 52.3069 49.587 52.2047 49.6731 52.0853C49.8626 52.0172 50.0348 51.966 50.2242 51.9319ZM50.982 54.3865C50.3103 55.3581 49.6559 56.3297 49.0187 57.3524C48.9842 57.2842 48.9325 57.2161 48.8809 57.1479L47.2964 55.5456C47.8475 54.6933 48.4159 53.8581 49.0014 53.0399C49.6559 53.5001 50.3103 53.9433 50.982 54.3865ZM49.9659 61.5456C50.6376 61.4604 51.3092 61.324 51.9809 61.1706L52.4976 61.0513L52.6354 61.0172L52.7043 61.0002H52.7215H52.7387H52.7732L53.0315 60.932C53.0832 60.9149 53.1348 60.8979 53.1693 60.8808C52.5665 61.8354 51.9809 62.824 51.4642 63.8468C51.292 64.1877 51.137 64.5286 50.9992 64.8695C50.2587 64.8354 49.5353 64.7161 48.8464 64.4945C48.967 64.0172 49.1048 63.5399 49.277 63.0797C49.4837 62.5513 49.7076 62.0399 49.9659 61.5456ZM57.406 66.5059L60.9366 62.5854V66.557C60.6094 66.3866 60.1272 66.3866 59.6105 66.5741C59.5244 66.6081 59.4383 66.6422 59.3521 66.6763C58.6977 67.0002 58.2843 67.5627 58.3188 68.04C58.1466 68.0911 57.9916 68.1593 57.8193 68.1934C57.6816 68.2275 57.5266 68.2786 57.3888 68.3127V66.5059H57.406ZM57.4577 44.3978C57.6988 44.6705 57.9054 44.9944 58.0777 45.3183L58.181 45.574C58.1982 45.608 58.2155 45.6592 58.2327 45.7103L58.2843 45.8467L58.3705 46.1024C58.3705 46.1194 58.3877 46.1365 58.3877 46.1706L58.4049 46.2387L58.4393 46.3751L58.5082 46.6478C58.5255 46.7501 58.5427 46.8353 58.5599 46.9206L58.6116 47.1933C58.6288 47.2785 58.6288 47.3808 58.646 47.4831L58.6805 47.7728C58.6805 47.8581 58.6805 47.9603 58.6977 48.0626V48.3524C58.6977 48.4547 58.6977 48.5399 58.6977 48.6422C58.6805 49.4092 58.5771 50.1763 58.3877 50.9433C58.026 52.4604 57.3888 53.9433 56.6138 55.3581C56.2349 56.074 55.8043 56.7558 55.3737 57.4547C54.926 58.1536 54.4782 58.8354 54.0304 59.5342C53.8065 59.8752 53.5826 60.2331 53.3587 60.574C53.2209 60.6252 53.0659 60.6593 52.9282 60.7104L52.6698 60.7956H52.6354H52.6182L52.5493 60.8127L52.4287 60.8468L51.912 60.949C51.3092 61.0854 50.7065 61.2047 50.0864 61.2899C50.4998 60.5058 50.982 59.7388 51.4642 59.0058C51.7054 58.6479 51.9465 58.2899 52.1704 57.932C52.2048 58.0001 52.222 58.0513 52.2565 58.1195C52.3254 58.2388 52.4115 58.3411 52.4976 58.4604C52.5665 58.5115 52.6526 58.5627 52.7215 58.6138C52.8248 58.6138 52.9109 58.6479 53.0143 58.6308C53.2037 58.5967 53.3415 58.4945 53.4965 58.3752C53.5309 58.3411 53.5826 58.2899 53.6343 58.2388C53.7032 58.1365 53.7893 58.0172 53.8582 57.9149C53.9098 57.7956 53.9615 57.6763 53.9959 57.557C54.151 57.0626 54.0821 56.6024 53.8065 56.1592C53.7376 56.057 53.6515 55.9547 53.5654 55.8695C53.7204 55.6479 53.8582 55.4092 54.0132 55.1876C54.4265 54.5399 54.8226 53.9092 55.1843 53.2444C55.5632 52.5967 55.8904 51.9319 56.1832 51.2501C56.2865 51.0115 56.3899 50.7728 56.476 50.5172C56.5277 50.5172 56.5793 50.5342 56.631 50.5172C56.8032 50.5001 56.9238 50.3978 57.0443 50.2956C57.0788 50.2615 57.1304 50.2274 57.1649 50.1763C57.2338 50.074 57.3027 49.9888 57.3543 49.8865C57.3888 49.7842 57.4404 49.6649 57.4749 49.5626C57.6127 49.1194 57.561 48.7103 57.3027 48.3353C57.251 48.2501 57.1821 48.1819 57.1304 48.1137C57.1649 47.9262 57.1821 47.7558 57.2166 47.5853C57.2338 47.3978 57.251 47.2274 57.2682 47.0399C57.3199 46.324 57.2854 45.591 57.1477 44.8921C57.0788 44.5512 56.9754 44.1933 56.8377 43.8694C56.8377 43.8524 56.8204 43.8353 56.8204 43.8353C57.0616 43.9717 57.2682 44.1762 57.4577 44.3978ZM55.9938 42.8978C55.9421 42.8637 55.8904 42.8467 55.8215 42.8296C55.7354 42.7785 55.6493 42.7614 55.5632 42.7103C55.5288 42.7103 55.4943 42.6933 55.4771 42.6762C55.4254 42.4887 55.3737 42.3012 55.3049 42.1308C55.5632 42.3524 55.7871 42.6251 55.9938 42.8978ZM54.3576 40.9887C54.3921 41.0569 54.4265 41.108 54.4782 41.1592C54.3232 41.0739 54.151 40.9887 53.9959 40.9205C53.9615 40.733 53.9098 40.5455 53.8582 40.3751C54.0304 40.5626 54.2026 40.7842 54.3576 40.9887ZM52.6354 38.6876L52.7904 38.9092L52.8593 39.0285L52.9282 39.1307L53.0659 39.3523C53.0315 39.3353 53.0143 39.3182 52.9798 39.3012C52.8765 39.233 52.7559 39.1648 52.6354 39.0967V39.0455L52.6009 38.7898C52.6009 38.7217 52.5837 38.6705 52.5665 38.6023L52.6354 38.6876ZM44.8164 32.3296C45.4708 32.5171 46.108 32.7216 46.7281 32.9773C47.3481 33.2159 47.9509 33.4887 48.5364 33.8296C49.1048 34.1705 49.6387 34.5625 50.1209 35.0228C50.362 35.2614 50.5859 35.5 50.7926 35.7557L51.0165 36.0455V36.0626L51.0337 36.0966L51.0681 36.1478C51.1542 36.3012 51.2576 36.4376 51.3265 36.5739C51.4815 36.8296 51.6365 37.1023 51.7743 37.3751C51.6709 37.2898 51.5676 37.2216 51.4815 37.1364C51.3265 37.0171 51.1715 36.9319 51.0165 36.8296C50.8615 36.7273 50.7065 36.6421 50.5342 36.5569C49.8453 36.1819 49.1048 35.9262 48.3814 35.7046C48.3125 35.6194 48.2436 35.5171 48.1747 35.4319C47.8303 34.9546 47.5547 34.4262 47.3136 33.8807C47.2792 33.8296 47.262 33.7614 47.2275 33.6932H47.2103C47.2103 34.2728 47.2103 34.8353 47.2103 35.4148C46.9692 35.3637 46.7281 35.3296 46.5042 35.2785C45.9186 35.1932 45.3503 35.125 44.7819 35.0569C44.9025 34.7671 44.9369 34.4944 44.8853 34.2216L44.5064 32.1932C44.6269 32.2614 44.7303 32.2955 44.8164 32.3296ZM43.6797 41.5853C43.1113 41.7728 42.5602 41.9433 42.0263 42.1308C41.7508 42.233 41.4924 42.3183 41.2169 42.4205C40.9585 42.5228 40.683 42.6251 40.4246 42.7274C40.1663 42.8296 39.908 42.9149 39.6496 43.0342C39.3913 43.1364 39.1502 43.2387 38.9091 43.358C36.9112 44.2103 35.1201 45.1137 33.4667 46.0001C33.2601 46.1024 33.0534 46.2217 32.864 46.324C32.6573 46.4262 32.4678 46.5456 32.2784 46.6478C32.2267 46.6819 32.1751 46.699 32.1234 46.7331L31.4517 41.9944C31.5206 41.9603 31.5895 41.9433 31.6412 41.9262C31.8995 41.841 32.1578 41.7387 32.4162 41.6535C32.9329 41.466 33.4667 41.2614 34.0006 41.0739C34.1384 41.0228 34.259 40.9717 34.3968 40.9376C34.879 40.9035 35.3957 40.733 35.8951 40.4262C36.0846 40.3751 36.2912 40.3069 36.4807 40.2387C36.7735 40.1535 37.049 40.0512 37.3418 39.983C37.9274 39.8296 38.5129 39.6592 39.1157 39.5228C39.4085 39.4546 39.7185 39.3694 40.0285 39.3012C40.3385 39.233 40.6485 39.1819 40.9585 39.1137C41.1135 39.0796 41.2685 39.0455 41.4235 39.0114C41.5785 38.9773 41.7335 38.9603 41.9058 38.9262C42.2158 38.8751 42.543 38.8069 42.853 38.7728C43.1802 38.7217 43.5075 38.6876 43.8175 38.6364C43.9897 38.6194 44.1447 38.6023 44.3169 38.5682C44.4719 38.5512 44.6441 38.5342 44.7991 38.5171C45.1264 38.483 45.4708 38.4489 45.798 38.4148C46.1253 38.3807 46.4697 38.3637 46.8142 38.3467C46.952 38.3467 47.0897 38.3467 47.2275 38.3467C47.2275 38.9262 47.2275 39.5228 47.2275 40.1194C47.1931 40.1194 47.1931 40.1194 47.1758 40.1194C46.9003 40.0171 46.6247 39.983 46.3492 40.0512C45.798 40.1705 45.4019 40.5114 45.1436 41.0058C45.1264 41.0398 45.1091 41.091 45.0919 41.1251C44.6097 41.2955 44.1447 41.4489 43.6797 41.5853ZM13.747 50.6535C13.6609 50.7217 13.5748 50.7728 13.5231 50.824C13.127 49.716 12.7481 48.6422 12.3692 47.5512C12.3175 47.4149 12.2831 47.2956 12.2314 47.1592C12.0937 46.8865 12.1281 46.6649 12.3175 46.4092C13.5059 44.8751 14.3154 43.2046 14.7976 41.4489C15.9859 40.8694 17.4671 40.2217 19.2582 39.591L19.3788 46.3069C19.6199 46.0342 19.861 45.7615 20.1193 45.4717C20.3777 45.199 20.636 44.9603 20.946 44.7387C21.0149 44.6876 21.0666 44.6194 21.1527 44.5512C21.2216 44.483 21.3077 44.4319 21.411 44.3637C21.6694 44.108 21.9277 43.8353 22.1688 43.5114C22.4099 43.1876 22.5477 42.8467 22.5649 42.4887C22.5649 42.1308 22.4099 41.8239 22.1344 41.5512C21.8588 41.2955 21.5488 41.1592 21.2043 41.1592C20.9288 41.1592 20.6877 41.2273 20.4638 41.3467C20.2399 41.466 20.016 41.6364 19.8093 41.8069L19.7577 39.4035C19.9815 39.3353 20.1882 39.2501 20.4121 39.1819C21.9277 38.6876 23.6327 38.1932 25.4927 37.733C26.905 37.3921 28.4206 37.0682 30.0223 36.7444L30.7628 41.8751C30.7628 41.8751 30.7628 41.8751 30.7456 41.8751C30.2461 42.0626 29.7467 42.2671 29.2645 42.4546C29.0233 42.5569 28.7822 42.6421 28.5583 42.7444C28.3172 42.8467 28.0933 42.9319 27.8522 43.0342C27.3872 43.2217 26.9394 43.4262 26.4916 43.6137C26.2678 43.6989 26.0439 43.8012 25.8372 43.8865C25.6305 43.9887 25.4238 44.074 25.2 44.1762C24.7866 44.3637 24.3733 44.5512 23.9772 44.7387C23.7705 44.841 23.581 44.9262 23.3916 45.0115L23.2366 45.0796L23.1677 45.1137L23.0988 45.1478C22.9955 45.1819 22.9094 45.233 22.806 45.2842C22.4271 45.4717 22.0655 45.6421 21.7038 45.8296C20.2743 46.5456 19.0343 47.2444 17.9665 47.8751C17.7082 48.0285 17.4498 48.1819 17.2087 48.3353C16.9676 48.4887 16.7265 48.6251 16.5026 48.7785C16.2787 48.9149 16.072 49.0512 15.8826 49.1876C15.7793 49.2558 15.6932 49.3069 15.5898 49.3751C15.5037 49.4433 15.4004 49.4944 15.3143 49.5626C14.9526 49.8013 14.6426 50.0228 14.3842 50.1933C14.1431 50.3638 13.9192 50.5342 13.747 50.6535ZM19.8093 42.5399C19.8093 42.5058 19.8265 42.4717 19.8438 42.4035C19.8782 42.3353 19.8954 42.2842 19.9299 42.216C19.9988 42.1478 20.0677 42.0796 20.1538 42.0114C20.2399 41.9433 20.3432 41.8751 20.4293 41.841C20.4638 41.8069 20.4982 41.7898 20.5499 41.7898C20.6016 41.7898 20.636 41.7898 20.6704 41.7898C20.8599 41.8239 20.9977 41.8921 21.1355 42.0455C21.256 42.1989 21.3249 42.3864 21.3249 42.6251C21.3249 42.7103 21.3249 42.8126 21.3077 42.8978C21.2905 42.983 21.2732 43.0853 21.2388 43.1705C21.1527 43.3751 21.0493 43.5967 20.9116 43.8012C20.7738 44.0228 20.6188 44.2274 20.4466 44.449C20.3604 44.5683 20.2571 44.6876 20.1538 44.824C20.0504 44.9433 19.9643 45.0626 19.861 45.199L19.8093 42.5399ZM31.6067 36.4546C32.709 36.2501 33.8284 36.0455 35.0168 35.875C35.5507 35.7898 36.0846 35.7216 36.6357 35.6535L36.8079 36.8637C36.1018 36.608 35.0857 36.8126 34.1729 37.4432C32.9329 38.2955 32.399 39.6251 32.9501 40.4092C33.1051 40.6308 33.329 40.7842 33.6045 40.8694C33.1567 41.0228 32.7262 41.1933 32.2956 41.3467C32.0373 41.4489 31.7789 41.5342 31.5206 41.6364C31.4862 41.6535 31.4345 41.6705 31.4001 41.6876L30.8317 37.6478L31.6067 36.4887C31.5895 36.4546 31.6067 36.4546 31.6067 36.4546ZM46.7969 38.0739C46.4525 38.091 46.108 38.108 45.7808 38.1421C45.4364 38.1762 45.1091 38.2103 44.7819 38.2444C44.6097 38.2614 44.4547 38.2785 44.2825 38.2955C44.1102 38.3126 43.9552 38.3296 43.783 38.3637C43.4558 38.4148 43.1286 38.4489 42.8013 38.5001C42.4741 38.5512 42.1641 38.6023 41.8369 38.6705C41.6819 38.7046 41.5269 38.7217 41.3546 38.7557C41.1996 38.7898 41.0446 38.8239 40.8896 38.841C40.5796 38.9092 40.2524 38.9773 39.9596 39.0285C39.6496 39.0967 39.3396 39.1819 39.0468 39.2501C38.444 39.3864 37.8413 39.5569 37.2557 39.7103C37.0662 39.7614 36.8768 39.8296 36.6874 39.8808C37.3418 39.2501 37.6863 38.5001 37.6001 37.8694H37.6174L37.2729 35.5682C37.7207 35.5171 38.1685 35.466 38.6335 35.4319C39.4429 35.3637 40.2524 35.3296 41.0791 35.2955C40.9758 35.7046 41.0102 36.0966 41.2513 36.4035C41.5441 36.7785 42.0435 36.9148 42.6463 36.8126C43.0597 36.7444 43.4902 36.5398 43.8691 36.2501C44.1964 35.9944 44.4547 35.7046 44.6441 35.3978C45.2469 35.4489 45.8497 35.5171 46.4697 35.6194L46.7281 35.6535C46.8142 35.6705 46.9003 35.6875 46.9864 35.7046C47.0725 35.7216 47.1586 35.7387 47.2447 35.7557C47.2447 36.5228 47.2447 37.2728 47.2447 38.0398C47.0897 38.0569 46.9347 38.0739 46.7969 38.0739ZM41.5785 35.3125C41.8713 35.3125 42.1641 35.3125 42.4569 35.3125C43.008 35.3125 43.5591 35.3466 44.1102 35.3807C43.9725 35.5682 43.8002 35.7557 43.5936 35.9091C43.2836 36.1648 42.9047 36.3182 42.5602 36.3864C42.1469 36.4546 41.8024 36.3864 41.6302 36.1478C41.458 35.9432 41.458 35.6364 41.5785 35.3125ZM44.2997 35.0569C43.6797 35.0057 43.0769 34.9887 42.4741 34.9716C42.233 34.9716 41.9919 34.9716 41.7508 34.9716C41.9058 34.733 42.0952 34.5114 42.3535 34.3069C42.6808 34.0682 43.0424 33.8978 43.3869 33.8296C43.8175 33.7614 44.1619 33.8296 44.3341 34.0682C44.5236 34.3069 44.4891 34.6819 44.2997 35.0569ZM38.8574 31.2728C39.0296 31.2898 39.1846 31.3068 39.3568 31.3239L39.8563 31.375C40.1835 31.4091 40.528 31.4432 40.8552 31.4943C41.1824 31.5455 41.5269 31.5966 41.8541 31.6478L42.853 31.8353L43.1113 31.8864L43.3525 31.9546L43.8347 32.0739L44.0069 32.108L44.2652 33.4887C43.9897 33.3694 43.6625 33.3182 43.2836 33.3864C42.8702 33.4546 42.4397 33.6591 42.0608 33.9489C41.6647 34.2557 41.3719 34.6137 41.1996 34.9716C40.3041 34.9887 39.4429 35.0398 38.599 35.108C38.134 35.1421 37.669 35.1762 37.2212 35.2273L36.6357 31.1364C37.3763 31.1705 38.1168 31.2216 38.8574 31.2728ZM36.584 35.3125C36.0329 35.3807 35.4818 35.4489 34.9479 35.5341C33.8801 35.7046 32.8467 35.8921 31.8478 36.0626L35.2234 31.0512C35.4646 31.0682 35.7229 31.0853 35.964 31.0853L36.584 35.3125ZM35.8435 30.1478L35.9296 30.7443C35.7746 30.7273 35.6196 30.7273 35.4473 30.7103L35.8435 30.1478ZM32.7951 30.9659L33.794 30.983H34.0523L34.2934 31H34.4657L34.6895 30.6762L34.3107 30.6591L34.0523 30.6421H33.794L33.0017 30.625L35.3784 27.0796L35.6712 29.1762L34.4484 31L30.935 36.216C30.8145 36.233 30.7112 36.2501 30.5906 36.2841L30.3667 34.5455L32.7951 30.9659ZM15.6932 32.5682L16.1754 32.4319C16.3304 32.3978 16.5026 32.3637 16.6576 32.3125L17.6393 32.0909C17.7943 32.0569 17.9665 32.0228 18.1215 31.9887L18.621 31.8864L19.1204 31.7841C19.2754 31.75 19.4477 31.7159 19.6199 31.6989L20.6188 31.5455C20.791 31.5284 20.946 31.4943 21.1182 31.4773L21.6349 31.4091L22.6338 31.2898C22.961 31.2557 23.3055 31.2216 23.6327 31.2046C23.9599 31.1705 24.3044 31.1364 24.6488 31.1193C25.3205 31.0853 25.9922 31.0341 26.6811 31.0171C27.0083 31 27.3528 30.983 27.6972 30.983L28.7133 30.9659H29.23H29.7295H30.7456C31.1589 30.9659 31.5895 30.9659 32.0028 30.983L29.7122 34.375L29.7295 34.3921H29.6606L29.9534 36.4376C28.3345 36.7444 26.8016 37.0853 25.3894 37.4262C23.5122 37.8864 21.7899 38.3807 20.2743 38.8751C20.0849 38.9432 19.9127 38.9944 19.7232 39.0626L19.6543 35.5341L19.1549 35.5512L19.2238 39.233C17.5187 39.8296 16.072 40.4433 14.9009 41.0058C15.1937 39.8296 15.3487 38.6194 15.3831 37.3751C15.4348 35.8069 15.2626 34.2898 14.8492 32.8239L15.6932 32.5682ZM10.1647 33.4034C10.2853 33.0625 10.4747 32.7387 10.6642 32.4319C10.9053 32.0569 11.2498 31.8012 11.6975 31.6989C12.2659 31.5796 12.662 31.75 12.8687 32.2784C13.0409 32.7557 13.1614 33.25 13.2131 33.7444C13.3337 35.0739 13.0064 36.3182 12.5414 37.5626C12.0592 38.8239 11.4736 40.0342 10.647 41.1251C10.5436 41.2614 10.4403 41.3637 10.1992 41.6194C9.97529 40.9546 9.75139 40.4262 9.64806 39.8808C9.20027 37.6819 9.42417 35.5171 10.1647 33.4034ZM10.7331 64.3752C8.01192 63.4206 6.16912 60.9661 6.08301 58.1365C6.03134 56.432 6.41023 54.8297 7.20247 53.3126C8.13248 51.5399 9.26916 49.9035 10.6125 48.4206C10.6642 48.3524 10.7503 48.3012 10.8364 48.216C11.2153 49.3581 11.5942 50.449 11.9903 51.591C11.8353 51.7103 11.6803 51.8297 11.5253 51.966C9.3725 53.7217 8.44249 55.9717 8.92472 58.7161C9.28639 60.7956 11.2497 62.6024 13.3509 62.9093C13.5059 62.9434 13.6781 62.9434 13.8331 62.9093C14.0915 62.8752 14.2637 62.7218 14.3154 62.4661C14.3498 62.2104 14.2465 62.0229 14.0226 61.9036C13.902 61.8354 13.7642 61.8013 13.6437 61.7672C11.9559 61.2558 10.4747 58.9377 11.887 56.8411C12.2659 56.2956 12.662 55.7672 13.3681 55.4092C14.3842 58.3581 15.3659 61.2218 16.3648 64.1195C14.4704 64.9718 12.6103 65.0229 10.7331 64.3752ZM14.9181 55.0513C16.7609 54.7104 18.5693 56.1081 19.2926 57.8638C20.0332 59.6024 19.5854 62.432 17.846 63.3695C16.8298 60.6081 15.8998 57.8297 14.9181 55.0513ZM51.4126 42.2671C49.9487 42.4376 48.5709 42.8467 47.262 43.341C46.6075 43.5967 45.9703 43.8694 45.3503 44.1421C44.7303 44.4319 44.1275 44.7046 43.5247 45.0115C42.3191 45.591 41.1824 46.2217 40.0802 46.8353C37.8929 48.1137 35.8607 49.4262 34.0351 50.7388C33.5873 51.0626 33.1223 51.4035 32.6917 51.7274C32.5884 51.8126 32.4678 51.8808 32.3645 51.966C32.244 52.0342 32.1406 52.1194 32.0373 52.2047C31.8134 52.3751 31.6067 52.5285 31.4001 52.699C30.9867 53.0229 30.5734 53.3467 30.1773 53.6535C30.0739 53.7388 29.9706 53.8069 29.8845 53.8922C29.7811 53.9774 29.695 54.0626 29.5917 54.1308C29.4022 54.2842 29.2128 54.4547 29.0234 54.6081C28.6445 54.932 28.2828 55.2388 27.9211 55.5285C27.7317 55.682 27.5767 55.8354 27.4044 55.9888C27.2322 56.1422 27.06 56.2786 26.8878 56.432C26.5605 56.7217 26.2161 57.0115 25.9061 57.2842C25.82 57.3524 25.7511 57.4376 25.665 57.5058L25.5961 57.557L25.5444 57.6081L25.4239 57.7274C25.2688 57.8638 25.1311 58.0001 24.9761 58.1365C24.6833 58.4092 24.3905 58.682 24.1149 58.9377C23.8394 59.1933 23.5638 59.449 23.3055 59.7047C22.7888 60.2161 22.3066 60.6763 21.8588 61.1195C21.7899 61.1877 21.7382 61.2388 21.6866 61.307C21.7899 61.0172 21.876 60.7274 21.9449 60.4036C22.3755 58.4433 22.3066 57.1649 21.5143 55.2899C20.2743 52.3751 17.3121 50.1933 14.0398 50.9263C14.1948 50.8069 14.4015 50.6706 14.6254 50.5001C14.9009 50.3126 15.2109 50.1081 15.5554 49.8694C15.6415 49.8183 15.7276 49.7501 15.8309 49.6819C15.917 49.6137 16.0204 49.5626 16.1237 49.4944C16.3304 49.3581 16.5371 49.2387 16.7437 49.0853C16.9676 48.9319 17.1915 48.7956 17.4498 48.6592C17.691 48.5058 17.9493 48.3524 18.2076 48.199C19.2754 47.5853 20.4982 46.8865 21.9105 46.1706C22.2549 45.983 22.6166 45.8126 22.9955 45.6251C23.0816 45.574 23.1849 45.5399 23.271 45.4887L23.3399 45.4546C23.3572 45.4376 23.3916 45.4376 23.4088 45.4205L23.5638 45.3524C23.7533 45.2671 23.9599 45.1649 24.1494 45.0796C24.5455 44.8921 24.9588 44.7046 25.3722 44.5171C25.5789 44.4149 25.7855 44.3296 25.9922 44.2274C26.2161 44.1421 26.4228 44.0399 26.6466 43.9546C27.0944 43.7671 27.5422 43.5796 27.99 43.3921C28.2139 43.2899 28.455 43.1876 28.6789 43.1024C28.9028 43.0001 29.1611 42.9149 29.385 42.8296C29.85 42.6421 30.315 42.4546 30.7973 42.2842L31.3828 46.4433C30.6939 46.1876 29.6606 46.3751 28.7478 47.0228C27.68 47.7558 27.1289 48.8467 27.3528 49.6308C27.2839 49.6649 27.215 49.716 27.1461 49.7672C26.5605 50.1422 26.0094 50.4831 25.51 50.824C25.0105 51.1649 24.5455 51.4717 24.1322 51.7615C23.9255 51.8978 23.7188 52.0342 23.5294 52.1706C23.3399 52.3069 23.1677 52.4263 22.9955 52.5626C21.6694 53.5342 20.946 54.0456 20.946 54.0456L21.1699 54.3524C21.1699 54.3524 21.876 53.841 23.2194 52.8524C23.3916 52.7331 23.5638 52.5967 23.7533 52.4604C23.9427 52.324 24.1494 52.2047 24.3561 52.0513C24.7694 51.7615 25.2344 51.4547 25.7339 51.1138C26.2161 50.7728 26.7672 50.4319 27.3528 50.0569C27.4044 50.0228 27.4561 49.9887 27.525 49.9547C27.525 49.9547 27.525 49.9717 27.5422 49.9717C28.0933 50.7558 29.54 50.6876 30.7628 49.8183C31.7445 49.1365 32.2784 48.1649 32.1923 47.3978L32.1578 47.1421C32.244 47.091 32.3473 47.0399 32.4334 46.9887C32.6228 46.8694 32.8295 46.7671 33.019 46.6649C33.2084 46.5626 33.4151 46.4433 33.6218 46.341C35.2579 45.4546 37.049 44.5512 39.0296 43.6989C39.2879 43.5967 39.5291 43.4774 39.7702 43.3751C40.0285 43.2728 40.2869 43.1705 40.5452 43.0683C40.8035 42.966 41.0619 42.8637 41.3202 42.7614C41.5785 42.6762 41.8541 42.5739 42.1124 42.4717C42.6463 42.2842 43.1975 42.0967 43.7658 41.9262C44.1619 41.7898 44.5752 41.6705 44.9886 41.5512C44.9886 41.5853 44.9886 41.6194 44.9886 41.6364C45.023 41.7046 45.0575 41.7898 45.1091 41.858C45.2125 41.9774 45.3675 42.0285 45.5397 42.0626C45.5914 42.0796 45.6603 42.0967 45.7119 42.0967C45.8325 42.0967 45.953 42.0967 46.0736 42.0967C46.1942 42.0626 46.2975 42.0455 46.4008 42.0114C46.8314 41.8751 47.1414 41.6023 47.3308 41.1933C47.3653 41.108 47.3997 41.0228 47.417 40.9376C47.6753 40.8864 47.9164 40.8523 48.1747 40.8012C48.4848 40.7671 48.7948 40.716 49.1048 40.6819C49.4148 40.6478 49.742 40.6308 50.052 40.6137C50.207 40.6137 50.362 40.6137 50.5342 40.6137C50.6892 40.6137 50.8615 40.6137 51.0165 40.6308H51.2576L51.4987 40.6648L51.7398 40.6819L51.9809 40.716C52.1015 40.733 52.222 40.7501 52.3598 40.7842C52.3254 41.2614 52.2393 41.7558 52.1015 42.216C51.8604 42.216 51.6365 42.2501 51.4126 42.2671ZM51.6192 44.2274L51.8431 43.7671L52.0498 43.3069L52.1531 43.0853L52.1876 43.0342C52.2048 43.0001 52.2048 42.983 52.2048 42.966L52.2393 42.8467C52.2737 42.7444 52.3081 42.6251 52.3598 42.5228C52.7732 42.5058 53.2037 42.5228 53.6343 42.5569C53.7032 42.5569 53.7721 42.5739 53.8237 42.5739C53.8237 42.7274 53.8065 42.8808 53.7893 43.0171C53.7548 43.3921 53.6859 43.7501 53.5998 44.1251C53.5826 44.2103 53.5654 44.2955 53.5309 44.3808C53.3587 44.3978 53.1865 44.4149 53.0143 44.4149C52.532 44.4319 52.0498 44.3808 51.5848 44.3126C51.5848 44.2785 51.602 44.2444 51.6192 44.2274ZM48.3814 49.3751C49.1737 48.2842 49.9487 47.1762 50.6548 46.0171C50.9476 45.5228 51.2231 45.0285 51.4642 44.5342C52.0154 44.9092 52.5837 45.2671 53.1348 45.6421C53.0487 45.8467 52.9798 46.0512 52.8765 46.2728C52.5665 46.9717 52.2048 47.6535 51.8259 48.3353C51.1542 49.4774 50.4137 50.5853 49.6214 51.6933C49.3975 51.7103 49.1564 51.7274 48.9153 51.7444C48.2436 51.7615 47.572 51.6933 46.9175 51.5569C46.8831 51.5399 46.8314 51.5399 46.7969 51.5399C47.3308 50.8069 47.8475 50.091 48.3814 49.3751ZM46.0047 52.6308C46.2458 52.2729 46.5042 51.9319 46.7625 51.574C47.4342 52.0172 48.0886 52.4604 48.7603 52.9035C48.192 53.7047 47.6236 54.5229 47.0897 55.3581L45.3503 53.6024C45.5569 53.2615 45.7808 52.9547 46.0047 52.6308ZM45.023 60.574C44.6614 60.3524 44.3514 60.0797 44.0586 59.7729C43.8691 59.5342 43.7313 59.2274 43.6452 58.9377C43.628 58.8695 43.6108 58.7842 43.5936 58.699L43.5591 58.5797L43.5419 58.4604C43.5419 58.3922 43.5419 58.2899 43.5247 58.2047V58.1536V58.0854V57.9661C43.5419 57.3183 43.7141 56.6706 43.9552 56.057C44.1964 55.4433 44.5236 54.8638 44.8853 54.3013C44.9714 54.1649 45.0575 54.0456 45.1436 53.9092L46.9003 55.682C46.7625 55.9035 46.6419 56.1251 46.5042 56.3467C46.0908 57.0626 45.7292 57.8127 45.4364 58.5967C45.1953 59.2104 45.023 59.8922 45.023 60.574ZM45.3675 59.8581C45.3675 59.7558 45.4019 59.6706 45.4192 59.5683C45.4364 59.5172 45.4364 59.4661 45.4536 59.4149L45.488 59.2615L45.5225 59.1081C45.5225 59.0911 45.5397 59.057 45.5397 59.0399L45.5742 58.9717L45.6775 58.682C45.9703 57.9149 46.3319 57.182 46.7281 56.4831C46.8486 56.2956 46.952 56.0911 47.0725 55.9036L48.1575 56.9945C47.7442 57.1138 47.3309 57.557 47.1242 58.1536C46.8486 58.9717 47.0553 59.7729 47.572 59.9433C47.3653 60.4036 47.1758 60.8638 47.0208 61.3411C46.5731 61.2729 46.1253 61.1536 45.7119 60.9661C45.5569 60.8979 45.4191 60.8297 45.2641 60.7445C45.2814 60.4377 45.2986 60.1479 45.3675 59.8581ZM46.8658 61.9888C46.7625 62.4661 46.6936 62.9604 46.7108 63.4547C46.6764 63.4377 46.6592 63.4206 46.6247 63.3865L46.5042 63.2843C46.4697 63.2502 46.4353 63.2161 46.4008 63.182C46.108 62.9093 45.8497 62.5854 45.6603 62.2274C45.4708 61.8695 45.3675 61.4774 45.3158 61.0854V61.0683C45.4192 61.1195 45.5225 61.1706 45.6258 61.2218C46.0564 61.4093 46.5214 61.5286 46.9692 61.6138C46.9347 61.699 46.9003 61.8524 46.8658 61.9888ZM48.4159 65.3297C48.347 65.7729 48.3298 66.2161 48.347 66.6763C48.3298 66.6422 48.2953 66.6252 48.2781 66.6081C47.727 65.9945 47.2964 65.2615 47.107 64.4775C47.0725 64.307 47.0381 64.1536 47.0208 63.9831L47.2792 64.1365C47.6581 64.3411 48.0542 64.5286 48.4675 64.665C48.4848 64.665 48.502 64.682 48.5192 64.682C48.4848 64.8865 48.4503 65.1081 48.4159 65.3297ZM48.5709 64.4093C48.1748 64.2729 47.7959 64.1025 47.417 63.8979L47.1414 63.7445C47.0897 63.7104 47.0381 63.6763 46.9864 63.6422C46.9864 63.5229 46.9864 63.3865 46.9864 63.2502C46.9864 62.8411 47.0381 62.449 47.1414 62.0399C47.1758 61.8865 47.2103 61.7502 47.262 61.6138C47.417 61.6308 47.5892 61.6479 47.7442 61.6649C48.3814 61.699 49.0186 61.6649 49.6387 61.5968C49.4148 62.057 49.2081 62.5172 49.0187 62.9945C48.8464 63.4547 48.6914 63.932 48.5881 64.4263C48.5709 64.4093 48.5709 64.4093 48.5709 64.4093ZM49.897 68.7559C49.8281 69.2672 49.8109 69.7616 49.8109 70.2729C49.742 70.1707 49.6559 70.0513 49.587 69.932C49.1737 69.2502 48.8809 68.5002 48.7259 67.7161C48.7086 67.5797 48.6914 67.4604 48.6742 67.3411C48.7948 67.4434 48.9153 67.5456 49.0531 67.6479L49.3114 67.8354L49.587 68.0229C49.6903 68.0741 49.7764 68.1252 49.8798 68.1934C49.9142 68.2104 49.9487 68.2275 49.9831 68.2445C49.9487 68.3979 49.9314 68.5684 49.897 68.7559ZM50.0003 67.9377C49.9142 67.8866 49.8109 67.8354 49.7248 67.7843L49.4664 67.6138L49.2081 67.4263C49.0186 67.2729 48.8292 67.1195 48.6398 66.9491C48.6053 66.4206 48.6053 65.8922 48.6742 65.3638C48.7086 65.1593 48.7431 64.9547 48.7775 64.7502C49.4664 64.9547 50.1726 65.074 50.8787 65.1081C50.4998 66.0286 50.207 66.9831 50.0176 67.9547C50.0176 67.9547 50.0176 67.9377 50.0003 67.9377ZM50.1553 68.7729C50.1726 68.6195 50.1898 68.4832 50.2242 68.3297C50.9992 68.6877 51.8259 68.9093 52.687 68.9945C53.5654 69.0968 54.4437 69.0627 55.3221 68.9604C55.9076 68.8922 56.476 68.7729 57.0271 68.6366V71.6195C56.6482 71.415 56.0282 71.4491 55.4599 71.7389C54.926 72.0116 54.5471 72.4377 54.461 72.8298C54.1337 72.7957 53.7893 72.7275 53.4621 72.6423L53.3071 72.6082L53.152 72.557L52.8593 72.4718C52.7559 72.4377 52.6698 72.4036 52.5665 72.3695L52.2909 72.2502C52.1015 72.165 51.912 72.0627 51.7398 71.9775L51.4815 71.8241C51.3954 71.7729 51.3092 71.7048 51.2231 71.6536C50.7926 71.3468 50.4137 70.9888 50.0864 70.5968C50.052 70.0173 50.0864 69.3866 50.1553 68.7729ZM85.427 62.807C85.3925 62.807 85.3925 62.807 85.3753 62.807C84.9964 62.7559 84.6347 62.807 84.3075 62.9604C83.6358 63.2843 83.2397 63.8127 83.0503 64.5115C83.0158 64.665 83.0158 64.8354 82.9814 64.9888C82.9814 65.0059 82.9814 65.04 82.9986 65.057L81.9308 65.6365L81.638 65.807L81.3452 65.9775L80.7425 66.3354L79.5541 67.0513C79.3474 67.1706 79.158 67.29 78.9685 67.4263L78.383 67.8013L77.2119 68.5343C76.4368 69.0457 75.6618 69.54 74.8868 70.0513C74.1118 70.5627 73.3368 71.057 72.579 71.5513C72.1829 71.79 71.804 72.0457 71.4079 72.2843C71.0118 72.5229 70.6329 72.7616 70.2367 72.9832C68.6523 73.9036 67.0334 74.7559 65.3456 75.4377L64.7083 75.6934L64.3983 75.8127C64.295 75.8468 64.1744 75.8809 64.0711 75.915L63.4166 76.1366L63.0894 76.2389L62.7622 76.3411C61.9011 76.5968 61.0227 76.8014 60.1272 76.9377C59.9033 76.9718 59.6794 77.0059 59.4555 77.04C59.2316 77.0741 59.0077 77.0741 58.7838 77.1082C58.5599 77.1423 58.336 77.1423 58.1121 77.1593H57.9399H57.7677H57.4404C56.5449 77.1764 55.6665 77.1082 54.8054 76.9036C54.5815 76.8696 54.3921 76.7843 54.1682 76.7161C54.0648 76.6821 53.9615 76.648 53.8582 76.5968L53.5482 76.4775C53.1693 76.29 52.7732 76.0684 52.4287 75.7957C52.1015 75.523 51.7915 75.2161 51.5159 74.8752C51.2404 74.5514 51.0165 74.1764 50.827 73.7843C50.6376 73.4093 50.4826 73.0002 50.362 72.5741C50.2931 72.3695 50.2587 72.165 50.207 71.9434C50.1726 71.7388 50.1381 71.5343 50.1209 71.3127C50.1037 71.2104 50.1037 71.1252 50.0864 71.0229C50.3792 71.3298 50.6892 71.6195 51.0509 71.8752C51.137 71.9434 51.2231 71.9945 51.3092 72.0627C51.4126 72.1139 51.4987 72.165 51.5848 72.2332C51.7742 72.3184 51.9637 72.4207 52.1359 72.5059L52.4287 72.6252C52.532 72.6593 52.6354 72.7104 52.7215 72.7275L53.0315 72.8127L53.1865 72.8639L53.3415 72.8979C53.6859 72.9832 54.0304 73.0514 54.3921 73.0854C54.3921 73.1877 54.4265 73.2729 54.461 73.3582C54.7193 73.8525 55.5632 73.9377 56.3554 73.5457C56.5965 73.4264 56.8032 73.2559 56.9754 73.0854L57.1649 73.0684C57.3716 73.0343 57.5954 73.0173 57.8021 72.9661L58.1293 72.915L58.2843 72.8809L58.4393 72.8468C59.266 72.6593 60.0927 72.4036 60.8849 72.1138C62.4866 71.5002 64.0194 70.682 65.5006 69.7957C66.2411 69.3525 66.9645 68.8752 67.6878 68.415C68.4284 67.9547 69.1517 67.4775 69.8751 67.0172C71.339 66.0797 72.8201 65.1593 74.3357 64.29C75.6791 63.5059 77.0569 62.7899 78.4691 62.1081L78.7102 62.824C78.0902 62.7218 77.2807 63.0456 76.6263 63.7104C75.7307 64.5968 75.4896 65.7729 76.0579 66.3354C76.6435 66.8979 77.8146 66.6252 78.7102 65.7388C79.4163 65.0229 79.7091 64.1365 79.5197 63.5229H79.5369L78.9858 61.8865L79.003 61.8695C80.6047 61.1195 82.2236 60.4377 83.877 59.824C84.1353 59.7217 84.4109 59.6365 84.6692 59.5342C84.9275 60.6252 85.1686 61.7161 85.427 62.807ZM84.6003 57.182C84.7553 57.2161 84.9103 57.2501 85.0653 57.2842C85.4786 57.4036 85.8748 57.5399 86.2364 57.7615C86.5637 57.9831 86.8392 58.2388 87.0459 58.5627C86.3398 58.7672 85.6681 58.9888 84.9792 59.2274C84.8242 58.5797 84.6864 57.949 84.5486 57.2842C84.5486 57.2501 84.5314 57.2161 84.5142 57.182C84.5486 57.182 84.5658 57.182 84.6003 57.182ZM81.7241 56.1933C82.3958 55.9547 83.1019 55.7331 83.7908 55.5285C84.0836 56.807 84.3592 58.0683 84.6347 59.3297C84.3592 59.432 84.0836 59.5172 83.8253 59.6195C82.1547 60.2331 80.5186 60.8979 78.9341 61.6649L77.6424 57.8467C78.9858 57.2331 80.3463 56.6876 81.7241 56.1933ZM78.4519 61.9036C77.0224 62.5854 75.6274 63.3354 74.2668 64.1024C72.7512 64.9718 71.2701 65.8922 69.789 66.8297C69.0484 67.29 68.3251 67.7502 67.6017 68.2275C66.8611 68.6877 66.1378 69.165 65.4145 69.6082C63.9333 70.4945 62.4177 71.2957 60.8333 71.8923C60.041 72.1991 59.2316 72.4377 58.4049 72.6252L58.2499 72.6593L58.0949 72.6934L57.7849 72.7445C57.5954 72.7786 57.406 72.8127 57.2338 72.8298C57.3543 72.6423 57.406 72.4548 57.4232 72.2843V68.5684C57.5954 68.5343 57.7504 68.4832 57.9227 68.432C58.0949 68.3809 58.2499 68.3297 58.4221 68.2786V68.2957C58.6805 68.79 59.5244 68.8752 60.2994 68.4832C60.9194 68.1593 61.3155 67.6479 61.3327 67.2047V67.1195C61.4188 67.0854 61.5222 67.0343 61.6083 66.9831C62.0044 66.7956 62.4005 66.6081 62.7966 66.3866C64.3639 65.5513 65.8795 64.5968 67.3778 63.6422C68.1184 63.1649 68.8762 62.6877 69.634 62.2104C70.0129 61.9718 70.3918 61.7331 70.7879 61.5115C71.184 61.2899 71.5629 61.0513 71.9418 60.8297C73.4918 59.9263 75.0935 59.0911 76.7296 58.307C76.8674 58.2388 77.0224 58.1706 77.1602 58.1024L78.4519 61.9036ZM77.0741 57.8808C76.9191 57.949 76.7813 58.0342 76.6263 58.1024C73.354 59.6536 70.254 61.4945 67.24 63.4377C65.7417 64.3922 64.2261 65.3297 62.6761 66.165C62.2972 66.3866 61.9011 66.5741 61.505 66.7616C61.4533 66.7956 61.3844 66.8127 61.3327 66.8468V62.1934C62.0561 61.8013 62.7794 61.4093 63.4855 61.0002C65.0356 60.1138 66.5339 59.1422 68.0839 58.2047C68.1356 58.1706 68.1873 58.1536 68.2389 58.1195C67.5673 59.1252 67.55 60.2502 68.2217 60.7786C68.6351 61.1024 69.2206 61.1024 69.8406 60.8297C70.2712 60.6252 70.6673 60.3013 70.9945 59.8752C71.649 59.0399 71.8212 58.0854 71.5284 57.4547L71.0634 56.4831C72.6135 55.6308 74.1807 54.8126 75.7996 54.0797L77.0741 57.8808ZM82.8436 51.3183C81.0697 51.7615 79.313 52.341 77.6252 53.0399C77.143 53.2274 76.678 53.4319 76.2129 53.6365L75.9891 52.9717L75.4724 53.1422L75.7135 53.8581C74.0946 54.591 72.5101 55.4092 70.9601 56.2615L69.2206 52.5967C69.4617 52.4604 69.7201 52.324 69.9612 52.1876L70.4262 51.9319C70.5812 51.8467 70.7362 51.7615 70.8912 51.6933L71.8384 51.216C71.9934 51.1308 72.1484 51.0626 72.3207 50.9944L72.8029 50.7728L73.2851 50.5513C73.4401 50.4831 73.6124 50.4149 73.7674 50.3467L74.749 49.9376L75.5413 49.5285L75.9374 49.341L76.3507 49.1876C76.4196 49.1535 76.4713 49.1535 76.5918 49.1535C76.6435 49.1535 76.7124 49.1365 76.7813 49.1194L76.9191 49.0683L77.4702 48.8467C77.6596 48.7785 77.8491 48.7103 78.0213 48.6251L78.2969 48.5228L78.5724 48.4206C79.313 48.1649 80.0708 47.9433 80.8458 47.7558C81.6208 47.5683 82.3958 47.4149 83.1708 47.2956C83.9458 47.1762 84.7381 47.091 85.5303 47.0399C86.1503 47.0058 86.7531 46.9887 87.3559 46.9887L87.8381 50.5683C86.1675 50.6194 84.497 50.9092 82.8436 51.3183ZM94.9338 50.9603C94.5549 50.8922 94.176 50.8069 93.7799 50.7558C93.556 50.7217 93.3321 50.6876 93.091 50.6535L92.4021 50.5683L91.7132 50.5001C91.4893 50.4831 91.2482 50.466 91.0243 50.466C90.8004 50.449 90.5593 50.449 90.3354 50.4319H89.9909C89.8704 50.4319 89.7498 50.4319 89.6465 50.4319L88.9576 50.449H88.6131H88.4409L88.2687 50.466H88.2515L87.7865 46.9206C87.8209 46.9206 87.8553 46.9206 87.907 46.9206C88.2687 46.9206 88.6304 46.9546 88.992 46.9717C88.8542 47.3126 88.837 47.6365 89.0265 47.8922C89.3709 48.4035 90.3009 48.3694 91.0932 47.824C91.3171 47.6706 91.5065 47.4831 91.6615 47.2956C92.7465 47.5001 93.8315 47.7899 94.8821 48.1478C95.5538 48.3694 96.2082 48.6251 96.8627 48.9149L97.1038 49.7672C96.8799 49.699 96.6216 49.6819 96.346 49.7672C96.036 49.8524 95.7088 50.0399 95.4505 50.2956C95.2266 50.4831 95.0543 50.7217 94.9338 50.9603ZM96.7594 51.6592C96.5355 51.8638 96.2599 52.0342 96.0016 52.1024C95.6743 52.1876 95.416 52.1535 95.261 52.0001C95.0888 51.8126 95.0888 51.5228 95.2093 51.216C95.7432 51.3353 96.2771 51.4547 96.811 51.6081C96.811 51.6081 96.7938 51.6422 96.7594 51.6592ZM96.966 51.4376C96.4149 51.2842 95.8638 51.1478 95.2955 51.0285C95.3988 50.841 95.5193 50.6706 95.6916 50.5172C95.9155 50.3126 96.191 50.1422 96.4494 50.074C96.7766 49.9888 97.0349 50.0228 97.1899 50.1933C97.4483 50.466 97.3277 50.9944 96.966 51.4376Z" fill="#23474D"/>
</svg>
