<svg width="102" height="102" viewBox="0 0 102 102" fill="none" xmlns="http://www.w3.org/2000/svg">
<g clip-path="url(#clip0_1858_6444)">
<rect width="102" height="102" rx="10" fill="#FCE25B"/>
<path d="M38.8981 39.2337C38.9883 39.4593 39.1236 39.6849 39.3041 39.8203C39.7553 40.3617 40.2064 40.9032 40.6124 41.4446C41.0185 41.8507 41.3343 42.347 41.6952 42.7531C41.9659 43.0238 42.1463 43.3397 42.417 43.6104C42.8231 44.0165 43.0938 44.5128 43.4998 44.8737C43.8156 45.2798 44.1314 45.6859 44.4472 46.092C44.7179 46.4981 45.0788 46.8139 45.3495 47.22C45.5751 47.5358 45.8909 47.8517 46.1165 48.1675C46.2969 48.3931 46.4323 48.6639 46.6578 48.8443C46.5225 48.9797 46.342 49.0699 46.2067 49.2053C45.7555 49.5211 45.4397 49.9272 45.1239 50.3333C44.7179 51.0552 44.5826 51.9576 44.7179 52.8149C44.8081 53.3112 45.0788 53.8527 45.53 54.1234C45.936 54.4392 46.4774 54.5746 46.9285 54.349C47.2895 54.1234 47.6504 53.8527 47.876 53.4466C48.5076 52.6796 48.6429 51.6418 48.5076 50.6491C48.3722 50.1077 48.0564 49.6565 47.7406 49.2053C47.3346 48.7541 47.0188 48.2578 46.5676 47.8517C46.1616 47.3554 45.7104 46.859 45.3044 46.3176C45.1239 46.0469 44.8532 45.8213 44.6728 45.5506C44.3119 45.0542 43.9058 44.6481 43.59 44.1518C43.2742 43.7457 42.9133 43.3848 42.6426 42.9336C42.3268 42.5726 42.0561 42.1665 41.7403 41.8056C41.4245 41.4446 41.1989 41.0836 40.8831 40.7227C41.1989 40.4068 41.5599 40.1812 41.8757 39.8203C42.417 39.2788 43.0035 38.8276 43.5449 38.2862C43.8607 37.9703 44.2216 37.6996 44.5374 37.4289C45.0337 37.0228 45.4849 36.5716 45.9811 36.1655C46.2969 35.8046 46.7481 35.5338 47.0639 35.218C47.2895 35.3985 47.3797 35.6692 47.5601 35.8497C47.9662 36.3009 48.2369 36.8423 48.6429 37.2935C48.9587 37.835 49.4099 38.2862 49.7257 38.7825C50.5377 39.9105 51.3498 40.9934 52.1619 42.1214C52.4326 42.4372 52.6581 42.7982 52.8837 43.1592C52.7935 43.2494 52.7033 43.2945 52.613 43.3397C52.0716 43.6104 51.6205 44.1067 51.2596 44.603C50.8084 45.3701 50.628 46.3176 50.8084 47.22C50.9438 47.8517 51.3949 48.4382 52.0265 48.6638C52.3875 48.7992 52.7935 48.7541 53.1093 48.5285C53.6958 48.1224 54.1469 47.5358 54.4176 46.9042C54.5981 46.3176 54.6883 45.731 54.6432 45.0993C54.5079 44.3323 54.0116 43.7457 53.6056 43.1141C53.2446 42.6628 52.8837 42.2116 52.5679 41.7604C52.1619 41.3092 51.8461 40.7678 51.44 40.3166C51.034 39.73 50.5829 39.1886 50.1768 38.602C49.7708 38.1508 49.5001 37.6094 49.0941 37.1582C48.8685 36.8423 48.6429 36.4814 48.3722 36.1655C47.9662 35.579 47.515 35.0375 47.109 34.451C46.703 33.9546 46.4323 33.323 45.8909 32.9169C45.3946 33.1876 45.0337 33.6388 44.6277 33.9546C44.0412 34.4058 43.4998 34.9473 42.9133 35.4436C42.5975 35.6692 42.3268 35.9399 42.0561 36.2106C41.5147 36.6619 40.9734 37.1582 40.432 37.6545C40.1613 37.8801 39.8906 38.1057 39.6199 38.3313C39.3492 38.6923 39.0785 38.9179 38.8981 39.2337ZM41.1087 39.324C41.5147 38.963 41.8757 38.602 42.2817 38.2411C42.7328 37.8801 43.0938 37.4289 43.5449 37.1131C44.4923 36.3009 45.4397 35.4887 46.3872 34.6314C46.5225 34.6766 46.6127 34.7668 46.703 34.857C46.3872 35.218 45.936 35.4436 45.6202 35.8497C45.1691 36.2107 44.7179 36.5716 44.2668 36.9777C43.8607 37.4289 43.3645 37.7447 42.9584 38.1508C42.5073 38.602 42.011 39.0081 41.5147 39.4142C41.1989 39.7752 40.7929 40.0459 40.4771 40.3617C40.3869 40.2715 40.2966 40.2264 40.2064 40.1361C40.4771 39.8654 40.838 39.6398 41.1087 39.324Z" fill="#033E8C" stroke="#033E8C"/>
<path d="M4.61069 70.7277C1.67821 75.1946 -1.0738 79.842 -3.64536 84.5345C-3.73559 84.715 -3.87093 84.8954 -3.91605 85.1211C-3.91605 85.3467 -3.7807 85.482 -3.60024 85.6174C-3.14909 85.8881 -2.74306 86.2039 -2.33702 86.5198C-1.88587 86.7905 -1.43472 87.1063 -1.02869 87.4673C0.189418 88.2343 1.27218 89.0916 2.49028 89.8587C2.94143 90.2196 3.39258 90.5806 3.88885 90.8513C4.52046 91.3025 5.10695 91.7989 5.73856 92.2049C5.51299 92.4757 5.28741 92.7013 5.10695 92.972C4.97161 93.2427 4.88138 93.5134 4.79115 93.7841C4.56557 94.6414 4.70092 95.5438 5.01672 96.356C5.15207 96.6267 5.33253 96.8523 5.51299 97.1231C5.64833 97.3035 5.82879 97.3487 6.00925 97.4389C6.37017 97.6645 6.86644 97.6194 7.22736 97.4389C7.40782 97.2584 7.58828 97.0779 7.72362 96.8523C7.9492 96.4011 8.08454 95.9499 8.17477 95.4536C8.265 94.7768 8.08454 94.1 7.85897 93.4683C7.63339 92.8817 7.13713 92.5208 6.68598 92.1598C6.37017 91.8891 5.96414 91.7086 5.64833 91.4379C5.33253 91.2574 5.06184 90.9867 4.70092 90.8062C4.43023 90.6708 4.20465 90.4452 3.93396 90.2648C2.94143 89.5428 1.9489 88.9112 1.00149 88.1441C0.640568 87.9636 0.369879 87.6929 0.0089592 87.5124C-0.532421 87.0161 -1.16403 86.7003 -1.70541 86.2491C-1.52495 85.7076 -1.16403 85.3015 -0.938457 84.7601L0.460109 82.2785C0.911259 81.4663 1.40752 80.6541 1.90379 79.842C2.08425 79.6164 2.17448 79.3457 2.35494 79.1652C2.5354 79.3457 2.71586 79.5261 2.94143 79.6615C3.48281 80.0225 3.93396 80.5188 4.47534 80.8346C4.70092 81.0602 4.97161 81.2407 5.19718 81.4212C5.78368 81.8273 6.32506 82.3687 6.91155 82.7297C7.09201 82.865 7.22736 83.0004 7.40782 83.1358C7.67851 83.3162 7.85897 83.5418 8.08454 83.7223C8.62592 84.0833 9.12219 84.5345 9.61845 84.9406C9.21242 85.3015 8.94173 85.7979 8.71615 86.2942C8.31012 87.4222 8.44546 88.7307 9.07707 89.7233C9.39288 90.1294 9.88914 90.355 10.3854 90.4001C10.7914 90.4452 11.1975 90.2196 11.3779 89.8587C11.6937 89.4526 11.8291 88.9112 11.9644 88.4148C12.0547 88.0088 12.0547 87.6027 11.9644 87.2417C11.8742 86.7003 11.7389 86.1137 11.3328 85.7076C10.8817 85.2113 10.3854 84.7601 9.84403 84.3991C9.43799 84.0382 8.94173 83.8126 8.58081 83.4516C7.67851 82.7748 6.77621 82.098 5.91902 81.3761C5.42276 80.97 4.88138 80.609 4.38511 80.2029C4.15954 79.9773 3.84373 79.842 3.61816 79.6164C3.21212 79.3457 2.89632 78.9847 2.44517 78.714C2.58051 78.5335 2.71586 78.3079 2.8512 78.0823C2.98655 77.8567 3.07678 77.6762 3.21212 77.4506C3.4377 77.1799 3.57304 76.8189 3.79862 76.5031C4.15954 75.9616 4.47534 75.33 4.88138 74.7885C5.06184 74.4275 5.2423 74.1117 5.46787 73.841C5.73856 73.3898 6.05437 72.9386 6.32506 72.4874C6.4604 72.2618 6.59575 71.991 6.82132 71.8106C7.13713 72.1715 7.45293 72.4422 7.81385 72.713C8.35523 73.1642 8.8515 73.6154 9.39288 74.0666C9.79891 74.4275 10.2049 74.7434 10.5659 75.0592C11.017 75.5555 11.6035 75.9165 12.0998 76.3677C12.3705 76.5933 12.596 76.9092 12.9118 77.0896C13.2277 77.4055 13.5886 77.6311 13.9044 77.9469C13.363 78.3981 12.957 78.9847 12.7765 79.6164C12.596 80.2932 12.5509 80.97 12.7314 81.6468C12.8216 82.0078 12.9118 82.459 13.2277 82.7297C13.4532 82.9553 13.6337 83.226 13.9495 83.3162C14.2202 83.4065 14.4909 83.4516 14.8067 83.3614C15.1676 83.2711 15.4834 82.9553 15.6187 82.6394C15.9346 82.098 16.1601 81.4212 16.1601 80.7895C16.1601 80.2481 16.0699 79.7066 15.8894 79.2103C15.709 78.8042 15.3932 78.5335 15.0774 78.2176C14.6262 77.7213 14.0397 77.3152 13.4983 76.864C13.3179 76.7287 13.1825 76.5482 13.0021 76.4128C12.0998 75.6909 11.2426 74.9239 10.3403 74.2019C9.79891 73.7507 9.30265 73.2093 8.71615 72.8032C8.31012 72.4874 7.90408 72.0813 7.54316 71.7654C7.13713 71.4947 6.82132 71.0886 6.41529 70.8179C6.18971 70.6826 6.00925 70.4118 5.82879 70.2314C5.60322 70.0509 5.42276 69.8253 5.15207 69.7802C5.01672 70.096 4.83626 70.457 4.61069 70.7277ZM5.37764 72.4422C5.69345 72.0813 5.82879 71.585 6.18971 71.2691C6.23483 71.3142 6.32506 71.4045 6.37017 71.4496C5.96414 72.1715 5.46787 72.8032 5.06184 73.5251C4.70092 73.9763 4.47534 74.4727 4.15954 74.9239C3.88885 75.3299 3.66327 75.736 3.39258 76.1421C3.16701 76.458 3.03166 76.8189 2.80609 77.1348C2.67074 77.3604 2.5354 77.5408 2.44517 77.7664C2.30982 77.992 2.21959 78.1725 2.03913 78.3981L1.81356 78.1725C2.03913 77.8116 2.21959 77.4506 2.44517 77.0896C2.80609 76.5482 3.12189 75.9616 3.48281 75.4202C3.70839 75.0141 3.97908 74.6531 4.20465 74.2471C4.38511 73.9312 4.61069 73.6154 4.83626 73.2995C5.06184 72.9837 5.19718 72.713 5.37764 72.4422ZM1.58798 78.6237C1.6331 78.6689 1.72333 78.7591 1.76844 78.8042C1.6331 79.1201 1.40752 79.3908 1.27218 79.6615C1.00149 80.2029 0.640567 80.6993 0.369877 81.2407C0.234532 81.5565 0.00895852 81.8273 -0.171501 82.1431C-0.351961 82.5492 -0.577536 82.865 -0.757996 83.226C-0.983571 83.7223 -1.34449 84.1735 -1.57007 84.6698C-1.79564 85.0759 -2.02122 85.4369 -2.20168 85.843C-2.33702 85.7979 -2.42725 85.7527 -2.51748 85.6625C-2.33702 85.2564 -2.06633 84.8955 -1.88587 84.4894C-1.61518 83.993 -1.29938 83.4967 -1.0738 83.0004C-0.757996 82.5041 -0.487306 81.9175 -0.171501 81.3761C0.0540735 81.0151 0.234534 80.609 0.505224 80.2029C0.911259 79.7517 1.18195 79.1652 1.58798 78.6237Z" fill="#033E8C" stroke="#033E8C"/>
<path d="M-10.954 96.1304C-11.0894 97.2584 -10.9089 98.3864 -10.5029 99.3339C-9.87125 100.868 -8.69826 102.041 -7.29969 102.853C-6.75831 103.124 -6.21693 103.485 -5.63044 103.62C-5.31463 103.756 -4.95371 103.846 -4.72814 104.072C-4.68302 104.207 -4.68302 104.342 -4.63791 104.478C-4.41233 105.786 -4.14164 107.049 -3.73561 108.223C-3.28446 109.486 -2.65285 110.704 -1.84078 111.787C-1.38963 112.374 -0.803131 112.78 -0.171521 113.141C0.279629 113.411 0.730778 113.547 1.22704 113.727C2.67072 114.088 4.20464 114.224 5.6032 113.772C6.59573 113.457 7.45291 112.87 8.12964 112.148C8.49056 111.787 8.71613 111.381 9.03194 110.975C9.2124 110.659 9.30263 110.343 9.48309 110.027C9.88913 110.208 10.3403 110.388 10.7463 110.614C11.423 110.885 12.0095 111.291 12.6411 111.652C13.0021 111.968 13.4532 112.238 13.7239 112.599C14.2653 113.231 14.5811 114.043 14.4457 114.765C14.3555 115.307 14.175 115.848 13.6788 116.209L13.4532 116.119C13.5434 115.803 13.4983 115.442 13.4532 115.126C13.363 114.585 13.0923 114.088 12.596 113.772C12.3705 113.637 12.1449 113.547 11.8742 113.457C11.2877 113.366 10.7012 113.592 10.3403 113.998C10.1147 114.224 9.93424 114.494 9.79889 114.81C9.70866 115.126 9.66355 115.487 9.70867 115.803C9.75378 116.299 10.1147 116.75 10.5659 117.021C11.1072 117.382 11.784 117.608 12.4607 117.517C12.9118 117.472 13.3179 117.292 13.6337 117.021C13.9495 116.75 14.2202 116.435 14.4457 116.074C14.7164 115.667 14.8067 115.126 14.8518 114.675C14.8969 113.772 14.536 112.825 13.9044 112.103C13.5886 111.697 13.1374 111.381 12.6863 111.065C12.4607 110.93 12.2351 110.84 12.0095 110.704C11.6486 110.569 11.3328 110.298 10.9719 110.163C10.5207 109.892 10.0245 109.712 9.57332 109.486C9.70866 108.899 9.7989 108.313 9.70867 107.726C9.61844 106.914 9.25751 106.102 8.85148 105.425C8.3101 104.613 7.63337 103.891 6.77619 103.395C6.37015 103.214 6.00923 102.989 5.55808 102.898C4.61067 102.673 3.52791 102.718 2.62561 103.169C2.08423 103.485 1.63308 103.936 1.22704 104.433C0.911238 104.748 0.685665 105.154 0.414975 105.515C-0.487325 105.109 -1.38963 104.748 -2.29193 104.342C-2.60773 103.034 -2.83331 101.68 -3.28446 100.417C-3.69049 99.2437 -4.3221 98.1157 -5.2244 97.2584C-5.54021 96.9877 -5.90113 96.7169 -6.26205 96.4913C-6.66808 96.2657 -7.07412 96.0853 -7.48015 95.9048C-8.29222 95.6792 -9.10429 95.3633 -9.96148 95.2731C-10.1871 95.2731 -10.4126 95.228 -10.5931 95.3633C-10.8187 95.5438 -10.9089 95.8596 -10.954 96.1304ZM-9.4201 97.2133C-9.46521 96.8523 -9.51033 96.4462 -9.4201 96.0853C-9.14941 96.0401 -8.92383 96.1755 -8.69826 96.2206C-7.9313 96.4913 -7.20946 96.9425 -6.7132 97.5742C-6.39739 97.9352 -6.17182 98.3413 -5.94624 98.7925C-5.72067 99.2437 -5.54021 99.6949 -5.40486 100.146C-5.13417 101.003 -4.95371 101.906 -4.86348 102.763C-4.81837 102.944 -4.95371 103.214 -5.17929 103.124C-6.84854 102.312 -8.24711 100.868 -8.96895 99.0181C-9.19452 98.4315 -9.32987 97.8449 -9.4201 97.2133ZM-2.02124 105.696C-2.06635 105.47 -2.11147 105.29 -2.11147 105.064C-1.93101 105.109 -1.75055 105.109 -1.57009 105.2C-1.16405 105.38 -0.758015 105.515 -0.44221 105.786C-0.306865 105.876 -0.171521 106.057 -0.171521 106.237C-0.126406 106.598 -0.0812897 106.959 -0.0361747 107.32C0.0540553 107.817 0.27963 108.313 0.414975 108.809C0.685665 109.757 1.4075 110.569 2.3098 110.885C3.12187 111.201 4.02417 111.201 4.88136 111.02C5.28739 110.93 5.78366 110.749 6.00923 110.343C5.82877 110.253 5.64831 110.343 5.46785 110.388C4.97159 110.524 4.47532 110.434 3.97906 110.298C3.70837 110.208 3.43768 110.027 3.2121 109.892C2.3098 109.305 1.81354 108.042 2.21958 107.004L8.6259 109.712C8.40033 110.343 8.03941 110.93 7.63338 111.471C7.22734 111.922 6.73107 112.329 6.18969 112.554C5.19716 113.005 4.02417 113.005 2.98653 112.735C2.58049 112.599 2.12934 112.419 1.72331 112.238C1.0917 111.922 0.505205 111.471 0.00893961 110.93C-0.487325 110.388 -0.848245 109.757 -1.11894 109.125C-1.6152 108.042 -1.79566 106.869 -2.02124 105.696ZM3.57302 105.154C4.15952 104.793 4.83624 104.703 5.51297 104.839C6.59573 105.064 7.58826 105.606 8.26498 106.508C8.85148 107.275 9.07706 108.313 8.76125 109.215C6.64085 108.313 4.56556 107.41 2.44515 106.508C2.67073 105.921 3.07676 105.47 3.57302 105.154Z" fill="#033E8C" stroke="#033E8C"/>
<path d="M48.0564 23.0806C49.861 25.3817 51.6656 27.6377 53.4702 29.9389C53.8762 30.4803 54.2823 31.0669 54.6883 31.5632C54.7786 31.6986 54.8688 31.7888 54.959 31.9242C55.0041 31.9693 55.0041 32.1046 54.9139 32.1498C54.1469 32.5107 53.5153 33.1875 53.1544 33.9546C52.9288 34.4509 52.8386 35.0375 52.8386 35.5789C52.8386 36.2106 53.1093 36.8423 53.6507 37.2032C54.0116 37.4288 54.4627 37.6093 54.8688 37.4288C55.5906 37.1581 56.0869 36.5264 56.4478 35.9399C56.6283 35.4887 56.8087 34.9923 56.7636 34.4509C56.7636 34.1802 56.8087 33.8643 56.7185 33.6387C56.4929 32.9619 56.0418 32.4205 55.6357 31.879C55.2748 31.473 54.959 31.0669 54.5981 30.6608C53.9665 29.8937 53.38 29.0816 52.7484 28.3145C52.3875 27.8182 51.9363 27.367 51.6205 26.8256C51.6205 26.7804 51.6205 26.7353 51.6656 26.6902C52.1619 26.1939 52.8837 25.9683 53.5153 26.1036C54.0567 26.1488 54.553 26.4195 54.959 26.6902C55.7711 27.2768 56.4027 28.1341 56.5832 29.1267C56.6283 29.3974 56.6283 29.6681 56.6734 29.9389C56.7185 29.9389 56.7636 29.984 56.8087 29.984C56.899 29.3072 56.7185 28.6304 56.5832 27.9987C56.3576 27.0512 55.9967 26.1036 55.3199 25.4268C54.9139 25.0208 54.4176 24.7952 53.9214 24.5696C53.4702 24.4342 53.0191 24.3439 52.5679 24.2086C52.0716 24.0732 51.5303 24.0732 51.034 23.8927C50.3573 23.8025 49.6806 23.5318 49.1392 23.2159C48.7331 22.9452 48.3722 22.6294 48.0113 22.2684C47.9211 22.1782 47.6955 22.1331 47.5602 22.2684C47.6955 22.5843 47.876 22.855 48.0564 23.0806ZM52.6581 25.0659C53.0642 25.0659 53.4702 25.1561 53.8311 25.2012C54.1921 25.2464 54.5079 25.472 54.7786 25.6976C54.8688 25.7878 54.9139 25.878 54.959 25.9683C54.7334 25.9232 54.553 25.7427 54.3274 25.6524C53.9665 25.472 53.5153 25.4268 53.1093 25.3817C52.7484 25.3366 52.3875 25.3366 52.0265 25.3817C51.8912 25.4268 51.7558 25.3817 51.6205 25.3817C51.9363 25.1561 52.3423 25.111 52.6581 25.0659Z" fill="#033E8C" stroke="#033E8C"/>
<path d="M14.2653 66.4412C14.5811 67.0729 15.2578 67.3436 15.7541 67.7497C16.115 68.0656 16.5662 68.2911 16.9271 68.607C17.1978 68.8777 17.5587 69.0582 17.8745 69.2838C18.5061 69.7801 19.1828 70.2313 19.8595 70.6825C20.2205 70.9532 20.5814 71.224 20.9423 71.4947C21.2581 71.7203 21.5739 71.991 21.8897 72.2166C22.792 72.8483 23.6041 73.5251 24.4613 74.1568C24.0552 74.5178 23.6492 74.9238 23.3785 75.4202C23.1529 75.8262 23.0176 76.2774 23.0176 76.7286C22.9725 77.1798 23.0176 77.6762 23.1529 78.0823C23.3334 78.7139 23.7846 79.2554 24.4162 79.5261C24.8673 79.7066 25.4087 79.7066 25.8598 79.4359C26.0403 79.2554 26.2208 79.0749 26.3561 78.8944C26.6719 78.3079 27.0328 77.6311 27.0328 76.9091C27.0328 76.3226 26.9426 75.6909 26.6268 75.1946C26.1305 74.608 25.5892 74.1568 25.0027 73.7056C24.3711 73.2995 23.7394 72.8934 23.1529 72.3971C22.9274 72.2166 22.6567 72.1264 22.4762 71.9459C21.98 71.5398 21.3935 71.224 20.8972 70.7728C20.446 70.4118 19.9498 70.1411 19.5437 69.735C19.7242 69.4192 19.9949 69.1033 20.2656 68.8777C20.6265 68.6521 21.0325 68.5619 21.4386 68.5168C22.8823 68.4265 24.2808 69.1936 25.0478 70.3667C25.3636 70.6825 25.3636 71.224 25.6794 71.5849C25.7245 71.4045 25.6794 71.224 25.6343 71.0886C25.138 69.7801 24.4613 68.5168 23.3785 67.6595C22.8823 67.2534 22.2506 67.0729 21.5739 66.9827C19.9949 66.8022 18.3708 67.1631 16.8368 67.0729C16.0248 66.9827 15.3481 66.6217 14.6262 66.3059C14.536 66.2607 14.4006 66.3059 14.2653 66.4412ZM19.6791 68.0655C20.4009 67.7046 21.2581 67.5241 22.0702 67.7497C22.2958 67.8399 22.5665 67.8851 22.7469 68.1107C22.5213 68.1558 22.3409 68.0656 22.1604 68.0204C21.4386 67.8851 20.6716 67.9753 19.9498 68.2009C19.7242 68.2912 19.4986 68.4265 19.2279 68.4265C19.3182 68.246 19.4986 68.1558 19.6791 68.0655Z" fill="#033E8C" stroke="#033E8C"/>
<path d="M30.3262 58.8159C30.1909 58.5903 30.0555 58.4099 29.8751 58.1843C29.0179 57.2367 27.9351 56.5148 26.9877 55.6124L20.9874 50.2882C20.4912 49.8821 20.0851 49.4309 19.5437 49.07C19.3182 48.9797 19.0024 48.7992 18.7768 49.0248C18.867 49.5663 19.3633 49.837 19.7242 50.1528C22.2055 52.3186 24.6869 54.4393 27.1231 56.6502C27.484 57.0111 27.89 57.327 28.2509 57.7331C26.9877 58.6806 26.0403 60.1695 25.8598 61.7488C25.8598 62.2902 25.8147 62.8768 26.0403 63.3731C26.2208 63.6889 26.4463 64.0048 26.8073 64.1401C27.484 64.5011 28.3863 64.2755 28.9277 63.6889C29.6946 62.9219 30.2811 61.9292 30.4616 60.8463C30.5067 60.3951 30.5969 59.9439 30.5067 59.4927C30.4616 59.3123 30.4165 59.0415 30.3262 58.8159ZM29.1984 59.583C29.1532 60.6207 28.7472 61.6134 28.2058 62.4707C27.9803 62.7414 27.7547 63.1024 27.3486 63.1475C27.3035 63.1024 27.2133 63.0572 27.1682 63.0121C26.9877 62.6512 27.078 62.2 27.1231 61.839C27.3035 61.0719 27.6193 60.3049 28.0705 59.6281C28.2509 59.3574 28.4765 59.0867 28.7923 58.9964C29.1532 58.9964 29.1984 59.3574 29.1984 59.583Z" fill="#033E8C" stroke="#033E8C"/>
<path d="M27.5291 43.0238C30.0104 45.4152 32.5369 47.8066 34.928 50.2882C34.5671 50.5589 34.2061 50.8296 33.9355 51.1455C33.3941 51.6869 33.1685 52.4991 33.0783 53.2661C33.0783 53.6722 33.1685 54.0783 33.2587 54.4844C33.5294 55.2063 34.3415 55.6575 35.1084 55.5222C35.5596 55.3868 35.8754 55.0258 36.1461 54.6649C36.5972 54.0783 36.913 53.4015 36.8679 52.6796C36.8228 52.2735 36.7777 51.8674 36.6875 51.4613C36.0559 50.3784 35.0182 49.6565 34.161 48.7992C32.3564 47.0395 30.5518 45.2798 28.7472 43.5202C28.3863 43.1592 28.0254 42.8434 27.7096 42.4824C27.4389 42.2568 27.1682 42.0312 26.8975 41.8507C26.8524 41.9861 26.717 42.1214 26.7622 42.2568C26.9877 42.5726 27.3035 42.7982 27.5291 43.0238Z" fill="#033E8C" stroke="#033E8C"/>
<path d="M57.6659 16.3578L58.884 18.1175C60.5533 20.6443 62.2676 23.171 63.8467 25.7428C63.4406 25.9233 63.0797 26.1489 62.7188 26.4648C62.403 26.7355 62.0872 27.0965 61.8616 27.5025C61.5458 28.0891 61.3202 28.7659 61.3202 29.4427C61.2751 30.2098 61.6812 31.0219 62.4481 31.2475C62.809 31.428 63.2151 31.3378 63.5309 31.1573C63.982 30.8866 64.3429 30.5256 64.6587 30.0744C65.155 29.4878 65.3355 28.7208 65.3806 27.9989C65.4708 27.4123 65.2001 26.8709 64.9745 26.4196C64.5234 25.6075 63.9369 24.8404 63.3955 24.0734C62.4932 22.7198 61.636 21.4113 60.7337 20.0577C60.4631 19.6065 60.1472 19.2004 59.8766 18.7492C61.0947 18.7041 62.3579 18.5687 63.5309 18.9748C64.2527 19.2906 64.7941 19.8772 65.155 20.554C65.3806 21.0052 65.6062 21.5015 65.7415 21.9979C65.8769 22.4942 66.0573 22.9454 66.0122 23.4868C66.0122 23.6222 66.0573 23.7576 66.1024 23.8478C66.1475 23.7576 66.1927 23.6222 66.2378 23.532C66.2829 22.2686 66.1475 20.9601 65.561 19.8321C65.2452 19.2004 64.6587 18.7492 64.0722 18.3882C63.6211 18.1626 63.1248 17.9822 62.6286 17.8017C62.1323 17.6212 61.636 17.531 61.1398 17.3956C60.7789 17.3505 60.4179 17.17 60.057 17.0797C59.5608 16.9444 59.1096 16.6737 58.6584 16.4481C58.2975 16.1322 57.9817 15.8164 57.6208 15.4554C57.5306 15.4103 57.305 15.2749 57.2599 15.4103C57.2599 15.8164 57.5306 16.0871 57.6659 16.3578Z" fill="#033E8C" stroke="#033E8C"/>
<path d="M-17.4957 109.441C-17.4957 109.441 -17.4506 109.306 -17.3603 109.08C-17.2701 108.854 -17.1347 108.493 -16.9543 108.042C-16.7738 107.591 -16.5483 107.004 -16.3227 106.373C-16.052 105.696 -15.7813 104.929 -15.4204 104.072C-14.0669 100.688 -12.0368 95.8597 -9.23962 90.2196C-6.44249 84.5796 -2.92352 78.1725 1.31729 71.5398C1.85867 70.7277 2.40005 69.8704 2.94143 69.0582C3.21212 68.6521 3.48281 68.2461 3.7535 67.7949C4.02419 67.3888 4.33999 66.9827 4.61068 66.5315C5.19718 65.7193 5.78367 64.862 6.37017 64.0047C6.95666 63.1926 7.58827 62.3353 8.17477 61.5231C8.49057 61.117 8.76126 60.711 9.07707 60.2598C9.39287 59.8537 9.70868 59.4476 10.0245 59.0415C10.6561 58.2293 11.2877 57.3721 11.9193 56.5599C12.5509 55.7477 13.2276 54.9356 13.9044 54.1234L14.8969 52.9052L15.8894 51.6869C16.5662 50.8747 17.2429 50.1077 17.9196 49.2955C18.5963 48.5285 19.3182 47.7163 19.9949 46.9493C20.3558 46.5432 20.6716 46.1822 21.0325 45.7761C21.3935 45.4152 21.7544 45.0091 22.1153 44.6481C22.8371 43.8811 23.5139 43.1141 24.2357 42.3921C25.6794 40.9032 27.078 39.4593 28.5667 38.0606C29.2886 37.3387 30.0104 36.6618 30.7323 35.985C31.4541 35.3082 32.176 34.6314 32.8978 33.9546C38.6725 28.6304 44.4021 24.0282 49.455 20.3283C50.7182 19.4259 51.9363 18.5235 53.1093 17.7113C53.6958 17.3052 54.2823 16.8992 54.8237 16.5382C55.0944 16.3577 55.3651 16.1772 55.6357 15.9516C55.9064 15.7712 56.1771 15.5907 56.4478 15.4102C57.5306 14.6883 58.5231 14.0566 59.4254 13.4249C60.3728 12.8383 61.23 12.2969 61.997 11.8006C63.5309 10.8079 64.7941 10.086 65.6513 9.58968C66.5085 9.09335 66.9596 8.82263 66.9596 8.82263" stroke="#033E8C"/>
<path d="M-11.4503 111.652C-11.4503 111.652 -11.4051 111.516 -11.3149 111.291C-11.2247 111.065 -11.0893 110.704 -10.9089 110.298C-10.7284 109.847 -10.548 109.305 -10.2773 108.674C-10.0066 108.042 -9.781 107.275 -9.42008 106.463C-8.11175 103.169 -6.12669 98.5217 -3.4649 93.0622C-0.758001 87.6026 2.62562 81.4211 6.73109 75.0141C7.27247 74.2019 7.76874 73.4348 8.31012 72.6227C8.58081 72.2166 8.85149 71.8105 9.12218 71.4044C9.39287 70.9984 9.66356 70.5923 9.93425 70.1862C10.4756 69.374 11.0621 68.5619 11.6035 67.7497C12.19 66.9375 12.7765 66.1705 13.363 65.3583C13.6788 64.9522 13.9495 64.5461 14.2653 64.1401C14.5811 63.734 14.8518 63.3279 15.1676 62.9669C15.7992 62.1548 16.3857 61.3877 17.0173 60.5756C17.6489 59.8085 18.2805 58.9963 18.9121 58.2293L19.8596 57.0562L20.8521 55.883C21.5288 55.116 22.1604 54.349 22.8371 53.5819C23.5139 52.8149 24.1906 52.0478 24.8673 51.3259C25.1831 50.9649 25.544 50.5589 25.8598 50.1979C26.2208 49.8369 26.5366 49.476 26.8975 49.115C27.5742 48.3931 28.2509 47.626 28.9277 46.9041C30.3262 45.5054 31.6797 44.0615 33.0782 42.7079C33.8001 42.0311 34.4768 41.3543 35.1535 40.6775C35.8754 40.0007 36.5521 39.369 37.2739 38.7373C42.8231 33.5936 48.3722 29.1718 53.2898 25.5622C54.5079 24.6598 55.6809 23.8025 56.8087 23.0355C57.3952 22.6294 57.9366 22.2684 58.478 21.8623C58.7487 21.6819 59.0194 21.5014 59.2901 21.3209C59.5608 21.1404 59.8314 20.9599 60.057 20.8246C61.0947 20.1478 62.0421 19.5161 62.9444 18.9295C63.8467 18.343 64.6587 17.8466 65.4257 17.3954C66.9145 16.4479 68.1326 15.7711 68.9447 15.2748C69.7567 14.7785 70.2079 14.5529 70.2079 14.5529" stroke="#033E8C"/>
<path d="M-5.40485 113.818C-5.40485 113.818 -5.35973 113.682 -5.2695 113.502C-5.17927 113.276 -5.04393 112.96 -4.90858 112.509C-4.72812 112.103 -4.54766 111.562 -4.32209 110.93C-4.09651 110.298 -3.82582 109.576 -3.51002 108.809C-2.2468 105.651 -0.351966 101.139 2.2647 95.8597C4.83626 90.6258 8.17477 84.6248 12.0998 78.4433C12.596 77.6763 13.0923 76.9092 13.6337 76.1422C13.9044 75.7361 14.1299 75.3751 14.4006 74.969C14.6713 74.563 14.942 74.202 15.2127 73.7959C15.7541 73.0289 16.2955 72.2618 16.8368 71.4497C17.3782 70.6826 17.9647 69.9156 18.5061 69.1485C18.7768 68.7424 19.0926 68.3815 19.3633 67.9754C19.634 67.6144 19.9498 67.2084 20.2656 66.8023C20.8521 66.0352 21.4386 65.2682 22.0251 64.5011C22.6567 63.7341 23.2432 62.967 23.8748 62.2451L24.7771 61.1171L25.7245 59.9891C26.3561 59.2221 26.9877 58.5001 27.6193 57.7331C28.2509 57.0112 28.9277 56.2892 29.5593 55.5673C29.8751 55.2064 30.1909 54.8454 30.5518 54.4844C30.8676 54.1235 31.2285 53.7625 31.5443 53.4015C32.2211 52.6796 32.8527 52.0028 33.5294 51.2809C34.8828 49.9273 36.1912 48.5286 37.5446 47.2201C38.2214 46.5433 38.8981 45.9116 39.5748 45.2799C40.2515 44.6482 40.9283 44.0165 41.605 43.3848C46.9737 38.4216 52.3424 34.1352 57.0343 30.6609C58.2073 29.8036 59.3352 28.9463 60.4631 28.2244C61.0044 27.8635 61.5458 27.4574 62.0872 27.0964C62.3579 26.9159 62.5835 26.7355 62.8541 26.555C63.1248 26.3745 63.3504 26.2391 63.6211 26.0586C64.6136 25.3818 65.5611 24.7953 66.4182 24.2087C67.2754 23.6673 68.0875 23.1709 68.8093 22.7197C70.253 21.8173 71.426 21.1405 72.193 20.6893C72.9599 20.2381 73.4111 19.9674 73.4111 19.9674" stroke="#033E8C"/>
<path d="M0.640564 116.028C0.640564 116.028 0.685677 115.938 0.775907 115.713C0.866137 115.487 0.956368 115.171 1.13683 114.765C1.27217 114.359 1.49775 113.863 1.72332 113.231C1.9489 112.644 2.21959 111.922 2.53539 111.201C3.7535 108.132 5.60321 103.801 8.08454 98.7474C10.5659 93.6939 13.769 87.9185 17.5587 81.9626C18.055 81.2407 18.5512 80.4737 19.0475 79.7517C19.2731 79.3908 19.5437 78.9847 19.7693 78.6237C20.04 78.2628 20.2656 77.9018 20.5363 77.4957C21.0325 76.7287 21.5739 76.0067 22.1153 75.2397C22.6567 74.5178 23.1981 73.7507 23.7394 72.9837C24.0101 72.6227 24.2808 72.2166 24.5515 71.8557C24.8222 71.4947 25.138 71.1338 25.4087 70.7277C25.9952 70.0058 26.5366 69.2387 27.1231 68.5168C27.7096 67.7949 28.2961 67.0729 28.8825 66.3059L29.7848 65.223L30.6871 64.1401C31.3188 63.4182 31.9053 62.6963 32.4917 61.9743C33.1234 61.2524 33.755 60.5756 34.3415 59.8537C34.6573 59.4927 34.9731 59.1318 35.2889 58.8159C35.6047 58.455 35.9205 58.1391 36.2363 57.7781C36.8679 57.1013 37.4995 56.4245 38.1311 55.7477C39.4395 54.4392 40.7027 53.0856 42.011 51.8223C42.6426 51.1906 43.3194 50.5589 43.951 49.9272C44.6277 49.2955 45.2593 48.709 45.8909 48.1224C51.0791 43.2945 56.2222 39.1886 60.7789 35.8497C61.9067 35.0375 62.9895 34.2254 64.0722 33.5034C64.6136 33.1425 65.1099 32.7815 65.6062 32.4205C65.8769 32.2401 66.1024 32.0596 66.328 31.9242C66.5536 31.7437 66.8243 31.6084 67.0498 31.4279C67.9973 30.7962 68.8996 30.2096 69.7567 29.6682C70.6139 29.1268 71.3809 28.6756 72.0576 28.2244C73.4562 27.3219 74.584 26.6903 75.351 26.2391C76.118 25.7879 76.524 25.5623 76.524 25.5623" stroke="#033E8C"/>
<path d="M6.68597 118.239C6.68597 118.239 6.73109 118.149 6.77621 117.923C6.86644 117.698 6.95666 117.427 7.13712 117.021C7.27247 116.615 7.45293 116.119 7.67851 115.577C7.90408 114.991 8.12965 114.314 8.44546 113.592C9.61845 110.659 11.3779 106.463 13.8141 101.59C16.2052 96.7169 19.2731 91.1671 22.9725 85.4369C23.4236 84.7149 23.9199 83.993 24.3711 83.2711C24.5966 82.9101 24.8673 82.5492 25.0929 82.1882C25.3185 81.8272 25.5892 81.4663 25.8598 81.1053C26.3561 80.3834 26.8524 79.6615 27.3486 78.9395C27.89 78.2176 28.3863 77.4957 28.9277 76.7738C29.1984 76.4128 29.4691 76.0518 29.7397 75.6909C30.0104 75.3299 30.2811 74.9689 30.5518 74.608C31.0932 73.8861 31.6346 73.1641 32.1759 72.4422C32.7624 71.7203 33.3038 71.0435 33.8903 70.3216L34.7475 69.2838L35.6047 68.246C36.1912 67.5692 36.7777 66.8473 37.3642 66.1705C37.9507 65.4937 38.5823 64.8169 39.1688 64.1401C39.4846 63.8242 39.7553 63.4633 40.0711 63.1474C40.3869 62.8316 40.7027 62.4706 40.9734 62.1548C41.605 61.478 42.1915 60.8463 42.8231 60.1695C44.0863 58.9061 45.3044 57.5976 46.5676 56.3794C47.1992 55.7477 47.8309 55.1611 48.4173 54.5746C49.049 53.988 49.6806 53.4014 50.3122 52.8149C55.3199 48.1675 60.2826 44.242 64.6587 40.9934C65.7415 40.1812 66.8243 39.4141 67.8168 38.7373C68.3131 38.3764 68.8093 38.0605 69.3056 37.6996C69.5312 37.5191 69.8019 37.3837 70.0274 37.2033C70.253 37.0679 70.4786 36.8874 70.7493 36.7521C71.6516 36.1655 72.5539 35.5789 73.3208 35.0375C74.1329 34.5412 74.8547 34.0448 75.5315 33.6388C76.8849 32.7815 77.9677 32.1949 78.6895 31.7437C79.4114 31.2925 79.8174 31.0669 79.8174 31.0669" stroke="#033E8C"/>
<path d="M108.736 -6.6086C103.593 -5.07451 98.5401 -3.26969 93.5324 -1.2844C93.3519 -1.19416 93.1263 -1.14904 92.9459 -1.01368C92.7654 -0.8332 92.8105 -0.652717 92.8556 -0.427116C92.991 0.0692076 93.1263 0.56553 93.2617 1.06185C93.4421 1.55818 93.5775 2.09962 93.6677 2.59594C94.1188 3.94955 94.3895 5.34828 94.7956 6.70189C94.8858 7.24333 95.0211 7.8299 95.2016 8.37134C95.3821 9.13839 95.5174 9.86031 95.743 10.6274C95.4272 10.6725 95.0663 10.7176 94.7505 10.8078C94.4798 10.9432 94.2091 11.0786 93.9835 11.2139C93.2617 11.7554 92.7654 12.5224 92.5398 13.3346C92.4496 13.6504 92.4496 13.9211 92.4496 14.237C92.4496 14.4626 92.5849 14.6431 92.6301 14.8235C92.7654 15.2296 93.1714 15.5003 93.5775 15.6357C93.8481 15.6357 94.0737 15.5906 94.3444 15.5003C94.7956 15.3199 95.2016 15.0491 95.5625 14.7333C96.0588 14.2821 96.3746 13.6504 96.6002 13.0187C96.8257 12.4322 96.6453 11.8456 96.5551 11.259C96.5099 10.853 96.2844 10.4469 96.2393 10.0408C96.1039 9.67983 96.0588 9.31887 95.9234 8.9579C95.7881 8.64206 95.7881 8.32622 95.6528 8.01038C95.3821 6.83725 95.0211 5.66412 94.7505 4.491C94.6151 4.13003 94.5249 3.72395 94.4347 3.36299C94.3444 2.64106 94.0286 1.96426 93.9384 1.28746C94.4347 1.01673 94.976 0.881372 95.4723 0.65577L98.1341 -0.336876C99.0364 -0.697839 99.8936 -0.96856 100.796 -1.2844C101.067 -1.32952 101.292 -1.51 101.608 -1.51C101.653 -1.23928 101.653 -1.01368 101.743 -0.742958C101.924 -0.111274 101.969 0.520411 102.149 1.15209C102.194 1.46794 102.285 1.78378 102.33 2.0545C102.51 2.77643 102.6 3.49835 102.826 4.17515C102.871 4.40075 102.871 4.58124 102.916 4.80684C103.007 5.07756 103.006 5.3934 103.097 5.70924C103.277 6.34093 103.367 6.97261 103.503 7.64942C102.961 7.64942 102.42 7.87502 101.924 8.10062C100.886 8.68718 100.119 9.81519 99.9838 10.9883C99.9387 11.4846 100.164 11.981 100.525 12.3419C100.841 12.6126 101.292 12.7029 101.653 12.5675C102.149 12.4322 102.6 12.1614 103.052 11.8005C103.367 11.5749 103.593 11.259 103.819 10.8981C104.089 10.4469 104.36 9.90543 104.315 9.31887C104.27 8.64206 104.179 8.01038 103.999 7.33357C103.909 6.79213 103.683 6.34093 103.638 5.79948C103.413 4.7166 103.142 3.63371 102.916 2.5057C102.781 1.87402 102.6 1.24233 102.51 0.610651C102.465 0.294809 102.33 -0.0210344 102.285 -0.336876C102.149 -0.788079 102.149 -1.2844 101.969 -1.7356C102.465 -1.87097 102.871 -2.09657 103.367 -2.23193C103.728 -2.32217 104.044 -2.45753 104.405 -2.59289C105.037 -2.77337 105.668 -3.04409 106.345 -3.22457C106.706 -3.35993 107.067 -3.4953 107.428 -3.58554C107.924 -3.76602 108.465 -3.90138 108.962 -4.03674C109.232 -4.12698 109.503 -4.26234 109.774 -4.26234C109.774 -3.81114 109.864 -3.35994 109.954 -2.95385C110.09 -2.27705 110.135 -1.60024 110.27 -0.92344C110.36 -0.427117 110.45 0.114328 110.541 0.610651C110.586 1.28746 110.766 1.96426 110.857 2.59594C110.947 2.9569 110.902 3.31787 110.992 3.67883C111.037 4.13003 111.172 4.53612 111.172 4.98732C109.774 4.9422 108.465 5.88972 107.879 7.06285C107.698 7.42381 107.518 7.78478 107.563 8.19086C107.608 8.5067 107.563 8.82254 107.744 9.09327C107.879 9.31887 108.059 9.58959 108.33 9.67983C108.691 9.86031 109.097 9.77007 109.458 9.63471C110.044 9.40911 110.631 9.09327 111.037 8.55182C111.398 8.14574 111.669 7.69454 111.849 7.15309C111.984 6.74701 111.894 6.29581 111.894 5.88973C111.849 5.21292 111.669 4.53612 111.533 3.85931C111.488 3.63371 111.488 3.40811 111.443 3.22763C111.172 2.09962 111.082 0.971613 110.857 -0.201514C110.721 -0.878319 110.676 -1.60024 110.496 -2.32217C110.405 -2.86361 110.36 -3.35993 110.27 -3.90138C110.135 -4.3977 110.135 -4.89403 109.999 -5.34523C109.909 -5.61595 109.954 -5.88667 109.909 -6.15739C109.819 -6.42811 109.864 -6.74396 109.684 -6.92444C109.413 -6.8342 109.097 -6.69884 108.736 -6.6086ZM108.24 -4.80378C108.736 -4.89402 109.142 -5.16475 109.638 -5.16475C109.638 -5.07451 109.638 -4.93915 109.638 -4.89403C108.871 -4.6233 108.104 -4.44282 107.338 -4.1721C106.796 -4.08186 106.3 -3.81114 105.713 -3.67578C105.262 -3.54042 104.811 -3.35993 104.36 -3.22457C103.999 -3.08921 103.638 -2.95385 103.277 -2.86361C102.826 -2.72825 102.375 -2.50265 101.879 -2.36729L101.834 -2.68313C102.24 -2.77337 102.6 -2.99897 103.007 -3.08921C103.638 -3.26969 104.225 -3.54042 104.856 -3.7209C105.262 -3.90138 105.759 -3.99162 106.165 -4.1721C106.525 -4.30746 106.886 -4.3977 107.247 -4.53306C107.608 -4.6233 107.879 -4.75866 108.24 -4.80378ZM101.337 -2.50265C101.337 -2.41241 101.337 -2.27705 101.382 -2.23193C101.067 -2.09657 100.751 -2.00633 100.435 -1.91609C99.8936 -1.69049 99.262 -1.51 98.7206 -1.2844C98.4048 -1.14904 98.0439 -1.0588 97.728 -0.92344C97.3671 -0.742959 96.916 -0.652718 96.5551 -0.472237C96.0588 -0.246635 95.5174 -0.111274 95.0211 0.159448C94.6151 0.294809 94.164 0.430169 93.803 0.65577C93.7128 0.56553 93.7128 0.430169 93.6677 0.339928C94.0737 0.114327 94.5249 0.0240866 94.9309 -0.156395C95.4723 -0.381996 96.0137 -0.517358 96.5099 -0.788079C97.0964 -0.968561 97.6378 -1.23928 98.2243 -1.41976C98.6303 -1.55512 99.0364 -1.7356 99.4875 -1.87097C100.074 -2.09657 100.706 -2.36729 101.337 -2.50265Z" fill="#033E8C" stroke="#033E8C"/>
<path d="M80.449 2.82167C79.6369 3.58872 79.0504 4.58136 78.7346 5.57401C78.2383 7.15322 78.3737 8.82267 78.9151 10.3116C79.1858 10.8531 79.3662 11.4848 79.7271 11.9811C79.8625 12.2969 80.1332 12.5677 80.1332 12.9286C80.0881 13.064 79.9978 13.1542 79.9527 13.2896C79.276 14.4176 78.6895 15.5456 78.2384 16.7638C77.7872 18.0272 77.4714 19.3808 77.3812 20.7344C77.3812 21.4564 77.5616 22.1783 77.7872 22.8551C77.9677 23.3063 78.2384 23.7575 78.4639 24.1636C79.3211 25.3818 80.449 26.4647 81.8024 27.0062C82.7499 27.4122 83.7875 27.5025 84.8251 27.3671C85.3214 27.322 85.7726 27.1415 86.2688 27.0513C86.5846 26.9159 86.9004 26.7354 87.2162 26.6001C87.3967 27.0062 87.6674 27.4122 87.8027 27.8634C88.1637 28.4951 88.3441 29.1719 88.5697 29.8938C88.6599 30.3451 88.7953 30.8414 88.7953 31.3377C88.8404 32.1499 88.5246 32.962 87.9381 33.5035C87.532 33.8644 87.0358 34.1803 86.4493 34.1352L86.359 33.9096C86.6297 33.7291 86.8102 33.4132 86.9907 33.1425C87.2614 32.6913 87.3516 32.1047 87.2162 31.5633C87.126 31.3377 86.9907 31.1121 86.8553 30.8865C86.4944 30.4353 85.8628 30.2548 85.3665 30.3451C85.0507 30.3451 84.6898 30.4804 84.4191 30.6609C84.1484 30.8414 83.9228 31.067 83.7424 31.3828C83.4717 31.7889 83.4717 32.3755 83.607 32.8718C83.7875 33.5035 84.1935 34.1352 84.7349 34.451C85.5019 34.9473 86.4042 34.9022 87.1711 34.5864C87.6674 34.451 88.0283 34.09 88.3892 33.7742C89.0208 33.0974 89.3366 32.1499 89.2915 31.2023C89.2915 30.6609 89.1562 30.1646 89.0208 29.6231C88.9306 29.3975 88.8404 29.1268 88.7501 28.9012C88.5697 28.5402 88.4795 28.1793 88.299 27.8634C88.1185 27.3671 87.893 26.9159 87.6223 26.4647C88.0734 26.1037 88.5246 25.6977 88.8404 25.2013C89.2915 24.5245 89.5622 23.7124 89.6524 22.8551C89.7878 21.9076 89.6976 20.8698 89.3818 19.9674C89.2013 19.5613 89.066 19.1552 88.7953 18.8394C88.2088 18.0272 87.3516 17.3504 86.359 17.1699C85.7274 17.0797 85.0958 17.1248 84.4642 17.2602C84.0131 17.3053 83.607 17.4407 83.1559 17.576C82.7047 16.7187 82.2536 15.8163 81.8024 14.959C82.434 13.7859 83.1108 12.6128 83.5619 11.3043C84.0131 10.1312 84.2386 8.86779 84.1033 7.64954C84.0582 7.24346 83.9228 6.79226 83.8326 6.38618C83.6522 5.98009 83.4717 5.57401 83.2461 5.16793C82.795 4.446 82.3438 3.72408 81.7573 3.13751C81.5769 3.00215 81.4415 2.82167 81.2159 2.77655C80.9452 2.46071 80.6746 2.64119 80.449 2.82167ZM80.9453 4.67161C81.1708 4.35576 81.3513 4.03992 81.6671 3.7692C81.8927 3.90456 81.9829 4.13016 82.1182 4.31064C82.5243 5.03257 82.795 5.79961 82.7499 6.6569C82.7499 7.15322 82.6596 7.60442 82.5694 8.05563C82.434 8.50683 82.2987 9.00315 82.1182 9.45436C81.7573 10.2665 81.3513 11.0787 80.855 11.8457C80.7648 12.0262 80.4941 12.1165 80.4039 11.936C79.6369 10.2214 79.5016 8.23611 80.1332 6.34106C80.3588 5.75449 80.6294 5.21305 80.9453 4.67161ZM81.1708 15.9066C81.2611 15.7261 81.3513 15.5456 81.4866 15.3651C81.622 15.5005 81.7573 15.681 81.8024 15.8163C81.9829 16.2224 82.2536 16.5834 82.2987 16.9894C82.3438 17.1699 82.3438 17.3504 82.2536 17.5309C82.0731 17.8467 81.8475 18.1626 81.6671 18.4784C81.3964 18.9296 81.2611 19.4259 81.0355 19.9223C80.6294 20.8247 80.6746 21.8624 81.1708 22.7197C81.5769 23.4868 82.2987 24.0733 83.0205 24.4794C83.4266 24.6599 83.8777 24.8404 84.2838 24.705C84.2386 24.5245 84.0131 24.4794 83.8326 24.3892C83.3815 24.1636 83.0205 23.7575 82.7499 23.3514C82.5694 23.1258 82.5243 22.81 82.434 22.5392C82.1182 21.5015 82.5694 20.2381 83.5619 19.6967L86.72 25.8781C86.1335 26.2391 85.4567 26.4196 84.8251 26.6001C84.2386 26.6903 83.607 26.6903 83.0205 26.5098C81.9378 26.194 81.0806 25.4721 80.449 24.5697C80.2234 24.1636 79.9978 23.8026 79.8174 23.3965C79.5467 22.7197 79.3662 22.0429 79.3662 21.321C79.3211 20.5991 79.4565 19.8771 79.6369 19.2003C79.9978 17.9821 80.6294 16.9443 81.1708 15.9066ZM85.8177 19.065C86.4944 19.1552 87.0809 19.5613 87.532 20.0576C88.2088 20.9149 88.6148 21.9978 88.6148 23.0807C88.5697 24.0733 88.0734 24.9757 87.2613 25.4721C86.2237 23.4416 85.1861 21.4112 84.1484 19.3357C84.6447 19.1101 85.2312 19.0199 85.8177 19.065Z" fill="#033E8C" stroke="#033E8C"/>
<path d="M66.9145 8.82264C66.9145 8.82264 67.3656 8.55192 68.2228 8.0556C68.6289 7.83 69.1702 7.51416 69.8019 7.15319C70.1177 6.97271 70.4335 6.79223 70.7944 6.61175C71.1553 6.43127 71.5162 6.20567 71.9223 5.98006C75.1705 4.26549 79.8174 1.87412 85.547 -0.697738C91.2766 -3.22447 98.1341 -5.88657 105.623 -8.23283C109.368 -9.36083 113.293 -10.4888 117.308 -11.4815C117.804 -11.6168 118.3 -11.7071 118.797 -11.8425L119.564 -12.0229L120.331 -12.2034C121.323 -12.429 122.361 -12.6546 123.398 -12.8802L124.165 -13.0607L124.932 -13.1961L126.466 -13.5119L128 -13.8277C128.496 -13.918 129.038 -14.0082 129.534 -14.0985C131.609 -14.4594 133.685 -14.8204 135.715 -15.0911C136.753 -15.2265 137.79 -15.407 138.828 -15.4972C139.865 -15.6326 140.903 -15.7228 141.896 -15.8582C142.392 -15.9033 142.933 -15.9935 143.43 -16.0386C143.926 -16.0838 144.467 -16.1289 144.963 -16.174C146.001 -16.2642 146.994 -16.3545 147.986 -16.4447C148.979 -16.4898 150.016 -16.5801 151.009 -16.6252C152.001 -16.6703 152.994 -16.7606 153.986 -16.8057C161.836 -17.1666 169.145 -16.9862 175.416 -16.5801C176.183 -16.535 176.95 -16.4898 177.717 -16.4447C178.484 -16.3996 179.206 -16.3094 179.928 -16.2642C181.371 -16.1289 182.725 -16.0386 183.988 -15.8582C185.251 -15.7228 186.424 -15.5874 187.552 -15.4521C188.635 -15.3167 189.672 -15.1814 190.575 -15.046C192.379 -14.8204 193.823 -14.5497 194.77 -14.3692C195.718 -14.1887 196.259 -14.1436 196.259 -14.1436" stroke="#033E8C"/>
<path d="M70.1176 14.4175C70.1176 14.4175 70.5688 14.1467 71.3809 13.6955C71.7869 13.4699 72.2832 13.1992 72.9148 12.8383C73.2306 12.6578 73.5464 12.4773 73.8622 12.2968C74.2231 12.1163 74.584 11.8907 74.9449 11.7103C78.0579 10.0408 82.5694 7.73967 88.1185 5.25805C93.6677 2.82156 100.3 0.2497 107.518 -2.05144C111.172 -3.13432 114.917 -4.26233 118.797 -5.16473C119.293 -5.3001 119.744 -5.39034 120.24 -5.5257L120.962 -5.70618L121.684 -5.88666C122.677 -6.11226 123.669 -6.29274 124.617 -6.51834L125.338 -6.69882L126.06 -6.83419L127.549 -7.10491L129.038 -7.37563C129.534 -7.46587 130.03 -7.55611 130.527 -7.64635C132.512 -7.96219 134.497 -8.32316 136.527 -8.59388C137.519 -8.72924 138.512 -8.8646 139.505 -8.99996C140.497 -9.13532 141.49 -9.22556 142.482 -9.36092C142.978 -9.40604 143.475 -9.49628 143.971 -9.5414C144.467 -9.58652 144.963 -9.63164 145.46 -9.67676C146.452 -9.767 147.4 -9.85725 148.392 -9.94749C149.385 -9.99261 150.332 -10.0828 151.28 -10.128C152.227 -10.1731 153.174 -10.2633 154.122 -10.2633C161.701 -10.6243 168.784 -10.4438 174.83 -10.0828C175.597 -10.0377 176.318 -9.99261 177.04 -9.94749C177.762 -9.90237 178.484 -9.81212 179.161 -9.767C180.559 -9.63164 181.868 -9.5414 183.086 -9.36092C184.304 -9.22556 185.477 -9.0902 186.514 -8.95484C187.552 -8.81948 188.545 -8.68412 189.402 -8.54876C191.161 -8.32316 192.515 -8.05243 193.462 -7.91707C194.409 -7.78171 194.906 -7.69147 194.906 -7.69147" stroke="#033E8C"/>
<path d="M73.3659 19.9674C73.3659 19.9674 73.772 19.6966 74.584 19.2905C74.9901 19.0649 75.4863 18.7942 76.0728 18.4784C76.3435 18.2979 76.6593 18.1625 77.0203 17.9369C77.3361 17.7565 77.697 17.576 78.103 17.3504C81.1257 15.726 85.4568 13.5152 90.8254 11.1238C96.1941 8.77752 102.555 6.2959 109.548 4.08501C113.067 3.00212 116.676 1.96436 120.421 1.06195C120.872 0.926589 121.368 0.836349 121.819 0.700988L122.541 0.520506L123.263 0.385145C124.211 0.159544 125.158 -0.0209381 126.105 -0.24654L126.827 -0.3819L127.549 -0.51726L128.993 -0.787983L130.436 -1.0587C130.933 -1.14894 131.384 -1.23918 131.88 -1.32943C133.82 -1.64527 135.715 -2.00623 137.655 -2.23183C138.602 -2.36719 139.595 -2.50255 140.542 -2.63791C141.49 -2.72816 142.482 -2.86352 143.43 -2.95376C143.926 -2.99888 144.377 -3.08912 144.873 -3.13424C145.369 -3.17936 145.821 -3.22448 146.317 -3.2696C147.264 -3.35984 148.212 -3.45008 149.159 -3.54032C150.107 -3.58544 151.054 -3.67568 151.956 -3.7208C152.904 -3.76592 153.806 -3.85616 154.708 -3.85616C162.017 -4.17201 168.874 -4.03664 174.739 -3.67568C175.461 -3.63056 176.183 -3.58544 176.905 -3.54032C177.582 -3.4952 178.303 -3.40496 178.935 -3.35984C180.243 -3.22448 181.507 -3.13424 182.725 -2.99888C183.898 -2.86352 185.026 -2.72816 186.018 -2.5928C187.056 -2.45743 187.958 -2.32207 188.815 -2.18671C190.53 -1.96111 191.838 -1.73551 192.74 -1.55503C193.643 -1.41967 194.139 -1.32943 194.139 -1.32943" stroke="#033E8C"/>
<path d="M76.5691 25.5622C76.5691 25.5622 76.9751 25.3366 77.7421 24.8854C78.1481 24.6598 78.5993 24.3891 79.1406 24.0733C79.4113 23.9379 79.7271 23.7574 80.0429 23.5769C80.3588 23.3965 80.7197 23.216 81.0806 23.0355C83.968 21.4563 88.1636 19.3356 93.3519 17.0345C98.5401 14.7334 104.676 12.3871 111.398 10.2664C114.781 9.22868 118.3 8.23604 121.91 7.37875C122.361 7.28851 122.812 7.15315 123.263 7.06291L123.94 6.88243L124.617 6.74707C125.519 6.56659 126.421 6.34098 127.369 6.1605L128.045 6.02514L128.722 5.88978L130.121 5.61906L131.519 5.34834C131.97 5.2581 132.421 5.16786 132.918 5.07762C134.767 4.76177 136.617 4.44593 138.512 4.22033C139.459 4.08497 140.362 3.94961 141.309 3.85937C142.257 3.76913 143.159 3.63377 144.061 3.54353C144.512 3.49841 144.963 3.45329 145.46 3.40817C145.911 3.36305 146.362 3.31792 146.858 3.2728C147.761 3.18256 148.663 3.09232 149.61 3.0472C150.513 3.00208 151.415 2.91184 152.317 2.86672C153.219 2.8216 154.122 2.73136 154.979 2.73136C162.017 2.41552 168.649 2.55088 174.288 2.91184C175.01 2.95696 175.687 3.00208 176.363 3.0472C177.04 3.09232 177.717 3.18256 178.349 3.22768C179.612 3.36305 180.83 3.45329 182.003 3.58865C183.131 3.72401 184.213 3.85937 185.206 3.94961C186.199 4.08497 187.101 4.22033 187.913 4.31057C189.537 4.53617 190.8 4.76177 191.703 4.89714C192.56 5.0325 193.056 5.12274 193.056 5.12274" stroke="#033E8C"/>
<path d="M79.7722 31.1121C79.7722 31.1121 80.1783 30.8865 80.9001 30.4804C81.261 30.2548 81.7122 30.0292 82.2536 29.7134C82.5243 29.578 82.795 29.3975 83.1108 29.2171C83.4266 29.0366 83.7424 28.8561 84.1033 28.6756C86.9004 27.1866 90.9157 25.1111 95.9234 22.9002C100.886 20.6893 106.841 18.3882 113.293 16.3578C116.541 15.3651 119.925 14.3725 123.398 13.5603C123.85 13.4701 124.256 13.3347 124.707 13.2445L125.338 13.064L126.015 12.9286C126.872 12.7482 127.775 12.5677 128.677 12.3421L129.354 12.2067L130.03 12.0713L131.384 11.8006L132.737 11.5299C133.188 11.4397 133.64 11.3494 134.091 11.3043C135.895 11.0336 137.655 10.6726 139.459 10.447C140.362 10.3117 141.264 10.1763 142.121 10.0861C143.023 9.99581 143.926 9.86045 144.783 9.77021C145.234 9.72509 145.685 9.67997 146.091 9.63485C146.542 9.58973 146.994 9.54461 147.4 9.49949C148.302 9.40925 149.159 9.36413 150.016 9.27389C150.873 9.22877 151.776 9.18365 152.633 9.09341C153.49 9.04829 154.347 8.95805 155.205 8.95805C162.017 8.6422 168.378 8.77756 173.792 9.13853C174.469 9.18365 175.145 9.22877 175.777 9.27389C176.409 9.31901 177.04 9.40925 177.672 9.45437C178.89 9.54461 180.063 9.67997 181.191 9.81533C182.274 9.95069 183.311 10.0409 184.259 10.1763C185.206 10.3117 186.063 10.447 186.875 10.5373C188.454 10.7629 189.672 10.9885 190.53 11.1238C191.342 11.3043 191.793 11.3494 191.793 11.3494" stroke="#033E8C"/>
</g>
<defs>
<clipPath id="clip0_1858_6444">
<rect width="102" height="102" rx="10" fill="white"/>
</clipPath>
</defs>
</svg>
