<svg width="102" height="102" viewBox="0 0 102 102" fill="none" xmlns="http://www.w3.org/2000/svg">
<rect width="102" height="102" rx="10" fill="#FCE25B"/>
<path d="M101.816 40.0919C101.824 39.9593 101.628 39.3201 101.378 38.6653C101.136 38.0027 100.847 37.2153 100.738 36.9191C100.628 36.6073 100.394 35.968 100.222 35.4847C100.042 35.0014 99.8156 34.3544 99.7062 34.0503C98.3936 30.4098 97.2607 27.3462 97.1903 27.2448C97.0575 27.0733 96.7059 26.9408 95.784 26.707C94.9792 26.5121 94.0572 26.3562 93.4322 26.3406C91.9398 26.286 90.5491 26.5978 89.299 27.2838C88.2676 27.8451 86.83 29.1547 85.4783 30.7372C85.0017 31.3063 84.9782 31.3219 84.8532 31.1816C84.7751 31.1036 84.7282 30.9789 84.736 30.9009C84.7595 30.6827 84.6657 30.0278 84.5954 29.8953C84.5407 29.794 84.5173 29.794 84.4079 29.9109C84.3063 30.0278 84.2516 30.3007 84.1657 31.2362C84.0328 32.6004 84.111 32.4523 82.9312 33.6528C81.1654 35.4535 79.423 36.5293 77.665 36.9191C76.8837 37.0906 75.493 37.0126 74.6804 36.7554C73.9381 36.5137 72.7115 35.9446 72.6411 35.8121C72.6099 35.7654 72.5161 35.5315 72.4224 35.3132C72.2036 34.7675 71.9145 34.3544 70.9378 33.1694C70.4769 32.6082 70.0159 31.9923 69.9221 31.7818C69.7424 31.3999 69.6018 30.7294 69.633 30.3942C69.6408 30.2851 69.5862 30.1292 69.5158 30.0434C69.3908 29.9031 69.383 29.9109 69.3283 30.0746C69.2971 30.1682 69.1799 31.0413 69.0861 32.0157C68.9611 33.1928 68.8595 33.8087 68.8048 33.8554C68.7345 33.91 68.6329 33.91 68.422 33.8243C67.9766 33.6606 66.539 33.3331 66.0624 33.2864C65.4373 33.224 64.2575 33.3176 63.5387 33.4813C60.765 34.1049 58.0304 36.2721 56.3427 39.1564C55.8348 40.0295 55.3739 41.1131 54.8113 42.7423C53.7956 45.6891 53.7643 45.7514 53.6393 45.7202C53.4987 45.6813 52.1861 44.1611 51.8266 43.6076C51.5141 43.1243 51.35 42.641 51.3422 42.0953C51.3344 41.8459 51.2797 41.6042 51.225 41.5574C50.9672 41.2924 50.9437 41.4639 50.4828 46.3127C50.2327 48.893 49.9983 51.0602 49.9593 51.1303C49.8499 51.3096 49.5295 51.3642 48.7404 51.333C48.1232 51.3018 47.9122 51.333 47.3184 51.5123L46.623 51.7228L45.6932 51.5201C44.701 51.3018 43.4352 50.8887 42.0679 50.3196C39.7942 49.3841 39.5677 49.275 39.427 49.1035C39.2161 48.8306 39.052 48.2694 39.0129 47.7159C38.9817 47.1936 38.8957 46.9987 38.7551 47.1156C38.716 47.1468 38.6144 47.5288 38.5519 47.9653C38.466 48.4487 38.3879 48.7527 38.3332 48.7683C38.2785 48.7839 37.7784 48.628 37.2002 48.4331C36.1455 48.0667 35.6298 47.8874 34.6375 47.5678C34.0203 47.3729 33.6843 47.2248 33.6374 47.1234C33.614 47.0922 33.5827 46.8818 33.5671 46.6479C33.5046 45.9307 33.2467 45.4474 32.317 44.3015C31.4184 43.1945 31.1762 42.7501 31.1606 42.1889C31.1528 42.0096 31.0981 41.7991 31.0356 41.7055C30.934 41.5652 30.9262 41.573 30.8403 41.916C30.8012 42.1187 30.6684 43.1399 30.5668 44.1923C30.4105 45.7982 30.3637 46.1178 30.2621 46.1334C30.1996 46.1568 29.9574 46.1178 29.7152 46.0476C24.9178 44.7848 20.5737 44.6756 16.417 45.7514C16.2295 45.806 16.0654 45.8372 16.0498 45.8372C15.9326 45.8294 16.1201 45.5176 16.6123 44.9173C17.6906 43.5921 18.7688 41.6276 19.1985 40.2088C19.6517 38.7121 19.8705 37.0594 19.7923 35.6874C19.6673 33.4501 18.8704 30.5034 18.1359 29.5913C17.7218 29.069 17.3859 28.9287 16.9092 29.0846C16.0107 29.3808 14.87 30.5657 14.1746 31.9222C13.8074 32.6393 13.7449 32.7797 13.4714 33.5436C12.5338 36.1473 12.2135 39.6631 12.6276 42.6566C12.6745 43.0152 12.7135 43.405 12.6979 43.5063C12.6667 43.7246 12.5026 43.8883 10.1508 45.8839C9.14288 46.7414 8.13497 47.6847 7.52553 48.3317C7.17394 48.6981 6.72858 49.2516 6.27541 49.8752C4.94716 51.676 4.31429 53.2897 4.11896 55.3399C3.8455 58.1931 4.61901 60.8436 6.32229 62.8938C7.07237 63.7981 7.65836 64.3281 8.49438 64.8427C10.2133 65.9106 12.0963 66.3784 14.2371 66.277C15.1981 66.2303 15.245 66.2458 15.2138 66.6434C15.1825 66.9396 15.2919 67.9063 15.495 69.2549C15.7763 71.0869 15.8232 71.7885 15.7373 72.7161C15.6044 74.0803 15.2138 74.9301 14.3699 75.6161C13.2136 76.5749 11.4009 76.9179 10.2367 76.4112C9.83826 76.2241 9.22882 75.733 9.13506 75.4991C9.05693 75.3276 9.25226 75.2107 9.56479 75.2419C10.3149 75.312 11.1509 74.8209 11.5884 74.0725C12.0416 73.2852 12.065 72.0067 11.6353 71.1336C11.479 70.8218 11.0181 70.3151 10.6899 70.0968C10.4399 69.9331 10.268 69.8864 9.6273 69.8318C8.72096 69.746 8.34593 69.8552 7.68961 70.4087C6.29885 71.578 5.96288 73.5892 6.90047 75.1951C7.9787 77.0504 10.9165 78.0171 13.2683 77.2999C14.0183 77.0738 14.534 76.7854 15.0966 76.2865C16.0029 75.4913 16.4561 74.4857 16.5967 73.028C16.7061 71.8898 16.6592 71.1882 16.2607 68.0856C16.0576 66.5031 16.042 65.9886 16.1826 65.8171C16.2529 65.7391 16.3389 65.6768 16.3858 65.6846C16.4326 65.6924 16.878 65.4741 17.3702 65.209C18.8626 64.4139 19.8939 63.4239 20.5424 62.161C20.8471 61.5685 21.1831 60.329 21.2612 59.5495C21.3159 59.0038 21.1909 59.0662 22.6832 58.7699C23.8474 58.5361 24.1756 58.4815 24.9881 58.4036C27.379 58.1775 29.637 58.3334 32.4576 58.9259L33.2389 59.0818L33.5046 59.4404C33.9577 60.0406 34.7625 60.2589 35.7157 60.025C35.8954 59.9782 36.1455 59.9471 36.2783 59.9627C36.6143 59.9938 38.8567 60.7188 41.3803 61.6231C44.115 62.5975 44.0837 62.582 46.0214 63.3849C48.1388 64.2424 49.8733 64.7725 51.1156 64.9128C52.2876 65.0375 52.3345 65.0843 51.6626 65.3572C51.0531 65.6066 50.4593 66.0665 50.2562 66.4329C50.1937 66.5655 50.1155 66.8305 50.0999 67.0332C49.9671 68.4676 52.4673 68.795 53.9831 67.5399C54.5222 67.0956 54.6785 66.7214 54.7957 65.4507L54.8894 64.4607L55.2332 64.2268C56.2489 63.5096 57.1787 62.4338 57.7178 61.3425C57.8663 61.0384 58.0616 61.1632 58.171 61.6543C58.3116 62.2389 58.1632 63.268 57.8663 63.9306C57.7413 64.1956 57.6163 64.4217 57.5928 64.4451C57.4912 64.5074 57.2022 65.0375 57.2412 65.0843C57.3584 65.2246 57.9991 64.3515 58.3663 63.533C58.5148 63.2134 58.7257 62.4572 58.7492 62.1376C58.7804 61.7712 58.6945 61.1164 58.5304 60.6798L58.3507 60.1497L58.7336 59.0818C58.9601 58.4971 59.2727 57.6318 59.4289 57.1641C59.9368 55.6517 60.5306 54.0381 60.7963 53.4612C62.2651 50.2338 65.4061 47.4275 68.2501 46.796C69.7737 46.4608 70.9613 46.5388 72.7349 47.0767C72.9615 47.1468 73.1881 47.2404 73.2349 47.2871C73.2974 47.3495 73.2896 47.6457 73.2037 48.4409L73.0787 49.5089L72.8521 49.4465C72.7349 49.4153 72.3677 49.3607 72.0551 49.3296C71.3519 49.2672 70.7972 49.4465 70.1487 49.9766C69.6721 50.3586 69.5002 50.6002 69.2971 51.1381C69.008 51.8943 69.0861 52.7596 69.469 53.1416C70.1331 53.8198 71.266 53.6795 72.3442 52.783C73.1959 52.0736 73.2193 51.9956 73.4537 49.5868C73.5865 48.2928 73.6803 47.5678 73.7428 47.521C73.8287 47.4508 74.5085 47.7471 75.7742 48.4175C76.4384 48.7683 78.2823 49.6648 78.6261 49.8129C78.7667 49.8753 79.1886 50 79.5559 50.1091C81.2513 50.5691 82.5561 50.4053 84.3766 49.5089C85.2595 49.0801 85.6424 48.8229 86.6972 47.9498C87.9082 46.9519 88.3536 46.4686 90.8538 43.5141C92.3461 41.7445 93.9479 40.505 95.4089 39.9827C96.7606 39.4994 98.4639 39.4994 100.214 39.9749C100.753 40.1153 101.324 40.2556 101.495 40.2712C101.785 40.3257 101.8 40.3179 101.816 40.0919ZM71.852 51.9099C71.1566 52.4712 70.6097 52.744 70.1018 52.7674C69.5158 52.7986 69.383 52.4244 69.7502 51.7852C69.9456 51.4421 71.055 50.4833 71.5551 50.2338C72.1958 49.9064 72.6646 49.8752 72.8677 50.1403C73.1177 50.4833 72.7036 51.2005 71.852 51.9099ZM99.4171 34.6506C99.5265 34.9546 99.7062 35.4535 99.8078 35.7498C100.027 36.35 100.003 36.5605 99.714 36.4514C99.1593 36.2643 98.2842 36.1084 97.1669 36.0304C96.4715 35.9758 95.8621 35.8979 95.823 35.8667C95.7527 35.8121 95.7605 35.4691 95.8465 34.5882C95.948 33.5124 95.9793 33.3721 96.1043 33.3176C96.284 33.224 97.3154 33.4033 98.2686 33.6762C98.6749 33.7931 99.0499 33.9334 99.1046 33.9958C99.1749 34.0425 99.3077 34.3388 99.4171 34.6506ZM98.378 31.7974C98.5967 32.3977 98.7921 32.959 98.8077 33.0681C98.8389 33.2942 98.8077 33.2942 97.6904 33.0291C97.2529 32.9278 96.7372 32.8264 96.5419 32.8031C96.2684 32.7797 96.1668 32.7329 96.1121 32.616C96.0809 32.5302 96.0887 32.0157 96.1434 31.47C96.2449 30.402 96.3309 30.2149 96.659 30.3163C96.745 30.3475 97.0888 30.4488 97.4013 30.5501L97.9795 30.7294L98.378 31.7974ZM85.8611 31.0569C88.127 28.4298 89.7365 27.2682 91.6039 26.933C92.9009 26.6836 93.9791 26.7537 95.5574 27.1435C96.87 27.4787 96.7684 27.3774 97.2529 28.6948C97.4873 29.3263 97.667 29.8953 97.667 29.9577C97.6591 30.0201 97.5966 30.0668 97.5185 30.059C97.2685 30.0356 96.4872 29.7862 96.4168 29.7082C96.3856 29.6693 96.3778 29.2951 96.4168 28.8975C96.4793 28.2661 96.4715 28.1569 96.3621 28.1257C96.2528 28.0946 96.2215 28.1803 96.1356 28.8741L96.0418 29.6537L94.8933 29.5913C91.9164 29.4354 89.9787 30.3163 87.5566 32.9356C87.1503 33.3721 86.7675 33.7307 86.6972 33.7229C86.5096 33.7073 85.2283 32.1326 85.2439 31.9455C85.2595 31.7818 85.3455 31.6649 85.8611 31.0569ZM83.8375 39.1096L83.9156 37.761L84.5095 37.1452C84.8376 36.81 85.3064 36.2877 85.5564 35.9914C86.4081 35.0014 86.4315 34.9936 86.5878 35.0326C86.6737 35.056 86.7987 35.2119 86.8769 35.3912C87.1659 36.0382 87.2206 36.4825 87.1113 37.3245L87.0175 38.104L86.5878 38.6341C85.5564 39.9048 83.6969 41.6666 83.564 41.5029C83.525 41.4561 83.5484 41.23 83.6344 40.9494C83.7203 40.6142 83.7906 40.0373 83.8375 39.1096ZM87.291 34.7519C87.1894 34.5648 87.0956 34.3466 87.1034 34.2842C87.1113 34.1829 88.3692 32.7329 88.5645 32.5848C88.588 32.5614 88.8067 32.3743 89.0333 32.1716C90.8929 30.48 92.6509 29.8408 94.9011 30.0434C95.3933 30.0824 95.8387 30.1448 95.9012 30.176C96.0027 30.2227 96.0027 30.4176 95.9012 31.4778C95.8387 32.1638 95.7605 32.7251 95.7293 32.7173C95.6902 32.7173 95.3386 32.7329 94.9323 32.7563C92.5258 32.9122 90.7366 33.9022 88.5489 36.311C88.1426 36.7476 87.7988 37.1062 87.7598 37.1062C87.7285 37.1062 87.6973 36.8489 87.7051 36.5293C87.7207 35.8901 87.5722 35.2742 87.291 34.7519ZM84.4079 33.4657C84.5485 33.3254 84.6032 33.3409 85.1814 33.6372C85.7986 33.9568 86.1971 34.3232 86.1268 34.5103C86.0565 34.713 84.3141 36.7086 84.1735 36.7476C84.111 36.7632 84.0328 36.732 84.0016 36.6774C83.9235 36.5137 84.2829 33.5904 84.4079 33.4657ZM74.6804 37.2933C74.7038 37.2699 75.0164 37.3167 75.368 37.3946C76.4618 37.6519 77.6729 37.5271 78.9152 37.0438C80.1965 36.5449 81.9701 35.3288 83.0718 34.1985C83.6344 33.6138 83.775 33.4969 83.861 33.567C83.9 33.5904 83.8453 34.4713 83.7438 35.5159L83.564 37.4258L82.7515 38.0962C81.7904 38.8836 81.0326 39.3513 80.1653 39.7099C78.8136 40.2556 77.6025 40.3959 76.4227 40.1231C75.5477 39.9282 74.5319 39.515 74.4694 39.3357C74.4226 39.1876 74.6023 37.3556 74.6804 37.2933ZM83.3765 39.133L83.3062 39.8892L83.0796 39.8502C82.9624 39.8268 82.5874 39.7567 82.2671 39.7021C81.9389 39.6397 81.6811 39.5696 81.6811 39.5384C81.6811 39.5072 81.8451 39.3747 82.0405 39.2422C82.228 39.1174 82.5952 38.8524 82.8452 38.6575C83.0953 38.4704 83.3375 38.3301 83.3765 38.3457C83.4156 38.3613 83.4156 38.6887 83.3765 39.133ZM74.3757 40.0529C74.4694 39.9671 74.6726 40.0217 75.4305 40.3023C76.4071 40.6687 77.9073 40.8246 78.7667 40.6531C79.0636 40.5986 79.3293 40.5596 79.3449 40.583C79.3683 40.5986 79.3058 40.7857 79.2043 40.9884C78.7433 41.955 79.2902 42.7579 80.4856 42.8671C80.9935 42.9138 81.0716 42.9762 80.7982 43.1087C80.009 43.4985 78.2276 43.5453 77.1181 43.2101C76.5321 43.023 75.2195 42.4617 74.7195 42.1811C74.1647 41.8615 74.1491 41.8381 74.2428 40.9104C74.2819 40.4661 74.3444 40.0763 74.3757 40.0529ZM74.1491 42.5942C74.2428 42.4695 74.2897 42.4929 75.6336 43.0931C76.9697 43.6934 77.5557 43.8571 78.6651 43.9195C79.384 43.9507 79.6496 43.9273 80.2434 43.7792C82.7749 43.1321 85.0173 41.3937 87.9082 37.8234C88.4551 37.1452 89.8771 35.6484 90.385 35.2041C91.9633 33.8399 93.776 33.1149 95.2995 33.2318L95.7371 33.263L95.5886 34.635L95.4324 36.007L94.8854 36.1239C92.7602 36.5917 91.1116 37.8156 88.6817 40.7233C86.6425 43.1633 85.5877 44.2235 84.2751 45.1278C82.9234 46.071 81.6732 46.5466 80.3059 46.6557C79.6731 46.7025 79.4699 46.6947 78.8605 46.5466C77.7432 46.2971 76.4696 45.7358 74.8054 44.777C74.5476 44.6289 74.3054 44.5041 74.2663 44.5041C74.2272 44.5041 74.1335 44.4262 74.0631 44.3326C73.9459 44.1923 73.9381 44.0676 73.9928 43.4206C74.0397 43.0308 74.11 42.6566 74.1491 42.5942ZM95.3699 36.7632C95.3542 36.9191 95.323 36.9425 95.1667 36.9113C95.0651 36.8879 94.9401 36.81 94.8854 36.7554C94.7917 36.654 94.8151 36.6229 94.9792 36.5839C95.2527 36.4903 95.3855 36.5449 95.3699 36.7632ZM72.1176 38.8056C72.2895 38.7978 73.9147 39.6241 73.9772 39.7645C74.0475 39.897 73.8834 41.5496 73.7975 41.5886C73.7584 41.6042 73.4146 41.4639 73.0474 41.2612C72.4224 40.9338 71.2113 40.4037 70.6644 40.2322C70.555 40.1932 70.1175 40.0841 69.7034 39.9827C69.2893 39.8892 68.9064 39.7645 68.8517 39.7099C68.7501 39.6085 68.8048 37.6363 68.9064 37.4804C69.0002 37.3556 69.469 37.4882 70.3753 37.8857C71.5082 38.3769 71.6957 38.4938 71.6801 38.6653C71.6723 38.751 71.5238 39.0473 71.3363 39.3279C71.1644 39.6085 71.0316 39.858 71.0472 39.8736C71.0941 39.9282 71.4691 39.5306 71.7192 39.1642C71.8676 38.9615 72.0317 38.8134 72.1176 38.8056ZM69.3205 33.6684C69.3986 33.5592 69.4611 33.5436 69.6877 33.6138C69.844 33.6606 70.1253 33.7931 70.3206 33.91C70.8519 34.2452 71.3519 34.713 71.4691 34.978C71.5473 35.1885 71.5473 35.2041 71.4301 35.1963C71.3598 35.1885 71.0941 35.056 70.8363 34.9078C70.5784 34.7519 70.344 34.635 70.3128 34.6272C70.2815 34.6272 70.0393 34.5181 69.7737 34.3855C69.2502 34.1283 69.1408 33.9412 69.3205 33.6684ZM69.2111 34.7753C69.3205 34.6896 69.8049 34.9 71.1566 35.6172C71.5629 35.8355 71.9223 36.046 71.9692 36.085C72.1802 36.2954 72.1723 37.6519 71.9692 37.8857C71.8598 38.0027 71.8286 38.0027 71.2113 37.7142C70.8675 37.5427 70.2347 37.2855 69.8127 37.1374C69.3986 36.9815 69.0314 36.8177 69.008 36.771C68.9142 36.6307 69.1174 34.8611 69.2111 34.7753ZM50.9906 45.159C51.0844 45.0186 51.1391 45.0108 51.3657 45.0732C51.5219 45.12 51.8501 45.2837 52.1001 45.4318C52.6158 45.7514 53.319 46.531 53.2955 46.757C53.2721 46.9831 52.8189 47.9186 52.3658 48.628C51.6391 49.7895 50.6781 50.8419 50.514 50.6392C50.4046 50.5067 50.8422 45.3694 50.9906 45.159ZM40.474 50.304C40.5287 50.2572 40.8803 50.3664 41.56 50.6392C43.2711 51.333 44.0368 51.5903 45.2635 51.8787C45.6464 51.9722 45.998 52.0892 46.0292 52.1282C46.0683 52.1749 46.0136 52.323 45.8808 52.5179C45.4667 53.1572 45.5682 53.7886 46.162 54.2018C46.5605 54.4746 46.9824 54.5526 47.6309 54.4824C48.4982 54.3889 49.4827 53.8977 49.9046 53.3443C50.1077 53.0792 50.2796 52.5335 50.3343 51.9956C50.3812 51.5201 50.3812 51.5201 50.8187 51.1771C51.8266 50.3898 52.7955 49.1113 53.3424 47.8874C53.4987 47.5132 53.6862 47.5756 53.7643 48.0355C53.8893 48.8229 53.6628 49.7271 53.1236 50.6158C52.7408 51.2551 52.6939 51.4422 52.9986 51.1459C53.2877 50.8575 53.6862 50.226 53.9597 49.618C54.1394 49.2204 54.2019 48.9398 54.2644 48.3083C54.3347 47.5834 54.3191 47.4586 54.1628 47.0065C53.9675 46.4608 53.9597 46.5777 54.3738 45.4396C54.4597 45.1979 54.8426 44.1066 55.2176 43.023C55.6004 41.9394 56.0536 40.7545 56.2255 40.3959C56.999 38.8212 57.96 37.5583 59.4133 36.2409C60.8197 34.9624 62.523 34.1049 64.1559 33.8477C65.1404 33.6917 66.6874 33.8243 67.8047 34.1595C68.2345 34.2842 68.6329 34.4479 68.6876 34.5103C68.8048 34.6428 68.7579 35.9602 68.6329 36.4202L68.5548 36.6774L67.461 36.5761C66.7968 36.5137 66.1171 36.4981 65.7498 36.5293C63.2809 36.7554 60.8978 38.0962 58.9211 40.3491C57.6553 41.8069 56.8584 43.3036 55.9442 45.9619C54.6785 49.6414 54.2878 50.5924 53.5924 51.7306C52.9752 52.7284 52.5064 53.2975 51.8032 53.8899C51.3266 54.2797 51.0609 54.4434 50.5218 54.6305C49.5764 54.9735 49.1936 55.0047 47.8263 54.8644C46.4277 54.7241 45.537 54.4746 43.4196 53.6093C42.6695 53.3053 42.0523 53.0558 42.0366 53.0558C42.021 53.0558 41.8882 52.7596 41.7476 52.4088C41.5679 51.9722 41.31 51.5279 40.935 51.0602C40.5756 50.5924 40.4193 50.3508 40.474 50.304ZM68.2735 39.593C68.1954 39.6631 67.9063 39.7099 67.4297 39.7255C65.5936 39.7878 63.9606 40.3725 62.3198 41.5496C61.8432 41.8926 61.6088 42.0875 60.7963 42.8281C60.2728 43.3036 59.1945 44.6834 58.7336 45.463C58.171 46.414 57.7178 47.4742 57.0459 49.4153C55.9442 52.6193 55.6708 53.3053 55.116 54.3343C54.1784 56.0961 53.0533 57.3044 51.9126 57.7721C51.1 58.0995 50.6078 58.1775 49.5686 58.1229C47.9278 58.045 46.7402 57.7098 43.6149 56.4313C42.0835 55.7998 41.5444 55.5582 41.5522 55.488C41.5522 55.4646 41.6225 55.2542 41.7007 55.0281C41.7866 54.7942 41.8882 54.4122 41.9429 54.1628C41.9976 53.9133 42.0757 53.6951 42.1226 53.6717C42.1617 53.6561 42.5914 53.7886 43.0602 53.9757C45.326 54.88 47.3497 55.3789 48.6388 55.3633C52.061 55.3243 53.8893 53.4066 55.8192 47.8328C56.7099 45.2447 56.8584 44.8549 57.2178 44.013C57.9835 42.2512 59.2023 40.622 60.765 39.2967C62.2886 37.9949 63.82 37.2621 65.5311 37.0126C66.1014 36.9347 66.289 36.9425 67.3672 37.0516C68.2657 37.1452 68.3907 37.1763 68.4767 37.3167C68.6017 37.5349 68.4298 39.4292 68.2735 39.593ZM39.7786 51.0524C40.3099 51.372 40.9897 52.1126 41.0131 52.401C41.0209 52.6115 40.7865 52.5569 39.5677 52.0892L38.5676 51.6994L38.5832 51.2551C38.6144 50.4989 38.802 50.4755 39.7786 51.0524ZM38.6613 52.2841C38.7004 52.2841 38.9739 52.3854 39.2551 52.4945C39.5442 52.6037 40.0599 52.7986 40.4037 52.9155C41.5053 53.3131 41.521 53.3287 41.4038 54.5058C41.3569 55.0359 41.3178 55.1684 41.185 55.2775C41.0444 55.3945 40.9819 55.3945 40.7709 55.3165C40.6381 55.2542 40.0599 55.0515 39.4817 54.841C38.9113 54.6383 38.38 54.4122 38.3175 54.3499C38.216 54.2329 38.2082 54.077 38.2785 53.3287C38.3722 52.4712 38.4426 52.2685 38.6613 52.2841ZM30.8637 44.5977C30.9418 44.434 31.3247 44.5119 31.7779 44.8004C32.4889 45.2447 33.1139 46.2269 33.067 46.8038C33.0514 47.0065 33.028 47.0143 32.8092 46.9597C31.8794 46.6947 30.7778 46.3283 30.7153 46.2581C30.6371 46.1646 30.7699 44.7926 30.8637 44.5977ZM30.6215 46.9285C30.6996 46.8272 30.7856 46.835 31.2466 46.9831C32.4029 47.3339 32.942 47.521 33.0123 47.599C33.0514 47.6457 33.067 47.8172 33.0436 47.9731C32.9889 48.3006 32.7233 48.9476 32.6139 49.0022C32.5748 49.0177 32.5357 49.1035 32.5279 49.1892C32.5201 49.275 32.5435 49.3296 32.5826 49.3062C32.6686 49.2594 33.0749 48.589 33.2389 48.207C33.4655 47.6769 33.4655 47.6769 34.4578 48.0043C36.5908 48.7293 38.2394 49.3452 38.2863 49.4309C38.3644 49.5868 38.1847 51.3486 38.0753 51.4344C38.0206 51.4811 37.8175 51.4499 37.419 51.3096C36.794 51.0991 36.6924 51.0602 34.2078 50.2494C33.2858 49.9532 32.5123 49.6804 32.481 49.657C32.442 49.6336 32.4185 49.5556 32.4264 49.4933C32.4342 49.3763 32.4185 49.3763 32.2857 49.4777C32.1529 49.579 32.0748 49.5712 31.4419 49.4075C30.5746 49.1892 30.4887 49.1347 30.4574 48.8073C30.4262 48.4487 30.5512 47.0221 30.6215 46.9285ZM30.3637 50.0779C30.3949 49.7583 30.4418 49.6726 30.5824 49.6882C30.6293 49.696 31.1919 49.8441 31.8247 50.039C34.1453 50.7094 37.6534 51.8865 37.9503 52.0736C38.0831 52.1593 38.0831 52.2373 37.9738 53.1728L37.8566 54.1784L37.5518 54.1394C37.3878 54.116 36.7236 53.9211 36.0908 53.7029C33.9421 52.9779 30.6527 52.0736 29.8949 52.0034C29.7698 51.9956 29.6058 51.9333 29.5354 51.8709C29.4183 51.7774 29.4417 51.7384 29.7308 51.4655C30.0746 51.1459 30.3168 50.6002 30.3637 50.0779ZM29.7542 49.5322C29.8402 49.5322 29.8792 49.5634 29.848 49.579C29.8245 49.6024 29.7542 49.6024 29.6995 49.5712C29.6448 49.5478 29.6683 49.5245 29.7542 49.5322ZM19.7064 45.6423C21.8316 45.3616 24.3475 45.4474 26.8321 45.9151C28.0275 46.1334 28.59 46.2659 29.5823 46.5388C30.3715 46.7492 30.309 46.6089 30.184 47.8952C30.0746 49.0177 30.0746 49.0255 29.9105 49.0099C29.8089 49.0022 29.2464 48.893 28.6447 48.7683C27.3165 48.4876 24.449 48.1992 23.3474 48.2226C21.6363 48.2772 20.2924 48.4019 19.0344 48.6514C17.5734 48.9398 15.3232 49.618 14.9872 49.8752C14.8622 49.961 14.8231 50.2728 14.9325 50.2884C14.9559 50.2884 15.37 50.1637 15.8623 50C17.8859 49.3296 20.3236 48.8462 22.3394 48.7137C24.1365 48.5968 27.8243 48.971 29.0042 49.3841L29.598 49.5946L29.1682 49.5556C27.9259 49.4543 26.668 50.1637 26.5742 51.0134C26.5586 51.2083 26.4883 51.3954 26.4414 51.4344C26.3867 51.4733 25.9335 51.4889 25.4569 51.4733C23.1755 51.3876 20.7065 51.6682 18.55 52.2607C17.003 52.6972 16.9717 52.6972 16.6358 52.5881C16.4639 52.5335 15.956 52.44 15.5107 52.3932C14.6747 52.2919 14.4637 52.2061 14.4871 51.9489C14.5028 51.7929 14.3387 50.0779 14.1902 48.8073C14.1277 48.2928 14.0965 47.8016 14.1043 47.7081C14.1199 47.4508 14.9559 46.6947 15.3622 46.5699C16.1592 46.2971 18.5969 45.7826 19.7064 45.6423ZM16.9952 56.2832C17.003 56.3377 16.8936 56.4313 16.7608 56.4936C16.6202 56.556 16.2451 56.7665 15.9248 56.9614C15.5966 57.1563 15.2841 57.2888 15.2216 57.281C15.1122 57.2498 15.0731 57.0549 15.0028 56.2442C14.9794 55.8778 14.995 55.7765 15.0731 55.7375C15.2216 55.6595 15.7216 55.7141 16.1982 55.8544C16.6514 55.9713 16.9561 56.1506 16.9952 56.2832ZM13.5495 39.7099C13.7214 37.9013 13.9246 37.0126 14.409 35.8667C15.2997 33.8009 16.7452 32.7485 17.9406 33.3176C18.2687 33.4813 18.5969 33.871 18.7297 34.292C18.9641 34.9858 18.7844 36.3422 18.3156 37.4726C17.7531 38.8212 16.4951 40.505 15.2763 41.534C14.0105 42.602 13.5574 42.8437 13.5183 42.4539C13.5027 42.3604 13.4714 42.0875 13.4402 41.8537C13.4011 41.5652 13.4323 40.8402 13.5495 39.7099ZM14.9091 65.2168C14.5809 65.4897 12.2213 65.4039 11.1821 65.0765C8.84597 64.3515 7.0333 62.7145 6.25979 60.6253C5.8535 59.5339 5.79099 58.9726 5.93163 57.6318C6.02539 56.6574 6.0879 56.3299 6.28323 55.7843C6.59576 54.9345 6.90047 54.3421 7.45522 53.5236C7.97089 52.7518 8.28342 52.3854 9.1585 51.5279C10.0336 50.6626 12.901 48.3083 13.0573 48.3239C13.1042 48.3317 13.1667 48.3785 13.2058 48.4331C13.3152 48.5968 13.5105 50.1559 13.6824 52.2295C13.698 52.4088 13.6355 52.4556 13.1042 52.7128C11.2681 53.5937 10.0258 54.8332 9.51791 56.291C9.2757 57.0004 9.16632 58.2944 9.29133 59.0116C9.46322 60.0094 9.89295 60.8981 10.5024 61.5841C11.0649 62.2156 12.0885 62.8626 12.5182 62.847H12.737L12.4244 62.4728C12.2525 62.2623 11.8775 61.8492 11.5884 61.5451C10.7212 60.6253 10.4789 59.7678 10.7758 58.6608C11.0884 57.4681 11.815 56.6496 13.0651 56.0649C13.698 55.7609 13.9324 55.7141 14.0105 55.8622C14.0496 55.948 14.0105 55.5738 14.5653 60.8747C14.9091 64.2112 14.9872 65.1623 14.9091 65.2168ZM15.5732 61.132C15.5341 61.093 15.495 60.8202 15.331 59.339C15.2606 58.7388 15.2138 58.1853 15.2216 58.0995C15.2372 57.9436 15.6279 57.6006 16.1514 57.2888C16.5811 57.0315 17.4562 56.6574 17.5968 56.6729C17.6671 56.6807 17.8937 56.899 18.089 57.1641C18.6125 57.8423 19.0501 58.9336 18.9172 59.2143C18.886 59.2767 18.6829 59.3936 18.4641 59.4793C17.7531 59.7756 16.7608 60.3213 16.1748 60.75C15.8623 60.9839 15.5888 61.1554 15.5732 61.132ZM18.9954 61.054C18.8 62.4884 18.2609 63.5564 17.3624 64.2736C16.9717 64.5932 16.292 64.9128 16.0654 64.8894C15.8857 64.8738 15.8623 64.7647 15.7607 63.3615C15.7294 62.9328 15.6826 62.465 15.6591 62.3013C15.5966 61.8959 15.7216 61.6933 16.3779 61.1632C16.9639 60.672 17.6671 60.2667 18.4094 59.9549C18.9407 59.7366 18.9641 59.7366 19.0579 59.9627C19.1048 60.0796 19.0813 60.4304 18.9954 61.054ZM35.0594 57.0939C34.5281 57.2108 33.8562 57.6864 33.5436 58.1619C33.3796 58.4113 33.1999 58.6062 33.153 58.5984C33.0983 58.5906 32.6529 58.4971 32.1607 58.388C31.0825 58.1541 27.8947 57.8345 26.8008 57.8501C26.1132 57.8579 24.8631 57.9436 23.9959 58.0294C23.8005 58.0605 23.2067 58.1541 22.6676 58.2632C21.2768 58.5283 21.269 58.5283 21.2456 58.2632C21.1518 57.5305 21.0425 57.0393 20.8627 56.517C20.7455 56.1896 20.6596 55.8856 20.6674 55.831C20.683 55.6517 23.0348 55.2152 24.5037 55.1372C24.9491 55.1138 25.6445 55.0827 26.0507 55.0827C27.0508 55.0827 29.8324 55.4101 31.059 55.6595C31.9888 55.8622 33.6999 56.2988 34.8328 56.6262C35.3954 56.7977 35.497 56.9848 35.0594 57.0939ZM36.5283 56.6652C32.481 55.3399 28.9338 54.6539 26.1679 54.6461C24.3631 54.6383 22.1441 54.8566 20.8862 55.1684C20.6909 55.2152 20.4877 55.2542 20.433 55.2464C20.3783 55.2386 20.0892 54.9423 19.8001 54.5915C19.4251 54.1472 19.0735 53.8198 18.636 53.5158C18.2922 53.2819 18.0109 53.0402 18.0187 52.9857C18.0265 52.8609 18.3078 52.783 19.7611 52.4712C21.6597 52.058 23.2145 51.8865 24.8944 51.8787C25.5429 51.8709 28.215 52.1437 29.051 52.2997C30.348 52.5413 32.3248 53.0168 33.8718 53.4768C35.5907 53.9913 37.63 54.6929 37.755 54.8098C37.8253 54.8878 37.8253 55.1606 37.755 55.8934C37.6769 56.7197 37.6456 56.8834 37.5362 56.9068C37.4503 56.9302 37.0049 56.8211 36.5283 56.6652ZM53.78 65.2246C53.5299 65.1467 53.3112 65.0609 53.2955 65.022C53.2565 64.944 54.0534 64.7101 54.2409 64.7491C54.3503 64.7647 54.3894 64.8504 54.3972 64.9986C54.405 65.3494 54.2956 65.3883 53.78 65.2246ZM54.6316 62.543L54.4597 64.0943L54.0222 64.2658C53.358 64.523 52.733 64.6088 51.7641 64.5542C50.2093 64.4763 48.967 64.1099 45.6698 62.7379C45.0994 62.4962 44.154 62.1298 43.5602 61.9037C42.2789 61.4126 41.4194 61.1164 38.4582 60.1342C37.2002 59.7054 37.083 59.6664 37.0518 59.5885C37.0284 59.5573 37.1377 59.417 37.2784 59.2844C37.63 58.9726 37.7472 58.7699 37.9034 58.2476C37.9738 58.006 38.0284 57.7955 38.0284 57.7877C38.0363 57.7097 38.5519 57.8501 39.6145 58.2321C40.2865 58.4659 41.0834 58.7466 41.3881 58.8557C42.0757 59.0974 43.1071 59.4949 44.7635 60.1575C47.6622 61.3191 48.4904 61.5607 50.2327 61.7244C51.2407 61.8102 51.6391 61.818 52.0376 61.7478C52.7564 61.6231 53.6003 61.2957 54.1394 60.9371C54.3972 60.7656 54.6316 60.6409 54.6785 60.6409C54.8113 60.6409 54.8035 60.9605 54.6316 62.543ZM55.4286 55.2853C55.3582 55.3165 55.2723 55.9246 55.1316 57.4057L54.9363 59.4715L54.6941 59.7912C54.1159 60.5239 52.9908 61.132 51.8423 61.3269C51.1703 61.436 49.4514 61.2723 48.5295 61.0151C47.5841 60.75 46.3417 60.3057 44.8807 59.682C44.4353 59.4949 43.8024 59.2377 43.4743 59.1129C43.1461 58.9882 42.7476 58.8323 42.5836 58.7621C42.4195 58.692 41.3881 58.3178 40.2787 57.928C39.177 57.5382 38.2316 57.1797 38.1847 57.1329C38.0675 56.9926 38.1456 55.0827 38.2785 55.0125C38.4269 54.9423 40.7553 55.8076 40.8334 55.9636C40.8881 56.0571 40.8334 56.1974 40.6459 56.5014C40.3412 56.9926 40.3802 57.1173 40.7162 56.7041C40.849 56.5404 41.0444 56.3299 41.1459 56.2208L41.3256 56.0337L42.6539 56.5638C44.4588 57.2966 46.287 57.9514 47.1387 58.1853C48.8654 58.6608 50.4203 58.7154 51.6469 58.3334C52.2095 58.1619 53.108 57.6786 53.4831 57.3512C54.155 56.7587 55.0848 55.5426 55.4598 54.7475C56.1396 53.3209 56.4833 52.5023 57.0146 50.951C58.4054 46.9207 58.8742 45.9229 60.1243 44.3716C61.0463 43.2179 62.273 42.1265 63.4528 41.4093C63.9997 41.0741 64.0934 41.0897 63.9919 41.5029C63.6559 42.8437 65.5389 43.5141 67.2187 42.6488C68.1173 42.1889 68.5548 41.5886 68.6407 40.7155C68.6564 40.544 68.6954 40.3803 68.7267 40.3647C68.8126 40.2946 69.4377 40.3725 69.9378 40.5128C70.8753 40.7701 73.4381 41.9004 73.7115 42.1811C73.7819 42.2512 73.7819 42.4851 73.7037 43.1555L73.5943 44.0364L73.4068 44.013C73.2974 43.9974 72.9302 43.8649 72.5786 43.7246C71.5942 43.3348 70.6409 43.0931 69.5393 42.9918C68.1798 42.8671 67.1719 42.9918 65.9608 43.4361C63.82 44.2235 61.851 45.7904 60.4212 47.864C59.5071 49.197 58.9523 50.3898 58.2179 52.5569C57.4834 54.7475 57.1631 55.6206 56.749 56.6028C56.5771 57.0004 56.3427 57.4057 56.288 57.4057C56.0614 57.3823 55.7801 56.6963 55.7176 56.0181C55.6708 55.449 55.577 55.2152 55.4286 55.2853ZM57.374 60.8981C56.999 61.6075 56.2802 62.582 55.7411 63.1432C55.1942 63.6967 54.9519 63.8136 54.9129 63.533C54.8582 63.2056 55.1863 60.1342 55.2957 59.9705C55.3504 59.8847 55.5379 59.643 55.6942 59.4326C55.9833 59.074 56.0145 59.0506 56.2333 59.1129C56.3583 59.1519 56.6083 59.3 56.7881 59.4404C57.21 59.7834 57.4678 60.0562 57.5538 60.2667C57.6084 60.4148 57.5772 60.5317 57.374 60.8981ZM73.3131 46.6869C73.274 46.7025 72.9537 46.6401 72.6099 46.5388C71.7192 46.2737 69.6721 46.0788 68.9298 46.188C67.8594 46.3595 67.1719 46.5699 66.3124 46.9753C63.7262 48.207 61.4916 50.5924 60.2962 53.4066C59.7727 54.6305 59.7571 54.6773 59.132 56.517C58.4679 58.4659 58.0851 59.4248 57.9522 59.4637C57.8116 59.4949 56.6787 58.1385 56.6943 57.9592C56.7021 57.8813 56.9287 57.32 57.2022 56.7119C57.4756 56.1039 58.0069 54.6929 58.382 53.5859C59.4055 50.6158 59.6399 50.0545 60.4134 48.8073C61.2104 47.5132 62.2183 46.4062 63.5153 45.3928C64.9529 44.2547 66.3671 43.6466 67.9923 43.4361C68.7501 43.3348 70.7347 43.5843 71.5629 43.8727C72.4145 44.1689 73.3365 44.5587 73.4537 44.6912C73.5318 44.7692 73.5318 45.0108 73.4615 45.728C73.4303 46.2269 73.3599 46.6635 73.3131 46.6869ZM74.1882 38.1898L74.0631 39.094L73.8366 39.0551C73.7115 39.0473 73.3209 38.8524 72.9615 38.6419L72.313 38.2677L72.3989 37.9169C72.4458 37.722 72.5317 37.34 72.5786 37.0516C72.688 36.4514 72.6958 36.4514 73.5865 36.8333C73.9147 36.9815 74.2116 37.1374 74.2428 37.1919C74.2897 37.2465 74.2663 37.6441 74.1882 38.1898ZM93.815 40.1542C92.3774 41.1676 91.2601 42.2512 89.4474 44.4184C88.1739 45.9385 87.4863 46.6557 86.5096 47.5054C84.6813 49.0645 83.0328 49.8207 81.306 49.8752C79.9153 49.922 78.798 49.5478 76.2899 48.1758C75.532 47.7549 74.6804 47.3261 74.4069 47.217C73.7272 46.9363 73.6803 46.8506 73.7662 45.9307C73.8444 45.1278 73.8991 44.9563 74.0553 44.9719C74.1647 44.9797 74.6726 45.2447 75.368 45.6345C77.7901 46.9987 79.8528 47.443 81.5482 46.9831C82.1108 46.8194 83.1656 46.3673 83.7672 46.0165C85.533 44.9875 86.3221 44.2547 89.1583 40.9416C89.7443 40.2634 90.3694 39.5618 90.5257 39.3825C91.2992 38.5717 92.4477 37.6441 92.6352 37.6597C92.7134 37.6675 92.768 37.6908 92.768 37.7064C92.768 37.722 92.6977 37.8779 92.6196 38.0494C92.2993 38.751 92.4399 39.554 92.9321 39.8112C93.1978 39.9593 93.6666 39.9983 94.065 39.9126C94.1588 39.8892 94.0494 39.9983 93.815 40.1542ZM93.6119 39.2422C93.1665 39.4215 92.8384 39.3981 92.7759 39.172C92.6743 38.8056 93.4478 37.9325 94.2526 37.496C94.5417 37.34 94.6979 37.3089 94.9323 37.3478C95.198 37.3946 95.2292 37.4258 95.237 37.6051C95.2448 38.0884 94.4245 38.9147 93.6119 39.2422ZM100.144 39.4682C98.5108 39.0629 96.6512 39.1018 95.1823 39.5774C94.8776 39.6709 94.6198 39.7255 94.612 39.6865C94.6042 39.6475 94.7136 39.515 94.8542 39.3903C95.3386 38.9771 95.4871 38.6185 95.6433 37.5038C95.7215 36.9581 95.8074 36.4903 95.8308 36.4669C95.8699 36.428 96.745 36.389 97.1825 36.4046C97.2763 36.4124 97.6982 36.4825 98.1279 36.5605C99.1437 36.7554 100.167 37.0516 100.277 37.1763C100.409 37.3245 101.159 39.3669 101.144 39.5384C101.128 39.7177 101.128 39.7177 100.144 39.4682Z" fill="#033E8C"/>
</svg>
