<svg width="102" height="102" viewBox="0 0 102 102" fill="none" xmlns="http://www.w3.org/2000/svg">
<g clip-path="url(#clip0_1846_2369)">
<rect width="102" height="102" rx="10" fill="#78ADF2"/>
<path d="M105.763 50.4908C105.632 49.6758 105.499 48.8436 105.351 48.0317L108.412 47.4748C108.428 47.5612 108.455 47.6099 108.499 47.6554C108.54 47.6837 108.621 47.7402 108.75 47.6632C108.848 47.6097 108.953 47.5014 109.052 47.3584L115.866 46.1187C116.057 46.0841 116.167 45.9035 116.135 45.7308C116.104 45.558 115.92 45.4309 115.747 45.4624L109.348 46.6265C109.345 46.6092 109.356 46.5716 109.353 46.5543C109.968 44.3367 110.054 42.5543 109.668 41.0186L114.116 40.2272C114.306 40.1926 114.416 40.012 114.385 39.8392C114.35 39.6492 114.169 39.5394 113.996 39.5708L109.462 40.3779C109.435 40.3292 109.426 40.2774 109.396 40.2115C108.665 38.4529 107.119 37.3243 105.632 36.2208C105.387 36.0512 105.139 35.8645 104.904 35.6572L112.549 34.2665C112.739 34.2319 112.849 34.0513 112.818 33.8786C112.783 33.6886 112.602 33.5787 112.429 33.6102L104.232 35.1015C103.628 34.5333 103.112 33.8597 102.858 33.0495C102.855 33.0322 102.855 33.0322 102.851 33.0149C102.778 32.9035 102.723 32.6993 102.674 32.5297C102.576 32.1906 102.49 31.8137 102.216 31.685C102.059 31.6066 101.883 31.6208 101.668 31.7135C101.602 31.7433 101.576 31.8014 101.589 31.8705C101.806 33.0624 102.026 34.2715 102.243 35.4634L96.7082 36.4702C96.5825 35.7793 96.46 35.1056 96.3343 34.4147C95.9478 32.2901 95.5282 30.0823 95.1527 27.92C95.1402 27.8509 95.093 27.7881 95.0317 27.7457C94.9704 27.7033 94.8808 27.7018 94.8147 27.7316C91.3808 29.088 87.961 30.4239 84.524 31.763C79.5209 33.726 74.348 35.7378 69.282 37.748C69.1641 37.7873 69.1138 37.9035 69.1357 38.0244C69.34 39.1472 69.5411 40.2527 69.7454 41.3754L66.5977 41.9481C65.8215 37.6816 65.0595 33.3947 64.2833 29.1282C64.2707 29.0591 64.2204 28.979 64.1591 28.9366C64.0978 28.8942 64.0082 28.8927 63.9422 28.9226C61.8903 29.7241 59.8211 30.5288 57.7661 31.3131C55.4124 32.2231 52.9753 33.1662 50.5728 34.1029C50.4549 34.1422 50.3873 34.2616 50.4124 34.3997C50.7455 36.2307 51.0786 38.0617 51.4117 39.8926C51.6914 41.43 51.9742 42.9845 52.2602 44.5564L45.4632 45.7929L44.6399 41.2674C44.6273 41.1983 44.5802 41.1355 44.5189 41.0931C44.4576 41.0507 44.3852 41.046 44.3192 41.0759C42.4686 41.8051 40.618 42.5344 38.7674 43.2637C36.5488 44.1312 34.2643 45.0287 32.0143 45.9198C31.9137 45.9559 31.846 46.0753 31.8649 46.179C31.9875 46.8526 32.1069 47.509 32.2294 48.1827L21.4546 50.1428C20.8903 49.6923 20.4768 49.0894 20.3166 48.4048C20.3197 48.2258 20.2569 48.0766 20.1342 47.9918C19.9471 47.8474 19.705 47.8915 19.5006 47.9465C19.466 47.9528 19.4141 47.9622 19.3796 47.9685C19.2412 47.9937 19.1563 48.1162 19.1814 48.2544C19.3165 48.9972 19.4517 49.7399 19.5868 50.4827L4.36721 53.2515C4.73532 51.5428 4.6349 49.8122 3.9999 48.286C3.37432 46.8116 2.52866 45.1096 1.55388 45.055C1.14038 45.041 0.759868 45.3065 0.439062 45.9002C-0.646053 48.1855 -0.468727 51.0262 0.999322 54.578C0.768156 54.9769 0.516552 55.3618 0.236643 55.7874C-1.12517 57.9267 -2.54673 60.1304 -2.1414 62.7513C-1.97653 64.5415 -0.880896 66.3408 0.672347 67.4144C2.06209 68.375 3.63586 68.6776 5.13583 68.2798C5.15312 68.2767 5.17042 68.2735 5.18457 68.2531C5.56508 67.9876 5.87325 67.9137 6.10279 67.9968C6.55872 68.1459 6.81018 68.9388 6.99877 69.5826C7.39802 70.4023 7.62277 71.1465 7.68401 71.7778L5.74697 72.1302C5.59138 71.5696 5.21096 71.05 4.71574 70.7832C4.14191 70.4771 3.52716 70.5354 2.98154 70.9737C2.20164 71.5974 1.94682 72.5539 2.29889 73.507C2.71697 74.6265 3.83002 75.4412 4.95103 75.4157C5.24032 75.4345 5.52018 75.4014 5.7969 75.3511C6.50599 75.2221 7.19467 74.8826 7.71357 74.3957C8.32367 73.8207 8.65392 73.0825 8.65402 72.2973L116.756 52.1849C116.946 52.1502 117.056 51.9696 117.021 51.7796C116.987 51.5896 116.806 51.4797 116.633 51.5112L103.602 53.9354C103.665 53.8883 103.731 53.8584 103.811 53.8081C104.391 53.3635 105.799 52.1617 105.763 50.4908ZM103.492 37.7165C105.368 37.7143 107.255 38.8522 108.224 40.5495L104.143 41.292C103.926 40.1002 103.709 38.9083 103.492 37.7165ZM104.265 41.9657L108.537 41.1885C109.315 43.0099 108.961 45.0908 108.529 46.7399L105.225 47.3408C104.916 45.5412 104.586 43.7276 104.265 41.9657ZM6.84889 73.9641C6.83474 73.9845 6.80329 74.0081 6.80643 74.0253C6.65231 74.3567 5.98095 74.4967 5.42595 74.4906C4.90554 74.4782 4.63513 74.3668 4.60841 74.3181C4.60841 74.3181 4.61628 74.2632 4.79395 74.1595C5.43231 73.9363 5.8097 73.4572 5.85537 72.8243L7.72323 72.4845C7.62253 73.1095 7.3379 73.6074 6.84889 73.9641ZM104.554 48.4623C104.142 48.3588 103.711 48.3479 103.272 48.392L104.5 48.1686C104.519 48.2723 104.538 48.3759 104.554 48.4623ZM96.8214 37.0921L102.356 36.0852C102.419 36.4307 102.481 36.7761 102.544 37.1216C102.802 38.538 103.063 39.9717 103.327 41.4226L97.7719 42.4154C97.4687 40.6503 97.1419 38.8539 96.8214 37.0921ZM98.4585 46.484C98.4554 46.4667 98.4554 46.4667 98.4522 46.4495C98.2684 45.3408 98.0815 44.2149 97.8945 43.089L103.449 42.0963C103.776 43.8927 104.086 45.6923 104.395 47.4918L97.6674 48.7158C98.1785 48.0875 98.5056 47.332 98.4585 46.484ZM82.9027 34.1458C84.7014 33.426 86.5379 32.7171 88.3083 32.0382C89.4954 31.5902 90.6794 31.125 91.8633 30.6598C92.2186 30.6487 92.6573 30.4083 93.1306 30.1616C93.5064 29.9683 94.1227 29.6242 94.2831 29.7199C94.3035 29.734 94.3271 29.7654 94.346 29.8691C93.1824 30.3484 91.9812 30.8168 90.8287 31.2584C90.096 31.5523 89.3429 31.8321 88.6102 32.126L85.4404 33.3629C85.0882 33.3913 84.6464 33.6145 84.1731 33.8612C83.7832 34.0749 83.1464 34.4048 82.986 34.3091C82.9514 34.3154 82.9216 34.2494 82.9027 34.1458ZM88.7404 33.9225C90.0738 33.3944 91.3929 32.8867 92.7263 32.3587C93.0234 32.3224 93.3678 32.1527 93.7262 31.9626C94.036 31.7992 94.5407 31.5289 94.6806 31.6105C94.7011 31.6246 94.7278 31.6733 94.7467 31.777L88.9936 34.037C87.9763 34.4363 86.9763 34.8323 85.959 35.2315C85.5722 35.2662 85.1163 35.5098 84.643 35.7565C84.187 36 83.5675 36.3269 83.349 36.206C83.3113 36.195 83.2845 36.1464 83.2578 36.0977C85.088 35.3543 86.9071 34.6486 88.7404 33.9225ZM83.5689 38.004L86.4368 36.8756C88.5547 36.0441 90.6726 35.2127 92.7905 34.3813C93.1254 34.3561 93.498 34.1455 93.9084 33.9459C94.2842 33.7527 94.8376 33.4557 95.0184 33.5655C95.0593 33.5938 95.086 33.6425 95.1017 33.7288L89.443 35.9182L84.9226 37.6864C84.7182 37.7414 84.4887 37.8545 84.2733 37.9473C84.061 38.0573 83.6821 38.2333 83.5862 38.1972C83.5893 38.2145 83.5626 38.1658 83.5689 38.004ZM95.7145 37.2934C95.7334 37.3971 95.7553 37.518 95.7742 37.6216C96.0727 39.2626 96.3807 40.9553 96.6855 42.6308L84.818 44.772C84.7583 44.4438 84.6955 44.0983 84.6358 43.7701C84.4064 42.5092 84.1707 41.2137 83.935 39.9182L86.2541 39.0145L95.7145 37.2934ZM89.5387 37.721C91.4899 36.9556 93.4239 36.1933 95.3751 35.4279C95.4474 35.8252 95.5197 36.2225 95.5919 36.6198L89.5387 37.721ZM84.9374 45.4284L96.8049 43.2872C96.8583 43.5809 96.9086 43.8572 96.962 44.1509C96.9652 44.1682 96.9683 44.1854 96.9715 44.2027C97.0909 44.4665 97.1098 44.5701 97.1019 44.6251C97.0154 44.6408 96.778 44.6126 96.6302 44.586C96.2451 44.5312 95.7671 44.4575 95.3945 44.6681C93.558 45.1806 92.1145 46.8708 92.0325 48.581C92.0183 48.994 92.1394 49.3646 92.3547 49.6644L85.8691 50.8443C85.5973 49.0558 85.2642 47.2248 84.9374 45.4284ZM77.854 36.1528L79.8855 35.3371C80.1826 35.3009 80.5238 35.1139 80.8996 34.9207C81.192 34.7604 81.7487 34.4807 81.8713 34.5654C81.8917 34.5796 81.9216 34.6455 81.9294 34.7868L76.2109 37.0406C75.1276 37.4697 74.0443 37.8988 72.9578 38.3106C72.6025 38.3217 72.1465 38.5652 71.6905 38.8088C71.2833 39.0256 70.6811 39.3493 70.483 39.2426C70.4421 39.2143 70.4154 39.1657 70.4028 39.0966C72.8887 38.1268 75.3713 37.1398 77.854 36.1528ZM70.7344 41.0171L73.3868 39.9813C75.5708 39.12 77.7547 38.2587 79.9418 37.4147C80.2767 37.3895 80.6666 37.1758 81.0912 36.9558C81.467 36.7625 82.0204 36.4656 82.1981 36.5581C82.2358 36.5691 82.2657 36.6351 82.2782 36.7042C81.011 37.2024 79.761 37.6975 78.4937 38.1957L76.3097 39.057C75.1258 39.5222 73.9418 39.9874 72.7752 40.4495C72.478 40.4857 72.1368 40.6727 71.761 40.866C71.6463 40.9225 71.5 41.0027 71.3507 41.0655L70.7626 41.1725C70.7532 41.1207 70.7438 41.0689 70.7344 41.0171ZM72.1359 48.7209C72.0793 48.41 72.0196 48.0818 71.963 47.7709L83.8997 45.6172C84.1354 46.9127 84.3742 48.2254 84.5926 49.5241C82.7547 49.1446 80.9025 50.356 80.0124 51.9455L72.9561 53.2292C72.6968 51.706 72.4234 50.2033 72.1359 48.7209ZM71.8405 47.0972C71.7054 46.3545 71.5702 45.6117 71.4351 44.869C73.3659 44.0894 75.3172 43.324 77.2196 42.5853C79.0876 41.8529 81.0215 41.0907 82.9381 40.3315C83.1016 41.2298 83.2681 42.1452 83.4315 43.0434C83.5446 43.6653 83.6609 44.3044 83.7772 44.9435L71.8405 47.0972ZM79.8535 39.483C79.9541 39.4468 80.0375 39.4138 80.1381 39.3777C80.4903 39.3493 80.9148 39.1293 81.3708 38.8857C81.7466 38.6925 82.3629 38.3483 82.5233 38.4441C82.5437 38.4582 82.5705 38.5069 82.5893 38.6105C82.0233 38.8384 81.4572 39.0663 80.8739 39.2973L79.8535 39.483ZM76.3677 40.8488C76.4337 40.8189 76.4856 40.8095 76.5517 40.7796L77.624 40.5845C77.374 40.6835 77.1413 40.7794 76.8913 40.8784L73.2042 42.3165C72.8897 42.3559 72.5312 42.546 72.1555 42.7393C71.8284 42.9059 71.2922 43.1997 71.1319 43.104C71.1115 43.0898 71.0643 43.027 71.0627 42.9203C72.8331 42.2413 74.6004 41.545 76.3677 40.8488ZM66.7108 42.5699L69.8585 41.9973C69.9339 42.4118 70.0125 42.8436 70.0879 43.2582C70.3299 44.5882 70.575 45.9356 70.8201 47.2829L67.6724 47.8555C67.3519 46.0936 67.0313 44.3318 66.7108 42.5699ZM66.2843 46.2165C66.2466 46.2055 66.2261 46.1914 66.1916 46.1977C65.9856 46.1459 65.7246 46.0863 65.4825 46.1304C63.7955 46.1874 62.1964 47.3171 61.4085 48.9772L54.3836 50.2374C54.3239 49.9092 54.2642 49.581 54.2045 49.2528C53.9468 47.8364 53.7064 46.4169 53.4456 44.9832L65.6385 42.765C65.8396 43.8705 66.0439 44.9932 66.245 46.0987C66.2482 46.116 66.2513 46.1333 66.2544 46.1505C66.278 46.1819 66.2812 46.1992 66.2843 46.2165ZM57.8162 33.1599C58.8021 32.7842 59.802 32.3882 60.7879 32.0125C61.1825 31.9229 61.6102 31.7202 62.0237 31.5379C62.5347 31.3022 63.0803 31.0601 63.4702 31.0427C64.1192 34.3152 64.7257 37.649 65.2929 40.8649C65.3683 41.2795 65.4437 41.694 65.5191 42.1086L53.3262 44.3268C52.7951 41.4076 52.2609 38.4712 51.6811 35.5787C53.7266 34.7426 55.7958 33.9379 57.8162 33.1599ZM54.7512 52.2584C54.6695 51.8093 54.5878 51.3601 54.5061 50.911L61.1505 49.7201C61.0514 50.2556 61.141 50.8461 61.4082 51.3328C61.7257 51.8996 62.254 52.2496 62.8734 52.3154C65.0619 52.5597 67.3136 50.7938 67.7431 48.5386L70.9253 47.9597C71.2553 49.7734 71.5711 51.6075 71.8838 53.4243L52.1329 57.0175C52.6958 56.7723 53.2052 56.4298 53.6266 55.9962C54.7132 54.9956 55.163 53.5397 54.7512 52.2584ZM52.9842 51.1879L53.4165 51.1093C53.426 51.1611 53.4323 51.1956 53.4417 51.2475C53.2908 51.2035 53.1461 51.1942 52.9842 51.1879ZM45.5591 46.4179L52.356 45.1814C52.6734 46.926 52.9939 48.6879 53.294 50.4356L46.4939 51.6549L45.5591 46.4179ZM46.6338 52.3254L51.1855 51.5151C50.0078 52.0149 49.0313 53.0313 48.5391 54.1558C48.1648 54.8485 48.1977 55.7169 48.6269 56.4062C48.9586 56.9525 49.4695 57.3057 50.0748 57.3919L47.6362 57.8355L46.6338 52.3254ZM33.0392 47.2323C34.8411 46.5298 36.6398 45.8099 38.4417 45.1074C39.8929 44.54 41.3269 43.9758 42.7781 43.4084C42.9479 43.3597 43.1288 43.2732 43.3269 43.1837C43.5077 43.0972 43.852 42.9275 43.9479 42.9636C43.9479 42.9636 43.9715 42.995 43.9699 43.0845C42.7372 43.5764 41.5014 44.0511 40.2514 44.5462L38.3175 45.3084C36.9496 45.8428 35.5989 46.374 34.231 46.9084C34.0612 46.9572 33.8804 47.0436 33.6823 47.1332C33.5015 47.2196 33.1571 47.3893 33.0612 47.3532C33.0612 47.3532 33.0377 47.3218 33.0392 47.2323ZM44.5732 46.5973L45.5254 51.8311L34.2805 53.8589C34.2774 53.8417 34.2711 53.8071 34.2679 53.7898C33.9788 52.2007 33.6866 50.5943 33.3975 49.0052C33.9635 48.7773 34.5154 48.5698 35.0814 48.3419L44.5764 46.6145L44.5732 46.5973ZM38.3801 47.028C40.3141 46.2657 42.2826 45.4972 44.2512 44.7286L44.468 45.9205L38.3801 47.028ZM34.4031 54.5326L45.648 52.5047L46.4524 56.9267C46.4556 56.9439 46.4587 56.9612 46.4618 56.9785C46.465 56.9958 46.4886 57.0272 46.4917 57.0444C46.454 57.0335 46.4367 57.0366 46.3989 57.0256C46.2103 56.9707 45.9697 56.9253 45.7449 56.9662C44.4855 57.0168 43.2701 57.7019 42.4823 58.7732L35.3914 60.0632C35.0693 58.1945 34.733 56.3463 34.4031 54.5326ZM32.3284 48.8249C32.4698 49.6022 32.6112 50.3795 32.7526 51.1568C32.9255 52.1068 33.0983 53.0569 33.2743 54.0242L26.6817 55.2057L26.6786 55.1884C25.9368 53.0749 24.0046 51.7846 22.2423 50.642L32.3253 48.8076L32.3284 48.8249ZM27.01 58.0903C27.0415 57.2816 26.9992 56.5577 26.8593 55.8871L33.4 54.7151C33.7331 56.546 34.0693 58.3943 34.3882 60.2457L28.0237 61.4035C27.9861 60.0185 27.6435 58.9209 27.01 58.0903ZM25.9552 56.7119C25.9709 56.7983 25.9866 56.8846 26.0023 56.971C25.7005 56.6868 25.3876 56.4404 25.0402 56.2002L25.8012 56.0618C25.8468 56.2141 25.8892 56.3492 25.9175 56.5046C25.9332 56.591 25.9426 56.6428 25.9552 56.7119ZM22.8064 53.0555C24.138 53.7947 25.031 54.578 25.5261 55.4337L24.2463 55.6666C24.2259 55.6524 24.185 55.6242 24.1645 55.6101C23.5577 55.2208 22.9304 54.8174 22.4148 54.3402C21.7545 53.6573 21.3081 52.9712 21.0613 52.3023C21.6478 52.4811 22.2357 52.7667 22.8064 53.0555ZM21.8469 56.8169C21.8438 56.7996 21.8438 56.7996 21.8406 56.7823L22.0482 56.7446C22.1268 56.7838 22.2227 56.8199 22.284 56.8623C22.4994 56.9658 22.7148 57.0694 22.883 57.1102C23.0779 57.1996 23.2902 57.2859 23.4993 57.355C24.79 57.8696 26.1389 58.4094 26.7237 59.6593C26.9641 60.2936 27.0977 60.9296 27.1385 61.5467L22.8148 62.3333C22.4848 60.5196 22.1659 58.6682 21.8532 56.8514C21.8501 56.8341 21.8469 56.8169 21.8469 56.8169ZM19.7204 51.1186C19.8492 51.8268 19.978 52.535 20.1069 53.2432C20.2891 54.2451 20.4777 55.2815 20.6631 56.3006L4.91837 59.1293C4.56304 59.1404 4.21714 59.2033 3.88067 59.318C3.64962 58.7355 3.41543 58.1357 3.16708 57.5563L2.8433 56.7586C3.45186 55.8806 3.9032 54.9241 4.18947 53.9441L19.7204 51.1186ZM8.91463 62.2389C8.64433 61.146 7.85519 60.1475 6.80657 59.5888C6.7484 59.5637 6.70753 59.5354 6.64936 59.5103L20.7856 56.9742C21.1219 58.8225 21.4581 60.6707 21.7629 62.5425L8.94733 64.874C9.21472 63.9866 9.2274 63.0742 8.91463 62.2389ZM5.41916 65.5159L4.12203 65.7518C4.06072 65.7095 4.0167 65.6639 3.9381 65.6247C3.59066 65.3845 3.1206 65.0596 2.98385 64.799C2.9807 64.7817 2.96341 64.7849 2.96027 64.7676C2.56097 64.3406 2.71516 63.4203 3.07528 62.748C3.32846 62.2737 3.65081 61.9831 3.85362 62.0175C4.036 62.0379 4.17904 62.3331 4.26703 62.8167C4.38802 63.3836 4.69768 64.0054 4.9869 64.613C5.14723 64.9051 5.29027 65.2002 5.41916 65.5159ZM1.07986 51.5832L1.05472 51.445C0.925905 50.5405 1.07707 48.6215 1.86011 48.015C1.96861 47.9239 2.10068 47.8642 2.23904 47.839C2.42929 47.8044 2.6321 47.8389 2.86164 47.9221C3.65076 49.1169 3.42101 50.8004 2.15038 53.048C2.15038 53.048 2.15352 53.0653 2.13623 53.0685C1.98053 53.4894 1.84687 53.6386 1.78712 53.703L1.68335 53.7219C1.56072 53.6371 1.3438 53.2305 1.07986 51.5832ZM5.72397 67.1914C4.54631 67.6911 3.14702 67.6602 1.95376 67.0921C0.87998 66.5915 0.13327 65.728 -0.168473 64.6587C-0.954289 62.107 0.591505 59.7023 2.16241 57.632C2.4548 58.0606 2.93738 58.8472 2.9436 59.4707L2.61499 59.5304C2.42475 59.5651 2.31467 59.7457 2.3461 59.9184C2.37124 60.0566 2.47971 60.1618 2.6102 60.1916C2.53001 60.2419 2.44982 60.2921 2.35233 60.3456C2.33504 60.3487 2.32089 60.3691 2.30359 60.3723C1.47492 61.219 1.13831 62.5115 1.41645 63.7458C1.68202 64.9109 2.41458 65.7948 3.4695 66.1918C3.56226 66.2106 3.65502 66.2294 3.73049 66.2513C3.80751 66.3801 3.94429 66.4444 4.08265 66.4193L5.6392 66.1361C5.7665 66.5412 5.79476 66.893 5.72397 67.1914ZM5.90353 64.4463C5.82967 64.1385 5.65048 63.7428 5.44772 63.3157C5.15535 62.6908 4.74982 61.8367 4.96052 61.6199C5.02028 61.5555 5.20109 61.469 5.82525 61.6589C6.72768 61.9051 7.41781 62.654 7.67239 63.6605C7.79811 64.1551 7.79648 64.6372 7.6848 65.1037L6.26661 65.3617C6.1566 64.9534 6.04187 64.6174 5.90353 64.4463ZM6.90166 66.4953C6.84505 66.577 6.79631 66.6037 6.79316 66.5864C6.7004 66.5676 6.58095 66.3038 6.4725 66.0023L7.40643 65.8324C7.27119 66.0712 7.11236 66.2785 6.91267 66.4576C6.91581 66.4749 6.89852 66.478 6.90166 66.4953ZM17.4699 68.9982C17.8488 69.4111 18.3959 69.6685 18.954 69.6918L8.58335 71.6142C8.45923 70.8338 8.14487 70.0879 7.85095 69.3562C7.56646 68.6763 7.29139 68.0483 7.17198 67.3919C7.81508 66.9002 8.31198 66.2923 8.65481 65.6232L21.8855 63.2162C21.9137 63.3716 21.9389 63.5098 21.9672 63.6653C21.1528 63.5101 20.2503 63.6564 19.4704 64.0838C17.9657 64.9464 17.0222 66.2423 16.9466 67.5945C16.9135 68.1001 17.0942 68.6026 17.4699 68.9982ZM20.476 69.415C21.9823 68.8554 23.116 67.5249 23.4338 65.9324C23.4448 65.8948 23.4417 65.8775 23.4354 65.8429C23.2751 64.962 23.1117 64.0638 22.9687 63.1797C22.9593 63.1279 22.9499 63.0761 22.9405 63.0243L27.1431 62.2597C27.1352 62.5109 27.0896 62.7512 27.044 62.9915C27.033 63.0292 27.0393 63.0638 27.0456 63.0983C27.0581 63.1674 26.9638 63.4344 26.9166 63.5679C26.8002 63.9103 26.709 64.1945 26.9165 64.3531C27.124 64.5116 27.3756 64.3231 27.5014 64.2288C27.5501 64.2021 27.5784 64.1613 27.5863 64.1063C27.8222 63.4388 27.9685 62.7698 28.0252 62.0992L34.5108 60.9193C34.5579 61.1784 34.6019 61.4202 34.6491 61.6793C32.753 61.2748 30.852 62.7092 30.116 64.3599C29.7842 64.9913 29.8045 65.7906 30.1896 66.4344C30.5182 66.9635 31.026 67.2994 31.6077 67.3541L20.476 69.415ZM33.3859 67.0128C33.4205 67.0065 33.452 66.9829 33.4866 66.9766C33.5039 66.9735 33.5039 66.9735 33.5211 66.9703C34.7633 66.3339 36.1486 65.0112 35.9853 63.3278C35.8454 62.461 35.6883 61.5973 35.5312 60.7337L42.0168 59.5538C41.9775 59.6323 41.9382 59.7109 41.902 59.8067C41.6189 60.4114 41.6645 61.1526 41.9883 61.7539C42.2791 62.272 42.7664 62.5938 43.334 62.669C45.3574 62.8898 47.4691 61.2386 47.8373 59.1373C47.8483 59.0996 47.8452 59.0824 47.8389 59.0478L47.7415 58.5123L72.0063 54.098C72.0283 54.2189 72.0472 54.3225 72.0692 54.4434C70.1071 54.0687 68.2485 55.4419 67.4339 57.0533C66.97 57.7445 66.9432 58.6773 67.3644 59.4215C67.6788 59.971 68.1929 60.3415 68.7809 60.4308L33.3859 67.0128ZM100.587 49.7372C99.9942 50.309 99.0082 51.4698 99.1401 52.7842C99.1354 53.249 99.3381 53.6761 99.6871 54.023C99.9041 54.2334 100.187 54.4139 100.475 54.5222L70.8705 60.0328C72.2541 59.3885 73.3218 58.0879 73.4918 56.6651C73.4886 56.6478 73.5028 56.6274 73.4965 56.5928C73.3677 55.6883 73.2216 54.787 73.0755 53.8856L79.6649 52.6868C79.3865 53.4156 79.5483 54.207 80.1064 54.8193C80.7289 55.4912 81.6628 55.7139 82.482 55.4043C84.1407 54.9954 85.9254 53.5108 85.9602 51.5416L92.9993 50.261C93.7366 50.68 94.7774 50.7048 95.529 50.3183C95.9598 50.1328 96.3954 49.8751 96.7869 49.5719L102.771 48.4833C102.002 48.6767 101.222 49.1041 100.587 49.7372Z" fill="white"/>
</g>
<defs>
<clipPath id="clip0_1846_2369">
<rect width="102" height="102" rx="10" fill="white"/>
</clipPath>
</defs>
</svg>
