<svg width="102" height="102" viewBox="0 0 102 102" fill="none" xmlns="http://www.w3.org/2000/svg">
<rect width="102" height="102" rx="10" fill="#47BF38"/>
<path fill-rule="evenodd" clip-rule="evenodd" d="M97.7721 44.2408C97.7721 44.2408 97.7721 44.2492 97.7721 44.266C97.7383 44.4257 97.561 45.2917 97.274 46.7713C96.8688 48.4022 96.2863 50.8066 95.1635 53.7155C94.0492 56.6243 92.4199 60.0543 90.0647 63.6357C87.7263 67.2255 84.6534 70.975 80.7617 74.4723C76.8954 77.978 72.1848 81.1979 66.7398 83.7452C62.9241 85.5191 58.737 86.9483 54.2712 87.8394L53.4355 83.678C57.5467 82.8541 61.413 81.5342 64.9333 79.8948C69.5088 77.751 73.5355 75.0944 76.9291 72.1772C77.1064 72.3874 77.2921 72.5975 77.4694 72.8077C80.8799 70.5883 84.1216 68.0073 87.0425 64.9388C86.9665 64.8883 86.9074 64.8379 86.8483 64.7959L84.9996 63.4592C85.523 62.7362 86.021 62.0216 86.4853 61.3154C88.0977 58.8605 89.3387 56.4898 90.2842 54.346C90.3517 54.3544 90.4192 54.3544 90.4952 54.3544C90.8751 54.3544 91.255 54.2367 91.6517 53.9929C92.1751 53.665 92.6648 53.2615 93.0362 52.7487C93.3992 52.2358 93.6862 51.6305 93.8635 50.9243C94.0577 50.008 93.8044 49.4363 93.1713 49.1505C92.918 49.0328 92.6648 48.9823 92.4115 48.9823C92.3609 48.9823 92.3186 48.9907 92.2764 48.9907C92.6479 47.7465 92.9096 46.6788 93.1122 45.8381V45.8297C93.2219 45.2833 93.3148 44.8293 93.3823 44.4762C93.5089 43.8457 93.568 43.5178 93.568 43.5178L93.3401 43.4758C93.3401 43.4758 93.3401 43.4842 93.3317 43.501C93.2979 43.6523 93.1459 44.4341 92.8758 45.7793C92.6648 46.6368 92.3946 47.7381 92.0147 49.0244C91.6939 49.0916 91.3647 49.2513 91.0439 49.4952C90.6049 49.8314 90.1829 50.2097 89.8452 50.6553C89.5075 51.1009 89.2627 51.6137 89.0601 52.1938C88.9419 52.5385 88.925 52.9084 88.8575 53.2867C87.9711 52.9 87.1353 52.5469 86.3165 52.2022C86.2489 52.1686 86.173 52.1434 86.1054 52.1097C84.7801 51.5465 83.5138 51 82.1884 50.4367C82.1209 50.4031 82.0449 50.3779 81.9774 50.3443C81.0488 49.9491 80.0948 49.5372 79.0734 49.1084C79.0227 49.2261 78.9805 49.3186 78.9299 49.4447C79.0227 49.4783 79.0987 49.5204 79.1831 49.554C80.1033 49.9659 80.9728 50.3443 81.817 50.7142C81.0572 52.4292 80.0611 54.3292 78.761 56.3048C78.3896 56.8765 77.9844 57.465 77.5538 58.0535C77.1993 57.8601 76.8363 57.7676 76.4733 57.7676C76.1609 57.7676 75.8402 57.8265 75.494 57.9358C74.8187 58.1543 74.2784 58.5158 73.8985 59.1043C73.3836 59.9282 73.7381 60.8194 74.6921 61.0548C74.8187 61.0884 74.9453 61.1052 75.0804 61.1136C74.0674 62.257 72.9446 63.3919 71.7121 64.5016C71.5432 64.6529 71.366 64.8127 71.1887 64.964L70.1757 63.8038C69.9477 63.5516 69.6776 63.3667 69.3568 63.2742C69.0107 63.1817 68.673 63.1313 68.3438 63.1313C68.1581 63.1313 67.9808 63.1481 67.8204 63.1817C67.3392 63.2742 66.9002 63.5012 66.4781 63.8459C65.8619 64.3671 65.8619 65.2078 66.4697 65.7374C66.6385 65.8804 66.8496 66.0065 67.0606 66.0653C67.4067 66.1662 67.7529 66.2166 68.099 66.2166C68.8165 66.2166 69.5088 65.9728 70.0828 65.3507C70.2516 65.1742 70.3698 64.964 70.5133 64.7454C70.6484 64.8968 70.775 65.0565 70.9186 65.2078C69.3399 66.5613 67.6093 67.8392 65.7099 69.0246C65.0768 68.041 64.4352 67.0489 63.8358 66.0401C63.7008 65.8131 63.5488 65.6282 63.38 65.46C65.3976 64.2074 67.2379 62.8118 68.8419 61.349C71.5095 58.953 73.6115 56.3973 75.1817 53.9845C76.7688 51.5717 77.8409 49.3102 78.5669 47.4018C79.3097 45.4934 79.6727 43.9297 79.9344 42.8873L79.9429 42.8789C79.9935 42.6266 80.0357 42.3997 80.0695 42.2063C80.1961 41.5842 80.2637 41.2479 80.2637 41.2479L80.0357 41.2059C80.0357 41.2059 80.0273 41.2143 80.0273 41.2311C80.002 41.3572 79.8922 41.9036 79.7065 42.8284C79.4364 43.8793 79.0818 45.4262 78.3389 47.3177C77.6129 49.2093 76.5493 51.4624 74.9706 53.85C73.4089 56.2544 71.3322 58.7933 68.6815 61.1725H68.673C67.0606 62.6437 65.2203 64.0392 63.1858 65.3003C62.8059 65.006 62.3585 64.8631 61.8604 64.8211C61.7338 64.8043 61.5987 64.7959 61.4721 64.7959C60.974 64.7959 60.5182 64.922 60.1214 65.233C59.4967 65.7038 59.463 66.4941 60.0117 67.0742C59.7078 67.2255 59.4039 67.3684 59.1 67.5113C58.0532 67.9989 56.9642 68.4529 55.8498 68.848L55.5291 67.9653C55.4109 67.6458 55.242 67.3768 54.9972 67.1666C54.4063 66.7043 53.8069 66.4352 53.1991 66.4352C52.9374 66.4352 52.6757 66.4857 52.414 66.5781C51.7387 66.7883 51.4854 67.5449 51.8315 68.2679C51.9244 68.4613 52.0679 68.6547 52.2199 68.7892C52.6335 69.1339 53.0725 69.4029 53.5368 69.5038C53.5959 69.5122 53.6634 69.529 53.7309 69.5374C51.5276 70.1763 49.223 70.6219 46.8593 70.8237C46.3106 70.8573 45.7618 70.8993 45.2047 70.9246C44.656 70.933 44.1072 70.9414 43.5501 70.9498C43.1533 70.933 42.7565 70.9162 42.3598 70.9077C42.2163 70.7144 42.039 70.5378 41.8448 70.3781C41.3636 69.9409 40.8571 69.6803 40.2577 69.6803C40.2324 69.6803 40.2071 69.6803 40.1902 69.6887C39.7512 69.7224 39.4051 69.9325 39.2025 70.2604C39.1434 70.3445 39.0928 70.4538 39.059 70.5631C38.4427 70.4454 37.8349 70.3108 37.2271 70.1595C36.4167 69.9325 35.6147 69.6887 34.8381 69.3861L34.9563 69.0834C35.0913 68.7471 35.1589 68.4025 35.1167 68.0662C34.99 66.9312 34.5933 66.1998 33.7997 65.8467C33.6731 65.7963 33.5465 65.7711 33.4283 65.7711C33.2426 65.7711 33.0653 65.8215 32.888 65.914C32.601 66.0821 32.3393 66.3848 32.1873 66.7883C32.1029 67.0069 32.0523 67.2507 32.0607 67.4777C32.0607 67.6879 32.086 67.898 32.1198 68.0998C29.2158 66.452 26.7423 64.0897 25.0371 61.2481C24.2689 59.9871 23.6526 58.6504 23.2052 57.2548C24.1254 56.9606 25.0455 56.6579 25.9657 56.3637C25.9404 56.2796 25.9066 56.2039 25.8897 56.1367C25.5689 56.1871 25.2566 56.246 24.9442 56.2712C24.8851 56.2712 24.8345 56.2796 24.7838 56.2796C24.4715 56.2796 24.1845 56.2039 23.9228 56.0694C23.5598 55.9013 23.2221 55.7247 22.8591 55.5398C22.8169 55.5146 22.7747 55.4893 22.7325 55.4725C22.3948 53.9845 22.226 52.446 22.226 50.8991C22.226 50.3779 22.2428 49.8567 22.285 49.3438C22.3441 48.8058 22.3695 48.2845 22.4539 47.7717C22.5045 47.5111 22.5299 47.2337 22.5721 46.9899L22.7409 46.2669C22.9097 45.3085 23.2727 44.3753 23.5851 43.4337C24.3111 41.601 25.3663 39.8944 26.5904 38.3391C27.1138 37.6581 27.6878 37.0192 28.2956 36.4307C29.697 37.8431 31.1068 39.2554 32.5166 40.6678C32.5757 40.609 32.6179 40.5585 32.677 40.4997C32.6094 40.4324 32.5503 40.3652 32.4828 40.2979L28.5405 36.2037C29.2665 35.5143 30.0431 34.8838 30.8282 34.3037L31.4191 33.875C31.6133 33.7321 31.799 33.5975 32.0016 33.4883C32.4153 33.2445 32.8289 33.0006 33.2341 32.7568C33.6309 32.5299 34.0699 32.3533 34.492 32.1431L35.1082 31.8321L35.7582 31.5967V31.5883C37.4382 30.8737 39.1687 30.5374 40.8318 30.2936C41.5325 30.2432 42.1994 30.1507 42.8663 30.1507C43.0098 30.1507 43.1449 30.1591 43.2799 30.1675H43.2884C43.491 30.1675 43.6851 30.1675 43.8877 30.1675H43.9468C44.0228 30.1675 44.0988 30.1675 44.1663 30.1675C44.1748 30.1675 44.1748 30.1675 44.1748 30.1675C44.1832 30.1675 44.1917 30.1675 44.1917 30.1675C44.1832 30.3104 44.1748 30.4617 44.1748 30.6047C45.2722 30.9914 46.2515 31.3865 47.0534 31.9918C47.484 32.2272 47.8132 32.5971 48.1762 32.8829C48.345 33.0343 48.4801 33.2276 48.6321 33.3958L48.86 33.6312C48.9275 33.7152 48.9866 33.8161 49.0457 33.9086C49.0964 33.8329 49.1386 33.7741 49.1808 33.7068L50.2613 32.1684C50.7763 32.5383 51.2406 32.9334 51.6711 33.3285C52.5744 34.2869 53.2244 35.2958 53.6634 36.271C53.4439 36.4559 53.2582 36.6493 53.1147 36.8595C53.0556 36.9519 52.9965 37.0276 52.9543 37.1117C52.8952 37.1957 52.8361 37.2798 52.7939 37.3639C52.6926 37.5236 52.6251 37.6749 52.5828 37.8179C52.5406 37.9608 52.5322 38.0953 52.5491 38.2298C52.5406 38.3727 52.566 38.5072 52.6335 38.6417C52.7095 38.8183 52.8699 38.936 53.0894 39.0116C53.2666 39.0705 53.4692 39.0957 53.7141 39.0957C53.7816 39.0957 53.8491 39.0957 53.9251 39.0873C54.1108 39.0789 54.2797 39.0537 54.4401 39.02C54.5076 39.5833 54.516 40.0961 54.516 40.5417C54.516 40.7519 54.5076 40.9452 54.5076 41.1134V41.1975C54.3894 42.0297 54.3556 42.4837 54.3556 42.4837L54.5836 42.5005C54.5836 42.5005 54.5836 42.4921 54.5836 42.4837C54.592 42.4501 54.592 42.3408 54.6173 42.1727C54.6427 41.9625 54.6764 41.6346 54.7355 41.2227V41.1134C54.7355 40.9368 54.744 40.7435 54.744 40.5417C54.744 40.0877 54.7355 39.5497 54.6595 38.9612C55.0985 38.8351 55.47 38.6165 55.7401 38.2886C56.0102 37.9692 56.2044 37.6077 56.3057 37.2378C56.3564 36.8763 56.3057 36.498 56.1453 36.128C56.0693 35.9011 55.8245 35.7581 55.6641 35.5732C56.4323 35.2537 57.1583 34.9427 57.8674 34.6484C58.1629 35.3378 58.3908 36.0019 58.5597 36.6493C58.948 38.1457 59.0155 39.4572 59.0155 40.4997C59.0155 40.8696 59.0071 41.1975 59.0071 41.5001C58.9733 41.7944 58.9396 42.0634 58.9142 42.282L59.1422 42.2736C59.1675 42.055 59.2013 41.8028 59.235 41.5169V41.5001C59.235 41.2059 59.2435 40.8696 59.2435 40.4913C59.2435 39.4404 59.1844 38.1121 58.7876 36.5904C58.6188 35.9347 58.3908 35.2621 58.0954 34.5643C59.4376 34.0011 60.7039 33.463 62.0208 32.9166C62.4092 33.8161 62.7046 34.6989 62.9157 35.5311C63.4137 37.4816 63.5066 39.1546 63.5066 40.4829C63.5066 40.9621 63.4982 41.4076 63.4813 41.7944C63.4728 41.8868 63.4644 41.9793 63.4475 42.0634L63.6754 42.0466C63.6839 41.9709 63.7008 41.8868 63.7092 41.8112V41.8028C63.7176 41.416 63.7345 40.9705 63.7345 40.4829C63.7345 39.1462 63.6417 37.4395 63.1352 35.4807C62.9157 34.6316 62.6202 33.7405 62.2234 32.8241C63.2618 32.3953 64.3255 31.9414 65.482 31.4538C65.406 31.2772 65.3385 31.1175 65.2541 30.9325C65.1612 30.9746 65.0852 31.0082 65.0008 31.0502C63.9625 31.521 62.9832 31.9582 62.0293 32.3869C61.1767 30.5458 59.9526 28.6458 58.2473 26.8888C57.4454 26.1069 56.5505 25.3503 55.5713 24.6525C55.5713 24.6525 55.5713 24.6525 55.5713 24.6441C55.8583 24.2742 55.9934 23.8707 55.9765 23.4419C55.968 22.9963 55.7908 22.5508 55.4615 22.0884C55.2083 21.7269 54.9212 21.3738 54.5667 21.0795C54.2206 20.7769 53.79 20.5835 53.3173 20.4238C53.0387 20.3313 52.777 20.2893 52.5491 20.2893C51.6965 20.2893 51.2406 20.8778 51.4432 21.668C51.5192 21.9791 51.6458 22.2986 51.8231 22.6096C50.2867 21.9791 48.6236 21.5167 46.8846 21.2309H46.8762C46.3021 21.172 45.7112 21.1048 45.1287 21.0375L45.2722 19.1207C45.2975 18.7844 45.2216 18.4482 44.9767 18.1455C44.58 17.6747 44.065 17.3132 43.4572 17.0694C43.1533 16.9517 42.8241 16.8676 42.4695 16.8088C42.3176 16.7836 42.1656 16.7752 42.0052 16.7668C42.2585 16.7584 42.5117 16.7331 42.765 16.7331C42.976 16.7331 43.1786 16.7415 43.3812 16.7415C44.0819 16.7584 44.7404 16.7331 45.4326 16.8004C46.1417 16.8761 46.8424 16.9601 47.5346 17.0274C50.3036 17.4645 52.9205 18.3221 55.2674 19.499C57.6057 20.7012 59.6065 22.2481 61.2948 23.8959C64.604 27.3007 66.4444 31.1679 67.2801 34.413C67.8964 36.809 68.0146 38.8519 68.0146 40.4661C68.0146 40.9705 68.0061 41.4244 67.9977 41.8448L68.2256 41.8364C68.234 41.4244 68.2425 40.9705 68.2425 40.4745C68.2425 38.8435 68.1243 36.7754 67.4996 34.3626C66.6639 31.0754 64.8067 27.1746 61.4637 23.7446V23.7362H61.4552C59.7584 22.0716 57.7324 20.5163 55.3687 19.2973C53.0049 18.1119 50.3626 17.2544 47.5684 16.8088H47.5599C46.8677 16.7331 46.167 16.6575 45.4579 16.5818C44.7404 16.5146 44.0819 16.5398 43.3897 16.523C43.1871 16.5146 42.976 16.5146 42.765 16.5146C41.5831 16.5146 40.4013 16.6407 39.1941 16.7499C38.2739 16.8761 37.3453 17.0274 36.4083 17.2207C36.4083 17.2207 36.4083 17.2207 36.4083 17.2123C36.307 17.0022 36.155 16.8088 35.9608 16.6491C35.792 16.5061 35.5978 16.3884 35.3615 16.2876C35.1335 16.1951 34.8803 16.1362 34.5933 16.0858C34.2809 16.0354 33.9601 16.0017 33.6393 16.0017C33.0484 16.0017 32.4322 16.1026 31.8328 16.3716C30.5665 17.0022 30.347 17.9774 31.2334 18.5659C31.2841 18.5995 31.3178 18.6247 31.3685 18.6499C31.1574 18.7256 30.9548 18.8097 30.7438 18.9021C30.3977 19.0282 30.0431 19.1628 29.697 19.3057H29.6886C29.3509 19.4654 29.0132 19.6251 28.6755 19.7849V19.7933C28.0002 20.1296 27.308 20.4238 26.641 20.8021H26.6326C26.1599 21.0795 25.6871 21.3654 25.2059 21.6512L24.5053 20.5163C24.3364 20.2304 24.0747 20.0119 23.6948 19.9194C23.374 19.8437 23.0448 19.8017 22.7156 19.8017C22.3948 19.8101 22.0656 19.8605 21.7363 19.9614C21.0779 20.1464 20.3941 20.4995 19.7441 21.0207C18.7817 21.8362 18.6719 22.845 19.3811 23.2485C19.5752 23.3662 19.82 23.4335 20.0817 23.4503C20.1324 23.4503 20.1746 23.4503 20.2252 23.4503C21.4662 23.4503 22.7156 23.2149 23.8806 22.2061C24.1169 21.9959 24.328 21.7689 24.5728 21.5419C24.6488 21.6596 24.7163 21.7773 24.7923 21.895C24.7501 21.9202 24.7079 21.9455 24.6657 21.9707C24.328 22.164 24.0072 22.3826 23.6948 22.618L22.7494 23.2906H22.7409C20.2421 25.1233 17.8615 27.2839 15.8608 29.848C14.3666 31.748 13.0075 33.8161 11.9016 36.0608C11.4626 36.1617 11.0236 36.4223 10.5678 36.8258C10.2048 37.1453 9.86709 37.5152 9.58006 37.9355C9.29304 38.3475 9.11576 38.8519 8.98913 39.3816C8.73588 40.5753 9.11576 41.3404 9.84176 41.416C9.65604 42.055 9.4872 42.7023 9.36058 43.3665L9.08199 44.6275V44.6359C8.99758 45.0647 8.95537 45.4682 8.88783 45.8801C8.74432 46.7124 8.68523 47.5531 8.60925 48.3854C8.60925 48.3938 8.60081 48.4107 8.60081 48.4275L7.89169 48.377C7.84948 48.377 7.80727 48.3686 7.77351 48.3686C7.45272 48.3686 7.14037 48.4695 6.86179 48.7133C6.33839 49.1673 5.93318 49.7474 5.66304 50.4451C5.42667 51.1429 5.30004 51.9584 5.38446 52.8664C5.44356 53.5473 5.67993 54.0686 5.99228 54.3712C6.20332 54.5646 6.43969 54.6654 6.69295 54.6654C6.83646 54.6654 6.98841 54.6318 7.13193 54.5646C7.35986 54.4637 7.56246 54.2871 7.73974 54.0686C8.07741 53.6398 8.34755 53.2026 8.55016 52.7234C8.65146 54.6991 8.91316 56.6747 9.36902 58.6251C9.5463 59.4826 9.80799 60.3149 10.0444 61.1472V61.1556C10.3229 61.9795 10.5931 62.8118 10.9392 63.6189C11.5892 65.2498 12.3743 66.8304 13.2945 68.3268C14.1978 69.8401 15.2361 71.2692 16.3758 72.606C17.0933 73.4551 17.8531 74.2705 18.6551 75.0272C17.8953 75.8174 17.1355 76.6077 16.3673 77.3979C16.5193 77.5409 16.6459 77.6501 16.7388 77.751C17.0427 77.5829 17.3128 77.4063 17.6167 77.2718C17.8362 77.1794 18.081 77.1457 18.3427 77.1457C18.5284 77.1457 18.7141 77.1625 18.9252 77.1962C19.4824 77.2886 20.0226 77.3643 20.5629 77.3979C20.7655 77.4063 20.9681 77.4147 21.1707 77.4147C21.2551 77.4147 21.3311 77.4063 21.4155 77.4063C22.3441 78.1209 23.315 78.7851 24.3195 79.3988C25.7884 80.3236 27.3417 81.0886 28.9119 81.7696C30.4821 82.4505 32.1029 82.9634 33.7238 83.4173H33.7322C35.3615 83.8209 36.9992 84.1656 38.6369 84.3505C39.4558 84.4766 40.2662 84.5018 41.0766 84.5859H41.085C41.1526 84.5859 41.2286 84.5943 41.2961 84.5943C41.7097 84.67 42.1065 84.7372 42.5117 84.8045C42.5117 84.7456 42.5117 84.6868 42.5202 84.6363C42.8241 84.6448 43.128 84.6616 43.4234 84.67H43.4319C44.2085 84.6616 44.9767 84.6448 45.7534 84.6363H45.7618C46.53 84.5859 47.2983 84.5439 48.058 84.4934H48.0665C49.7211 84.3505 51.3588 84.1235 52.9543 83.8209C53.216 85.208 53.4777 86.5952 53.7478 87.9907C52.0172 88.3186 50.2445 88.5624 48.4463 88.7221C47.6106 88.7726 46.7749 88.823 45.9307 88.8819C45.0949 88.8987 44.2423 88.9071 43.3897 88.9155C42.537 88.8819 41.6929 88.8567 40.8318 88.823C39.9285 88.739 39.0252 88.6969 38.122 88.5708C36.307 88.3606 34.4751 87.9823 32.6601 87.5284C30.8451 87.0239 29.0301 86.4439 27.2657 85.6788C25.5014 84.9306 23.7539 84.0563 22.1078 83.0222H22.0993C20.4363 81.9966 18.8323 80.8532 17.3381 79.5669C15.8355 78.2891 14.4172 76.8851 13.1425 75.3634C11.8509 73.8586 10.6775 72.236 9.65604 70.5378C8.61769 68.8396 7.72286 67.0573 6.98842 65.2162C6.60009 64.3083 6.29618 63.3667 5.97539 62.4251C5.70525 61.4751 5.40979 60.5335 5.21563 59.5835C4.54028 56.7252 4.24481 53.8247 4.24481 50.958C4.24481 49.9996 4.27858 49.0412 4.34612 48.0912C4.43053 47.1496 4.49807 46.208 4.65002 45.2917C4.726 44.8209 4.77665 44.3753 4.86107 43.9045L5.18186 42.4585C5.5533 40.5249 6.20332 38.6922 6.86179 36.8847C8.28002 33.3117 10.2554 30.0834 12.5094 27.2166C14.7634 24.3415 17.4057 21.9286 20.2168 19.8689C20.5714 19.6167 20.9259 19.3645 21.2805 19.1123C21.635 18.8601 21.9811 18.6163 22.3526 18.3977C23.0955 17.9606 23.8383 17.5234 24.5643 17.0862C25.3072 16.6743 26.0839 16.3296 26.8436 15.9513C27.2235 15.7747 27.6034 15.5898 27.9833 15.4132C28.3716 15.2619 28.7684 15.1106 29.1567 14.9593C32.2464 13.6898 35.4881 12.9752 38.6538 12.5465C40.0298 12.4203 41.3721 12.2774 42.7143 12.2774C42.9423 12.2774 43.1533 12.2858 43.3812 12.2942H43.3897C43.778 12.3027 44.1663 12.3027 44.5546 12.3111C44.9514 12.3195 45.306 12.3111 45.7281 12.3615H45.7365C46.5638 12.4372 47.3742 12.5296 48.1846 12.6221C51.4348 13.1349 54.5245 14.1438 57.3018 15.5393H57.2934C60.0623 16.9601 62.4598 18.8013 64.469 20.7685C65.4313 21.811 66.3684 22.803 67.1113 23.8959C67.4996 24.4423 67.8964 24.9552 68.2172 25.4932C68.5379 26.0397 68.8503 26.5861 69.1542 27.1158C69.3062 27.3848 69.4581 27.6454 69.5847 27.906C69.7114 28.175 69.838 28.4441 69.9562 28.7131C70.1925 29.2511 70.4205 29.7724 70.6315 30.2852C71.0199 31.3277 71.3238 32.3449 71.6108 33.3117C72.3368 36.1449 72.4887 38.5661 72.4887 40.4661C72.4887 40.878 72.4887 41.2647 72.4718 41.6346L72.6998 41.6262C72.7082 41.2647 72.7167 40.878 72.7167 40.4661C72.7167 38.5493 72.5732 36.1028 71.8303 33.2445C71.5432 32.2776 71.2393 31.252 70.851 30.2011H70.8426C70.6315 29.6799 70.4036 29.1502 70.1588 28.6206C70.0406 28.3516 69.914 28.0826 69.7958 27.8051C69.6607 27.5277 69.5003 27.2671 69.3568 26.9981C69.0613 26.46 68.7405 25.9136 68.4198 25.3671C68.0821 24.8122 67.6853 24.291 67.3054 23.753C66.5457 22.6432 65.6002 21.6428 64.6378 20.6088L64.6294 20.6003C62.6118 18.6163 60.1974 16.7668 57.4031 15.3208C54.6005 13.9168 51.4854 12.8995 48.2184 12.3867H48.21C47.3996 12.2522 46.5807 12.1597 45.745 12.0841C45.306 12.0336 44.9345 12.042 44.5462 12.0252C44.1579 12.0252 43.7696 12.0168 43.3812 12.0168C43.1533 12.0084 42.9338 12 42.7059 12C41.3467 12 39.9961 12.1429 38.62 12.269H38.6116C35.429 12.6978 32.1705 13.4208 29.0554 14.6986C28.6671 14.85 28.2703 15.0097 27.8736 15.1526H27.8651L27.8567 15.161C27.4852 15.3376 27.0969 15.5225 26.717 15.6991C25.9657 16.069 25.1722 16.4221 24.4208 16.8424C23.6864 17.2796 22.9435 17.7167 22.2091 18.1539C21.8207 18.3725 21.4662 18.6163 21.1116 18.8769C20.7571 19.1291 20.4025 19.3813 20.048 19.6335C17.2284 21.7017 14.5608 24.1313 12.2983 27.0233C10.0528 29.9069 8.06897 33.152 6.63386 36.7502V36.7586C5.97539 38.5661 5.32537 40.4156 4.93705 42.366L4.6247 43.812C4.53184 44.2996 4.48119 44.7452 4.40521 45.2076C4.25326 46.1324 4.18572 47.0823 4.09286 48.0239C4.03377 48.9739 4 49.9407 4 50.9075C4 53.7743 4.29546 56.6999 4.97081 59.5751C5.17342 60.5419 5.46044 61.4919 5.73902 62.4419V62.4503C6.05981 63.3835 6.36372 64.3335 6.75204 65.2498C7.48648 67.0994 8.38976 68.8901 9.42811 70.6051C10.458 72.3201 11.6314 73.9511 12.9399 75.4643C14.2315 76.986 15.6413 78.4068 17.1608 79.6846C18.6635 80.9793 20.2759 82.1395 21.9558 83.1651C23.6273 84.2076 25.3748 85.0819 27.156 85.8385C28.9372 86.612 30.7607 87.1921 32.5841 87.6965L32.5925 87.7049C34.416 88.1589 36.2563 88.5372 38.0882 88.7558C39.0084 88.8903 39.9116 88.9323 40.8149 89.008H40.8234C41.6844 89.0416 42.537 89.0668 43.3897 89.1005H43.3981V89.0921C44.2507 89.0836 45.0949 89.0668 45.9391 89.0584H45.9476C46.7833 89.008 47.6275 88.9575 48.4632 88.8987C50.2782 88.7474 52.051 88.4952 53.7985 88.1673C53.9167 88.781 54.0348 89.3947 54.1446 90.0084C54.3303 89.9664 54.4907 89.9327 54.6933 89.8907C54.6764 89.7982 54.6595 89.7142 54.6427 89.6217L54.3303 88.0664C58.8129 87.1753 63.017 85.7377 66.8496 83.9554C72.3115 81.3997 77.0473 78.163 80.9306 74.6404C84.8307 71.1347 87.9204 67.3684 90.2757 63.7618C92.6394 60.1636 94.2771 56.7252 95.3915 53.7995C96.5311 50.8739 97.1136 48.4611 97.5104 46.8301V46.8217C97.8396 45.174 98.0169 44.2912 98.0169 44.2912L97.7721 44.2408ZM23.2643 56.9017C23.2052 56.9101 23.1461 56.9269 23.0955 56.9353C23.0786 56.8597 23.0448 56.784 23.0279 56.7083C23.1123 56.7756 23.1883 56.8344 23.2643 56.9017ZM24.826 61.3574C26.5904 64.2914 29.1652 66.7211 32.1873 68.3941C32.3984 69.0834 32.8458 69.5963 33.6056 69.8317C33.8166 69.8905 34.053 69.8653 34.2809 69.8905C33.7997 71.0591 33.3185 72.236 32.8374 73.413C32.8036 73.4803 32.7783 73.5559 32.7529 73.6232C32.2127 74.9347 31.6808 76.2462 31.1405 77.5577C31.0139 77.5072 30.8873 77.4484 30.7522 77.3979C29.3931 76.8094 28.0593 76.1453 26.793 75.355C26.354 75.086 25.9319 74.8086 25.5014 74.5227C26.5735 73.9259 27.0631 72.9254 27.3333 71.7905C27.3839 71.5635 27.4093 71.3281 27.4346 71.0927C27.4599 70.9162 27.4515 70.9246 27.2657 70.8069C27.2489 70.9246 27.2235 71.0338 27.2066 71.1431C27.0294 72.0847 26.7001 72.9675 25.9741 73.6484C25.6956 73.909 25.3663 74.094 24.9949 74.1697C24.3617 73.7157 23.7539 73.2281 23.1546 72.7237C22.8422 72.463 22.5383 72.1856 22.2428 71.9166L25.1553 68.806C27.2826 70.7816 29.7561 72.379 32.4153 73.4971C32.525 73.5475 32.6348 73.5896 32.7445 73.6316C32.7783 73.5643 32.8036 73.4887 32.8289 73.4214C32.7192 73.3794 32.6094 73.3374 32.4997 73.2869C29.8658 72.1772 27.4093 70.5967 25.2988 68.6463C25.5352 68.3688 25.6618 68.0241 25.704 67.6795C25.8222 66.5529 25.6196 65.6366 24.8683 64.8883C24.6234 64.6361 24.2942 64.5016 23.9481 64.5016C23.7455 64.5016 23.5429 64.5521 23.3487 64.6445C23.0786 64.7706 22.8844 64.9808 22.7409 65.2414C22.6649 65.3591 22.5974 65.4936 22.5552 65.6282C22.0571 64.9724 21.5844 64.283 21.1538 63.5684C20.2084 62.0132 19.457 60.357 18.8999 58.6335C20.2506 58.1964 21.6013 57.7592 22.952 57.3221C23.4331 58.7176 24.0494 60.0795 24.826 61.3574ZM15.9621 61.4751C15.8692 61.1052 15.7342 60.7437 15.5569 60.4242C15.4471 60.2225 15.2868 60.0543 15.1432 59.8441C16.3335 59.4574 17.5238 59.0791 18.7057 58.6924C19.2713 60.4242 20.0311 62.1056 20.985 63.6693V63.6609C21.4493 64.4344 21.9558 65.1742 22.5045 65.8804C22.2766 66.9396 22.7325 68.2848 23.6695 68.9069C23.8383 69.0246 24.0578 69.0918 24.2689 69.1843C23.4922 69.9914 22.7156 70.79 21.9389 71.5887C21.2467 70.933 20.5967 70.2436 19.9804 69.5122C19.0012 68.3688 18.1063 67.1414 17.3381 65.8467C16.8654 65.0733 16.4264 64.2746 16.0381 63.4507C16.0887 63.1901 16.1056 62.9043 16.0972 62.6269C16.0803 62.257 16.055 61.8534 15.9621 61.4751ZM13.6828 56.1871C13.7166 56.1535 13.7503 56.1283 13.7841 56.103C14.5354 55.5146 15.3627 55.1867 16.2913 55.1867C16.342 55.1867 16.3926 55.1867 16.4348 55.1951C17.0173 55.2119 17.5323 55.4137 17.9375 55.7836C17.9459 55.7836 17.9459 55.792 17.9459 55.792C18.1148 56.6495 18.3258 57.4986 18.5875 58.3393L14.5101 59.5835C14.3075 58.9026 14.1049 58.2216 13.9614 57.5406C13.8516 57.0867 13.7588 56.6327 13.6828 56.1871ZM18.233 56.0442C18.6466 56.4225 19.0434 56.8008 19.457 57.1539C19.7187 57.3641 19.9551 57.5995 20.2337 57.8349C19.9889 57.9105 19.7694 57.9778 19.5499 58.0451L18.807 58.272C18.5875 57.5322 18.3934 56.7924 18.233 56.0442ZM22.0909 72.0763C22.3864 72.3537 22.6987 72.6228 23.011 72.8834C23.5513 73.3542 24.1 73.7829 24.6657 74.2033C24.6403 74.2033 24.6066 74.2033 24.5812 74.2033C24.5221 74.2033 24.463 74.2033 24.3955 74.1949C24.0072 74.1612 23.6104 74.1192 23.2137 74.052C22.8169 73.9847 22.4286 73.8922 22.0318 73.8082C21.6266 73.7157 21.2298 73.598 20.7993 73.4467C20.9681 73.2617 21.1285 73.0936 21.2805 72.9254L22.0909 72.0763ZM22.724 56.4729C22.7747 56.6411 22.8169 56.8092 22.8675 56.9774C22.6649 57.011 22.4792 57.0194 22.2766 57.0194C21.559 57.0194 20.8837 56.826 20.259 56.4477C19.6343 56.0526 19.0012 55.6238 18.3089 55.2876L18.0641 55.1699L18.0388 55.1615V55.1531L18.0641 55.1699C18.0557 55.1446 18.0557 55.1194 18.0557 55.0942C18.2498 55.0606 18.444 55.0354 18.6466 54.9933C18.8492 54.9513 19.0518 54.9345 19.246 54.9345C19.5921 54.9345 19.9382 54.9933 20.2759 55.1026C21.2383 55.4221 22.0065 55.9265 22.724 56.4729ZM26.3878 38.1794C25.1553 39.7515 24.0916 41.4749 23.3572 43.3328V43.3412C23.0448 44.266 22.6734 45.2076 22.5045 46.1996L22.3357 46.9226C22.285 47.1748 22.2597 47.4523 22.2175 47.7045C22.1162 48.2425 22.0993 48.7722 22.0402 49.3018C21.998 49.8314 21.9811 50.3527 21.9811 50.8823C21.9811 52.3872 22.1331 53.8752 22.4454 55.3296C22.2091 55.2119 21.9643 55.111 21.7194 55.0017C21.0694 54.7327 20.3856 54.5225 19.6512 54.5225C19.4824 54.5225 19.3051 54.5309 19.1278 54.5562C18.7564 54.615 18.3849 54.7243 18.0219 54.842C17.9459 54.8672 17.87 54.884 17.794 54.9008C17.7687 54.9092 17.7518 54.9093 17.7349 54.9261C17.6758 54.9429 17.6083 54.9597 17.5492 54.9597C17.5323 54.9597 17.5154 54.9597 17.4985 54.9513C17.1186 54.8504 16.7472 54.8 16.3842 54.8C15.5991 54.8 14.8562 55.0354 14.1471 55.4977C13.9698 55.6154 13.801 55.7584 13.6322 55.9097C13.3451 54.2535 13.2185 52.5721 13.2185 50.9075C13.2185 50.3274 13.2354 49.7474 13.2692 49.1673C14.6874 49.2429 16.1056 49.327 17.5238 49.4027C17.4985 49.8903 17.4816 50.3863 17.4816 50.8739C17.4816 52.219 17.5829 53.5641 17.8024 54.9008C17.8784 54.8756 17.9544 54.8588 18.0304 54.8336C17.8193 53.5221 17.718 52.1938 17.718 50.8739C17.718 50.3863 17.7349 49.8987 17.7602 49.4111C18.5875 49.4615 19.3979 49.4952 20.2252 49.5456C21.0188 46.4434 22.3104 43.9129 24.1085 41.7019C24.0156 41.6514 23.9481 41.6178 23.8806 41.5842L20.2928 39.8019L20.0902 39.701L17.3212 38.3055C16.9751 38.1289 16.629 37.9608 16.2829 37.7842C17.0511 36.2878 17.9375 34.8838 18.9252 33.5555C18.9843 33.8077 19.1194 34.0347 19.3473 34.2365C19.7778 34.6232 20.2421 34.7829 20.7655 34.7829C20.9681 34.7829 21.1707 34.7661 21.3902 34.7241C21.9052 34.6232 22.3695 34.4719 22.7747 34.2281C22.9773 34.1104 23.1714 33.9675 23.3487 33.8077C23.526 33.6396 23.7202 33.4798 23.8806 33.2781C24.0747 33.0427 24.2013 32.74 24.3617 32.4626C24.5643 32.6644 24.7585 32.8661 24.9611 33.0679C24.2182 33.7909 23.5176 34.5643 22.876 35.3966C21.8292 36.7249 20.8753 38.1625 20.0902 39.6926L20.2928 39.7935C21.0779 38.2802 22.0149 36.851 23.0533 35.5311C23.6864 34.7073 24.3786 33.9422 25.1215 33.2276C26.1176 34.2281 27.1138 35.2369 28.1184 36.2457C27.5021 36.8426 26.9196 37.49 26.3878 38.1794ZM19.1784 41.6851C18.7732 42.8452 18.3427 44.0054 18.1148 45.2328L17.9037 46.1324V46.1408C17.8446 46.4518 17.8109 46.7713 17.7602 47.0739C17.6505 47.7045 17.6167 48.3434 17.5492 48.9655V48.9739C17.5407 48.9907 17.5407 48.9991 17.5407 49.016L15.0926 48.8394L13.2945 48.7133C13.2945 48.6965 13.3029 48.6881 13.3029 48.6797C13.3789 47.9399 13.4211 47.2085 13.5393 46.4939C13.5984 46.1324 13.6406 45.7709 13.7081 45.4094L13.9529 44.3249V44.3164C14.2231 42.8704 14.7296 41.4917 15.2192 40.113C15.4809 39.4488 15.7679 38.8015 16.0887 38.1625C17.3634 38.7847 18.6466 39.3984 19.9213 40.0205C19.6427 40.5753 19.3979 41.1218 19.1784 41.6851ZM20.1155 40.1382C20.9597 40.5417 21.787 40.9452 22.6312 41.3572C22.3695 41.7187 22.1247 42.0718 21.8714 42.4249L21.6181 42.778C21.5337 42.8957 21.4746 43.0302 21.3987 43.1479L20.9681 43.9045C20.8246 44.1567 20.6642 44.4089 20.5291 44.6695L20.183 45.4766C19.6765 46.5275 19.2629 47.7297 18.9505 48.9319C18.9168 49.058 18.8661 49.1084 18.7395 49.1084C18.731 49.1084 18.7141 49.1084 18.6973 49.1084L17.7687 49.0412V49.0328C17.7687 49.0244 17.7771 49.0075 17.7771 48.9991C17.8362 48.3686 17.8784 47.7381 17.9881 47.1244V47.116C18.0388 46.8049 18.0726 46.4855 18.1317 46.1912L18.3427 45.2833C18.5622 44.0811 18.9927 42.9293 19.3979 41.7691C19.609 41.2143 19.8538 40.6678 20.1155 40.1382ZM19.5583 32.9586C19.9467 32.5887 20.4025 32.3281 20.8753 32.1431C21.0779 32.0675 21.2805 31.9918 21.4831 31.933C21.6941 31.8741 21.9052 31.8321 22.1162 31.8069C22.3104 31.7732 22.5045 31.7648 22.6987 31.7648C22.9182 31.7648 23.1377 31.7816 23.3572 31.8237C23.5935 31.8741 23.8552 31.9414 23.8806 32.2188C23.9143 32.5046 23.6864 32.6812 23.4669 32.8073C23.2052 32.9586 22.9182 33.0763 22.6565 33.2024C22.3948 33.3285 22.1331 33.4294 21.8545 33.5219C21.3058 33.6984 20.7149 33.7993 20.1071 33.8329C20.0986 33.8329 20.0817 33.8329 20.0733 33.8329C19.8707 33.8329 19.6681 33.7573 19.4655 33.7236C19.246 33.4967 19.2797 33.2276 19.5583 32.9586ZM44.1917 29.9237C44.1832 29.9237 44.1663 29.9237 44.1579 29.9237C44.0819 29.9237 44.0059 29.9237 43.9384 29.9237H43.8793C43.6767 29.9237 43.4741 29.9237 43.2799 29.9237C43.1364 29.9153 42.9929 29.9069 42.8494 29.9069C42.1656 29.9069 41.4818 29.9994 40.798 30.0498H40.7896C39.1181 30.302 37.3706 30.6383 35.6654 31.3697L35.0154 31.6051L34.3822 31.9161C33.977 32.1263 33.538 32.2945 33.1159 32.5383C32.7107 32.7821 32.3055 33.0175 31.8919 33.2697C31.6639 33.3874 31.4698 33.5303 31.2756 33.6732L30.6931 34.0936H30.6762C29.8827 34.682 29.0976 35.321 28.3632 36.0188L25.4085 32.9586C26.2865 32.1263 27.2151 31.3697 28.169 30.6719L28.8781 30.1675C29.1145 29.9994 29.3424 29.8312 29.5788 29.6967H29.5872C29.621 29.6799 29.6548 29.6547 29.6886 29.6379C29.8405 29.8817 29.9925 30.1171 30.1444 30.3609C32.9978 29.2259 35.944 28.6458 38.7804 28.6374C38.7635 28.5449 38.7467 28.4777 38.7298 28.402L38.2739 26.1826C38.9408 26.0481 39.6162 25.9388 40.2746 25.8463C41.1357 25.7706 41.9799 25.6782 42.7987 25.6782C42.9591 25.6782 43.128 25.6782 43.2884 25.6866C43.415 25.695 43.5332 25.695 43.6514 25.695C43.778 25.695 43.9046 25.695 44.0228 25.695C44.0313 25.695 44.0313 25.695 44.0313 25.695C44.1579 25.695 44.2845 25.695 44.4111 25.7034C44.3436 27.0905 44.2676 28.5029 44.1917 29.9237ZM31.799 28.4272C32.0523 28.3011 32.314 28.1919 32.5672 28.0573L33.3185 27.6958L34.0952 27.41C35.353 26.8804 36.6446 26.5105 37.9278 26.233C37.9278 26.233 37.9278 26.233 37.9278 26.2414C38.0122 26.6113 38.0966 26.9812 38.1811 27.3596C38.1473 27.3596 38.122 27.3596 38.0966 27.3596C37.683 27.3596 37.2862 27.4268 36.881 27.452C35.716 27.5109 34.5848 27.7715 33.4114 27.9817C32.8796 28.133 32.3393 28.2759 31.799 28.4272C31.3938 28.5449 30.9886 28.6711 30.5834 28.8224C30.3808 28.898 30.1782 28.9737 29.9756 29.0578C29.9249 29.0746 29.8827 29.083 29.8574 29.083C29.7983 29.083 29.7561 29.0494 29.7054 28.9653L27.9749 26.1405L27.6541 25.6193C28.0677 25.3671 28.4898 25.1233 28.895 24.8795C29.4606 24.5516 30.0769 24.291 30.6594 24.0052C30.9548 23.8623 31.2419 23.7193 31.5373 23.5848C31.8412 23.4671 32.1451 23.3494 32.4406 23.2401H32.449C33.9264 22.618 35.4459 22.1893 36.9654 21.8614C37.2693 23.2317 37.5817 24.6189 37.8856 26.006C36.5855 26.2835 35.2855 26.6534 34.0108 27.1914L33.2257 27.4857L32.4744 27.8556H32.4659C31.9679 28.1078 31.4445 28.3264 30.9464 28.6122C30.8282 28.6795 30.71 28.7551 30.5918 28.8224C30.9886 28.6711 31.3938 28.5534 31.799 28.4272ZM44.0313 25.4428C43.9131 25.4428 43.7864 25.4428 43.6598 25.4428C43.5416 25.4428 43.4234 25.4428 43.3053 25.4344C43.1364 25.426 42.9676 25.4175 42.8072 25.4175C41.963 25.4175 41.1104 25.5184 40.2493 25.5941H40.2409C39.574 25.6866 38.8986 25.8043 38.2233 25.9388L37.3706 21.8025C37.3706 21.7941 37.3706 21.7857 37.3622 21.7773C38.1557 21.6176 38.9493 21.4831 39.7259 21.3738C40.7558 21.2897 41.7688 21.172 42.7565 21.172C42.9423 21.172 43.128 21.1804 43.3053 21.1804H43.3137C43.7696 21.1972 44.2085 21.1804 44.6475 21.1972C44.5715 22.6096 44.4956 24.022 44.4196 25.4344C44.3014 25.4428 44.1663 25.4428 44.0313 25.4428ZM49.6535 32.6223C49.4678 32.3869 49.2483 32.2104 49.0457 31.9918C48.6152 31.5631 48.1256 31.1679 47.5853 30.8064C48.1002 30.983 48.5899 31.1847 49.0542 31.4117C49.4087 31.5967 49.7379 31.7984 50.0587 32.017C49.9237 32.2188 49.7886 32.4206 49.6535 32.6223ZM55.1661 37.532C54.9972 37.8094 54.7862 38.0532 54.5414 38.2802C54.5076 38.0869 54.4569 37.8851 54.4063 37.6749C54.3303 37.3807 54.2375 37.0696 54.1193 36.767C54.0602 36.8426 54.0095 36.9183 53.9589 36.994C54.0517 37.2462 54.1193 37.49 54.1868 37.7338C54.2543 37.986 54.305 38.2214 54.3472 38.4568C54.2965 38.4904 54.2543 38.5324 54.2037 38.5745C54.0602 38.6754 53.8576 38.7426 53.6803 38.8267C53.6465 38.8351 53.6128 38.8351 53.5874 38.8351C53.3426 38.8351 53.2075 38.751 53.216 38.5745C53.2075 38.3055 53.3933 38.0112 53.5283 37.7254C53.6465 37.4984 53.7985 37.2546 53.9673 37.0024C54.018 36.9267 54.0686 36.851 54.1277 36.7754C54.2881 36.5652 54.4654 36.3634 54.6595 36.1617C54.8031 36.0188 54.955 35.859 55.1829 35.859C55.1998 35.859 55.2167 35.859 55.2336 35.859C55.4953 35.8926 55.5713 36.086 55.5291 36.2878C55.4868 36.7333 55.3687 37.1537 55.1661 37.532ZM55.4109 24.8122C56.3901 25.5016 57.2681 26.2498 58.0616 27.0233C59.7415 28.7635 60.9572 30.6383 61.7929 32.4542C60.476 33.0427 59.2181 33.6144 57.9097 34.2028C57.8421 34.2365 57.7661 34.2617 57.6986 34.3037C56.6771 34.7577 55.6219 35.2369 54.4992 35.7413C54.2543 35.8506 54.0349 35.9767 53.8407 36.1112C53.3848 35.1276 52.7264 34.1104 51.8231 33.152V33.1436H51.8146C51.3841 32.7316 50.9114 32.3281 50.3795 31.9582L52.8277 28.4777C53.5705 29.0073 54.2459 29.579 54.8537 30.1675C56.1284 31.4958 57.057 32.9166 57.6986 34.2953C57.7661 34.2617 57.8421 34.2365 57.9097 34.2028C57.2596 32.7989 56.3226 31.3529 55.031 29.9994H55.0225C54.3978 29.4025 53.7225 28.8224 52.9543 28.2843L53.0978 28.0826C53.8745 26.9981 54.6089 25.8799 55.4109 24.8122ZM45.0949 21.2393C45.6774 21.2981 46.2599 21.3654 46.8339 21.4326C48.6743 21.7269 50.4217 22.2397 52.0257 22.9207C52.1523 23.0972 52.2958 23.2654 52.4478 23.4251C52.5744 23.5512 52.7095 23.6773 52.8445 23.795C52.9796 23.9211 53.1147 24.0388 53.2582 24.1481C53.5452 24.3667 53.8491 24.5432 54.1784 24.6609C54.381 24.7366 54.6089 24.7618 54.8453 24.8543C54.1277 25.9304 53.4017 27.0065 52.6842 28.091C52.2283 27.7799 51.7387 27.4857 51.2322 27.225C49.7295 26.4852 48.0327 25.9304 46.2008 25.6277H46.1924C45.7365 25.5773 45.2722 25.5268 44.791 25.4764L45.0949 21.2393ZM44.7657 25.7034C45.23 25.7538 45.6943 25.8043 46.1502 25.8547C47.9652 26.149 49.6282 26.7038 51.114 27.4268C51.6205 27.6874 52.0932 27.9733 52.5491 28.2843C51.764 29.4613 50.9705 30.6383 50.1854 31.8153C49.8646 31.5967 49.5269 31.3949 49.1555 31.2016C48.4379 30.8485 47.6444 30.5542 46.7917 30.3272C46.1333 29.9657 45.4157 29.6547 44.6391 29.4109C44.5378 29.3772 44.4956 29.3268 44.5124 29.1755L44.7573 25.8127L44.7657 25.7034ZM39.1941 16.9433C39.9116 16.8761 40.6207 16.8256 41.3299 16.7752C41.4058 16.7668 41.4649 16.7668 41.5409 16.7584C41.4734 16.7584 41.3974 16.7668 41.3299 16.7752C40.1564 16.9181 39.5486 17.6495 39.8863 18.4145C39.9792 18.6247 40.1311 18.8349 40.3253 18.9946C40.8149 19.3981 41.3383 19.7176 41.9124 19.8942C42.3767 20.0707 42.8832 20.18 43.4488 20.18C43.5754 20.18 43.7189 20.1716 43.8624 20.1548C44.1579 20.1296 44.4365 20.0371 44.7404 19.9782C44.7235 20.3145 44.7066 20.6508 44.6897 20.9787C44.2339 20.9534 43.7949 20.9703 43.3475 20.9618C43.1617 20.9534 42.9676 20.945 42.7819 20.945C41.7688 20.9534 40.7474 21.0627 39.7259 21.1552H39.7175C38.9324 21.2645 38.1304 21.3906 37.3369 21.5587C37.0667 20.2809 36.7797 19.0114 36.5687 17.7252C36.5433 17.6075 36.518 17.5066 36.4842 17.4057C37.3791 17.2207 38.2908 17.0694 39.1941 16.9433ZM26.7255 20.9618C27.3755 20.5919 28.0677 20.2893 28.7431 19.953C29.0807 19.8017 29.4184 19.6335 29.7561 19.4738C30.1022 19.3393 30.4483 19.2048 30.7944 19.0703C31.0646 18.9526 31.3432 18.8433 31.6133 18.7508C32.086 18.9526 32.6516 19.0451 33.251 19.0955C33.3776 19.1039 33.5127 19.1123 33.6393 19.1123C34.2978 19.1123 34.9563 18.9862 35.5303 18.734C35.7498 18.6331 35.944 18.4986 36.1888 18.3893C36.4251 19.4738 36.67 20.5583 36.9148 21.6428C35.3868 21.9623 33.8588 22.4078 32.3646 23.03C32.0523 23.1477 31.7568 23.257 31.4529 23.3747H31.436C31.149 23.5176 30.8451 23.6605 30.5496 23.8034C29.9671 24.0892 29.3593 24.3583 28.7684 24.6861V24.6945C28.3547 24.9383 27.9326 25.1822 27.519 25.4344L25.2988 21.8194C25.78 21.5251 26.2527 21.2477 26.7255 20.9618ZM16.0212 29.9573C18.005 27.4016 20.3687 25.2578 22.8591 23.4335L23.8046 22.7609C24.1169 22.534 24.4293 22.3154 24.7501 22.1304H24.7585C24.8092 22.1052 24.8429 22.08 24.8936 22.0463C25.6533 23.2401 26.4047 24.4423 27.1644 25.6361C27.1307 25.6614 27.0885 25.6866 27.0463 25.7034C26.7423 25.8715 26.4722 26.0733 26.1936 26.2667L25.3663 26.8551C23.6695 28.0994 22.0318 29.5202 20.5629 31.1343C20.7317 31.0502 20.9006 30.9746 21.0779 30.9073C22.437 29.4613 23.9397 28.175 25.5014 27.0317L26.3287 26.4432C26.5988 26.2414 26.869 26.0481 27.156 25.8967L27.1644 25.8883C27.1982 25.8631 27.2404 25.8379 27.2826 25.8211C28.0339 27.0149 28.7937 28.2087 29.545 29.4109C29.5113 29.4277 29.4859 29.4529 29.4522 29.4697C29.1905 29.6126 28.9541 29.7892 28.7262 29.9573L28.0171 30.4617V30.4701C27.0547 31.1679 26.1176 31.9414 25.2313 32.7737L23.8468 31.3445C23.4331 30.9073 22.9435 30.6887 22.3441 30.6887C22.2513 30.6887 22.15 30.6971 22.0487 30.7055C21.711 30.7476 21.3902 30.8148 21.0694 30.9241C20.8921 30.983 20.7233 31.0502 20.5545 31.1427C20.5123 31.1679 20.4701 31.1931 20.4363 31.21C19.9635 31.5126 19.533 31.933 19.1784 32.4794C19.0096 32.7316 18.9083 32.9586 18.883 33.1856C17.8278 34.5812 16.8738 36.086 16.055 37.6749C15.1095 37.2125 14.1724 36.7418 13.2523 36.2373C12.9315 36.0608 12.6191 35.9767 12.2899 35.9767C12.2392 35.9767 12.1886 35.9851 12.1379 35.9851C13.2438 33.8161 14.5692 31.8069 16.0212 29.9573ZM8.81185 48.3518C8.88783 47.5195 8.95537 46.6788 9.08199 45.8633C9.14953 45.4514 9.20018 45.0395 9.27616 44.6275L9.55474 43.3665V43.3581C9.68137 42.6855 9.8502 42.0213 10.0528 41.374C10.171 41.3656 10.3061 41.332 10.4411 41.2899C11.108 41.0714 11.7665 40.5585 12.2983 39.928C12.425 39.7683 12.5516 39.6001 12.6613 39.4236C12.788 39.2554 12.9146 39.0789 13.0159 38.9024C13.2269 38.5409 13.3873 38.1709 13.4971 37.7842C13.5646 37.5404 13.5815 37.2882 13.6237 37.0024C14.3666 37.3639 15.1179 37.7254 15.8608 38.0953C15.5485 38.7342 15.253 39.39 14.9913 40.0541V40.0625H14.9828C14.5017 41.4413 13.9867 42.8284 13.7081 44.2996L13.4718 45.3841C13.3958 45.754 13.362 46.1155 13.3029 46.477C13.1847 47.2085 13.1341 47.9483 13.0665 48.6797V48.6881C13.0581 48.6965 13.0581 48.7133 13.0581 48.7217L8.80341 48.4022C8.80341 48.3854 8.81185 48.3686 8.81185 48.3518ZM16.5446 72.421C15.4049 71.0927 14.375 69.6719 13.4802 68.1755C12.5685 66.679 11.7834 65.1153 11.1418 63.5012V63.4928C10.8041 62.6941 10.534 61.8702 10.2554 61.0464C10.019 60.2057 9.75734 59.3818 9.58006 58.5411C9.08199 56.4225 8.8203 54.2703 8.74432 52.1349C8.97225 51.4876 9.03134 50.7646 8.99758 49.9407C8.98069 49.6044 8.88783 49.285 8.82874 48.9319C10.2216 49.0075 11.6314 49.0832 13.0328 49.1673C12.999 49.7558 12.9821 50.3359 12.9821 50.9159C12.9821 53.1438 13.2101 55.3884 13.7335 57.5911C13.877 58.2889 14.088 58.9782 14.2822 59.6592L13.9867 59.7517C13.6068 59.8694 13.3029 60.1384 13.1172 60.5335C12.5347 61.6601 12.5009 62.9968 13.2438 64.3503C13.5731 64.964 14.1133 65.3171 14.6114 65.3171C14.6958 65.3171 14.7887 65.3087 14.8731 65.2835C15.1686 65.2078 15.3796 65.0144 15.5485 64.7622C15.7173 64.5016 15.8608 64.1906 15.9452 63.8375C16.3082 64.5773 16.705 65.2919 17.1271 65.9897C17.9122 67.2927 18.807 68.5286 19.7947 69.6803C20.411 70.4201 21.0694 71.1179 21.7617 71.7737C20.774 72.7909 19.7947 73.8166 18.7986 74.8338C18.0135 74.0604 17.2537 73.2617 16.5446 72.421ZM18.6382 75.7586C18.731 75.6829 18.7986 75.6157 18.8745 75.5652C18.9505 75.5148 19.0349 75.4643 19.1109 75.4223C19.4064 75.6913 19.7018 75.9603 20.0057 76.221C19.5583 76.0949 19.094 75.9435 18.6382 75.7586ZM21.0103 76.4227C20.8415 76.3975 20.6727 76.3639 20.4954 76.3302C20.411 76.2546 20.3265 76.1873 20.2421 76.1117C19.9298 75.851 19.6343 75.582 19.3388 75.313C19.9298 75.044 20.5967 74.9263 21.3142 74.9263C21.5084 74.9263 21.711 74.9347 21.922 74.9515C22.3104 74.9851 22.6903 75.0104 23.0701 75.0104C23.5851 75.0104 24.0747 74.9683 24.5475 74.8674C24.6488 74.8422 24.7585 74.817 24.8598 74.7834L24.9105 74.8338C24.7923 75.0019 24.6657 75.1617 24.5559 75.3298C24.252 75.8006 23.8046 76.1369 23.2137 76.305C22.7831 76.4227 22.3441 76.4816 21.8798 76.4816C21.5844 76.4816 21.2974 76.4648 21.0103 76.4227ZM38.6622 84.0731C37.033 83.8881 35.4121 83.5518 33.7913 83.1483C32.1789 82.7027 30.5665 82.1899 29.0048 81.5174C27.443 80.8448 25.9066 80.0798 24.4462 79.1718C23.526 78.6085 22.6396 78.0116 21.7785 77.3643C21.9052 77.3559 22.0318 77.3391 22.15 77.3307C23.1968 77.213 24.0916 76.8179 24.6234 76.0528C24.8936 75.6577 25.0624 75.1953 25.2819 74.775C25.2903 74.7413 25.3072 74.7161 25.3241 74.6825C25.7631 74.9935 26.219 75.2794 26.6833 75.5568C27.958 76.3555 29.3087 77.028 30.6762 77.6165C30.8029 77.6754 30.9295 77.7258 31.0646 77.7847C30.7016 78.659 30.347 79.5333 29.984 80.416C31.8919 81.5174 33.9179 82.4337 36.0284 83.1651C36.5602 83.3333 37.0836 83.5266 37.6323 83.678L39.2532 84.1151L39.6668 84.2076C39.3207 84.1572 38.9915 84.1235 38.6622 84.0731ZM42.0812 83.266C41.7773 83.2072 41.4649 83.1483 41.1695 83.0979C40.8656 83.0306 40.5617 82.9634 40.2577 82.8961C37.0414 82.1815 33.9601 81.0045 31.1405 79.4661C30.9802 79.3736 30.9379 79.2979 30.997 79.155L31.4867 77.936C32.601 78.3731 33.7406 78.7178 34.8887 79.0373C36.3154 79.3904 37.7505 79.693 39.2025 79.8612C39.9285 79.9789 40.6461 80.0041 41.3552 80.0714H41.3636C41.6507 80.0798 41.9292 80.0882 42.2163 80.105C42.1656 81.1474 42.1234 82.2067 42.0812 83.266ZM42.3935 75.3971C42.3935 75.4727 42.3935 75.5484 42.3851 75.6325C42.326 77.0364 42.2754 78.4488 42.2163 79.8612C41.9292 79.8528 41.6507 79.8444 41.3636 79.8276C40.6461 79.7519 39.9285 79.7351 39.2194 79.6258H39.211C37.7843 79.4661 36.3576 79.1634 34.9309 78.8103C33.7913 78.4908 32.6601 78.1462 31.5542 77.709L32.3055 75.8006L33.1075 73.7577V73.7493C36.0706 74.9263 39.2194 75.4896 42.3767 75.6157C42.3851 75.5568 42.3851 75.4811 42.3935 75.3971C39.2616 75.271 36.1381 74.7077 33.2004 73.5391L34.7537 69.5878C35.5388 69.8905 36.3576 70.1343 37.168 70.3697H37.1765C37.7843 70.521 38.3921 70.6555 39.0084 70.7732C38.9746 71.0002 38.9746 71.2608 39.0506 71.5299C39.3291 72.648 40.4688 73.4971 41.5747 73.4971C41.676 73.4971 41.7773 73.4887 41.887 73.4719C42.0812 73.4382 42.2669 73.3626 42.478 73.2953C42.4526 74.0015 42.4189 74.6993 42.3935 75.3971ZM77.1824 71.4374C77.1064 71.4878 77.0558 71.513 77.0051 71.513C76.9545 71.513 76.9123 71.4878 76.8616 71.429L74.633 68.8985L74.2953 68.5118C74.4895 68.3436 74.6836 68.1671 74.8693 67.9905H74.8609C77.3259 65.7795 79.4026 63.4507 81.1079 61.1556C82.2475 61.9963 83.3872 62.837 84.5353 63.6861C82.7456 66.0821 80.6014 68.5118 78.0688 70.8321C77.7902 71.0338 77.4863 71.2356 77.1824 71.4374ZM85.6496 64.4932C85.2359 64.9388 84.7969 65.3255 84.3749 65.7374C82.8047 67.2339 81.1416 68.6042 79.4195 69.8737C81.454 67.8896 83.2183 65.8467 84.7294 63.8207C85.0418 64.0392 85.3541 64.2746 85.6496 64.4932ZM92.5466 49.8987C92.7492 49.7978 92.9771 49.7978 93.1966 49.7474C93.4667 49.8819 93.5343 50.1761 93.357 50.5797C93.1037 51.1429 92.7323 51.5885 92.344 51.9836C91.8712 52.4628 91.3478 52.8832 90.7991 53.169C90.9342 52.8327 91.0608 52.5133 91.1874 52.1938C91.4407 51.5381 91.6602 50.9075 91.8628 50.319C92.0738 50.1677 92.3102 50.0332 92.5466 49.8987ZM89.6172 52.4796C90.0478 51.9164 90.4699 51.4119 90.9595 50.9832C91.1452 50.8235 91.3309 50.6721 91.5336 50.5292C91.3647 51.0336 91.1705 51.5633 90.9511 52.1097C90.8075 52.4964 90.6472 52.9 90.4783 53.3119C90.3348 53.3708 90.1829 53.4212 90.0393 53.4548C89.938 53.4801 89.8283 53.5053 89.7354 53.5053C89.6004 53.5053 89.4737 53.4548 89.3978 53.2951C89.2796 53.0093 89.44 52.715 89.6172 52.4796ZM86.1392 52.6141C87.2704 53.1102 88.4354 53.623 89.7017 54.1862C89.8114 54.2367 89.938 54.2787 90.0478 54.3039C89.1023 56.4309 87.8782 58.7681 86.2912 61.1893C85.8269 61.8955 85.3372 62.61 84.8138 63.3246L81.3696 60.8194C81.8507 60.1636 82.2982 59.5079 82.7118 58.8689C84.1723 56.6579 85.2866 54.5393 86.1392 52.6141ZM78.9552 56.4225C80.2637 54.4385 81.2598 52.5301 82.028 50.7982C83.3534 51.3867 84.6197 51.9416 85.9282 52.5133C85.0755 54.4301 83.9697 56.5402 82.5261 58.7344C82.1124 59.3734 81.665 60.0207 81.1838 60.6764C80.078 59.8694 78.9552 59.0875 77.8746 58.2552C77.8324 58.2216 77.7902 58.1964 77.748 58.1712C78.1785 57.5827 78.5838 56.9942 78.9552 56.4225ZM71.864 64.6614C73.1556 63.5012 74.3291 62.3074 75.3843 61.1052C75.7726 61.08 76.1694 60.9875 76.5408 60.811C77.1318 60.5335 77.6383 60.0627 77.9253 59.5163C78.0181 59.3481 78.0604 59.138 78.1279 58.9278C79.0565 59.6256 80.002 60.3149 80.939 61.0043C79.2338 63.291 77.174 65.6113 74.7174 67.814V67.8224C74.5232 67.9905 74.3375 68.1671 74.1349 68.3352L71.3322 65.1405C71.5179 64.9808 71.6952 64.8295 71.864 64.6614ZM59.2181 67.7215C59.5558 67.5618 59.8851 67.402 60.2143 67.2339C60.2227 67.2423 60.2312 67.2423 60.2396 67.2507C60.6786 67.587 61.2611 67.7719 61.8351 67.7719C61.8604 67.7719 61.8858 67.7719 61.9111 67.7719C62.502 67.7383 63.093 67.5449 63.515 67.1666C63.6417 67.0405 63.743 66.8892 63.8696 66.7295C64.3846 67.5618 64.8995 68.3941 65.406 69.2179C64.0216 70.067 62.5611 70.8573 61.0247 71.5719C59.8513 72.1183 58.6357 72.6228 57.3778 73.0683L57.4538 73.2869C58.7201 72.8329 59.9441 72.3285 61.1176 71.7821C62.6624 71.0591 64.1313 70.2688 65.5158 69.4113C66.2586 70.6135 67.01 71.8241 67.7613 73.0263C66.2333 73.9595 64.6209 74.8338 62.9241 75.6241C61.6241 76.2294 60.2818 76.7842 58.8889 77.2886L57.7915 74.2285L57.4538 73.2869L57.3778 73.0767L55.9427 69.075C57.0655 68.6631 58.1629 68.2175 59.2181 67.7215ZM67.8795 73.2197C68.1496 73.6568 68.4282 74.094 68.6983 74.5396C68.1918 74.7666 67.7022 74.9683 67.2041 75.1449C64.5787 76.1621 61.8858 76.944 59.1844 77.4736C59.1422 77.482 59.1084 77.482 59.0831 77.482C59.0577 77.482 59.0409 77.482 59.024 77.4736C60.4084 76.9776 61.7423 76.4311 63.0254 75.8258C64.7222 75.0356 66.3515 74.1612 67.8795 73.2197ZM51.0802 75.9435C50.4808 75.5736 49.8646 75.3466 49.223 75.2962C51.9582 74.9179 54.6089 74.2705 57.1077 73.4046C57.572 74.7413 58.0363 76.0696 58.509 77.4147C56.5758 78.0873 54.5751 78.6422 52.5069 79.0541L52.1861 77.482C52.051 76.801 51.6796 76.305 51.0802 75.9435ZM51.6965 78.2134C51.5867 78.4068 51.3757 78.4656 51.1731 78.4656C51.1055 78.4656 51.038 78.4572 50.9705 78.4488C49.6957 78.3311 48.6067 77.8015 47.7794 76.986C47.6275 76.8431 47.5515 76.6329 47.4418 76.4479C47.4502 76.1453 47.6359 75.9856 47.9905 75.9856C47.9989 75.9856 47.9989 75.9856 48.0074 75.9856C48.497 75.994 48.9529 76.1285 49.3918 76.3218C50.16 76.6161 50.9114 76.9776 51.4938 77.5913C51.6627 77.7594 51.84 77.9528 51.6965 78.2134ZM55.5459 68.9405C55.5544 68.9489 55.5544 68.9573 55.5544 68.9657C55.5291 68.9741 55.5037 68.9825 55.4784 68.991C55.5037 68.9741 55.5206 68.9489 55.5459 68.9405ZM43.5585 71.1852C44.1241 71.1768 44.6813 71.1684 45.23 71.16L45.2384 71.1515C45.7872 71.1179 46.3443 71.0843 46.893 71.0507C49.9321 70.79 52.8783 70.1259 55.6304 69.1675C56.0947 70.4958 56.5674 71.8325 57.0233 73.1776C53.9589 74.2453 50.6666 74.9851 47.256 75.271C46.1417 75.3718 45.0274 75.4139 43.8962 75.4139C43.5247 75.4139 43.1533 75.4055 42.7734 75.3971C42.7987 74.4807 42.8241 73.5644 42.8747 72.648C42.9085 72.0427 42.7819 71.5467 42.5286 71.1263C42.8747 71.16 43.2208 71.1768 43.5585 71.1852ZM48.0411 84.2076C47.2814 84.258 46.5216 84.3085 45.7534 84.3505C44.9852 84.3589 44.2085 84.3757 43.4319 84.3841C43.128 84.3757 42.8241 84.3589 42.5202 84.3505L42.6468 80.1134L42.6552 79.878L42.7397 77.1962C42.7565 76.6749 42.765 76.1621 42.7819 75.6409C43.1617 75.6577 43.5332 75.6661 43.9046 75.6661C45.0358 75.6661 46.1586 75.6157 47.2814 75.5148C47.4671 75.498 47.6528 75.4811 47.847 75.4643C47.2983 75.6745 47.0281 76.0696 47.0112 76.6833C46.9775 77.4484 47.3151 78.0873 47.9905 78.5245C48.6236 78.9364 49.3412 79.1886 50.1094 79.1886C50.4049 79.1886 50.7088 79.155 51.0211 79.0709C51.3503 78.9869 51.6542 78.8271 51.9666 78.6674C52.0004 78.8187 52.0257 78.9784 52.0595 79.1298C50.6159 79.4072 49.147 79.6174 47.6528 79.7351C46.9606 79.7855 46.2683 79.8276 45.5761 79.8612C44.8754 79.8696 44.1748 79.8864 43.4741 79.8948C43.204 79.8864 42.9338 79.878 42.6552 79.8696L42.6468 80.0966C42.9169 80.105 43.1955 80.1134 43.4657 80.1218H43.4741C44.1832 80.1134 44.8839 80.105 45.5761 80.0966H45.5846C46.2852 80.0461 46.9775 80.0041 47.6697 79.9621C49.1723 79.836 50.6581 79.6258 52.1017 79.3568C52.3634 80.7439 52.6251 82.1311 52.8952 83.5266C51.3081 83.8377 49.6873 84.0647 48.0411 84.2076ZM52.5491 79.2811C54.6258 78.8692 56.6434 78.3059 58.5766 77.6333C58.7116 78.0285 58.8551 78.4152 58.9902 78.8103C60.8305 78.4908 62.6287 78.0032 64.4352 77.4652C66.2249 76.8851 68.023 76.2546 69.7705 75.4643C69.7198 75.3887 69.686 75.3214 69.6438 75.2626L68.2172 73.0011L68.0905 72.8077L66.056 69.571C65.9801 69.4533 65.9041 69.3356 65.8281 69.2095C67.7275 68.0241 69.475 66.7295 71.0536 65.3759C71.9738 66.452 72.9024 67.5197 73.831 68.5958C72.1004 70.0839 70.1841 71.5046 68.0905 72.7993L68.2172 72.9927C70.3107 71.6812 72.2439 70.2604 73.9745 68.764C74.9031 69.8316 75.8317 70.9077 76.7603 71.9838C73.392 74.8842 69.3737 77.5324 64.8151 79.6678C61.3033 81.3072 57.4538 82.6187 53.3764 83.4342L52.5491 79.2811Z" fill="white"/>
<path fill-rule="evenodd" clip-rule="evenodd" d="M86.975 50.588C87.912 48.1752 88.3847 46.1828 88.7224 44.8461V44.8377C88.8153 44.3921 88.8828 44.0138 88.9504 43.7111C89.077 43.0806 89.1445 42.7527 89.1445 42.7527L88.9166 42.7107C88.9166 42.7107 88.9166 42.7191 88.9081 42.7359C88.8828 42.8788 88.7393 43.585 88.5029 44.7872C88.1653 46.1239 87.6925 48.0996 86.7639 50.4956C86.5613 51.0084 86.3503 51.5464 86.1139 52.0929C86.1814 52.1265 86.249 52.1517 86.3249 52.1854C86.5613 51.6389 86.7724 51.1093 86.975 50.588Z" fill="white"/>
<path fill-rule="evenodd" clip-rule="evenodd" d="M82.7793 48.9909C83.6235 46.8303 84.0372 45.0564 84.3411 43.8626V43.8542C84.4086 43.5095 84.4677 43.2068 84.5184 42.9546C84.645 42.3241 84.7125 41.9962 84.7125 41.9962L84.4846 41.9458C84.4846 41.9458 84.4846 41.9542 84.4846 41.9794C84.4593 42.1139 84.3326 42.7361 84.1216 43.8037C83.8177 44.9975 83.404 46.7546 82.5683 48.8984C82.391 49.3524 82.1969 49.8315 81.9858 50.3276C82.0533 50.3612 82.1293 50.3864 82.1969 50.42C82.4079 49.9324 82.5936 49.4532 82.7793 48.9909Z" fill="white"/>
</svg>
