<svg width="390" height="85" viewBox="0 0 390 85" fill="none" xmlns="http://www.w3.org/2000/svg">
<g clip-path="url(#clip0_1878_1434)">
<path d="M65.297 31.8174C137.477 15.3428 183.716 18.6102 266.082 17.8753C324.844 17.351 334.805 7.91382 390.487 -0.00449959L390.809 36.1628L390.63 72.3347L391.889 157.159L0.146336 160.654L-0.856984 48.2068C12.6371 42.6136 23.5167 41.3534 65.297 31.8174Z" fill="#FFE38D"/>
<path d="M56.0423 64.1402C159.022 65.6953 201.966 37.5191 287.305 32.1541C335.306 29.1365 382.358 27.2126 390.748 29.2583C391.299 91.0715 391.537 108.218 391.89 157.288L0.147588 160.784L-0.628056 73.8528C12.8913 69.1379 33.5325 63.8003 56.0423 64.1402Z" fill="#FEDC74"/>
<path d="M149.585 77.6293C221.646 66.5078 205.679 75.888 274.596 71.3805C336.145 61.8244 317.755 67.284 390.974 54.5753L390.879 156.51L0.146336 160.654L-0.386898 100.892C13.1238 97.1515 54.2847 92.3377 149.585 77.6293Z" fill="#FFD451"/>
<path d="M84.0865 111.129C153.682 95.433 135.613 93.5111 242.668 95.7596C302.45 97.0153 317.921 85.9384 391.173 76.9333L391.531 117.046L390.884 157.168L0.146336 160.654L-0.138804 128.697C13.3818 126.069 26.441 124.13 84.0865 111.129Z" fill="#FDCC39"/>
</g>
<defs>
<clipPath id="clip0_1878_1434">
<rect width="392.26" height="156.512" fill="white" transform="translate(391.381 156.506) rotate(179.489)"/>
</clipPath>
</defs>
</svg>
