<svg width="390" height="196" viewBox="0 0 390 196" fill="none" xmlns="http://www.w3.org/2000/svg">
<path d="M324.743 159.785C252.466 179.608 206.289 175 123.974 175C65.2497 175 55.7132 186.706 0 196V173.353L2.8491e-05 151V105.412V0H390V140C376.465 146.853 366.579 148.31 324.743 159.785Z" fill="#FFE38D"/>
<path d="M334.279 119.412C231.385 116.314 188.22 151.118 102.894 156.882C54.9 160.125 8.36534 161.655 0 159V0H390V108C376.448 113.753 356.77 120.089 334.279 119.412Z" fill="#FEDC74"/>
<path d="M240.922 101.475C168.813 114.597 184.852 103.029 115.944 107.903C54.3527 119.182 73.2805 112.404 6.10352e-05 127.5V0H390V74C376.466 78.5331 336.287 84.1211 240.922 101.475Z" fill="#FFD451"/>
<path d="M306.674 60.2568C236.987 79.1344 255.027 81.743 148.067 77.7311C88.3381 75.4908 73.2804 89.0419 0 99.5V50.2986V0H390V39C376.466 42.1403 364.394 44.6206 306.674 60.2568Z" fill="#FDCC39"/>
<path d="M285.091 35.4041C212.267 35.4041 219.987 53.1061 112.932 53.1061C52.1998 53.1061 73.2804 57.1705 0 67.5V0H390V1C380.5 5 361.85 35.4041 285.091 35.4041Z" fill="#F2C335"/>
</svg>
