<svg width="390" height="71" viewBox="0 0 390 71" fill="none" xmlns="http://www.w3.org/2000/svg">
<path d="M314.805 67.5245C275.204 72.986 240.615 67.028 153.392 67.028C105.771 67.028 90.732 66.5315 0 71V0H390V62.5C384.5 65 354.406 62.0629 314.805 67.5245Z" fill="#F8E098"/>
<path d="M312 54C209.5 52.6588 175.5 56.7509 103 62.0348C56 65.4602 8.33333 63.1843 0 62.0348V0H390V47.5C376.5 49.9907 334.405 54.2932 312 54Z" fill="#FEDC74"/>
<path d="M240 42.3411C168.167 47.8163 184.145 42.9895 115.5 45.0234C54.1447 49.7296 73.5 42.7009 0.5 49V0H390V31C376.517 32.8915 335 35.1001 240 42.3411Z" fill="#FFD451"/>
<path d="M305.5 21.0748C236.08 29.1468 254.051 30.2622 147.5 28.5467C88 27.5888 73.5 32.5282 0.5 37V0H390V12C376.517 13.3428 363 14.3888 305.5 21.0748Z" fill="#FDCC39"/>
<path d="M278.823 7.66355C206.193 7.66355 202.234 15.5 109.627 11.5C49.1134 8.88623 63.073 7.66355 0 19V0H389.952C389.785 0.0165417 390.119 0.0338388 389.952 0.0518703C376.524 1.49756 358.918 7.66355 278.823 7.66355Z" fill="#F2C335"/>
</svg>
