<?xml version="1.0" encoding="UTF-8" standalone="no"?>
<!DOCTYPE svg PUBLIC "-//W3C//DTD SVG 1.1//EN" "http://www.w3.org/Graphics/SVG/1.1/DTD/svg11.dtd">
<svg width="100%" height="100%" viewBox="0 0 40 44" version="1.1" xmlns="http://www.w3.org/2000/svg" xmlns:xlink="http://www.w3.org/1999/xlink" xml:space="preserve" xmlns:serif="http://www.serif.com/" style="fill-rule:evenodd;clip-rule:evenodd;">
    <g transform="matrix(0.835264,0,0,1,22.3034,0)">
        <path d="M10.593,0.666L10.377,0.666C9.273,0.666 8.377,1.561 8.377,2.666L8.377,9.205C8.377,10.309 9.273,11.205 10.377,11.205L10.593,11.205C11.697,11.205 12.593,10.309 12.593,9.205L12.593,2.666C12.593,1.561 11.697,0.666 10.593,0.666Z" style="fill:rgb(95,41,196);fill-rule:nonzero;"/>
    </g>
    <g transform="matrix(0.835264,0,0,1,0.201776,0)">
        <path d="M10.593,0.666L10.377,0.666C9.273,0.666 8.377,1.561 8.377,2.666L8.377,9.205C8.377,10.309 9.273,11.205 10.377,11.205L10.593,11.205C11.697,11.205 12.593,10.309 12.593,9.205L12.593,2.666C12.593,1.561 11.697,0.666 10.593,0.666Z" style="fill:rgb(95,41,196);fill-rule:nonzero;"/>
    </g>
    <path d="M38.94,13.49L38.94,6.489C38.94,3.304 36.058,2.774 34.618,2.774L4.362,2.774C2.441,2.774 1,4.897 1,6.489L1,13.49" style="fill:none;fill-rule:nonzero;stroke:rgb(95,41,196);stroke-width:2px;"/>
    <g transform="matrix(0.974319,0,0,1.02227,1,-0.953815)">
        <path d="M38.94,7.357C38.94,5.309 37.195,3.646 35.046,3.646L3.894,3.646C1.745,3.646 0,5.309 0,7.357L0,39.11C0,41.158 1.745,42.821 3.894,42.821L35.046,42.821C37.195,42.821 38.94,41.158 38.94,39.11L38.94,7.357Z" style="fill:none;stroke:rgb(95,41,196);stroke-width:1.9px;stroke-linecap:round;stroke-linejoin:round;stroke-miterlimit:1.5;"/>
    </g>
    <path d="M1,13.312L38.94,13.312L38.94,39.402C38.78,40.286 38.075,42.162 36.539,42.587C35.002,43.011 14.447,42.764 4.362,42.587C3.241,42.587 1,41.95 1,39.402L1,13.312ZM18.925,18.593L13.678,18.593L13.678,23.84L18.925,23.84L18.925,18.593ZM11.575,24.916L6.328,24.916L6.328,30.164L11.575,30.164L11.575,24.916ZM33.672,31.239L28.425,31.239L28.425,36.487L33.672,36.487L33.672,31.239ZM26.295,24.916L21.048,24.916L21.048,30.164L26.295,30.164L26.295,24.916ZM33.672,18.593L28.425,18.593L28.425,23.84L33.672,23.84L33.672,18.593ZM11.575,31.239L6.328,31.239L6.328,36.487L11.575,36.487L11.575,31.239ZM33.672,24.916L28.425,24.916L28.425,30.164L33.672,30.164L33.672,24.916ZM18.932,31.239L13.684,31.239L13.684,36.487L18.932,36.487L18.932,31.239ZM11.575,18.593L6.328,18.593L6.328,23.84L11.575,23.84L11.575,18.593ZM26.295,18.593L21.048,18.593L21.048,23.84L26.295,23.84L26.295,18.593ZM26.295,31.239L21.048,31.239L21.048,36.487L26.295,36.487L26.295,31.239ZM18.932,24.916L13.684,24.916L13.684,30.164L18.932,30.164L18.932,24.916Z" style="fill:rgb(95,41,196);fill-rule:nonzero;"/>
</svg>
