<svg width="46" height="44" viewBox="0 0 46 44" fill="none" xmlns="http://www.w3.org/2000/svg">
<path d="M22.5727 12.952C22.5727 10.6948 19.9392 9.37804 18.6224 9.00183H0.564317V40.0393C0.564317 42.748 3.57401 43.4252 5.07885 43.4252H22.5727V12.952Z" fill="#5F29C4"/>
<path d="M0 9.00183H0.564317M0.564317 9.00183H18.6224C19.9392 9.37804 22.5727 10.6948 22.5727 12.952C22.5727 15.2093 22.5727 34.208 22.5727 43.4252H5.07885C3.57401 43.4252 0.564317 42.748 0.564317 40.0393C0.564317 37.3305 0.564317 18.219 0.564317 9.00183Z" stroke="#5F29C4"/>
<path d="M23.137 12.952C23.137 10.6948 25.7705 9.37804 27.0873 9.00183H45.1454V40.0393C45.1454 42.748 42.1357 43.4252 40.6309 43.4252H23.137V12.952Z" fill="#5F29C4"/>
<path d="M45.7097 9.00183H45.1454M45.1454 9.00183H27.0873C25.7705 9.37804 23.137 10.6948 23.137 12.952C23.137 15.2093 23.137 34.208 23.137 43.4252H40.6309C42.1357 43.4252 45.1454 42.748 45.1454 40.0393C45.1454 37.3305 45.1454 18.219 45.1454 9.00183Z" stroke="#5F29C4"/>
<rect x="5.5791" y="14.0164" width="11.415" height="2.3859" rx="0.5" fill="white" stroke="white"/>
<rect x="28.1516" y="14.0164" width="11.415" height="2.3859" rx="0.5" fill="white" stroke="white"/>
<rect x="5.5791" y="20.7882" width="11.415" height="2.3859" rx="0.5" fill="white" stroke="white"/>
<rect x="28.1516" y="20.7882" width="11.415" height="2.3859" rx="0.5" fill="white" stroke="white"/>
<rect x="5.5791" y="28.6887" width="11.415" height="2.3859" rx="0.5" fill="white" stroke="white"/>
<rect x="28.1516" y="28.6887" width="11.415" height="2.3859" rx="0.5" fill="white" stroke="white"/>
<rect x="5.5791" y="35.4604" width="11.415" height="2.3859" rx="0.5" fill="white" stroke="white"/>
<rect x="28.1516" y="35.4604" width="11.415" height="2.3859" rx="0.5" fill="white" stroke="white"/>
<path d="M28.2158 8.43757V1.66577L31.6017 5.05167L35.5519 1.66577V8.43757" stroke="#5F29C4"/>
</svg>
