<svg width="62" height="62" viewBox="0 0 62 62" fill="none" xmlns="http://www.w3.org/2000/svg">
<rect width="62" height="62" rx="10" fill="#0455BF"/>
<path d="M31.0098 45.35C30.4431 45.35 30.0098 45.2 29.7098 44.9C29.4098 44.5667 29.2598 44.1167 29.2598 43.55V34.35H20.2098C19.6431 34.35 19.2098 34.2 18.9098 33.9C18.6098 33.6 18.4598 33.1833 18.4598 32.65C18.4598 32.1167 18.6098 31.7 18.9098 31.4C19.2098 31.1 19.6431 30.95 20.2098 30.95H29.2598V22.05C29.2598 21.45 29.4098 21 29.7098 20.7C30.0098 20.4 30.4598 20.25 31.0598 20.25C31.6264 20.25 32.0431 20.4 32.3098 20.7C32.6098 21 32.7598 21.45 32.7598 22.05V30.95H41.8098C42.3764 30.95 42.8098 31.1 43.1098 31.4C43.4098 31.7 43.5598 32.1167 43.5598 32.65C43.5598 33.1833 43.4098 33.6 43.1098 33.9C42.8098 34.2 42.3764 34.35 41.8098 34.35H32.7598V43.55C32.7598 44.1167 32.6098 44.5667 32.3098 44.9C32.0431 45.2 31.6098 45.35 31.0098 45.35Z" fill="#FAFAFA"/>
</svg>
