<svg width="30" height="30" viewBox="0 0 30 30" fill="none" xmlns="http://www.w3.org/2000/svg">
<rect x="0.5" y="0.5" width="29" height="29" rx="4.5" fill="#0455BF" stroke="#0455BF"/>
<path d="M9.77578 18.616C9.59978 18.616 9.46378 18.568 9.36778 18.472C9.27178 18.368 9.22378 18.228 9.22378 18.052V16.084H7.29178C7.12378 16.084 6.99178 16.04 6.89578 15.952C6.79978 15.856 6.75178 15.724 6.75178 15.556C6.75178 15.388 6.79978 15.26 6.89578 15.172C6.99178 15.076 7.12378 15.028 7.29178 15.028H9.22378V13.12C9.22378 12.944 9.27178 12.808 9.36778 12.712C9.46378 12.616 9.60378 12.568 9.78778 12.568C9.96378 12.568 10.0958 12.616 10.1838 12.712C10.2798 12.808 10.3278 12.944 10.3278 13.12V15.028H12.2598C12.4358 15.028 12.5678 15.076 12.6558 15.172C12.7518 15.26 12.7998 15.388 12.7998 15.556C12.7998 15.724 12.7518 15.856 12.6558 15.952C12.5678 16.04 12.4358 16.084 12.2598 16.084H10.3278V18.052C10.3278 18.228 10.2798 18.368 10.1838 18.472C10.0958 18.568 9.95978 18.616 9.77578 18.616ZM20.3009 19.12C19.8769 19.12 19.4449 19.064 19.0049 18.952C18.5649 18.84 18.1609 18.668 17.7929 18.436C17.6409 18.34 17.5369 18.228 17.4809 18.1C17.4329 17.964 17.4209 17.832 17.4449 17.704C17.4769 17.568 17.5369 17.456 17.6249 17.368C17.7209 17.272 17.8329 17.216 17.9609 17.2C18.0969 17.184 18.2449 17.22 18.4049 17.308C18.7009 17.476 19.0009 17.604 19.3049 17.692C19.6089 17.78 19.9329 17.824 20.2769 17.824C20.6129 17.824 20.9009 17.764 21.1409 17.644C21.3809 17.524 21.5649 17.356 21.6929 17.14C21.8209 16.924 21.8849 16.672 21.8849 16.384C21.8849 15.936 21.7489 15.576 21.4769 15.304C21.2049 15.024 20.8329 14.884 20.3609 14.884C20.1049 14.884 19.8569 14.928 19.6169 15.016C19.3769 15.096 19.1409 15.24 18.9089 15.448C18.8369 15.512 18.7449 15.576 18.6329 15.64C18.5209 15.696 18.4009 15.724 18.2729 15.724C18.0729 15.724 17.9209 15.672 17.8169 15.568C17.7129 15.464 17.6609 15.32 17.6609 15.136V11.212C17.6609 10.996 17.7169 10.832 17.8289 10.72C17.9489 10.6 18.1169 10.54 18.3329 10.54H22.2809C22.4969 10.54 22.6609 10.596 22.7729 10.708C22.8929 10.812 22.9529 10.968 22.9529 11.176C22.9529 11.376 22.8929 11.532 22.7729 11.644C22.6609 11.756 22.4969 11.812 22.2809 11.812H19.1609V14.5H18.7649C18.9729 14.22 19.2489 14.004 19.5929 13.852C19.9369 13.7 20.3129 13.624 20.7209 13.624C21.2569 13.624 21.7209 13.74 22.1129 13.972C22.5129 14.196 22.8209 14.512 23.0369 14.92C23.2609 15.32 23.3729 15.788 23.3729 16.324C23.3729 16.876 23.2489 17.364 23.0009 17.788C22.7529 18.204 22.3969 18.532 21.9329 18.772C21.4769 19.004 20.9329 19.12 20.3009 19.12Z" fill="#FAFAFA"/>
</svg>
