<svg width="30" height="30" viewBox="0 0 30 30" fill="none" xmlns="http://www.w3.org/2000/svg">
<rect x="0.5" y="0.5" width="29" height="29" rx="4.5" fill="#0455BF" stroke="#0455BF"/>
<path d="M7.15744 16.24C7.02144 16.24 6.90544 16.196 6.80944 16.108C6.72144 16.02 6.67744 15.912 6.67744 15.784C6.67744 15.656 6.72144 15.552 6.80944 15.472C6.90544 15.384 7.02144 15.34 7.15744 15.34H12.4014C12.5374 15.34 12.6494 15.384 12.7374 15.472C12.8254 15.552 12.8694 15.656 12.8694 15.784C12.8694 15.912 12.8254 16.02 12.7374 16.108C12.6494 16.196 12.5374 16.24 12.4014 16.24H7.15744ZM19.7033 19.12C19.2793 19.12 18.8473 19.064 18.4073 18.952C17.9673 18.84 17.5633 18.668 17.1953 18.436C17.0433 18.34 16.9393 18.228 16.8833 18.1C16.8353 17.964 16.8233 17.832 16.8473 17.704C16.8793 17.568 16.9393 17.456 17.0273 17.368C17.1233 17.272 17.2353 17.216 17.3633 17.2C17.4993 17.184 17.6473 17.22 17.8073 17.308C18.1033 17.476 18.4033 17.604 18.7073 17.692C19.0113 17.78 19.3353 17.824 19.6793 17.824C20.0153 17.824 20.3033 17.764 20.5433 17.644C20.7833 17.524 20.9673 17.356 21.0953 17.14C21.2233 16.924 21.2873 16.672 21.2873 16.384C21.2873 15.936 21.1513 15.576 20.8793 15.304C20.6073 15.024 20.2353 14.884 19.7633 14.884C19.5073 14.884 19.2593 14.928 19.0193 15.016C18.7793 15.096 18.5433 15.24 18.3113 15.448C18.2393 15.512 18.1473 15.576 18.0353 15.64C17.9233 15.696 17.8033 15.724 17.6753 15.724C17.4753 15.724 17.3233 15.672 17.2193 15.568C17.1153 15.464 17.0633 15.32 17.0633 15.136V11.212C17.0633 10.996 17.1193 10.832 17.2313 10.72C17.3513 10.6 17.5193 10.54 17.7353 10.54H21.6833C21.8993 10.54 22.0633 10.596 22.1753 10.708C22.2953 10.812 22.3553 10.968 22.3553 11.176C22.3553 11.376 22.2953 11.532 22.1753 11.644C22.0633 11.756 21.8993 11.812 21.6833 11.812H18.5633V14.5H18.1673C18.3753 14.22 18.6513 14.004 18.9953 13.852C19.3393 13.7 19.7153 13.624 20.1233 13.624C20.6593 13.624 21.1233 13.74 21.5153 13.972C21.9153 14.196 22.2233 14.512 22.4393 14.92C22.6633 15.32 22.7753 15.788 22.7753 16.324C22.7753 16.876 22.6513 17.364 22.4033 17.788C22.1553 18.204 21.7993 18.532 21.3353 18.772C20.8793 19.004 20.3353 19.12 19.7033 19.12Z" fill="#FAFAFA"/>
</svg>
