<svg width="30" height="30" viewBox="0 0 30 30" fill="none" xmlns="http://www.w3.org/2000/svg">
<rect x="0.5" y="0.5" width="29" height="29" rx="4.5" fill="#0455BF" stroke="#0455BF"/>
<path d="M15.0029 19.52C14.7829 19.52 14.6129 19.46 14.4929 19.34C14.3729 19.21 14.3129 19.035 14.3129 18.815V16.355H11.8979C11.6879 16.355 11.5229 16.3 11.4029 16.19C11.2829 16.07 11.2229 15.905 11.2229 15.695C11.2229 15.485 11.2829 15.325 11.4029 15.215C11.5229 15.095 11.6879 15.035 11.8979 15.035H14.3129V12.65C14.3129 12.43 14.3729 12.26 14.4929 12.14C14.6129 12.02 14.7879 11.96 15.0179 11.96C15.2379 11.96 15.4029 12.02 15.5129 12.14C15.6329 12.26 15.6929 12.43 15.6929 12.65V15.035H18.1079C18.3279 15.035 18.4929 15.095 18.6029 15.215C18.7229 15.325 18.7829 15.485 18.7829 15.695C18.7829 15.905 18.7229 16.07 18.6029 16.19C18.4929 16.3 18.3279 16.355 18.1079 16.355H15.6929V18.815C15.6929 19.035 15.6329 19.21 15.5129 19.34C15.4029 19.46 15.2329 19.52 15.0029 19.52Z" fill="#FAFAFA"/>
</svg>
