<?xml version="1.0" standalone="no"?>
<!DOCTYPE svg PUBLIC "-//W3C//DTD SVG 20010904//EN"
 "http://www.w3.org/TR/2001/REC-SVG-20010904/DTD/svg10.dtd">
<svg version="1.0" xmlns="http://www.w3.org/2000/svg"
 width="105.000000pt" height="141.000000pt" viewBox="0 0 137.000000 141.000000"
 preserveAspectRatio="xMidYMid meet">

<g transform="translate(0.000000,141.000000) scale(0.100000,-0.100000)"
fill="#000000" stroke="none">
<path d="M530 1184 c0 -8 5 -12 10 -9 6 3 10 10 10 16 0 5 -4 9 -10 9 -5 0
-10 -7 -10 -16z"/>
<path d="M427 1167 c-2 -6 2 -18 9 -25 8 -7 14 -8 14 -2 0 5 7 10 16 10 14 0
14 2 0 15 -18 18 -32 19 -39 2z"/>
<path d="M210 1158 c3 -3 41 -33 86 -66 84 -62 191 -162 264 -247 42 -49 41
-49 -10 27 -70 104 -177 204 -270 252 -41 21 -73 36 -70 34z"/>
<path d="M632 1120 c0 -8 4 -26 8 -40 6 -20 8 -21 8 -5 0 11 -3 29 -8 40 -5
12 -8 14 -8 5z"/>
<path d="M843 1071 c-59 -59 -109 -134 -138 -204 -9 -22 -11 -36 -6 -32 6 3
11 11 11 16 0 16 98 158 152 222 28 31 47 57 44 57 -3 0 -31 -27 -63 -59z"/>
<path d="M928 1081 c-25 -16 -49 -34 -52 -40 -5 -8 88 50 103 65 12 12 -10 1
-51 -25z"/>
<path d="M585 1077 c2 -10 11 -41 20 -70 8 -29 19 -83 24 -122 8 -67 9 -68 10
-20 1 54 -18 142 -44 197 -8 18 -13 25 -10 15z"/>
<path d="M652 1030 c0 -14 2 -19 5 -12 2 6 2 18 0 25 -3 6 -5 1 -5 -13z"/>
<path d="M1095 1040 c3 -5 10 -10 16 -10 5 0 9 5 9 10 0 6 -7 10 -16 10 -8 0
-12 -4 -9 -10z"/>
<path d="M940 987 c-42 -20 -92 -58 -140 -106 -41 -40 -59 -62 -40 -47 140
107 171 129 220 155 74 41 42 39 -40 -2z"/>
<path d="M280 990 c0 -5 5 -10 10 -10 6 0 10 5 10 10 0 6 -4 10 -10 10 -5 0
-10 -4 -10 -10z"/>
<path d="M710 979 c-7 -11 -10 -23 -7 -25 2 -2 9 7 15 21 14 30 7 33 -8 4z"/>
<path d="M577 915 c9 -19 18 -33 21 -31 4 5 -26 66 -33 66 -3 0 3 -16 12 -35z"/>
<path d="M405 892 c33 -16 92 -52 130 -81 l70 -52 -52 49 c-51 49 -160 112
-192 112 -9 0 11 -13 44 -28z"/>
<path d="M308 903 c7 -3 16 -2 19 1 4 3 -2 6 -13 5 -11 0 -14 -3 -6 -6z"/>
<path d="M1261 901 c0 -7 -7 -11 -15 -8 -9 4 -12 0 -9 -13 7 -25 25 -31 41
-14 7 8 8 14 3 14 -5 0 -12 8 -14 18 -3 9 -5 11 -6 3z"/>
<path d="M991 874 c-64 -13 -187 -67 -226 -98 -11 -8 13 -2 54 15 83 35 248
79 295 79 17 0 38 5 46 10 23 15 -93 11 -169 -6z"/>
<path d="M92 853 c2 -10 10 -18 17 -18 8 0 15 8 17 18 1 11 -4 17 -18 17 -13
0 -18 -6 -16 -17z"/>
<path d="M600 865 c0 -5 5 -17 10 -25 5 -8 10 -10 10 -5 0 6 -5 17 -10 25 -5
8 -10 11 -10 5z"/>
<path d="M256 845 c97 -15 210 -48 279 -81 67 -33 25 0 -47 37 -79 40 -159 59
-243 58 l-70 -1 81 -13z"/>
<path d="M1058 823 c12 -2 30 -2 40 0 9 3 -1 5 -23 4 -22 0 -30 -2 -17 -4z"/>
<path d="M1128 813 c7 -3 16 -2 19 1 4 3 -2 6 -13 5 -11 0 -14 -3 -6 -6z"/>
<path d="M281 770 c-24 -5 -45 -11 -47 -12 -1 -2 53 -3 121 -3 124 0 138 9 28
19 -32 3 -78 1 -102 -4z"/>
<path d="M820 751 c-14 -4 26 -8 90 -8 67 0 105 3 90 7 -32 10 -147 10 -180 1z"/>
<path d="M1090 716 c0 -9 5 -16 10 -16 6 0 10 4 10 9 0 6 -4 13 -10 16 -5 3
-10 -1 -10 -9z"/>
<path d="M795 699 c74 -11 186 -44 240 -71 28 -15 36 -16 27 -6 -34 41 -189
89 -281 87 -46 -1 -46 -1 14 -10z"/>
<path d="M360 677 c-57 -19 -170 -81 -170 -93 0 -2 22 7 49 21 72 36 195 75
265 85 l61 7 -70 1 c-48 1 -90 -5 -135 -21z"/>
<path d="M500 650 c-19 -10 -48 -33 -65 -52 -22 -24 -24 -27 -5 -12 14 12 47
36 74 53 55 34 52 41 -4 11z"/>
<path d="M780 664 c36 -15 158 -78 185 -96 27 -18 27 -17 -5 12 -38 35 -117
75 -165 84 -16 4 -23 3 -15 0z"/>
<path d="M521 593 c-36 -38 -74 -84 -84 -103 l-18 -35 28 35 c15 19 57 65 92
103 35 37 61 67 57 67 -5 0 -38 -30 -75 -67z"/>
<path d="M705 650 c-3 -6 1 -7 9 -4 18 7 21 14 7 14 -6 0 -13 -4 -16 -10z"/>
<path d="M765 629 c17 -12 81 -74 144 -138 75 -76 108 -104 95 -81 -28 51
-173 191 -224 218 -43 22 -44 22 -15 1z"/>
<path d="M351 599 c-33 -22 -61 -43 -61 -45 0 -6 1 -6 71 42 59 39 65 44 57
44 -3 0 -33 -18 -67 -41z"/>
<path d="M757 570 c21 -30 57 -91 81 -135 48 -90 47 -65 -2 34 -17 35 -51 85
-74 110 l-44 46 39 -55z"/>
<path d="M1016 594 c21 -14 50 -36 64 -48 20 -17 22 -17 10 -2 -18 24 -89 76
-103 76 -5 0 8 -12 29 -26z"/>
<path d="M1175 610 c-3 -5 1 -10 9 -10 9 0 16 5 16 10 0 6 -4 10 -9 10 -6 0
-13 -4 -16 -10z"/>
<path d="M529 537 c-57 -87 -70 -115 -97 -192 -32 -97 -35 -137 -3 -55 44 115
86 203 125 264 20 31 32 56 28 56 -4 0 -28 -33 -53 -73z"/>
<path d="M607 547 c-9 -34 -18 -101 -21 -147 l-5 -85 13 100 c8 56 19 120 26
144 6 24 9 45 7 47 -2 3 -12 -24 -20 -59z"/>
<path d="M712 520 c0 -14 2 -19 5 -12 2 6 2 18 0 25 -3 6 -5 1 -5 -13z"/>
<path d="M350 511 c0 -5 5 -13 10 -16 6 -3 10 -2 10 4 0 5 -4 13 -10 16 -5 3
-10 2 -10 -4z"/>
<path d="M1046 492 c-3 -6 -1 -14 5 -17 15 -10 25 3 12 16 -7 7 -13 7 -17 1z"/>
<path d="M637 453 c-4 -3 -7 -11 -7 -17 0 -6 5 -5 12 2 6 6 9 14 7 17 -3 3 -9
2 -12 -2z"/>
<path d="M710 350 c0 -5 5 -10 11 -10 5 0 7 5 4 10 -3 6 -8 10 -11 10 -2 0 -4
-4 -4 -10z"/>
<path d="M343 343 c-13 -5 -7 -33 7 -33 11 0 21 28 12 33 -4 3 -12 2 -19 0z"/>
<path d="M504 309 c-3 -6 -1 -16 5 -22 8 -8 11 -5 11 11 0 24 -5 28 -16 11z"/>
<path d="M1056 310 c-14 -4 -16 -9 -8 -14 7 -4 10 -11 8 -15 -3 -3 4 -7 14 -7
21 0 34 32 16 39 -6 2 -20 1 -30 -3z"/>
<path d="M600 221 c-8 -3 -16 -14 -16 -23 -1 -10 3 -15 8 -12 6 4 14 0 19 -7
7 -11 9 -11 9 3 0 9 4 18 9 20 5 2 4 8 -3 14 -6 6 -18 8 -26 5z"/>
</g>
</svg>
