<svg width="42" height="42" viewBox="0 0 42 42" fill="none" xmlns="http://www.w3.org/2000/svg">
<ellipse cx="21.006" cy="21.0171" rx="20.8519" ry="20.9036" fill="#53C71E"/>
<g clip-path="url(#clip0_1657_2495)">
<path fill-rule="evenodd" clip-rule="evenodd" d="M30.519 14.6515C29.3777 16.3482 27.9899 18.3232 26.8137 20.2988C23.2094 26.3565 19.6435 33.1986 16.0415 34.1835C10.4481 35.7126 4.58966 29.0341 4.70154 24.2992C4.88324 16.6806 16.5298 17.1039 17.9203 26.6241C21.5562 20.6962 23.7829 17.4834 26.4729 13.5207C29.5242 9.02449 30.3025 7.78761 32.6182 9.94749C32.8636 10.1762 32.8111 10.6276 32.551 11.2486C33.0295 12.5113 34.1248 14.8263 36.4158 17.4514C38.3706 19.6895 34.8313 21.7038 34.4459 19.7731C34.108 18.0849 31.531 16.6196 30.519 14.6515Z" fill="white"/>
</g>
<defs>
<clipPath id="clip0_1657_2495">
<rect width="33.6" height="26.6" fill="white" transform="translate(4.19995 8.40002)"/>
</clipPath>
</defs>
</svg>
