<svg width="30" height="58" viewBox="0 0 30 58" fill="none" xmlns="http://www.w3.org/2000/svg">
<g id="Group 64">
<ellipse id="Ellipse 65" cx="15.5" cy="15" rx="9.5" ry="15" fill="#5F29C4"/>
<g id="Group 37">
<path id="Vector 12" d="M2.982 15.9362C2.982 15.3839 2.53428 14.9362 1.982 14.9362C1.42971 14.9362 0.981996 15.3839 0.981996 15.9362H2.982ZM0.981996 15.9362C0.981996 19.3699 0.79939 23.9715 2.51927 27.6692C3.4 29.5628 4.7804 31.236 6.91019 32.4229C9.02554 33.6018 11.8135 34.2642 15.4593 34.2642V32.2642C12.0456 32.2642 9.61911 31.643 7.8838 30.6759C6.16292 29.7169 5.05644 28.3818 4.33272 26.8258C2.84371 23.6244 2.982 19.562 2.982 15.9362H0.981996Z" fill="#5F29C4"/>
<path id="Vector 13" d="M27.2949 15.9362C27.2949 15.3839 27.7426 14.9362 28.2949 14.9362C28.8471 14.9362 29.2949 15.3839 29.2949 15.9362H27.2949ZM29.2949 15.9362C29.2949 19.3699 29.4775 23.9715 27.7576 27.6692C26.8769 29.5628 25.4965 31.236 23.3667 32.4229C21.2513 33.6018 18.4634 34.2642 14.8175 34.2642V32.2642C18.2312 32.2642 20.6577 31.643 22.3931 30.6759C24.1139 29.7169 25.2204 28.3818 25.9441 26.8258C27.4331 23.6244 27.2949 19.562 27.2949 15.9362H29.2949Z" fill="#5F29C4"/>
</g>
<line id="Line 23" x1="15.5" y1="33" x2="15.5" y2="58" stroke="#5F29C4" stroke-width="3"/>
<line id="Line 24" x1="6.5" y1="56.5" x2="24.5" y2="56.5" stroke="#5F29C4" stroke-width="3" stroke-linecap="round"/>
</g>
</svg>
