<svg width="57" height="44" viewBox="0 0 57 44" fill="none" xmlns="http://www.w3.org/2000/svg">
<g id="Group 39">
<path id="Vector 14" d="M12.7086 9.66447H3.45557C1.79871 9.66447 0.455566 11.0076 0.455566 12.6645V40.6528C0.455566 42.3097 1.79871 43.6528 3.45557 43.6528H53.0729C54.7297 43.6528 56.0729 42.3097 56.0729 40.6528V12.6645C56.0729 11.0076 54.7297 9.66447 53.0729 9.66447H43.2691C42.3762 9.66447 41.5297 9.26677 40.9598 8.57948L34.8161 1.17093C34.2462 0.483642 33.3997 0.0859375 32.5069 0.0859375H23.9543C23.1003 0.0859375 22.2867 0.449953 21.7176 1.08674L14.9454 8.66367C14.3763 9.30046 13.5627 9.66447 12.7086 9.66447Z" fill="#5F29C4"/>
<circle id="Ellipse 68" cx="28.1389" cy="25.0462" r="12.2532" fill="white"/>
</g>
</svg>
