<svg width="28" height="28" viewBox="0 0 28 28" fill="none" xmlns="http://www.w3.org/2000/svg">
<path d="M1.00001 27C0.412985 26.413 0.119527 25.8088 0.119527 25.1872C0.154021 24.5312 0.464779 23.9097 1.0518 23.3227L10.5817 13.7928L1.20718 4.41832C0.620159 3.8313 0.326698 3.22708 0.326697 2.60557C0.326697 1.98406 0.602962 1.39704 1.15538 0.844617C1.70781 0.292195 2.29482 0.0159304 2.91634 0.0159295C3.53785 0.0159299 4.14207 0.309391 4.72909 0.89641L14.1036 10.2709L23.3227 1.05179C23.9442 0.430273 24.5657 0.119519 25.1872 0.119518C25.8088 0.119518 26.4303 0.430272 27.0518 1.05179C27.6387 1.6387 27.915 2.22572 27.8805 2.81274C27.8805 3.43426 27.5697 4.05577 26.9482 4.67728L17.7291 13.8964L27.1036 23.2709C27.6905 23.8578 27.9841 24.4621 27.9841 25.0836C27.9841 25.7052 27.7078 26.2922 27.1554 26.8446C26.603 27.397 26.0159 27.6733 25.3944 27.6733C24.7729 27.6733 24.1686 27.3797 23.5817 26.7928L14.2072 17.4183L4.67729 26.9482C4.09028 27.5352 3.46876 27.846 2.81275 27.8805C2.22573 27.915 1.62152 27.6215 1.00001 27Z" fill="#FAFAFA"/>
</svg>
