<svg width="30" height="30" viewBox="0 0 30 30" fill="none" xmlns="http://www.w3.org/2000/svg">
<g clip-path="url(#clip0_1947_4898)">
<circle cx="15" cy="15" r="15" fill="#FF9519"/>
<path fill-rule="evenodd" clip-rule="evenodd" d="M8.04289 20.5572L15.7025 10.0678L18.7296 12.3968C18.7296 12.3968 11.1357 22.8414 11.07 22.8863C9.43685 24.0035 7.65322 24.6841 7.53006 24.6007C7.40687 24.5175 7.5998 22.4061 8.04289 20.5572Z" fill="#FAFAFA"/>
<path fill-rule="evenodd" clip-rule="evenodd" d="M20.3927 9.99625L17.314 7.73505L18.8923 5.58649C20.3311 5.65917 21.6215 5.97466 21.9241 7.90583L20.3927 9.99625Z" fill="#FAFAFA"/>
<path fill-rule="evenodd" clip-rule="evenodd" d="M7.48579 20.4125C7.50403 20.3366 7.5368 20.2653 7.58257 20.2027L15.2432 9.71606C15.4321 9.45748 15.7911 9.40616 16.0449 9.60154L19.0724 11.9301C19.3259 12.125 19.3789 12.4923 19.1908 12.7509C19.1908 12.7509 13.0364 21.2123 11.7576 22.9372C11.5453 23.2236 11.4002 23.3668 11.3904 23.3735C10.021 24.3099 8.5485 24.9488 7.9491 25.1241C7.73591 25.1864 7.58146 25.1965 7.50605 25.1897C7.37377 25.1778 7.2803 25.1311 7.21585 25.0877C7.13538 25.0332 6.97343 24.893 6.93386 24.5886C6.87629 24.1465 7.06534 22.1662 7.48579 20.4125ZM8.60013 20.7758C8.59717 20.821 8.58183 20.8655 8.55098 20.9082C8.33243 21.8977 8.19678 23.0646 8.12726 23.7787C8.76751 23.5072 9.8068 23.0277 10.6769 22.4452C10.7152 22.3944 10.7773 22.3119 10.8428 22.2235C11.9392 20.7446 16.6219 14.3107 17.9295 12.5134L15.8208 10.8915L8.60013 20.7758Z" fill="#FAFAFA"/>
<path fill-rule="evenodd" clip-rule="evenodd" d="M20.0597 10.4698L16.9812 8.20817C16.8557 8.11601 16.7716 7.97651 16.7477 7.82123C16.7238 7.66594 16.7622 7.50795 16.8542 7.3826L18.4324 5.23364C18.5457 5.07922 18.7272 4.99259 18.917 5.00225C19.9198 5.05294 20.8501 5.23978 21.5182 5.83804C21.9858 6.2569 22.3435 6.87535 22.4911 7.81788C22.5155 7.97335 22.4774 8.13184 22.3853 8.25741L20.854 10.3483C20.6676 10.6027 20.3143 10.6568 20.0597 10.4698ZM20.268 9.1866C20.268 9.1866 21.3136 7.75896 21.3135 7.75872C21.2072 7.28221 21.0224 6.94498 20.7639 6.71343C20.349 6.34187 19.7813 6.23428 19.1696 6.18817L18.1242 7.61163L20.268 9.1866Z" fill="#FAFAFA"/>
<circle cx="15" cy="15" r="15" fill="#53C71E"/>
<g clip-path="url(#clip1_1947_4898)">
<path fill-rule="evenodd" clip-rule="evenodd" d="M9.39259 23.4341H7.743C7.09154 23.4341 6.5625 22.905 6.5625 22.2531V7.74302C6.5625 7.09115 7.09154 6.56201 7.743 6.56201H11.4772V11.3031C11.4772 11.8423 11.9133 12.2488 12.41 12.2488H17.5868C18.0835 12.2488 18.5196 11.8423 18.5196 11.3031V6.56201H19.4785C19.5793 6.56201 19.676 6.60326 19.7464 6.67468L23.3279 10.3455C23.3962 10.4149 23.4343 10.5094 23.4343 10.607V22.2531C23.4343 22.905 22.9054 23.4341 22.2538 23.4341H20.6043V16.328C20.6043 15.7475 20.1216 15.2556 19.5016 15.2556H10.4953C9.87525 15.2556 9.39259 15.7475 9.39259 16.328V23.4341ZM12.8835 6.56201H17.1134V10.8555H12.8835V6.56201ZM19.1981 23.4341H10.7988V16.6529H19.1981V23.4341Z" fill="#FAFAFA"/>
</g>
</g>
<defs>
<clipPath id="clip0_1947_4898">
<rect width="30" height="30" fill="white"/>
</clipPath>
<clipPath id="clip1_1947_4898">
<rect width="16.875" height="16.875" fill="white" transform="translate(6.5625 6.5625)"/>
</clipPath>
</defs>
</svg>
