<svg width="40" height="40" viewBox="0 0 40 40" fill="none" xmlns="http://www.w3.org/2000/svg">
<circle cx="20" cy="20" r="20" fill="#0455BF"/>
<path d="M14.7414 24.105C14.5314 24.105 14.3664 24.05 14.2464 23.94C14.1364 23.82 14.0814 23.65 14.0814 23.43V14.1C14.0814 13.88 14.1364 13.715 14.2464 13.605C14.3664 13.485 14.5364 13.425 14.7564 13.425H20.2014C20.3714 13.425 20.5014 13.47 20.5914 13.56C20.6814 13.65 20.7264 13.775 20.7264 13.935C20.7264 14.105 20.6814 14.235 20.5914 14.325C20.5014 14.415 20.3714 14.46 20.2014 14.46H15.3114V18.15H19.8864C20.0564 18.15 20.1864 18.195 20.2764 18.285C20.3764 18.375 20.4264 18.5 20.4264 18.66C20.4264 18.83 20.3764 18.96 20.2764 19.05C20.1864 19.14 20.0564 19.185 19.8864 19.185H15.3114V23.43C15.3114 23.88 15.1214 24.105 14.7414 24.105ZM22.6027 24.105C22.4027 24.105 22.2477 24.05 22.1377 23.94C22.0377 23.83 21.9877 23.675 21.9877 23.475V17.22C21.9877 17.02 22.0377 16.87 22.1377 16.77C22.2377 16.66 22.3827 16.605 22.5727 16.605C22.7627 16.605 22.9077 16.66 23.0077 16.77C23.1177 16.87 23.1727 17.02 23.1727 17.22V18.435H23.0227C23.1827 17.845 23.4877 17.39 23.9377 17.07C24.3877 16.75 24.9427 16.58 25.6027 16.56C25.7527 16.55 25.8727 16.585 25.9627 16.665C26.0527 16.735 26.1027 16.86 26.1127 17.04C26.1227 17.21 26.0827 17.345 25.9927 17.445C25.9027 17.545 25.7627 17.605 25.5727 17.625L25.3327 17.655C24.6527 17.715 24.1277 17.935 23.7577 18.315C23.3977 18.685 23.2177 19.195 23.2177 19.845V23.475C23.2177 23.675 23.1627 23.83 23.0527 23.94C22.9527 24.05 22.8027 24.105 22.6027 24.105Z" fill="white"/>
</svg>
