<svg width="40" height="40" viewBox="0 0 40 40" fill="none" xmlns="http://www.w3.org/2000/svg">
<circle cx="20" cy="20" r="20" fill="#0455BF"/>
<path d="M10.8215 24.105C10.6415 24.105 10.5015 24.055 10.4015 23.955C10.3015 23.845 10.2515 23.695 10.2515 23.505V13.92C10.2515 13.72 10.3015 13.57 10.4015 13.47C10.5015 13.37 10.6415 13.32 10.8215 13.32C10.9815 13.32 11.1065 13.355 11.1965 13.425C11.2965 13.485 11.3865 13.59 11.4665 13.74L15.5765 21.48H15.1265L19.2215 13.74C19.3015 13.59 19.3865 13.485 19.4765 13.425C19.5665 13.355 19.6965 13.32 19.8665 13.32C20.0365 13.32 20.1715 13.37 20.2715 13.47C20.3715 13.57 20.4215 13.72 20.4215 13.92V23.505C20.4215 23.695 20.3715 23.845 20.2715 23.955C20.1815 24.055 20.0415 24.105 19.8515 24.105C19.6715 24.105 19.5315 24.055 19.4315 23.955C19.3315 23.845 19.2815 23.695 19.2815 23.505V15.075H19.6415L15.8915 22.11C15.8215 22.24 15.7465 22.335 15.6665 22.395C15.5965 22.445 15.4915 22.47 15.3515 22.47C15.2115 22.47 15.1015 22.44 15.0215 22.38C14.9415 22.32 14.8715 22.23 14.8115 22.11L11.0165 15.06H11.3765V23.505C11.3765 23.695 11.3265 23.845 11.2265 23.955C11.1365 24.055 11.0015 24.105 10.8215 24.105ZM25.9185 24.135C25.2085 24.135 24.5935 23.98 24.0735 23.67C23.5535 23.36 23.1485 22.925 22.8585 22.365C22.5785 21.795 22.4385 21.125 22.4385 20.355C22.4385 19.775 22.5185 19.255 22.6785 18.795C22.8385 18.325 23.0735 17.925 23.3835 17.595C23.6935 17.265 24.0585 17.015 24.4785 16.845C24.9085 16.665 25.3885 16.575 25.9185 16.575C26.6285 16.575 27.2435 16.73 27.7635 17.04C28.2835 17.35 28.6835 17.79 28.9635 18.36C29.2535 18.92 29.3985 19.585 29.3985 20.355C29.3985 20.935 29.3185 21.455 29.1585 21.915C28.9985 22.375 28.7635 22.775 28.4535 23.115C28.1435 23.445 27.7735 23.7 27.3435 23.88C26.9235 24.05 26.4485 24.135 25.9185 24.135ZM25.9185 23.16C26.3685 23.16 26.7635 23.05 27.1035 22.83C27.4435 22.61 27.7035 22.29 27.8835 21.87C28.0735 21.45 28.1685 20.945 28.1685 20.355C28.1685 19.445 27.9635 18.75 27.5535 18.27C27.1535 17.79 26.6085 17.55 25.9185 17.55C25.4585 17.55 25.0585 17.66 24.7185 17.88C24.3885 18.09 24.1285 18.405 23.9385 18.825C23.7585 19.235 23.6685 19.745 23.6685 20.355C23.6685 21.255 23.8735 21.95 24.2835 22.44C24.6935 22.92 25.2385 23.16 25.9185 23.16Z" fill="white"/>
</svg>
