<svg width="62" height="62" viewBox="0 0 62 62" fill="none" xmlns="http://www.w3.org/2000/svg">
<rect width="60" height="60" rx="10" fill="#0455BF"/>
<path d="M31.0098 43.35C30.4431 43.35 30.0098 43.2 29.7098 42.9C29.4098 42.5667 29.2598 42.1167 29.2598 41.55V32.35H20.2098C19.6431 32.35 19.2098 32.2 18.9098 31.9C18.6098 31.6 18.4598 31.1833 18.4598 30.65C18.4598 30.1167 18.6098 29.7 18.9098 29.4C19.2098 29.1 19.6431 28.95 20.2098 28.95H29.2598V20.05C29.2598 19.45 29.4098 19 29.7098 18.7C30.0098 18.4 30.4598 18.25 31.0598 18.25C31.6264 18.25 32.0431 18.4 32.3098 18.7C32.6098 19 32.7598 19.45 32.7598 20.05V28.95H41.8098C42.3764 28.95 42.8098 29.1 43.1098 29.4C43.4098 29.7 43.5598 30.1167 43.5598 30.65C43.5598 31.1833 43.4098 31.6 43.1098 31.9C42.8098 32.2 42.3764 32.35 41.8098 32.35H32.7598V41.55C32.7598 42.1167 32.6098 42.5667 32.3098 42.9C32.0431 43.2 31.6098 43.35 31.0098 43.35Z" fill="#FAFAFA"/>
</svg>
