<svg width="30" height="30" viewBox="0 0 30 30" fill="none" xmlns="http://www.w3.org/2000/svg">
<g clip-path="url(#clip0_2441_23843)">
<path d="M25 0.5H5C2.51472 0.5 0.5 2.51472 0.5 5V25C0.5 27.4853 2.51472 29.5 5 29.5H25C27.4853 29.5 29.5 27.4853 29.5 25V5C29.5 2.51472 27.4853 0.5 25 0.5Z" fill="#0455BF" stroke="#0455BF"/>
<path d="M9.00262 19.3538C8.76966 19.3538 8.58965 19.2923 8.46258 19.1692C8.33551 19.0359 8.27198 18.8564 8.27198 18.6308V16.1077H5.71475C5.49239 16.1077 5.31767 16.0513 5.1906 15.9385C5.06353 15.8154 5 15.6462 5 15.4308C5 15.2154 5.06353 15.0513 5.1906 14.9385C5.31767 14.8154 5.49239 14.7538 5.71475 14.7538H8.27198V12.3077C8.27198 12.0821 8.33551 11.9077 8.46258 11.7846C8.58965 11.6615 8.77496 11.6 9.0185 11.6C9.25146 11.6 9.42617 11.6615 9.54265 11.7846C9.66972 11.9077 9.73325 12.0821 9.73325 12.3077V14.7538H12.2905C12.5234 14.7538 12.6982 14.8154 12.8146 14.9385C12.9417 15.0513 13.0052 15.2154 13.0052 15.4308C13.0052 15.6462 12.9417 15.8154 12.8146 15.9385C12.6982 16.0513 12.5234 16.1077 12.2905 16.1077H9.73325V18.6308C9.73325 18.8564 9.66972 19.0359 9.54265 19.1692C9.42617 19.2923 9.24616 19.3538 9.00262 19.3538Z" fill="#FAFAFA"/>
<path d="M20.7234 21C20.1331 21 19.5317 20.9217 18.9192 20.765C18.3066 20.6084 17.7442 20.3678 17.2319 20.0434C17.0203 19.9091 16.8755 19.7524 16.7976 19.5734C16.7307 19.3832 16.714 19.1986 16.7474 19.0196C16.792 18.8294 16.8755 18.6727 16.998 18.5497C17.1317 18.4154 17.2876 18.3371 17.4658 18.3147C17.6551 18.2923 17.8611 18.3427 18.0839 18.4657C18.496 18.7007 18.9136 18.8797 19.3368 19.0028C19.76 19.1259 20.2111 19.1874 20.69 19.1874C21.1577 19.1874 21.5586 19.1035 21.8928 18.9357C22.2269 18.7678 22.483 18.5329 22.6612 18.2308C22.8394 17.9287 22.9285 17.5762 22.9285 17.1734C22.9285 16.5469 22.7392 16.0434 22.3605 15.6629C21.9819 15.2713 21.464 15.0755 20.8069 15.0755C20.4505 15.0755 20.1053 15.1371 19.7711 15.2601C19.437 15.372 19.1085 15.5734 18.7855 15.8643C18.6853 15.9538 18.5572 16.0434 18.4013 16.1329C18.2454 16.2112 18.0783 16.2503 17.9001 16.2503C17.6217 16.2503 17.4101 16.1776 17.2653 16.0322C17.1205 15.8867 17.0481 15.6853 17.0481 15.428V9.93986C17.0481 9.63776 17.1261 9.40839 17.282 9.25175C17.4491 9.08392 17.683 9 17.9837 9H23.4798C23.7805 9 24.0088 9.07832 24.1647 9.23496C24.3318 9.38042 24.4153 9.5986 24.4153 9.88951C24.4153 10.1692 24.3318 10.3874 24.1647 10.5441C24.0088 10.7007 23.7805 10.779 23.4798 10.779H19.1363V14.5385H18.5851C18.8746 14.1469 19.2588 13.8448 19.7377 13.6322C20.2166 13.4196 20.7401 13.3133 21.3081 13.3133C22.0542 13.3133 22.7002 13.4755 23.2459 13.8C23.8028 14.1133 24.2315 14.5552 24.5322 15.1259C24.8441 15.6853 25 16.3399 25 17.0895C25 17.8615 24.8274 18.5441 24.4821 19.1371C24.1369 19.7189 23.6413 20.1776 22.9953 20.5133C22.3605 20.8378 21.6032 21 20.7234 21Z" fill="#FAFAFA"/>
</g>
<defs>
<clipPath id="clip0_2441_23843">
<rect width="30" height="30" fill="white"/>
</clipPath>
</defs>
</svg>
