<svg width="30" height="30" viewBox="0 0 30 30" fill="none" xmlns="http://www.w3.org/2000/svg">
<g clip-path="url(#clip0_2310_10497)">
<circle cx="15" cy="15" r="15" fill="#FF9519"/>
<path d="M15.0058 23.01C14.6658 23.01 14.4058 22.92 14.2258 22.74C14.0458 22.54 13.9558 22.27 13.9558 21.93V16.41H8.52583C8.18583 16.41 7.92583 16.32 7.74583 16.14C7.56583 15.96 7.47583 15.71 7.47583 15.39C7.47583 15.07 7.56583 14.82 7.74583 14.64C7.92583 14.46 8.18583 14.37 8.52583 14.37H13.9558V9.02995C13.9558 8.66995 14.0458 8.39995 14.2258 8.21995C14.4058 8.03995 14.6758 7.94995 15.0358 7.94995C15.3758 7.94995 15.6258 8.03995 15.7858 8.21995C15.9658 8.39995 16.0558 8.66995 16.0558 9.02995V14.37H21.4858C21.8258 14.37 22.0858 14.46 22.2658 14.64C22.4458 14.82 22.5358 15.07 22.5358 15.39C22.5358 15.71 22.4458 15.96 22.2658 16.14C22.0858 16.32 21.8258 16.41 21.4858 16.41H16.0558V21.93C16.0558 22.27 15.9658 22.54 15.7858 22.74C15.6258 22.92 15.3658 23.01 15.0058 23.01Z" fill="#FAFAFA"/>
</g>
<defs>
<clipPath id="clip0_2310_10497">
<path d="M0 5C0 2.23858 2.23858 0 5 0H25C27.7614 0 30 2.23858 30 5V25C30 27.7614 27.7614 30 25 30H5C2.23858 30 0 27.7614 0 25V5Z" fill="white"/>
</clipPath>
</defs>
</svg>
