<svg width="40" height="40" viewBox="0 0 40 40" fill="none" xmlns="http://www.w3.org/2000/svg">
<circle cx="20" cy="20" r="20" fill="#989898"/>
<path d="M15.0502 24.105C14.8602 24.105 14.7102 24.05 14.6002 23.94C14.4902 23.82 14.4352 23.66 14.4352 23.46V14.49H11.0602C10.8802 14.49 10.7402 14.44 10.6402 14.34C10.5402 14.24 10.4902 14.11 10.4902 13.95C10.4902 13.78 10.5402 13.65 10.6402 13.56C10.7402 13.47 10.8802 13.425 11.0602 13.425H19.0552C19.2352 13.425 19.3752 13.47 19.4752 13.56C19.5752 13.65 19.6252 13.78 19.6252 13.95C19.6252 14.12 19.5752 14.255 19.4752 14.355C19.3752 14.445 19.2352 14.49 19.0552 14.49H15.6802V23.46C15.6802 23.66 15.6252 23.82 15.5152 23.94C15.4152 24.05 15.2602 24.105 15.0502 24.105ZM21.6795 24.105C21.4795 24.105 21.3295 24.05 21.2295 23.94C21.1295 23.83 21.0795 23.675 21.0795 23.475V13.935C21.0795 13.735 21.1295 13.585 21.2295 13.485C21.3295 13.375 21.4795 13.32 21.6795 13.32C21.8695 13.32 22.0195 13.375 22.1295 13.485C22.2395 13.585 22.2945 13.735 22.2945 13.935V18.33H22.0995C22.3095 17.75 22.6495 17.315 23.1195 17.025C23.5995 16.725 24.1495 16.575 24.7695 16.575C25.3495 16.575 25.8295 16.68 26.2095 16.89C26.5995 17.1 26.8895 17.42 27.0795 17.85C27.2695 18.27 27.3645 18.805 27.3645 19.455V23.475C27.3645 23.675 27.3095 23.83 27.1995 23.94C27.0995 24.05 26.9545 24.105 26.7645 24.105C26.5645 24.105 26.4095 24.05 26.2995 23.94C26.1995 23.83 26.1495 23.675 26.1495 23.475V19.53C26.1495 18.85 26.0145 18.355 25.7445 18.045C25.4845 17.725 25.0645 17.565 24.4845 17.565C23.8145 17.565 23.2795 17.775 22.8795 18.195C22.4895 18.605 22.2945 19.155 22.2945 19.845V23.475C22.2945 23.895 22.0895 24.105 21.6795 24.105Z" fill="white"/>
</svg>
