<svg width="30" height="30" viewBox="0 0 30 30" fill="none" xmlns="http://www.w3.org/2000/svg">
<g clip-path="url(#clip0_2437_21274)">
<circle cx="15" cy="15" r="15" fill="#53C71E"/>
<g clip-path="url(#clip1_2437_21274)">
<path fill-rule="evenodd" clip-rule="evenodd" d="M9.39259 23.4341H7.743C7.09154 23.4341 6.5625 22.905 6.5625 22.2531V7.74302C6.5625 7.09115 7.09154 6.56201 7.743 6.56201H11.4772V11.3031C11.4772 11.8423 11.9133 12.2488 12.41 12.2488H17.5868C18.0835 12.2488 18.5196 11.8423 18.5196 11.3031V6.56201H19.4785C19.5793 6.56201 19.676 6.60326 19.7464 6.67468L23.3279 10.3455C23.3962 10.4149 23.4343 10.5094 23.4343 10.607V22.2531C23.4343 22.905 22.9054 23.4341 22.2538 23.4341H20.6043V16.328C20.6043 15.7475 20.1216 15.2556 19.5016 15.2556H10.4953C9.87525 15.2556 9.39259 15.7475 9.39259 16.328V23.4341ZM12.8835 6.56201H17.1134V10.8555H12.8835V6.56201ZM19.1981 23.4341H10.7988V16.6529H19.1981V23.4341Z" fill="#FAFAFA"/>
</g>
</g>
<defs>
<clipPath id="clip0_2437_21274">
<rect width="30" height="30" fill="white"/>
</clipPath>
<clipPath id="clip1_2437_21274">
<rect width="16.875" height="16.875" fill="white" transform="translate(6.5625 6.5625)"/>
</clipPath>
</defs>
</svg>
