<svg width="30" height="30" viewBox="0 0 30 30" fill="none" xmlns="http://www.w3.org/2000/svg">
<g clip-path="url(#clip0_2441_23839)">
<path d="M25 0.5H5C2.51472 0.5 0.5 2.51472 0.5 5V25C0.5 27.4853 2.51472 29.5 5 29.5H25C27.4853 29.5 29.5 27.4853 29.5 25V5C29.5 2.51472 27.4853 0.5 25 0.5Z" fill="#0455BF" stroke="#0455BF"/>
<path d="M5.66822 16.972C5.47889 16.972 5.31741 16.9105 5.18376 16.7874C5.06125 16.6643 5 16.5133 5 16.3343C5 16.1552 5.06125 16.0098 5.18376 15.8979C5.31741 15.7748 5.47889 15.7133 5.66822 15.7133H12.9686C13.1579 15.7133 13.3138 15.7748 13.4363 15.8979C13.5588 16.0098 13.6201 16.1552 13.6201 16.3343C13.6201 16.5133 13.5588 16.6643 13.4363 16.7874C13.3138 16.9105 13.1579 16.972 12.9686 16.972H5.66822Z" fill="#FAFAFA"/>
<path d="M20.7234 21C20.1332 21 19.5318 20.9217 18.9192 20.765C18.3067 20.6084 17.7443 20.3678 17.232 20.0434C17.0204 19.9091 16.8756 19.7524 16.7976 19.5734C16.7308 19.3832 16.7141 19.1986 16.7475 19.0196C16.792 18.8294 16.8756 18.6727 16.9981 18.5497C17.1317 18.4154 17.2876 18.3371 17.4658 18.3147C17.6552 18.2923 17.8612 18.3427 18.0839 18.4657C18.496 18.7007 18.9136 18.8797 19.3369 19.0028C19.7601 19.1259 20.2111 19.1874 20.69 19.1874C21.1578 19.1874 21.5587 19.1035 21.8928 18.9357C22.2269 18.7678 22.4831 18.5329 22.6613 18.2308C22.8395 17.9287 22.9286 17.5762 22.9286 17.1734C22.9286 16.5469 22.7392 16.0434 22.3606 15.6629C21.9819 15.2713 21.464 15.0755 20.8069 15.0755C20.4506 15.0755 20.1053 15.1371 19.7712 15.2601C19.4371 15.372 19.1085 15.5734 18.7856 15.8643C18.6853 15.9538 18.5573 16.0434 18.4013 16.1329C18.2454 16.2112 18.0784 16.2503 17.9002 16.2503C17.6217 16.2503 17.4101 16.1776 17.2654 16.0322C17.1206 15.8867 17.0482 15.6853 17.0482 15.428V9.93986C17.0482 9.63776 17.1262 9.40839 17.2821 9.25175C17.4491 9.08392 17.683 9 17.9837 9H23.4798C23.7805 9 24.0088 9.07832 24.1648 9.23496C24.3318 9.38042 24.4153 9.5986 24.4153 9.88951C24.4153 10.1692 24.3318 10.3874 24.1648 10.5441C24.0088 10.7007 23.7805 10.779 23.4798 10.779H19.1364V14.5385H18.5851C18.8747 14.1469 19.2589 13.8448 19.7378 13.6322C20.2167 13.4196 20.7401 13.3133 21.3081 13.3133C22.0543 13.3133 22.7002 13.4755 23.246 13.8C23.8028 14.1133 24.2316 14.5552 24.5323 15.1259C24.8441 15.6853 25 16.3399 25 17.0895C25 17.8615 24.8274 18.5441 24.4822 19.1371C24.1369 19.7189 23.6413 20.1776 22.9954 20.5133C22.3606 20.8378 21.6032 21 20.7234 21Z" fill="#FAFAFA"/>
</g>
<defs>
<clipPath id="clip0_2441_23839">
<rect width="30" height="30" fill="white"/>
</clipPath>
</defs>
</svg>
