<svg width="30" height="30" viewBox="0 0 30 30" fill="none" xmlns="http://www.w3.org/2000/svg">
<g clip-path="url(#clip0_2437_21275)">
<circle cx="15" cy="15" r="15" fill="#FF9519"/>
<path fill-rule="evenodd" clip-rule="evenodd" d="M8.04338 20.5572L15.703 10.0678L18.7301 12.3968C18.7301 12.3968 11.1362 22.8414 11.0705 22.8863C9.43734 24.0035 7.65371 24.6841 7.53054 24.6007C7.40736 24.5175 7.60029 22.4061 8.04338 20.5572Z" fill="#FAFAFA"/>
<path fill-rule="evenodd" clip-rule="evenodd" d="M20.3932 9.99601L17.3144 7.73481L18.8927 5.58625C20.3315 5.65893 21.622 5.97441 21.9246 7.90559L20.3932 9.99601Z" fill="#FAFAFA"/>
<path fill-rule="evenodd" clip-rule="evenodd" d="M7.48603 20.4125C7.50428 20.3366 7.53704 20.2653 7.58282 20.2027L15.2435 9.71606C15.4323 9.45748 15.7914 9.40616 16.0452 9.60154L19.0726 11.9301C19.3261 12.125 19.3791 12.4923 19.1911 12.7509C19.1911 12.7509 13.0366 21.2123 11.7579 22.9372C11.5455 23.2236 11.4005 23.3668 11.3906 23.3735C10.0213 24.3099 8.54875 24.9488 7.94934 25.1241C7.73615 25.1864 7.5817 25.1965 7.5063 25.1897C7.37402 25.1778 7.28054 25.1311 7.21609 25.0877C7.13562 25.0332 6.97367 24.893 6.93411 24.5886C6.87653 24.1465 7.06558 22.1662 7.48603 20.4125ZM8.60037 20.7758C8.59742 20.821 8.58207 20.8655 8.55123 20.9082C8.33267 21.8977 8.19702 23.0646 8.1275 23.7787C8.76775 23.5072 9.80705 23.0277 10.6772 22.4452C10.7155 22.3944 10.7776 22.3119 10.8431 22.2235C11.9394 20.7446 16.6221 14.3107 17.9298 12.5134L15.821 10.8915L8.60037 20.7758Z" fill="#FAFAFA"/>
<path fill-rule="evenodd" clip-rule="evenodd" d="M20.0595 10.4698L16.9809 8.20817C16.8555 8.11601 16.7714 7.97651 16.7475 7.82123C16.7236 7.66594 16.7619 7.50795 16.8539 7.3826L18.4321 5.23364C18.5455 5.07922 18.727 4.99259 18.9168 5.00225C19.9195 5.05294 20.8499 5.23978 21.5179 5.83804C21.9856 6.2569 22.3433 6.87535 22.4909 7.81788C22.5152 7.97334 22.4771 8.13184 22.3851 8.25741L20.8537 10.3483C20.6674 10.6027 20.314 10.6568 20.0595 10.4698ZM20.2678 9.1866C20.2678 9.1866 21.3134 7.75896 21.3133 7.75872C21.2069 7.28221 21.0222 6.94498 20.7637 6.71343C20.3488 6.34187 19.781 6.23428 19.1694 6.18817L18.1239 7.61163L20.2678 9.1866Z" fill="#FAFAFA"/>
</g>
<defs>
<clipPath id="clip0_2437_21275">
<rect width="30" height="30" fill="white"/>
</clipPath>
</defs>
</svg>
