<svg width="62" height="62" viewBox="0 0 62 62" fill="none" xmlns="http://www.w3.org/2000/svg">
<rect opacity="0.3" width="62" height="62" rx="10" fill="#989898"/>
<path d="M18 44C17.413 43.413 17.1195 42.8088 17.1195 42.1872C17.154 41.5312 17.4648 40.9097 18.0518 40.3227L27.5817 30.7928L18.2072 21.4183C17.6202 20.8313 17.3267 20.2271 17.3267 19.6056C17.3267 18.9841 17.603 18.397 18.1554 17.8446C18.7078 17.2922 19.2948 17.0159 19.9163 17.0159C20.5379 17.0159 21.1421 17.3094 21.7291 17.8964L31.1036 27.2709L40.3227 18.0518C40.9442 17.4303 41.5657 17.1195 42.1872 17.1195C42.8088 17.1195 43.4303 17.4303 44.0518 18.0518C44.6387 18.6387 44.915 19.2257 44.8805 19.8127C44.8805 20.4343 44.5697 21.0558 43.9482 21.6773L34.7291 30.8964L44.1036 40.2709C44.6905 40.8578 44.9841 41.4621 44.9841 42.0836C44.9841 42.7052 44.7078 43.2922 44.1554 43.8446C43.603 44.397 43.0159 44.6733 42.3944 44.6733C41.7729 44.6733 41.1686 44.3797 40.5817 43.7928L31.2072 34.4183L21.6773 43.9482C21.0903 44.5352 20.4688 44.846 19.8128 44.8805C19.2257 44.915 18.6215 44.6215 18 44Z" fill="#FAFAFA"/>
</svg>
