<svg width="40" height="40" viewBox="0 0 40 40" fill="none" xmlns="http://www.w3.org/2000/svg">
<circle cx="20" cy="20" r="20" fill="#0455BF"/>
<path d="M15.4066 24.135C14.9366 24.135 14.4766 24.095 14.0266 24.015C13.5766 23.935 13.1566 23.82 12.7666 23.67C12.3866 23.52 12.0416 23.33 11.7316 23.1C11.6116 23.01 11.5266 22.91 11.4766 22.8C11.4366 22.68 11.4266 22.565 11.4466 22.455C11.4766 22.335 11.5266 22.235 11.5966 22.155C11.6766 22.075 11.7716 22.03 11.8816 22.02C11.9916 22.01 12.1116 22.045 12.2416 22.125C12.6916 22.445 13.1716 22.68 13.6816 22.83C14.1916 22.97 14.7666 23.04 15.4066 23.04C16.3066 23.04 16.9716 22.875 17.4016 22.545C17.8416 22.205 18.0616 21.76 18.0616 21.21C18.0616 20.76 17.9016 20.41 17.5816 20.16C17.2716 19.9 16.7466 19.695 16.0066 19.545L14.4466 19.23C13.5066 19.03 12.8016 18.705 12.3316 18.255C11.8716 17.795 11.6416 17.185 11.6416 16.425C11.6416 15.955 11.7366 15.53 11.9266 15.15C12.1166 14.76 12.3816 14.43 12.7216 14.16C13.0616 13.88 13.4666 13.665 13.9366 13.515C14.4066 13.365 14.9266 13.29 15.4966 13.29C16.1266 13.29 16.7116 13.38 17.2516 13.56C17.8016 13.73 18.2966 13.99 18.7366 14.34C18.8466 14.43 18.9216 14.535 18.9616 14.655C19.0016 14.765 19.0066 14.875 18.9766 14.985C18.9466 15.085 18.8916 15.17 18.8116 15.24C18.7416 15.31 18.6466 15.35 18.5266 15.36C18.4166 15.37 18.2916 15.33 18.1516 15.24C17.7516 14.94 17.3366 14.725 16.9066 14.595C16.4766 14.455 16.0016 14.385 15.4816 14.385C14.9516 14.385 14.4916 14.465 14.1016 14.625C13.7216 14.785 13.4216 15.02 13.2016 15.33C12.9916 15.63 12.8866 15.98 12.8866 16.38C12.8866 16.86 13.0316 17.24 13.3216 17.52C13.6216 17.8 14.1066 18.005 14.7766 18.135L16.3366 18.465C17.3466 18.675 18.0916 18.995 18.5716 19.425C19.0616 19.845 19.3066 20.42 19.3066 21.15C19.3066 21.59 19.2166 21.995 19.0366 22.365C18.8566 22.735 18.5966 23.055 18.2566 23.325C17.9166 23.585 17.5066 23.785 17.0266 23.925C16.5466 24.065 16.0066 24.135 15.4066 24.135ZM23.6302 24.135C23.0402 24.135 22.5502 24.03 22.1602 23.82C21.7802 23.6 21.4902 23.275 21.2902 22.845C21.1002 22.415 21.0052 21.88 21.0052 21.24V17.22C21.0052 17.01 21.0552 16.855 21.1552 16.755C21.2652 16.655 21.4152 16.605 21.6052 16.605C21.8052 16.605 21.9552 16.655 22.0552 16.755C22.1652 16.855 22.2202 17.01 22.2202 17.22V21.225C22.2202 21.865 22.3502 22.345 22.6102 22.665C22.8802 22.975 23.3002 23.13 23.8702 23.13C24.4902 23.13 24.9952 22.92 25.3852 22.5C25.7752 22.08 25.9702 21.53 25.9702 20.85V17.22C25.9702 17.01 26.0202 16.855 26.1202 16.755C26.2302 16.655 26.3852 16.605 26.5852 16.605C26.7752 16.605 26.9202 16.655 27.0202 16.755C27.1302 16.855 27.1852 17.01 27.1852 17.22V23.475C27.1852 23.895 26.9902 24.105 26.6002 24.105C26.4102 24.105 26.2602 24.05 26.1502 23.94C26.0502 23.83 26.0002 23.675 26.0002 23.475V22.11L26.1952 22.32C25.9952 22.91 25.6652 23.36 25.2052 23.67C24.7552 23.98 24.2302 24.135 23.6302 24.135Z" fill="white"/>
</svg>
