<svg width="40" height="40" viewBox="0 0 40 40" fill="none" xmlns="http://www.w3.org/2000/svg">
<circle cx="20" cy="20" r="20" fill="#0455BF"/>
<path d="M15.8412 24.105C15.6512 24.105 15.5012 24.05 15.3912 23.94C15.2812 23.82 15.2262 23.66 15.2262 23.46V14.49H11.8512C11.6712 14.49 11.5312 14.44 11.4312 14.34C11.3312 14.24 11.2812 14.11 11.2812 13.95C11.2812 13.78 11.3312 13.65 11.4312 13.56C11.5312 13.47 11.6712 13.425 11.8512 13.425H19.8462C20.0262 13.425 20.1662 13.47 20.2662 13.56C20.3662 13.65 20.4162 13.78 20.4162 13.95C20.4162 14.12 20.3662 14.255 20.2662 14.355C20.1662 14.445 20.0262 14.49 19.8462 14.49H16.4712V23.46C16.4712 23.66 16.4162 23.82 16.3062 23.94C16.2062 24.05 16.0512 24.105 15.8412 24.105ZM22.9856 24.135C22.3956 24.135 21.9056 24.03 21.5156 23.82C21.1356 23.6 20.8456 23.275 20.6456 22.845C20.4556 22.415 20.3606 21.88 20.3606 21.24V17.22C20.3606 17.01 20.4106 16.855 20.5106 16.755C20.6206 16.655 20.7706 16.605 20.9606 16.605C21.1606 16.605 21.3106 16.655 21.4106 16.755C21.5206 16.855 21.5756 17.01 21.5756 17.22V21.225C21.5756 21.865 21.7056 22.345 21.9656 22.665C22.2356 22.975 22.6556 23.13 23.2256 23.13C23.8456 23.13 24.3506 22.92 24.7406 22.5C25.1306 22.08 25.3256 21.53 25.3256 20.85V17.22C25.3256 17.01 25.3756 16.855 25.4756 16.755C25.5856 16.655 25.7406 16.605 25.9406 16.605C26.1306 16.605 26.2756 16.655 26.3756 16.755C26.4856 16.855 26.5406 17.01 26.5406 17.22V23.475C26.5406 23.895 26.3456 24.105 25.9556 24.105C25.7656 24.105 25.6156 24.05 25.5056 23.94C25.4056 23.83 25.3556 23.675 25.3556 23.475V22.11L25.5506 22.32C25.3506 22.91 25.0206 23.36 24.5606 23.67C24.1106 23.98 23.5856 24.135 22.9856 24.135Z" fill="white"/>
</svg>
