<svg width="30" height="30" viewBox="0 0 30 30" fill="none" xmlns="http://www.w3.org/2000/svg">
<rect x="0.5" y="0.5" width="29" height="29" rx="4.5" fill="#0455BF" stroke="#0455BF"/>
<path d="M15 21C14.6508 21 14.381 20.9048 14.1905 20.7143C14 20.5079 13.9048 20.2302 13.9048 19.881V15.9762H10.0714C9.7381 15.9762 9.47619 15.8889 9.28571 15.7143C9.09524 15.5238 9 15.2619 9 14.9286C9 14.5952 9.09524 14.3413 9.28571 14.1667C9.47619 13.9762 9.7381 13.881 10.0714 13.881H13.9048V10.0952C13.9048 9.74603 14 9.47619 14.1905 9.28571C14.381 9.09524 14.6587 9 15.0238 9C15.373 9 15.6349 9.09524 15.8095 9.28571C16 9.47619 16.0952 9.74603 16.0952 10.0952V13.881H19.9286C20.2778 13.881 20.5397 13.9762 20.7143 14.1667C20.9048 14.3413 21 14.5952 21 14.9286C21 15.2619 20.9048 15.5238 20.7143 15.7143C20.5397 15.8889 20.2778 15.9762 19.9286 15.9762H16.0952V19.881C16.0952 20.2302 16 20.5079 15.8095 20.7143C15.6349 20.9048 15.3651 21 15 21Z" fill="#FAFAFA"/>
</svg>
