<svg width="30" height="30" viewBox="0 0 30 30" fill="none" xmlns="http://www.w3.org/2000/svg">
<circle cx="15" cy="15" r="15" fill="#FF9519"/>
<path d="M20.0521 20.0521C19.8117 20.2925 19.5642 20.4127 19.3096 20.4127C19.0409 20.3986 18.7864 20.2713 18.5459 20.0309L14.6427 16.1276L10.8031 19.9672C10.5627 20.2076 10.3152 20.3279 10.0607 20.3279C9.8061 20.3279 9.56569 20.2147 9.33941 19.9884C9.11314 19.7622 9 19.5218 9 19.2672C9 19.0126 9.12021 18.7651 9.36062 18.5247L13.2002 14.6851L9.42426 10.9092C9.16971 10.6546 9.04243 10.4001 9.04243 10.1455C9.04243 9.89095 9.16971 9.6364 9.42426 9.38184C9.66468 9.14142 9.9051 9.02828 10.1455 9.04243C10.4001 9.04243 10.6546 9.16971 10.9092 9.42426L14.6851 13.2002L18.5247 9.36062C18.7651 9.12021 19.0126 9 19.2672 9C19.5217 9 19.7622 9.11314 19.9884 9.33941C20.2147 9.56569 20.3279 9.8061 20.3279 10.0607C20.3279 10.3152 20.2076 10.5627 19.9672 10.8031L16.1276 14.6427L20.0309 18.5459C20.2713 18.7864 20.3986 19.0409 20.4127 19.3096C20.4268 19.55 20.3066 19.7975 20.0521 20.0521Z" fill="#FAFAFA"/>
</svg>
