<svg width="40" height="40" viewBox="0 0 40 40" fill="none" xmlns="http://www.w3.org/2000/svg">
<circle cx="20" cy="20" r="20" fill="#989898"/>
<path d="M12.3884 24.105C12.2084 24.105 12.0634 24.06 11.9534 23.97C11.8434 23.87 11.7534 23.725 11.6834 23.535L8.36836 14.07C8.29836 13.86 8.31336 13.685 8.41336 13.545C8.52336 13.395 8.69336 13.32 8.92336 13.32C9.09336 13.32 9.22836 13.365 9.32836 13.455C9.42836 13.535 9.51336 13.665 9.58336 13.845L12.6884 22.95H12.1634L15.3284 13.89C15.3984 13.7 15.4834 13.56 15.5834 13.47C15.6834 13.37 15.8184 13.32 15.9884 13.32C16.1484 13.32 16.2734 13.37 16.3634 13.47C16.4634 13.56 16.5484 13.7 16.6184 13.89L19.7384 22.95H19.2734L22.4084 13.845C22.4584 13.675 22.5334 13.545 22.6334 13.455C22.7434 13.365 22.8834 13.32 23.0534 13.32C23.2634 13.32 23.4184 13.39 23.5184 13.53C23.6184 13.67 23.6284 13.85 23.5484 14.07L20.2184 23.535C20.1484 23.725 20.0584 23.87 19.9484 23.97C19.8484 24.06 19.7034 24.105 19.5134 24.105C19.3334 24.105 19.1884 24.06 19.0784 23.97C18.9784 23.87 18.8884 23.725 18.8084 23.535L15.7934 14.85H16.1234L13.0784 23.535C13.0084 23.725 12.9234 23.87 12.8234 23.97C12.7234 24.06 12.5784 24.105 12.3884 24.105ZM27.7482 24.135C26.9782 24.135 26.3132 23.985 25.7532 23.685C25.2032 23.375 24.7732 22.94 24.4632 22.38C24.1632 21.82 24.0132 21.15 24.0132 20.37C24.0132 19.61 24.1632 18.95 24.4632 18.39C24.7632 17.82 25.1732 17.375 25.6932 17.055C26.2232 16.735 26.8332 16.575 27.5232 16.575C28.0132 16.575 28.4532 16.66 28.8432 16.83C29.2332 16.99 29.5632 17.225 29.8332 17.535C30.1132 17.845 30.3232 18.22 30.4632 18.66C30.6132 19.1 30.6882 19.595 30.6882 20.145C30.6882 20.305 30.6432 20.425 30.5532 20.505C30.4632 20.575 30.3332 20.61 30.1632 20.61H24.9432V19.815H29.8782L29.6382 20.01C29.6382 19.47 29.5582 19.015 29.3982 18.645C29.2382 18.265 29.0032 17.975 28.6932 17.775C28.3932 17.575 28.0132 17.475 27.5532 17.475C27.0432 17.475 26.6082 17.595 26.2482 17.835C25.8982 18.065 25.6332 18.39 25.4532 18.81C25.2732 19.22 25.1832 19.7 25.1832 20.25V20.34C25.1832 21.26 25.4032 21.96 25.8432 22.44C26.2932 22.92 26.9282 23.16 27.7482 23.16C28.0882 23.16 28.4232 23.115 28.7532 23.025C29.0932 22.935 29.4232 22.785 29.7432 22.575C29.8832 22.485 30.0082 22.445 30.1182 22.455C30.2382 22.455 30.3332 22.49 30.4032 22.56C30.4732 22.62 30.5182 22.7 30.5382 22.8C30.5682 22.89 30.5582 22.99 30.5082 23.1C30.4682 23.21 30.3832 23.305 30.2532 23.385C29.9232 23.625 29.5332 23.81 29.0832 23.94C28.6332 24.07 28.1882 24.135 27.7482 24.135Z" fill="white"/>
</svg>
