<svg width="40" height="40" viewBox="0 0 40 40" fill="none" xmlns="http://www.w3.org/2000/svg">
<circle cx="20" cy="20" r="20" fill="#989898"/>
<path d="M15.6337 24.135C15.1637 24.135 14.7037 24.095 14.2537 24.015C13.8037 23.935 13.3837 23.82 12.9937 23.67C12.6137 23.52 12.2687 23.33 11.9587 23.1C11.8387 23.01 11.7537 22.91 11.7037 22.8C11.6637 22.68 11.6537 22.565 11.6737 22.455C11.7037 22.335 11.7537 22.235 11.8237 22.155C11.9037 22.075 11.9987 22.03 12.1087 22.02C12.2187 22.01 12.3387 22.045 12.4687 22.125C12.9187 22.445 13.3987 22.68 13.9087 22.83C14.4187 22.97 14.9937 23.04 15.6337 23.04C16.5337 23.04 17.1987 22.875 17.6287 22.545C18.0687 22.205 18.2887 21.76 18.2887 21.21C18.2887 20.76 18.1287 20.41 17.8087 20.16C17.4987 19.9 16.9737 19.695 16.2337 19.545L14.6737 19.23C13.7337 19.03 13.0287 18.705 12.5587 18.255C12.0987 17.795 11.8687 17.185 11.8687 16.425C11.8687 15.955 11.9637 15.53 12.1537 15.15C12.3437 14.76 12.6087 14.43 12.9487 14.16C13.2887 13.88 13.6937 13.665 14.1637 13.515C14.6337 13.365 15.1537 13.29 15.7237 13.29C16.3537 13.29 16.9387 13.38 17.4787 13.56C18.0287 13.73 18.5237 13.99 18.9637 14.34C19.0737 14.43 19.1487 14.535 19.1887 14.655C19.2287 14.765 19.2337 14.875 19.2037 14.985C19.1737 15.085 19.1187 15.17 19.0387 15.24C18.9687 15.31 18.8737 15.35 18.7537 15.36C18.6437 15.37 18.5187 15.33 18.3787 15.24C17.9787 14.94 17.5637 14.725 17.1337 14.595C16.7037 14.455 16.2287 14.385 15.7087 14.385C15.1787 14.385 14.7187 14.465 14.3287 14.625C13.9487 14.785 13.6487 15.02 13.4287 15.33C13.2187 15.63 13.1137 15.98 13.1137 16.38C13.1137 16.86 13.2587 17.24 13.5487 17.52C13.8487 17.8 14.3337 18.005 15.0037 18.135L16.5637 18.465C17.5737 18.675 18.3187 18.995 18.7987 19.425C19.2887 19.845 19.5337 20.42 19.5337 21.15C19.5337 21.59 19.4437 21.995 19.2637 22.365C19.0837 22.735 18.8237 23.055 18.4837 23.325C18.1437 23.585 17.7337 23.785 17.2537 23.925C16.7737 24.065 16.2337 24.135 15.6337 24.135ZM23.5722 24.135C23.0722 24.135 22.6222 24.04 22.2222 23.85C21.8322 23.65 21.5222 23.38 21.2922 23.04C21.0622 22.7 20.9472 22.32 20.9472 21.9C20.9472 21.36 21.0822 20.935 21.3522 20.625C21.6322 20.315 22.0872 20.095 22.7172 19.965C23.3572 19.835 24.2272 19.77 25.3272 19.77H26.0022V20.565H25.3422C24.5322 20.565 23.8922 20.605 23.4222 20.685C22.9622 20.755 22.6372 20.88 22.4472 21.06C22.2672 21.24 22.1772 21.495 22.1772 21.825C22.1772 22.235 22.3172 22.57 22.5972 22.83C22.8872 23.09 23.2772 23.22 23.7672 23.22C24.1672 23.22 24.5172 23.125 24.8172 22.935C25.1272 22.745 25.3672 22.485 25.5372 22.155C25.7172 21.825 25.8072 21.445 25.8072 21.015V19.305C25.8072 18.685 25.6822 18.24 25.4322 17.97C25.1822 17.69 24.7722 17.55 24.2022 17.55C23.8522 17.55 23.5022 17.595 23.1522 17.685C22.8022 17.775 22.4322 17.92 22.0422 18.12C21.9022 18.19 21.7822 18.215 21.6822 18.195C21.5822 18.165 21.5022 18.11 21.4422 18.03C21.3822 17.95 21.3472 17.86 21.3372 17.76C21.3272 17.65 21.3472 17.545 21.3972 17.445C21.4572 17.345 21.5472 17.265 21.6672 17.205C22.1072 16.985 22.5422 16.825 22.9722 16.725C23.4022 16.625 23.8122 16.575 24.2022 16.575C24.8322 16.575 25.3522 16.68 25.7622 16.89C26.1722 17.09 26.4772 17.4 26.6772 17.82C26.8772 18.23 26.9772 18.76 26.9772 19.41V23.475C26.9772 23.675 26.9272 23.83 26.8272 23.94C26.7372 24.05 26.6022 24.105 26.4222 24.105C26.2322 24.105 26.0872 24.05 25.9872 23.94C25.8872 23.83 25.8372 23.675 25.8372 23.475V22.305H25.9722C25.8922 22.685 25.7372 23.01 25.5072 23.28C25.2872 23.55 25.0122 23.76 24.6822 23.91C24.3522 24.06 23.9822 24.135 23.5722 24.135Z" fill="white"/>
</svg>
