<?xml version="1.0" encoding="UTF-8"?>
<svg id="Layer_1" data-name="Layer 1" xmlns="http://www.w3.org/2000/svg" xmlns:xlink="http://www.w3.org/1999/xlink" viewBox="0 0 1000 1000">
  <defs>
    <style>
      .cls-1, .cls-2, .cls-3, .cls-4, .cls-5, .cls-6, .cls-7, .cls-8, .cls-9, .cls-10, .cls-11 {
        fill: none;
      }

      .cls-2 {
        stroke-width: 12px;
      }

      .cls-2, .cls-3, .cls-10 {
        stroke-linecap: round;
      }

      .cls-2, .cls-3, .cls-10, .cls-12 {
        stroke-miterlimit: 10;
      }

      .cls-2, .cls-3, .cls-12 {
        stroke: #000;
      }

      .cls-3, .cls-12 {
        stroke-width: 3px;
      }

      .cls-4 {
        clip-path: url(#clippath-6);
      }

      .cls-5 {
        clip-path: url(#clippath-5);
      }

      .cls-6 {
        clip-path: url(#clippath-3);
      }

      .cls-7 {
        clip-path: url(#clippath-4);
      }

      .cls-8 {
        clip-path: url(#clippath-2);
      }

      .cls-9 {
        clip-path: url(#clippath-1);
      }

      .cls-13 {
        fill: #faaf3b;
      }

      .cls-14, .cls-12 {
        fill: #fff;
      }

      .cls-15 {
        fill: #ffb8ab;
      }

      .cls-10 {
        stroke: #754c24;
        stroke-width: 7px;
      }

      .cls-11 {
        clip-path: url(#clippath);
      }
    </style>
    <clipPath id="clippath">
      <path class="cls-1" d="m519.92,749.85c13.26,29.7,18.41,48.77,45.83,86.15,1.53,2.08,15.17,14.61,33.62,9.1,44.25-13.22,99.55-26.46,101.38-58.17.66-11.51-5.45-25.75-14.7-32.01-11.63-7.87-30.5-9.14-42.24-6.53-15.16,3.36-21.73,11.33-37.19,17.57-10.56,4.26-12.4,1.04-14.1-2.11-11.14-20.69-8.73-27.48-19.91-40.78-10.17-12.11-60.55,9.18-52.69,26.79Z"/>
    </clipPath>
    <clipPath id="clippath-1">
      <path class="cls-1" d="m403.58,555.63c-54.39,3.44-110.61-16.66-118.6-19.58-52.57-19.24-63.62-31.32-67.74-43.57-.71-2.12-.83-11.16,4.85-16.79,4.31-4.27,13.07-4.29,32.92,4.49,41.09,18.18,40.94,25.7,72.55,36.36,13.43,4.53,30.14,8.92,42.43,8.92,26.2-.02,36.07-9.92,48.44-2.34,7.98,4.89,12.51,16.31,9.34,23.23-3.32,7.25-14.71,8.69-24.19,9.28Z"/>
    </clipPath>
    <clipPath id="clippath-2">
      <path class="cls-1" d="m608.25,535.93c44.47,31.5,75.58,82.45,79.96,89.75,28.81,48,29.82,64.34,25.32,76.46-.78,2.1-6.37,9.2-14.32,10.02-6.04.62-12.87-4.88-22.79-24.18-20.55-39.96-15.7-45.72-33.6-73.88-7.6-11.96-17.84-25.88-27.41-33.6-20.39-16.45-34.29-14.94-39.16-28.62-3.13-8.81.52-20.55,7.33-23.93,7.14-3.55,16.9,2.49,24.66,7.98Z"/>
    </clipPath>
    <clipPath id="clippath-3">
      <path class="cls-1" d="m590.38,525.06c-1.9-1.88-14.34-14.52-17.64-24.22-3.55-10.42-1.02-11.95-3.14-17.59-5.19-13.81-35.54-20.47-65.56-20.36-30.02-.11-60.38,6.54-65.56,20.36-2.11,5.63.41,7.16-3.14,17.59-3.3,9.71-15.74,22.34-17.64,24.22-17.88,17.73-63.27,101.26-33.03,184.25,15.5,42.52,77.5,53.36,119.37,52.58,41.87.78,103.87-10.06,119.37-52.58,30.24-82.99-15.15-166.52-33.03-184.25Z"/>
    </clipPath>
    <clipPath id="clippath-4">
      <path class="cls-1" d="m491.94,728.22c3.91,32.29,9.31,51.3,5.03,97.46-.24,2.57-5.49,20.33-24.14,25.1-44.75,11.43-98.98,28.53-116.86,2.28-6.49-9.53-8.58-24.89-3.86-35.01,5.93-12.73,21.45-23.53,32.86-27.33,14.73-4.92,24.46-1.47,40.93-4.07,11.25-1.78,11.17-5.49,11-9.06-1.09-23.47-6.65-28.05-3.91-45.21,2.49-15.62,56.64-23.27,58.96-4.14Z"/>
    </clipPath>
    <clipPath id="clippath-5">
      <path class="cls-1" d="m726.94,87.23l-140.74,72.99c-.15.08-.28.17-.42.25-52.13-11.28-101.54-6.94-117.59-5.27-19.56,2.03-60.76,6.72-105.83,31.66-3,1.66-8.79,4.87-16.26,9.54-1.33-1.24-3.05-2.17-5.11-2.6l-155.13-32.47c-8.56-1.79-15.98,6.08-12.7,13.48l69.13,155.84c.06.13.13.24.19.36-.87,6.35-1.29,12.88-1.17,19.6,1.64,90.71,83.76,133.88,89.96,136.65,84,37.42,266.26-5.46,321.03-30.37,44.97-20.45,72.74-71.86,77.64-93.33,4.85-21.25,1.53-64.36-11.46-100.81l24.3-165.93c1.17-7.99-8.08-13.57-15.84-9.55Z"/>
    </clipPath>
    <clipPath id="clippath-6">
      <path class="cls-1" d="m725.02,1148.15l-145.17,63.73c-.15.07-.29.15-.43.22-51.29-14.63-100.88-13.5-117-12.87-19.65.76-61.07,2.78-107.66,24.74-3.1,1.46-9.09,4.29-16.85,8.46-1.25-1.32-2.9-2.37-4.93-2.93l-152.7-42.44c-8.43-2.34-16.34,5.04-13.55,12.63l58.9,159.98c.05.13.12.24.17.37-1.28,6.28-2.12,12.77-2.44,19.48-4.24,90.62,74.92,139.02,80.93,142.18,81.4,42.78,266.06,11.79,322.32-9.53,46.2-17.5,77.23-67,83.52-88.11,6.22-20.89,5.69-64.13-4.92-101.34l34.99-164.01c1.69-7.9-7.19-14.07-15.18-10.56Z"/>
    </clipPath>
  </defs>
  <g>
    <path class="cls-12" d="m608.66,533.36c45.02,31.96,76.51,83.66,80.95,91.06,29.17,48.7,30.19,65.28,25.63,77.57-.79,2.13-6.45,9.34-14.5,10.16-6.11.63-13.02-4.95-23.07-24.53-20.8-40.55-15.89-46.39-34.01-74.95-7.7-12.14-18.06-26.25-27.75-34.09-20.64-16.69-34.72-15.16-39.64-29.03-3.17-8.94.53-20.85,7.42-24.28,7.23-3.6,17.11,2.52,24.96,8.09Z"/>
    <path class="cls-12" d="m493.1,724.44c3.99,33.49,9.48,53.22,5.12,101.1-.24,2.67-5.6,21.09-24.6,26.04-45.6,11.86-100.86,29.6-119.09,2.36-6.61-9.88-8.74-25.82-3.94-36.32,6.04-13.21,21.86-24.41,33.48-28.36,15.01-5.1,24.93-1.52,41.71-4.22,11.46-1.84,11.38-5.7,11.21-9.4-1.11-24.35-6.78-29.1-3.99-46.9,2.54-16.2,57.72-24.14,60.09-4.29Z"/>
    <g>
      <path class="cls-12" d="m516.6,747.43c13.81,30.77,19.25,50.51,47.62,89.33,1.58,2.16,15.65,15.21,34.49,9.67,45.21-13.29,101.72-26.51,103.33-59.24.59-11.88-5.79-26.64-15.31-33.17-11.98-8.22-31.3-9.68-43.3-7.09-15.5,3.35-22.16,11.52-37.94,17.84-10.78,4.32-12.69.97-14.45-2.3-11.57-21.45-9.16-28.44-20.71-42.27-10.52-12.59-61.92,8.99-53.73,27.23Z"/>
      <g class="cls-11">
        <ellipse class="cls-13" cx="547.34" cy="809.23" rx="49.44" ry="57.35" transform="translate(-338.33 396.9) rotate(-30.96)"/>
      </g>
    </g>
    <g>
      <path class="cls-12" d="m410.58,557.57c-55.04,4.33-112.35-15.17-120.5-18.01-53.6-18.68-65.01-30.75-69.4-43.11-.76-2.14-1.04-11.3,4.61-17.09,4.29-4.4,13.17-4.55,33.43,4.04,41.95,17.79,41.93,25.42,74.15,35.73,13.69,4.38,30.69,8.58,43.15,8.38,26.54-.42,36.36-10.62,49.04-3.12,8.17,4.83,12.96,16.34,9.87,23.39-3.24,7.4-14.75,9.03-24.35,9.79Z"/>
      <g class="cls-9">
        <path class="cls-13" d="m308.53,573.43l1.16.35c6.23,1.9,12.89-1.65,14.8-7.87l7.82-25.48c1.91-6.23-1.62-12.88-7.84-14.77l-1.16-.35c-6.23-1.9-12.89,1.65-14.8,7.87l-7.82,25.48c-1.91,6.23,1.62,12.88,7.84,14.77Z"/>
        <path class="cls-13" d="m277.05,565.91l1.16.35c6.23,1.9,12.89-1.65,14.8-7.87l7.82-25.48c1.91-6.23-1.62-12.88-7.84-14.77l-1.16-.35c-6.23-1.9-12.89,1.65-14.8,7.87l-7.82,25.48c-1.91,6.23,1.62,12.88,7.84,14.77Z"/>
        <path class="cls-13" d="m245.71,550.68l1.16.35c6.23,1.9,12.89-1.65,14.8-7.87l7.82-25.48c1.91-6.23-1.62-12.88-7.84-14.77l-1.16-.35c-6.23-1.9-12.89,1.65-14.8,7.87l-7.82,25.48c-1.91,6.23,1.62,12.88,7.84,14.77Z"/>
      </g>
    </g>
    <path class="cls-12" d="m591.84,525.14c-1.93-1.9-14.56-14.62-17.91-24.4-3.6-10.5-1.04-12.04-3.19-17.71-5.26-13.91-36.08-20.62-66.56-20.5-30.48-.11-61.3,6.59-66.56,20.5-2.15,5.67.41,7.21-3.19,17.71-3.35,9.78-15.98,22.5-17.91,24.4-18.15,17.86-64.24,101.98-33.53,185.55,15.73,42.82,78.68,53.74,121.19,52.95,42.51.78,105.46-10.13,121.19-52.95,30.7-83.57-15.38-167.7-33.53-185.55Z"/>
    <g class="cls-8">
      <path class="cls-13" d="m693.39,581.81l-.68-1.01c-3.65-5.39-11.06-6.82-16.46-3.17l-22.1,14.91c-5.4,3.64-6.83,11.03-3.18,16.42l.68,1.01c3.65,5.39,11.06,6.82,16.46,3.17l22.1-14.91c5.4-3.64,6.83-11.03,3.18-16.42Z"/>
      <path class="cls-13" d="m713.14,607.43l-.68-1.01c-3.65-5.39-11.06-6.82-16.46-3.17l-22.1,14.91c-5.4,3.64-6.83,11.03-3.18,16.42l.68,1.01c3.65,5.39,11.06,6.82,16.46,3.17l22.1-14.91c5.4-3.64,6.83-11.03,3.18-16.42Z"/>
      <path class="cls-13" d="m727.96,638.97l-.68-1.01c-3.65-5.39-11.06-6.82-16.46-3.17l-22.1,14.91c-5.4,3.64-6.83,11.03-3.18,16.42l.68,1.01c3.65,5.39,11.06,6.82,16.46,3.17l22.1-14.91c5.4-3.64,6.83-11.03,3.18-16.42Z"/>
    </g>
    <g class="cls-6">
      <ellipse class="cls-13" cx="504.95" cy="654.39" rx="106.34" ry="129.12"/>
    </g>
    <g class="cls-7">
      <ellipse class="cls-13" cx="396.48" cy="851.23" rx="30.36" ry="55.94" transform="translate(-511.13 1092.11) rotate(-79.89)"/>
    </g>
    <g>
      <path class="cls-12" d="m727.93,85.09l-141.53,73.67c-.15.08-.28.17-.42.25-52.45-11.43-102.15-7.08-118.29-5.41-19.67,2.04-61.11,6.75-106.44,31.92-3.02,1.68-8.84,4.91-16.35,9.63-1.34-1.25-3.07-2.2-5.14-2.64l-156.07-32.92c-8.61-1.82-16.07,6.14-12.77,13.61l69.64,157.53c.06.13.13.24.19.36-.87,6.42-1.29,13.01-1.17,19.8,1.71,91.67,84.34,135.35,90.58,138.15,84.52,37.88,267.84-5.34,322.91-30.48,45.22-20.64,73.12-72.57,78.04-94.27,4.87-21.47,1.5-65.04-11.6-101.88l24.34-167.67c1.17-8.07-8.14-13.72-15.94-9.66Z"/>
      <path class="cls-10" d="m501.23,395.8c4.96,10.01-1.9,21.69-16.79,28.93-13.13,6.39-30.54,8.37-44.88,5.14"/>
      <path class="cls-10" d="m502.73,395.59c-2.09,10.97,7.66,20.38,23.95,23.36,14.36,2.63,31.67-.15,44.61-7.12"/>
      <path class="cls-15" d="m506.37,394.46l18.52-28.77c2.85-4.43-.8-10.16-6.02-9.45l-44.08,6.03c-5.22.71-7.2,7.22-3.26,10.72l25.57,22.73c2.83,2.52,7.23,1.91,9.28-1.27Z"/>
      <path class="cls-15" d="m307.83,226.64c-5.99-11.18-22.74-3.12-50.66-18.59-19.84-10.99-32.44-26.72-34.58-24.66-2.42,2.33,14.12,21.83,9.95,27.04-3.35,4.18-16.14-5.76-19.55-2.31-7.23,7.32,23.35,79.47,58.92,75.09,24.4-3,44.19-41.13,35.92-56.58Z"/>
      <path class="cls-10" d="m624.56,366c6.38-5.18,24.95-18.86,50.95-19.66,7.44-.23,13.95.64,19.28,1.84"/>
      <g class="cls-5">
        <circle class="cls-13" cx="642.61" cy="132.9" r="199.5"/>
        <circle class="cls-13" cx="339.53" cy="562.59" r="136.4"/>
      </g>
      <path class="cls-15" d="m627.56,182.87c2.77-12.38,21.06-9.12,43.8-31.52,16.16-15.92,24.07-34.46,26.69-33.04,2.95,1.6-7.73,24.83-2.31,28.72,4.35,3.13,14-9.88,18.21-7.48,8.93,5.11-1.13,82.82-36.57,88.16-24.3,3.67-53.62-27.74-49.8-44.85Z"/>
      <g>
        <path d="m609.34,293.42c3.1,22.67-9.14,43.07-27.35,45.56-18.21,2.49-35.48-13.86-38.59-36.53-1.87-13.66,1.79-31.29,14.72-40.4,2.3-1.62,6.6-4.58,12.63-5.15,16.82-1.61,35.83,16.37,38.59,36.53Z"/>
        <path class="cls-2" d="m555.24,273.24c3.41-5,9.56-12.17,19.14-15.66,17.34-6.31,38.68,2.09,54.15,21.16"/>
        <path d="m368.8,326.35c3.1,22.67,20.38,39.02,38.59,36.53,18.21-2.49,30.45-22.89,27.35-45.56-1.87-13.66-10.13-29.66-25.04-34.96-2.65-.94-7.59-2.63-13.55-1.57-16.63,2.96-30.11,25.39-27.35,45.56Z"/>
        <path class="cls-2" d="m415.49,292.37c-4.63-3.9-12.48-9.15-22.65-9.94-18.4-1.42-36.69,12.4-46.47,34.93"/>
      </g>
      <path class="cls-10" d="m627.16,380.3c7.59-3.15,29.28-11.01,54.43-4.4,7.19,1.89,13.2,4.58,17.97,7.23"/>
      <path class="cls-10" d="m376.87,399.91c-7.54-3.27-29.1-11.46-54.36-5.25-7.22,1.78-13.27,4.37-18.08,6.95"/>
      <path class="cls-10" d="m378.21,414.38c-8.16-1-31.16-2.73-53.61,10.39-6.42,3.75-11.48,7.95-15.36,11.8"/>
      <g>
        <path class="cls-3" d="m635.41,272.59c1.32.25,3.51.49,5.95-.12,2.08-.52,3.53-1.46,4.42-2.17"/>
        <path class="cls-3" d="m632.35,268.04c1.28-.27,3.37-.88,5.54-2.44,1.85-1.33,3.04-2.83,3.74-3.88"/>
      </g>
      <g>
        <path class="cls-3" d="m337.36,313.4c-1.2.59-3.25,1.42-5.76,1.48-2.14.06-3.8-.46-4.84-.9"/>
        <path class="cls-3" d="m339.08,308.18c-1.3.09-3.49.06-5.99-.86-2.14-.78-3.69-1.91-4.65-2.73"/>
      </g>
      <g>
        <ellipse class="cls-14" cx="409.47" cy="302.59" rx="10" ry="12.5" transform="translate(-37.26 58.33) rotate(-7.8)"/>
        <ellipse class="cls-14" cx="391.32" cy="346.96" rx="5" ry="7" transform="translate(-43.44 56.28) rotate(-7.8)"/>
        <ellipse class="cls-14" cx="564.03" cy="281.43" rx="10" ry="12.5" transform="translate(-32.96 79.1) rotate(-7.8)"/>
        <ellipse class="cls-14" cx="593.44" cy="319.29" rx="5" ry="7" transform="translate(-37.82 83.44) rotate(-7.8)"/>
      </g>
    </g>
    <path class="cls-3" d="m202.17,515.1c-.11,1.59-.64,11.45,5.96,19.37,5.66,6.79,12.77,7.61,14.48,7.75"/>
    <path class="cls-3" d="m209.27,510.09c0,1.59.17,11.47,7.31,18.9,6.12,6.37,13.27,6.67,14.99,6.69"/>
    <path class="cls-3" d="m272.14,465.88c-.53-1.5-3.97-10.76-13.17-15.41-7.89-3.98-14.74-1.91-16.37-1.36"/>
    <path class="cls-3" d="m267.62,473.3c-.64-1.46-4.71-10.46-14.22-14.44-8.15-3.41-14.83-.85-16.41-.19"/>
  </g>
  <g class="cls-4">
    <circle class="cls-13" cx="637.92" cy="1188.26" r="199.5"/>
  </g>
</svg>