<?xml version="1.0" encoding="UTF-8"?>
<svg id="Layer_1" data-name="Layer 1" xmlns="http://www.w3.org/2000/svg" xmlns:xlink="http://www.w3.org/1999/xlink" viewBox="0 0 1000 1000">
  <defs>
    <style>
      .cls-1, .cls-2, .cls-3, .cls-4, .cls-5, .cls-6, .cls-7, .cls-8, .cls-9, .cls-10, .cls-11, .cls-12 {
        fill: none;
      }

      .cls-2 {
        stroke-width: 12px;
      }

      .cls-2, .cls-3, .cls-10 {
        stroke-linecap: round;
      }

      .cls-2, .cls-3, .cls-10, .cls-13, .cls-11 {
        stroke-miterlimit: 10;
      }

      .cls-2, .cls-3, .cls-13, .cls-11 {
        stroke: #000;
      }

      .cls-3, .cls-13 {
        stroke-width: 3px;
      }

      .cls-4 {
        clip-path: url(#clippath-6);
      }

      .cls-5 {
        clip-path: url(#clippath-5);
      }

      .cls-6 {
        clip-path: url(#clippath-3);
      }

      .cls-7 {
        clip-path: url(#clippath-4);
      }

      .cls-8 {
        clip-path: url(#clippath-2);
      }

      .cls-9 {
        clip-path: url(#clippath-1);
      }

      .cls-14 {
        fill: #faaf3b;
      }

      .cls-15, .cls-13 {
        fill: #fff;
      }

      .cls-16 {
        fill: #ffb8ab;
      }

      .cls-10 {
        stroke: #754c24;
        stroke-width: 7px;
      }

      .cls-11 {
        stroke-width: 9px;
      }

      .cls-12 {
        clip-path: url(#clippath);
      }
    </style>
    <clipPath id="clippath">
      <path class="cls-1" d="m463.18,743.78c3.91,32.29,9.31,51.3,5.03,97.46-.24,2.57-5.49,20.33-24.14,25.1-44.75,11.43-98.98,28.53-116.86,2.28-6.49-9.53-8.58-24.89-3.86-35.01,5.93-12.73,21.45-23.53,32.86-27.33,14.73-4.92,24.46-1.47,40.93-4.07,11.25-1.78,11.17-5.49,11-9.06-1.09-23.47-6.65-28.05-3.91-45.21,2.49-15.62,56.64-23.27,58.96-4.14Z"/>
    </clipPath>
    <clipPath id="clippath-1">
      <path class="cls-1" d="m389.74,553.82c-54.39,3.44-110.61-16.66-118.6-19.58-52.57-19.24-63.62-31.32-67.74-43.57-.71-2.12-.83-11.16,4.85-16.79,4.31-4.27,13.07-4.29,32.92,4.49,41.09,18.18,40.94,25.7,72.55,36.36,13.43,4.53,30.14,8.92,42.43,8.92,26.2-.02,36.07-9.92,48.44-2.34,7.98,4.89,12.51,16.31,9.34,23.23-3.32,7.25-14.71,8.69-24.19,9.28Z"/>
    </clipPath>
    <clipPath id="clippath-2">
      <path class="cls-1" d="m488.37,743.78c-3.91,32.29-9.31,51.3-5.03,97.46.24,2.57,5.49,20.33,24.14,25.1,44.75,11.43,98.98,28.53,116.86,2.28,6.49-9.53,8.58-24.89,3.86-35.01-5.93-12.73-21.45-23.53-32.86-27.33-14.73-4.92-24.46-1.47-40.93-4.07-11.25-1.78-11.17-5.49-11-9.06,1.09-23.47,6.65-28.05,3.91-45.21-2.49-15.62-56.64-23.27-58.96-4.14Z"/>
    </clipPath>
    <clipPath id="clippath-3">
      <path class="cls-1" d="m561.61,540.62c-1.9-1.88-14.34-14.52-17.64-24.22-3.55-10.42-1.02-11.95-3.14-17.59-5.19-13.81-35.54-20.47-65.56-20.36-30.02-.11-60.38,6.54-65.56,20.36-2.11,5.63.41,7.16-3.14,17.59-3.3,9.71-15.74,22.34-17.64,24.22-17.88,17.73-63.27,101.26-33.03,184.25,15.5,42.52,77.5,53.36,119.37,52.58,41.87.78,103.87-10.06,119.37-52.58,30.24-82.99-15.15-166.52-33.03-184.25Z"/>
    </clipPath>
    <clipPath id="clippath-4">
      <path class="cls-1" d="m650.04,676.41c-12.52,19-30.91,30.37-50.09,36.19-38.2,11.59-79.56,1.2-84.17-14.72-14.34-49.51,83.35-35.52,84.89-70.02.08-1.77.1-3.5.08-5.19-.29-16.72-5.63-30.02-13.3-40.83-8.7-20.08-18.56-34.8-24.94-41.14-1.91-1.9-14.39-14.62-17.7-24.4-.44-1.3-.79-2.46-1.06-3.51,1.52-.29,3.1-.39,4.72-.28,11.48.78,55.11,30.9,75.87,47.9,58.44,47.87,41.51,92,25.7,116Z"/>
    </clipPath>
    <clipPath id="clippath-5">
      <path class="cls-1" d="m725.02,109.15l-145.17,63.73c-.15.07-.29.15-.43.22-51.29-14.63-100.88-13.5-117-12.87-19.65.76-61.07,2.78-107.66,24.74-3.1,1.46-9.09,4.29-16.85,8.46-1.25-1.32-2.9-2.37-4.93-2.93l-152.7-42.44c-8.43-2.34-16.34,5.04-13.55,12.63l58.9,159.98c.05.13.12.24.17.37-1.28,6.28-2.12,12.77-2.44,19.48-4.24,90.62,74.92,139.02,80.93,142.18,81.4,42.78,266.06,11.79,322.32-9.53,46.2-17.5,77.23-67,83.52-88.11,6.22-20.89,5.69-64.13-4.92-101.34l34.99-164.01c1.69-7.9-7.19-14.07-15.18-10.56Z"/>
    </clipPath>
    <clipPath id="clippath-6">
      <path class="cls-1" d="m463.54,743.24c3.91,32.29,9.31,51.3,5.03,97.46-.24,2.57-5.49,20.33-24.14,25.1-44.75,11.43-98.98,28.53-116.86,2.28-6.49-9.53-8.58-24.89-3.86-35.01,5.93-12.73,21.45-23.53,32.86-27.33,14.73-4.92,24.46-1.47,40.93-4.07,11.25-1.78,11.17-5.49,11-9.06-1.09-23.47-6.65-28.05-3.91-45.21,2.49-15.62,56.64-23.27,58.96-4.14Z"/>
    </clipPath>
  </defs>
  <g class="cls-12">
    <ellipse class="cls-14" cx="367.71" cy="866.79" rx="30.36" ry="55.94" transform="translate(-550.17 1076.62) rotate(-79.89)"/>
  </g>
  <path class="cls-13" d="m464.33,740c3.99,33.49,9.48,53.22,5.12,101.1-.24,2.67-5.6,21.09-24.6,26.04-45.6,11.86-100.86,29.6-119.09,2.36-6.61-9.88-8.74-25.82-3.94-36.32,6.04-13.21,21.86-24.41,33.48-28.36,15.01-5.1,24.93-1.52,41.71-4.22,11.46-1.84,11.38-5.7,11.21-9.4-1.11-24.35-6.78-29.1-3.99-46.9,2.54-16.2,57.72-24.14,60.09-4.29Z"/>
  <g>
    <path class="cls-13" d="m396.74,555.76c-55.04,4.33-112.35-15.17-120.5-18.01-53.6-18.68-65.01-30.75-69.4-43.11-.76-2.14-1.04-11.3,4.61-17.09,4.29-4.4,13.17-4.55,33.43,4.04,41.95,17.79,41.93,25.42,74.15,35.73,13.69,4.38,30.69,8.58,43.15,8.38,26.54-.42,36.36-10.62,49.04-3.12,8.17,4.83,12.96,16.34,9.87,23.39-3.24,7.4-14.75,9.03-24.35,9.79Z"/>
    <g class="cls-9">
      <path class="cls-14" d="m294.69,571.62l1.16.35c6.23,1.9,12.89-1.65,14.8-7.87l7.82-25.48c1.91-6.23-1.62-12.88-7.84-14.77l-1.16-.35c-6.23-1.9-12.89,1.65-14.8,7.87l-7.82,25.48c-1.91,6.23,1.62,12.88,7.84,14.77Z"/>
      <path class="cls-14" d="m263.22,564.1l1.16.35c6.23,1.9,12.89-1.65,14.8-7.87l7.82-25.48c1.91-6.23-1.62-12.88-7.84-14.77l-1.16-.35c-6.23-1.9-12.89,1.65-14.8,7.87l-7.82,25.48c-1.91,6.23,1.62,12.88,7.84,14.77Z"/>
      <path class="cls-14" d="m231.87,548.88l1.16.35c6.23,1.9,12.89-1.65,14.8-7.87l7.82-25.48c1.91-6.23-1.62-12.88-7.84-14.77l-1.16-.35c-6.23-1.9-12.89,1.65-14.8,7.87l-7.82,25.48c-1.91,6.23,1.62,12.88,7.84,14.77Z"/>
    </g>
  </g>
  <path class="cls-13" d="m486.78,740c-3.99,33.49-9.48,53.22-5.12,101.1.24,2.67,5.6,21.09,24.6,26.04,45.6,11.86,100.86,29.6,119.09,2.36,6.61-9.88,8.74-25.82,3.94-36.32-6.04-13.21-21.86-24.41-33.48-28.36-15.01-5.1-24.93-1.52-41.71-4.22-11.46-1.84-11.38-5.7-11.21-9.4,1.11-24.35,6.78-29.1,3.99-46.9-2.54-16.2-57.72-24.14-60.09-4.29Z"/>
  <g class="cls-8">
    <ellipse class="cls-14" cx="481.34" cy="808.8" rx="49.44" ry="57.35"/>
  </g>
  <path class="cls-13" d="m563.08,540.7c-1.93-1.9-14.56-14.62-17.91-24.4-3.6-10.5-1.04-12.04-3.19-17.71-5.26-13.91-36.08-20.62-66.56-20.5-30.48-.11-61.3,6.59-66.56,20.5-2.15,5.67.41,7.21-3.19,17.71-3.35,9.78-15.98,22.5-17.91,24.4-18.15,17.86-64.24,101.98-33.53,185.55,15.73,42.82,78.68,53.74,121.19,52.95,42.51.78,105.46-10.13,121.19-52.95,30.7-83.57-15.38-167.7-33.53-185.55Z"/>
  <g class="cls-6">
    <ellipse class="cls-14" cx="476.18" cy="669.95" rx="106.34" ry="129.12"/>
  </g>
  <path class="cls-13" d="m651.64,676.41c-12.67,19-31.27,30.37-50.68,36.19-38.65,11.59-80.5,1.2-85.16-14.72-14.51-49.51,84.33-35.52,85.89-70.02.08-1.77.1-3.5.08-5.19-.29-16.72-5.7-30.02-13.46-40.83-8.8-20.08-18.78-34.8-25.23-41.14-1.93-1.9-14.56-14.62-17.91-24.4-.45-1.3-.8-2.46-1.07-3.51,1.54-.29,3.14-.39,4.78-.28,11.62.78,55.76,30.9,76.76,47.9,59.13,47.87,42,92,26,116Z"/>
  <g class="cls-7">
    <path class="cls-14" d="m682.52,726.42l-.05.06c-4.27,4.99-11.79,5.55-16.73,1.23l-49.35-43.16c-4.93-4.32-5.48-11.93-1.22-16.93l.05-.06c4.27-4.99,11.79-5.55,16.73-1.23l49.35,43.16c4.93,4.32,5.48,11.93,1.22,16.93Z"/>
    <path class="cls-14" d="m706.95,700.04l-.05.06c-3.88,5.31-11.34,6.44-16.59,2.52l-52.46-39.23c-5.25-3.92-6.36-11.48-2.49-16.78l.05-.06c3.88-5.31,11.34-6.44,16.59-2.52l52.46,39.23c5.25,3.92,6.36,11.48,2.49,16.78Z"/>
    <path class="cls-14" d="m722.69,654.56l-.03.07c-2.65,6.03-9.69,8.77-15.65,6.09l-59.61-26.8c-5.96-2.68-8.67-9.81-6.02-15.84l.03-.07c2.65-6.03,9.69-8.77,15.65-6.09l59.61,26.8c5.96,2.68,8.67,9.81,6.02,15.84Z"/>
  </g>
  <path class="cls-13" d="m726.15,107.07l-146,64.36c-.15.07-.29.15-.44.22-51.6-14.8-101.47-13.68-117.69-13.05-19.76.76-61.42,2.78-108.28,24.97-3.12,1.48-9.14,4.33-16.94,8.55-1.26-1.34-2.92-2.39-4.96-2.96l-153.61-42.95c-8.48-2.37-16.44,5.09-13.62,12.76l59.3,161.71c.05.13.12.25.17.38-1.28,6.35-2.13,12.9-2.45,19.69-4.23,91.59,75.4,140.53,81.45,143.72,81.9,43.27,267.62,12,324.21-9.52,46.46-17.67,77.66-67.68,83.98-89.02,6.25-21.11,5.7-64.81-4.98-102.42l35.14-165.75c1.69-7.98-7.24-14.22-15.28-10.68Z"/>
  <path class="cls-16" d="m297.78,221.14c-5.25-11.55-22.49-4.59-49.35-21.83-19.09-12.25-30.64-28.77-32.92-26.84-2.56,2.17,12.68,22.7,8.18,27.63-3.62,3.96-15.73-6.79-19.35-3.57-7.69,6.84,18.15,80.81,53.94,78.75,24.54-1.42,46.76-38.18,39.5-54.14Z"/>
  <g class="cls-5">
    <circle class="cls-14" cx="637.92" cy="149.26" r="199.5"/>
    <circle class="cls-14" cx="307.67" cy="558.44" r="136.4"/>
  </g>
  <path class="cls-16" d="m619.66,198.16c3.56-12.18,21.61-7.74,45.75-28.62,17.15-14.84,26.25-32.83,28.77-31.25,2.84,1.78-9.32,24.27-4.17,28.51,4.14,3.4,14.61-8.96,18.65-6.28,8.58,5.68-6.49,82.57-42.2,85.61-24.49,2.08-51.71-31.15-46.79-47.97Z"/>
  <ellipse cx="482.68" cy="427.19" rx="27.5" ry="38" transform="translate(-29.2 35.47) rotate(-4.08)"/>
  <g>
    <path d="m594.33,307.29c1.63,22.82-11.91,42.38-30.24,43.69-18.33,1.31-34.51-16.13-36.14-38.95-.98-13.76,3.81-31.11,17.3-39.37,2.4-1.47,6.88-4.14,12.94-4.33,16.89-.52,34.69,18.65,36.14,38.95Z"/>
    <path class="cls-2" d="m541.65,283.65c3.73-4.77,10.33-11.53,20.12-14.39,17.72-5.18,38.46,4.58,52.66,24.62"/>
    <path d="m352.16,324.59c1.63,22.82,17.81,40.26,36.14,38.95,18.33-1.31,31.87-20.87,30.24-43.69-.98-13.76-8.19-30.25-22.72-36.51-2.58-1.11-7.4-3.12-13.42-2.44-16.79,1.88-31.69,23.39-30.24,43.69Z"/>
    <path class="cls-2" d="m400.95,293.7c-4.37-4.19-11.86-9.94-21.96-11.38-18.27-2.61-37.42,10-48.63,31.85"/>
  </g>
  <path class="cls-10" d="m606.49,395.14c7.78-2.66,29.93-9.09,54.6-.86,7.06,2.35,12.87,5.42,17.46,8.38"/>
  <path class="cls-10" d="m355.46,398.51c-7.31-3.75-28.3-13.32-53.9-8.75-7.32,1.31-13.52,3.5-18.49,5.77"/>
  <path class="cls-10" d="m355.86,413.04c-8.08-1.52-30.92-4.75-54.17,6.9-6.65,3.33-11.97,7.2-16.1,10.78"/>
  <g>
    <path class="cls-3" d="m621.69,288.2c1.3.33,3.47.72,5.94.26,2.11-.39,3.62-1.23,4.55-1.88"/>
    <path class="cls-3" d="m618.93,283.45c1.29-.18,3.42-.66,5.69-2.08,1.93-1.21,3.22-2.63,3.99-3.63"/>
  </g>
  <g>
    <path class="cls-3" d="m321.62,309.63c-1.24.52-3.34,1.2-5.85,1.11-2.14-.08-3.76-.7-4.77-1.21"/>
    <path class="cls-3" d="m323.68,304.54c-1.3,0-3.48-.17-5.93-1.25-2.08-.92-3.56-2.15-4.46-3.02"/>
  </g>
  <g>
    <ellipse class="cls-15" cx="394.29" cy="303.51" rx="10" ry="12.5" transform="translate(-20.62 28.86) rotate(-4.08)"/>
    <ellipse class="cls-15" cx="373.31" cy="346.61" rx="5" ry="7" transform="translate(-23.74 27.47) rotate(-4.08)"/>
    <ellipse class="cls-15" cx="549.89" cy="292.39" rx="10" ry="12.5" transform="translate(-19.43 39.91) rotate(-4.08)"/>
    <ellipse class="cls-15" cx="576.79" cy="332.08" rx="5" ry="7" transform="translate(-22.19 41.93) rotate(-4.08)"/>
  </g>
  <path class="cls-16" d="m483.93,385.95l20.34-27.51c3.13-4.23-.14-10.19-5.4-9.82l-44.38,3.17c-5.25.38-7.65,6.74-3.95,10.48l24.04,24.34c2.66,2.69,7.1,2.38,9.35-.67Z"/>
  <path class="cls-10" d="m604.82,380.71c6.71-4.75,26.12-17.21,52.11-16.32,7.43.25,13.88,1.55,19.13,3.08"/>
  <g class="cls-4">
    <ellipse class="cls-14" cx="368.08" cy="866.24" rx="30.36" ry="55.94" transform="translate(-549.33 1076.53) rotate(-79.89)"/>
  </g>
  <g>
    <path d="m762.1,209.65v35.24s-8.61-7.27-15.6-2.61c-4.57,3.05-6.47,9.14-4.18,14.36,2.65,6.05,10.63,5.89,13.32,5.66,2.47-.22,7.23-1.74,8.75-6.09.55-1.59,1.02-1.94,1.14-7.4.33-15.08.15-39.16.15-39.16h-3.58Z"/>
    <line class="cls-11" x1="762.34" y1="211.49" x2="797.91" y2="203.44"/>
    <path d="m794.81,201.38v35.24s-8.61-7.27-15.6-2.61c-4.57,3.05-6.47,9.14-4.18,14.36,2.65,6.05,10.63,5.89,13.32,5.66,2.47-.22,7.23-1.74,8.75-6.09.55-1.59,1.02-1.94,1.14-7.4.33-15.08.15-39.16.15-39.16h-3.58Z"/>
  </g>
  <g>
    <path d="m819.28,239.08v35.24s-8.61-7.27-15.6-2.61c-4.57,3.05-6.47,9.14-4.18,14.36,2.65,6.05,10.63,5.89,13.32,5.66,2.47-.22,7.23-1.74,8.75-6.09.55-1.59,1.02-1.94,1.14-7.4.33-15.08.15-39.16.15-39.16h-3.58Z"/>
    <line class="cls-11" x1="819.52" y1="240.92" x2="855.09" y2="232.88"/>
    <path d="m851.99,230.82v35.24s-8.61-7.27-15.6-2.61c-4.57,3.05-6.47,9.14-4.18,14.36,2.65,6.05,10.63,5.89,13.32,5.66,2.47-.22,7.23-1.74,8.75-6.09.55-1.59,1.02-1.94,1.14-7.4.33-15.08.15-39.16.15-39.16h-3.58Z"/>
  </g>
  <g>
    <path class="cls-3" d="m672.76,687.58c1.5-.81,10.74-5.96,16.02-17.02,4.52-9.48,3.1-16.95,2.71-18.72"/>
    <path class="cls-3" d="m665.97,683.47c1.47-.92,10.51-6.77,15.16-18.07,3.99-9.69,2.08-16.9,1.57-18.61"/>
  </g>
</svg>