<?xml version="1.0" encoding="UTF-8"?>
<svg id="Layer_1" data-name="Layer 1" xmlns="http://www.w3.org/2000/svg" xmlns:xlink="http://www.w3.org/1999/xlink" viewBox="0 0 1000 1000">
  <defs>
    <style>
      .cls-1, .cls-2, .cls-3, .cls-4, .cls-5, .cls-6, .cls-7, .cls-8, .cls-9, .cls-10 {
        fill: none;
      }

      .cls-2 {
        stroke-width: 12px;
      }

      .cls-2, .cls-3, .cls-9 {
        stroke-linecap: round;
      }

      .cls-2, .cls-3, .cls-9, .cls-11 {
        stroke-miterlimit: 10;
      }

      .cls-2, .cls-3, .cls-11 {
        stroke: #000;
      }

      .cls-3, .cls-11 {
        stroke-width: 3px;
      }

      .cls-4 {
        clip-path: url(#clippath-5);
      }

      .cls-5 {
        clip-path: url(#clippath-3);
      }

      .cls-6 {
        clip-path: url(#clippath-4);
      }

      .cls-7 {
        clip-path: url(#clippath-2);
      }

      .cls-8 {
        clip-path: url(#clippath-1);
      }

      .cls-12 {
        fill: #faaf3b;
      }

      .cls-13 {
        fill: #ffb8ab;
      }

      .cls-9 {
        stroke: #754c24;
        stroke-width: 7px;
      }

      .cls-11 {
        fill: #fff;
      }

      .cls-10 {
        clip-path: url(#clippath);
      }
    </style>
    <clipPath id="clippath">
      <path class="cls-1" d="m388.76,552.47c-54.39,3.44-110.61-16.66-118.6-19.58-52.57-19.24-63.62-31.32-67.74-43.57-.71-2.12-.83-11.16,4.85-16.79,4.31-4.27,13.07-4.29,32.92,4.49,41.09,18.18,40.94,25.7,72.55,36.36,13.43,4.53,30.14,8.92,42.43,8.92,26.2-.02,36.07-9.92,48.44-2.34,7.98,4.89,12.51,16.31,9.34,23.23-3.32,7.25-14.71,8.69-24.19,9.28Z"/>
    </clipPath>
    <clipPath id="clippath-1">
      <path class="cls-1" d="m564.36,552.47c54.39,3.44,110.61-16.66,118.6-19.58,52.57-19.24,63.62-31.32,67.74-43.57.71-2.12.83-11.16-4.85-16.79-4.31-4.27-13.07-4.29-32.92,4.49-41.09,18.18-40.94,25.7-72.55,36.36-13.43,4.53-30.14,8.92-42.43,8.92-26.2-.02-36.07-9.92-48.44-2.34-7.98,4.89-12.51,16.31-9.34,23.23,3.32,7.25,14.71,8.69,24.19,9.28Z"/>
    </clipPath>
    <clipPath id="clippath-2">
      <path class="cls-1" d="m506.22,762.49c16.91,27.78,24.44,46.05,56.38,79.65,1.78,1.87,16.9,12.57,34.5,4.77,42.22-18.72,95.39-38.86,93.19-70.55-.8-11.5-8.67-24.86-18.64-29.89-12.54-6.33-31.41-5.2-42.73-1.13-14.61,5.26-20.12,13.99-34.67,22.14-9.93,5.57-12.17,2.6-14.25-.31-13.67-19.11-12.14-26.15-24.91-37.93-11.63-10.72-58.89,16.78-48.87,33.25Z"/>
    </clipPath>
    <clipPath id="clippath-3">
      <path class="cls-1" d="m464.63,732.79c13.29,29.68,24.07,46.25,33.63,91.61.53,2.53.77,21.05-15.64,31.12-39.36,24.16-86.11,56.53-110.96,36.74-9.02-7.18-15.56-21.24-14.05-32.3,1.9-13.92,13.53-28.82,23.3-35.83,12.62-9.06,22.93-8.64,37.89-16,10.22-5.02,9.04-8.55,7.83-11.91-7.99-22.1-14.65-24.83-17.11-42.03-2.24-15.66,47.22-38.99,55.1-21.4Z"/>
    </clipPath>
    <clipPath id="clippath-4">
      <path class="cls-1" d="m562.53,534c-1.9-1.88-14.34-14.52-17.64-24.22-3.55-10.42-1.02-11.95-3.14-17.59-5.19-13.81-35.54-20.47-65.56-20.36-30.02-.11-60.38,6.54-65.56,20.36-2.11,5.63.41,7.16-3.14,17.59-3.3,9.71-15.74,22.34-17.64,24.22-17.88,17.73-63.27,101.26-33.03,184.25,15.5,42.52,77.5,53.36,119.37,52.58,41.87.78,103.87-10.06,119.37-52.58,30.24-82.99-15.15-166.52-33.03-184.25Z"/>
    </clipPath>
    <clipPath id="clippath-5">
      <path class="cls-1" d="m781.88,150.17l-153.83,38.37c-.16.04-.31.1-.46.14-48.09-23.06-97.16-30.3-113.16-32.4-19.49-2.56-60.66-7.55-110.29,6.25-3.3.92-9.68,2.69-18.03,5.5-1.01-1.51-2.46-2.82-4.37-3.72l-143.37-67.56c-7.91-3.73-16.96,2.21-15.48,10.16l31.11,167.62c.03.14.07.26.1.39-2.32,5.97-4.25,12.23-5.69,18.79-19.44,88.62,50.43,149.66,55.82,153.78,73.03,55.88,260.27,56.44,319.32,44.91,48.48-9.47,87.42-53.03,97.17-72.79,9.65-19.55,16.41-62.25,12.23-100.72l62.12-155.77c2.99-7.5-4.72-15.08-13.19-12.97Z"/>
    </clipPath>
  </defs>
  <g>
    <path class="cls-11" d="m395.76,554.41c-55.04,4.33-112.35-15.17-120.5-18.01-53.6-18.68-65.01-30.75-69.4-43.11-.76-2.14-1.04-11.3,4.61-17.09,4.29-4.4,13.17-4.55,33.43,4.04,41.95,17.79,41.93,25.42,74.15,35.73,13.69,4.38,30.69,8.58,43.15,8.38,26.54-.42,36.36-10.62,49.04-3.12,8.17,4.83,12.96,16.34,9.87,23.39-3.24,7.4-14.75,9.03-24.35,9.79Z"/>
    <g class="cls-10">
      <path class="cls-12" d="m293.71,570.27l1.16.35c6.23,1.9,12.89-1.65,14.8-7.87l7.82-25.48c1.91-6.23-1.62-12.88-7.84-14.77l-1.16-.35c-6.23-1.9-12.89,1.65-14.8,7.87l-7.82,25.48c-1.91,6.23,1.62,12.88,7.84,14.77Z"/>
      <path class="cls-12" d="m262.24,562.74l1.16.35c6.23,1.9,12.89-1.65,14.8-7.87l7.82-25.48c1.91-6.23-1.62-12.88-7.84-14.77l-1.16-.35c-6.23-1.9-12.89,1.65-14.8,7.87l-7.82,25.48c-1.91,6.23,1.62,12.88,7.84,14.77Z"/>
      <path class="cls-12" d="m230.89,547.52l1.16.35c6.23,1.9,12.89-1.65,14.8-7.87l7.82-25.48c1.91-6.23-1.62-12.88-7.84-14.77l-1.16-.35c-6.23-1.9-12.89,1.65-14.8,7.87l-7.82,25.48c-1.91,6.23,1.62,12.88,7.84,14.77Z"/>
    </g>
  </g>
  <g>
    <path class="cls-11" d="m557.37,554.41c55.04,4.33,112.35-15.17,120.5-18.01,53.6-18.68,65.01-30.75,69.4-43.11.76-2.14,1.04-11.3-4.61-17.09-4.29-4.4-13.17-4.55-33.43,4.04-41.95,17.79-41.93,25.42-74.15,35.73-13.69,4.38-30.69,8.58-43.15,8.38-26.54-.42-36.36-10.62-49.04-3.12-8.17,4.83-12.96,16.34-9.87,23.39,3.24,7.4,14.75,9.03,24.35,9.79Z"/>
    <g class="cls-8">
      <path class="cls-12" d="m659.42,570.27l-1.16.35c-6.23,1.9-12.89-1.65-14.8-7.87l-7.82-25.48c-1.91-6.23,1.62-12.88,7.84-14.77l1.16-.35c6.23-1.9,12.89,1.65,14.8,7.87l7.82,25.48c1.91,6.23-1.62,12.88-7.84,14.77Z"/>
      <path class="cls-12" d="m690.89,562.74l-1.16.35c-6.23,1.9-12.89-1.65-14.8-7.87l-7.82-25.48c-1.91-6.23,1.62-12.88,7.84-14.77l1.16-.35c6.23-1.9,12.89,1.65,14.8,7.87l7.82,25.48c1.91,6.23-1.62,12.88-7.84,14.77Z"/>
      <path class="cls-12" d="m722.23,547.52l-1.16.35c-6.23,1.9-12.89-1.65-14.8-7.87l-7.82-25.48c-1.91-6.23,1.62-12.88,7.84-14.77l1.16-.35c6.23-1.9,12.89,1.65,14.8,7.87l7.82,25.48c1.91,6.23-1.62,12.88-7.84,14.77Z"/>
    </g>
  </g>
  <path class="cls-11" d="m466.61,730.38c13.05,31.1,23.77,48.55,32.75,95.79.5,2.63.42,21.82-16.49,31.8-40.58,23.95-88.82,56.21-113.84,35.05-9.08-7.68-15.51-22.42-13.78-33.83,2.17-14.36,14.3-29.48,24.39-36.48,13.03-9.04,23.55-8.33,38.94-15.54,10.51-4.93,9.37-8.61,8.19-12.13-7.77-23.1-14.53-26.11-16.74-44-2.02-16.28,48.85-39.1,56.58-20.66Z"/>
  <path class="cls-11" d="m503.37,759.8c17.39,28.9,25.14,47.85,57.95,83.01,1.83,1.96,17.36,13.23,35.4,5.48,43.3-18.59,97.82-38.47,95.52-71.15-.84-11.86-8.93-25.76-19.16-31.11-12.87-6.73-32.23-5.88-43.84-1.87-14.99,5.17-20.63,14.08-35.54,22.24-10.18,5.57-12.48,2.48-14.62-.55-14.05-19.92-12.49-27.15-25.61-39.5-11.94-11.24-60.4,16.32-50.1,33.45Z"/>
  <g class="cls-7">
    <ellipse class="cls-12" cx="540.94" cy="817.91" rx="49.44" ry="57.35" transform="translate(-390.19 510.34) rotate(-38.24)"/>
  </g>
  <g class="cls-5">
    <ellipse class="cls-12" cx="409.83" cy="878.53" rx="55.94" ry="30.36" transform="translate(-105.38 57.35) rotate(-7.1)"/>
  </g>
  <path class="cls-11" d="m563.99,534.07c-1.93-1.9-14.56-14.62-17.91-24.4-3.6-10.5-1.04-12.04-3.19-17.71-5.26-13.91-36.08-20.62-66.56-20.5-30.48-.11-61.3,6.59-66.56,20.5-2.15,5.67.41,7.21-3.19,17.71-3.35,9.78-15.98,22.5-17.91,24.4-18.15,17.86-64.24,101.98-33.53,185.55,15.73,42.82,78.68,53.74,121.19,52.95,42.51.78,105.46-10.13,121.19-52.95,30.7-83.57-15.38-167.7-33.53-185.55Z"/>
  <g class="cls-6">
    <ellipse class="cls-12" cx="477.1" cy="663.33" rx="106.34" ry="129.12"/>
  </g>
  <path class="cls-11" d="m783.34,148.31l-154.75,38.85c-.16.04-.31.1-.47.15-48.37-23.28-97.72-30.57-113.81-32.69-19.61-2.58-61.01-7.6-110.94,6.37-3.32.93-9.74,2.73-18.14,5.57-1.01-1.53-2.48-2.85-4.39-3.76l-144.18-68.21c-7.96-3.76-17.06,2.24-15.58,10.28l31.21,169.39c.03.14.07.26.11.4-2.33,6.04-4.28,12.36-5.73,18.99-19.6,89.57,50.65,151.22,56.08,155.39,73.44,56.44,261.77,56.91,321.18,45.23,48.77-9.59,87.96-53.63,97.77-73.6,9.71-19.76,16.54-62.92,12.34-101.8l62.56-157.46c3.01-7.58-4.74-15.24-13.26-13.1Z"/>
  <path class="cls-9" d="m490.77,397.98c2.51,10.88-6.88,20.66-23.04,24.25-14.25,3.17-31.65,1.06-44.85-5.41"/>
  <path class="cls-9" d="m492.27,398.13c-4.58,10.19,2.73,21.6,17.88,28.27,13.36,5.89,30.84,7.2,45.05,3.42"/>
  <path class="cls-13" d="m496.08,397.87l24.68-23.69c3.8-3.65,1.57-10.07-3.67-10.59l-44.28-4.35c-5.24-.52-8.67,5.35-5.66,9.67l19.6,28.04c2.17,3.1,6.59,3.54,9.32.92Z"/>
  <path class="cls-13" d="m341.87,188.58c-3.23-12.27-21.39-8.31-44.97-29.83-16.75-15.29-25.36-33.52-27.92-32-2.89,1.71,8.67,24.51,3.41,28.61-4.23,3.29-14.36-9.34-18.48-6.78-8.73,5.45,4.28,82.72,39.9,86.71,24.43,2.74,52.53-29.76,48.06-46.71Z"/>
  <path class="cls-9" d="m617.65,397.59c7.41-3.56,28.65-12.56,54.12-7.31,7.29,1.5,13.42,3.86,18.33,6.26"/>
  <g class="cls-4">
    <circle class="cls-12" cx="689.26" cy="175.03" r="199.5"/>
    <circle class="cls-12" cx="294.8" cy="522.72" r="136.4"/>
  </g>
  <path class="cls-13" d="m663.03,220.15c5.56-11.4,22.6-3.99,49.91-20.5,19.41-11.74,31.4-27.94,33.62-25.95,2.5,2.24-13.28,22.36-8.91,27.4,3.51,4.05,15.91-6.37,19.44-3.05,7.5,7.04-20.3,80.3-56.02,77.28-24.49-2.07-45.73-39.42-38.04-55.17Z"/>
  <path class="cls-9" d="m616.86,412.1c8.12-1.31,31.03-3.92,53.97,8.35,6.56,3.51,11.77,7.51,15.8,11.2"/>
  <path class="cls-9" d="m368.85,373.14c-6.58-4.93-25.65-17.9-51.66-17.71-7.44.05-13.92,1.17-19.2,2.57"/>
  <path class="cls-9" d="m366.79,387.52c-7.71-2.86-29.68-9.89-54.56-2.32-7.12,2.16-13.01,5.08-17.68,7.91"/>
  <g>
    <path class="cls-2" d="m570.36,305.21c4.48-4.07,12.12-9.62,22.25-10.79,18.34-2.12,37.14,11,47.76,33.14"/>
    <path class="cls-2" d="m429.98,291.42c-3.6-4.87-10.02-11.8-19.72-14.92-17.57-5.65-38.57,3.56-53.3,23.2"/>
    <g>
      <path class="cls-3" d="m648.49,323.18c1.22.55,3.3,1.29,5.81,1.26,2.14-.03,3.78-.6,4.8-1.08"/>
      <path class="cls-3" d="m646.57,318.04c1.3.04,3.49-.08,5.96-1.09,2.11-.86,3.61-2.05,4.54-2.9"/>
    </g>
    <g>
      <path class="cls-3" d="m349.1,293.75c-1.31.3-3.49.62-5.95.1-2.1-.44-3.59-1.33-4.5-2"/>
      <path class="cls-3" d="m351.99,289.08c-1.29-.22-3.4-.75-5.63-2.23-1.9-1.26-3.15-2.71-3.89-3.73"/>
    </g>
  </g>
  <g>
    <path class="cls-3" d="m769.12,516.59c1.23-1.17,8.81-8.56,11.01-20.61,1.89-10.33-1.44-17.17-2.28-18.77"/>
    <path class="cls-3" d="m761.5,514.4c1.17-1.27,8.37-9.28,9.91-21.41,1.32-10.4-2.41-16.86-3.35-18.37"/>
  </g>
  <g>
    <path class="cls-3" d="m187.08,516.59c-1.23-1.17-8.81-8.56-11.01-20.61-1.89-10.33,1.44-17.17,2.28-18.77"/>
    <path class="cls-3" d="m194.7,514.4c-1.17-1.27-8.37-9.28-9.91-21.41-1.32-10.4,2.41-16.86,3.35-18.37"/>
  </g>
  <g>
    <path class="cls-3" d="m711.99,746.33c-.42-1.65-3.14-11.88-12.56-19.7-8.08-6.71-15.67-7.16-17.48-7.22"/>
    <path class="cls-3" d="m706.34,751.9c-.53-1.65-3.98-11.85-13.8-19.13-8.41-6.25-15.88-6.17-17.65-6.09"/>
  </g>
  <g>
    <path class="cls-3" d="m352.56,917.15c-1.56-.68-11.19-5.06-17.35-15.65-5.28-9.07-4.47-16.64-4.23-18.43"/>
    <path class="cls-3" d="m358.99,912.5c-1.54-.8-11.03-5.89-16.59-16.77-4.77-9.33-3.46-16.68-3.09-18.42"/>
  </g>
</svg>