<?xml version="1.0" encoding="UTF-8"?>
<svg id="Layer_1" data-name="Layer 1" xmlns="http://www.w3.org/2000/svg" xmlns:xlink="http://www.w3.org/1999/xlink" viewBox="0 0 1000 1000">
  <defs>
    <style>
      .cls-1, .cls-2, .cls-3, .cls-4, .cls-5, .cls-6, .cls-7, .cls-8, .cls-9, .cls-10, .cls-11 {
        fill: none;
      }

      .cls-2 {
        stroke-width: 12px;
      }

      .cls-2, .cls-3, .cls-10 {
        stroke-linecap: round;
      }

      .cls-2, .cls-3, .cls-10, .cls-12 {
        stroke-miterlimit: 10;
      }

      .cls-2, .cls-3, .cls-12 {
        stroke: #000;
      }

      .cls-3, .cls-12 {
        stroke-width: 3px;
      }

      .cls-4 {
        clip-path: url(#clippath-6);
      }

      .cls-5 {
        clip-path: url(#clippath-5);
      }

      .cls-6 {
        clip-path: url(#clippath-3);
      }

      .cls-7 {
        clip-path: url(#clippath-4);
      }

      .cls-8 {
        clip-path: url(#clippath-2);
      }

      .cls-9 {
        clip-path: url(#clippath-1);
      }

      .cls-13 {
        fill: #faaf3b;
      }

      .cls-14, .cls-12 {
        fill: #fff;
      }

      .cls-15 {
        fill: #ffb8ab;
      }

      .cls-10 {
        stroke: #754c24;
        stroke-width: 7px;
      }

      .cls-11 {
        clip-path: url(#clippath);
      }
    </style>
    <clipPath id="clippath">
      <path class="cls-1" d="m489.16,745.44c-3.91,32.29-9.31,51.3-5.03,97.46.24,2.57,5.49,20.33,24.14,25.1,44.75,11.43,98.98,28.53,116.86,2.28,6.49-9.53,8.58-24.89,3.86-35.01-5.93-12.73-21.45-23.53-32.86-27.33-14.73-4.92-24.46-1.47-40.93-4.07-11.25-1.78-11.17-5.49-11-9.06,1.09-23.47,6.65-28.05,3.91-45.21-2.49-15.62-56.64-23.27-58.96-4.14Z"/>
    </clipPath>
    <clipPath id="clippath-1">
      <path class="cls-1" d="m562.4,542.29c-1.9-1.88-14.34-14.52-17.64-24.22-3.55-10.42-1.02-11.95-3.14-17.59-5.19-13.81-35.54-20.47-65.56-20.36-30.02-.11-60.38,6.54-65.56,20.36-2.11,5.63.41,7.16-3.14,17.59-3.3,9.71-15.74,22.34-17.64,24.22-17.88,17.73-63.27,101.26-33.03,184.25,15.5,42.52,77.5,53.36,119.37,52.58,41.87.78,103.87-10.06,119.37-52.58,30.24-82.99-15.15-166.52-33.03-184.25Z"/>
    </clipPath>
    <clipPath id="clippath-2">
      <path class="cls-1" d="m744.8,127.81l-149.34,53.23c-.16.06-.3.13-.45.19-50.12-18.24-99.66-20.65-115.79-21.17-19.65-.64-61.11-1.58-109.15,17.01-3.2,1.24-9.37,3.63-17.41,7.24-1.15-1.41-2.73-2.57-4.71-3.27l-149.29-53.21c-8.24-2.94-16.66,3.86-14.41,11.63l47.36,163.77c.04.13.1.25.14.38-1.72,6.17-3.03,12.58-3.82,19.26-10.68,90.09,64.83,144,70.6,147.58,78.15,48.47,264.54,30.71,322.18,13.45,47.33-14.17,81.81-61.33,89.58-81.94,7.69-20.4,10.25-63.56,2.31-101.43l46.58-161.1c2.24-7.76-6.17-14.54-14.39-11.61Z"/>
    </clipPath>
    <clipPath id="clippath-3">
      <path class="cls-1" d="m580.27,553.16c44.47,31.5,75.58,82.45,79.96,89.75,28.81,48,29.82,64.34,25.32,76.46-.78,2.1-6.37,9.2-14.32,10.02-6.04.62-12.87-4.88-22.79-24.18-20.55-39.96-15.7-45.72-33.6-73.88-7.6-11.96-17.84-25.88-27.41-33.6-20.39-16.45-34.29-14.94-39.16-28.62-3.13-8.81.52-20.55,7.33-23.93,7.14-3.55,16.9,2.49,24.66,7.98Z"/>
    </clipPath>
    <clipPath id="clippath-4">
      <path class="cls-1" d="m373.06,552.56c-43.95,32.22-74.22,83.68-78.48,91.06-28.02,48.47-28.76,64.82-24.06,76.86.81,2.09,6.52,9.1,14.48,9.78,6.05.52,12.78-5.09,22.39-24.55,19.89-40.29,14.95-45.97,32.38-74.42,7.4-12.08,17.41-26.17,26.85-34.04,20.12-16.78,34.04-15.5,38.68-29.26,2.99-8.86-.86-20.54-7.72-23.81-7.2-3.43-16.86,2.77-24.52,8.38Z"/>
    </clipPath>
    <clipPath id="clippath-5">
      <path class="cls-1" d="m463.96,745.44c3.91,32.29,9.31,51.3,5.03,97.46-.24,2.57-5.49,20.33-24.14,25.1-44.75,11.43-98.98,28.53-116.86,2.28-6.49-9.53-8.58-24.89-3.86-35.01,5.93-12.73,21.45-23.53,32.86-27.33,14.73-4.92,24.46-1.47,40.93-4.07,11.25-1.78,11.17-5.49,11-9.06-1.09-23.47-6.65-28.05-3.91-45.21,2.49-15.62,56.64-23.27,58.96-4.14Z"/>
    </clipPath>
    <clipPath id="clippath-6">
      <path class="cls-1" d="m716.94,1141.23l-140.74,72.99c-.15.08-.28.17-.42.25-52.13-11.28-101.54-6.94-117.59-5.27-19.56,2.03-60.76,6.72-105.83,31.66-3,1.66-8.79,4.87-16.26,9.54-1.33-1.24-3.05-2.17-5.11-2.6l-155.13-32.47c-8.56-1.79-15.98,6.08-12.7,13.48l69.13,155.84c.06.13.13.24.19.36-.87,6.35-1.29,12.88-1.17,19.6,1.64,90.71,83.76,133.88,89.96,136.65,84,37.42,266.26-5.46,321.03-30.37,44.97-20.45,72.74-71.86,77.64-93.33,4.85-21.25,1.53-64.36-11.46-100.81l24.3-165.93c1.17-7.99-8.08-13.57-15.84-9.55Z"/>
    </clipPath>
  </defs>
  <g>
    <path class="cls-15" d="m633.37,209.09c4.42-11.89,22.11-6.18,47.67-25.29,18.16-13.58,28.52-30.88,30.92-29.12,2.71,1.98-11.03,23.55-6.19,28.14,3.89,3.69,15.21-7.89,19.05-4.94,8.15,6.27-12.35,81.9-48.19,82.39-24.58.34-49.36-34.75-43.26-51.19Z"/>
    <g>
      <path class="cls-3" d="m628.98,299.05c1.27.43,3.41.96,5.91.69,2.13-.24,3.7-.97,4.67-1.55"/>
      <path class="cls-3" d="m626.56,294.12c1.3-.09,3.46-.42,5.82-1.67,2.01-1.07,3.4-2.39,4.23-3.33"/>
    </g>
    <g>
      <path class="cls-12" d="m580.68,550.58c45.02,31.96,76.51,83.66,80.95,91.06,29.17,48.7,30.19,65.28,25.63,77.57-.79,2.13-6.45,9.34-14.5,10.16-6.11.63-13.02-4.95-23.07-24.53-20.8-40.55-15.89-46.39-34.01-74.95-7.7-12.14-18.06-26.25-27.75-34.09-20.64-16.69-34.72-15.16-39.64-29.03-3.17-8.94.53-20.85,7.42-24.28,7.23-3.6,17.11,2.52,24.96,8.09Z"/>
      <path class="cls-12" d="m377.19,546.58c-45.02,31.96-76.51,83.66-80.95,91.06-29.17,48.7-30.19,65.28-25.63,77.57.79,2.13,6.45,9.34,14.5,10.16,6.11.63,13.02-4.95,23.07-24.53,20.8-40.55,15.89-46.39,34.01-74.95,7.7-12.14,18.06-26.25,27.75-34.09,20.64-16.69,34.72-15.16,39.64-29.03,3.17-8.94-.53-20.85-7.42-24.28-7.23-3.6-17.11,2.52-24.96,8.09Z"/>
      <path class="cls-12" d="m465.12,741.66c3.99,33.49,9.48,53.22,5.12,101.1-.24,2.67-5.6,21.09-24.6,26.04-45.6,11.86-100.86,29.6-119.09,2.36-6.61-9.88-8.74-25.82-3.94-36.32,6.04-13.21,21.86-24.41,33.48-28.36,15.01-5.1,24.93-1.52,41.71-4.22,11.46-1.84,11.38-5.7,11.21-9.4-1.11-24.35-6.78-29.1-3.99-46.9,2.54-16.2,57.72-24.14,60.09-4.29Z"/>
      <path class="cls-12" d="m487.56,741.66c-3.99,33.49-9.48,53.22-5.12,101.1.24,2.67,5.6,21.09,24.6,26.04,45.6,11.86,100.86,29.6,119.09,2.36,6.61-9.88,8.74-25.82,3.94-36.32-6.04-13.21-21.86-24.41-33.48-28.36-15.01-5.1-24.93-1.52-41.71-4.22-11.46-1.84-11.38-5.7-11.21-9.4,1.11-24.35,6.78-29.1,3.99-46.9-2.54-16.2-57.72-24.14-60.09-4.29Z"/>
      <g class="cls-11">
        <ellipse class="cls-13" cx="482.12" cy="810.46" rx="49.44" ry="57.35"/>
      </g>
      <path class="cls-12" d="m563.86,542.36c-1.93-1.9-14.56-14.62-17.91-24.4-3.6-10.5-1.04-12.04-3.19-17.71-5.26-13.91-36.08-20.62-66.56-20.5-30.48-.11-61.3,6.59-66.56,20.5-2.15,5.67.41,7.21-3.19,17.71-3.35,9.78-15.98,22.5-17.91,24.4-18.15,17.86-64.24,101.98-33.53,185.55,15.73,42.82,78.68,53.74,121.19,52.95,42.51.78,105.46-10.13,121.19-52.95,30.7-83.57-15.38-167.7-33.53-185.55Z"/>
      <g class="cls-9">
        <ellipse class="cls-13" cx="476.97" cy="671.61" rx="106.34" ry="129.12"/>
      </g>
      <path class="cls-12" d="m746.07,125.82l-150.21,53.8c-.16.06-.3.13-.45.19-50.41-18.44-100.24-20.87-116.47-21.4-19.77-.65-61.47-1.6-109.78,17.19-3.22,1.25-9.42,3.67-17.51,7.32-1.16-1.42-2.74-2.6-4.74-3.31l-150.16-53.78c-8.29-2.97-16.76,3.9-14.5,11.75l47.63,165.52c.04.13.1.26.14.39-1.73,6.24-3.05,12.72-3.84,19.46-10.74,91.05,65.2,145.54,71.01,149.16,78.61,48.99,266.09,31.03,324.06,13.6,47.6-14.32,82.29-61.98,90.11-82.82,7.73-20.61,10.3-64.24,2.33-102.52l46.86-162.82c2.26-7.84-6.2-14.7-14.48-11.74Z"/>
      <path class="cls-10" d="m479.33,402.91c3.56,10.59-4.83,21.23-20.56,26.39-13.88,4.55-31.39,4.15-45.17-1"/>
      <path class="cls-10" d="m480.84,402.91c-3.56,10.59,4.83,21.23,20.56,26.39,13.88,4.55,31.39,4.15,45.17-1"/>
      <path class="cls-15" d="m484.6,402.28l22.25-25.99c3.42-4,.58-10.18-4.68-10.18h-44.49c-5.27,0-8.11,6.18-4.68,10.18l22.25,25.99c2.46,2.88,6.91,2.88,9.37,0Z"/>
      <path class="cls-15" d="m310.66,209.09c-4.42-11.89-22.11-6.18-47.67-25.29-18.16-13.58-28.52-30.88-30.92-29.12-2.71,1.98,11.03,23.55,6.19,28.14-3.89,3.69-15.21-7.89-19.05-4.94-8.15,6.27,12.35,81.9,48.19,82.39,24.58.34,49.36-34.75,43.26-51.19Z"/>
      <path class="cls-10" d="m605.56,390.12c7.03-4.26,27.28-15.3,53.14-12.57,7.4.78,13.74,2.53,18.86,4.44"/>
      <g class="cls-8">
        <circle class="cls-13" cx="655.06" cy="161.62" r="199.5"/>
        <circle class="cls-13" cx="296.5" cy="546.23" r="136.4"/>
      </g>
      <g>
        <path d="m600.33,316.14c0,22.88-14.9,41.43-33.28,41.43s-33.28-18.55-33.28-41.43c0-13.79,6.01-30.76,20.06-38.03,2.5-1.29,7.16-3.64,13.21-3.39,16.88.68,33.28,21.07,33.28,41.43Z"/>
        <path class="cls-2" d="m549.46,288.81c4.06-4.49,11.12-10.76,21.09-12.92,18.04-3.9,38.04,7.31,50.78,28.31"/>
        <path d="m357.54,316.14c0,22.88,14.9,41.43,33.28,41.43,18.38,0,33.28-18.55,33.28-41.43,0-13.79-6.01-30.76-20.06-38.03-2.5-1.29-7.16-3.64-13.21-3.39-16.88.68-33.28,21.07-33.28,41.43Z"/>
        <path class="cls-2" d="m408.41,288.81c-4.06-4.49-11.12-10.76-21.09-12.92-18.04-3.9-38.04,7.31-50.78,28.31"/>
      </g>
      <g class="cls-6">
        <path class="cls-13" d="m665.4,599.03l-.68-1.01c-3.65-5.39-11.06-6.82-16.46-3.17l-22.1,14.91c-5.4,3.64-6.83,11.03-3.18,16.42l.68,1.01c3.65,5.39,11.06,6.82,16.46,3.17l22.1-14.91c5.4-3.64,6.83-11.03,3.18-16.42Z"/>
        <path class="cls-13" d="m685.16,624.65l-.68-1.01c-3.65-5.39-11.06-6.82-16.46-3.17l-22.1,14.91c-5.4,3.64-6.83,11.03-3.18,16.42l.68,1.01c3.65,5.39,11.06,6.82,16.46,3.17l22.1-14.91c5.4-3.64,6.83-11.03,3.18-16.42Z"/>
        <path class="cls-13" d="m699.98,656.19l-.68-1.01c-3.65-5.39-11.06-6.82-16.46-3.17l-22.1,14.91c-5.4,3.64-6.83,11.03-3.18,16.42l.68,1.01c3.65,5.39,11.06,6.82,16.46,3.17l22.1-14.91c5.4-3.64,6.83-11.03,3.18-16.42Z"/>
      </g>
      <g class="cls-7">
        <path class="cls-13" d="m288.69,599.82l.67-1.02c3.56-5.45,10.95-7,16.41-3.44l22.34,14.54c5.46,3.55,7.01,10.92,3.45,16.37l-.67,1.02c-3.56,5.45-10.95,7-16.41,3.44l-22.34-14.54c-5.46-3.55-7.01-10.92-3.45-16.37Z"/>
        <path class="cls-13" d="m269.36,625.77l.67-1.02c3.56-5.45,10.95-7,16.41-3.44l22.34,14.54c5.46,3.55,7.01,10.92,3.45,16.37l-.67,1.02c-3.56,5.45-10.95,7-16.41,3.44l-22.34-14.54c-5.46-3.55-7.01-10.92-3.45-16.37Z"/>
        <path class="cls-13" d="m255.06,657.55l.67-1.02c3.56-5.45,10.95-7,16.41-3.44l22.34,14.54c5.46,3.55,7.01,10.92,3.45,16.37l-.67,1.02c-3.56,5.45-10.95,7-16.41,3.44l-22.34-14.54c-5.46-3.55-7.01-10.92-3.45-16.37Z"/>
      </g>
      <g class="cls-5">
        <ellipse class="cls-13" cx="368.5" cy="868.45" rx="30.36" ry="55.94" transform="translate(-551.16 1078.76) rotate(-79.89)"/>
      </g>
      <path class="cls-10" d="m606.2,404.63c7.95-2.1,30.5-6.94,54.53,3.03,6.87,2.85,12.45,6.32,16.82,9.61"/>
      <path class="cls-10" d="m355.56,390.12c-7.03-4.26-27.28-15.3-53.14-12.57-7.4.78-13.74,2.53-18.86,4.44"/>
      <path class="cls-10" d="m354.93,404.63c-7.95-2.1-30.5-6.94-54.53,3.03-6.87,2.85-12.45,6.32-16.82,9.61"/>
      <g>
        <path class="cls-3" d="m328.14,299.05c-1.27.43-3.41.96-5.91.69-2.13-.24-3.7-.97-4.67-1.55"/>
        <path class="cls-3" d="m330.56,294.12c-1.3-.09-3.46-.42-5.82-1.67-2.01-1.07-3.4-2.39-4.23-3.33"/>
      </g>
      <g>
        <ellipse class="cls-14" cx="401.06" cy="298.12" rx="10" ry="12.5"/>
        <ellipse class="cls-14" cx="377.06" cy="339.62" rx="5" ry="7"/>
        <ellipse class="cls-14" cx="557.06" cy="298.12" rx="10" ry="12.5"/>
        <ellipse class="cls-14" cx="581.06" cy="339.62" rx="5" ry="7"/>
      </g>
    </g>
  </g>
  <g class="cls-4">
    <circle class="cls-13" cx="632.61" cy="1186.9" r="199.5"/>
  </g>
</svg>