<?xml version="1.0" encoding="UTF-8"?>
<svg id="Layer_1" data-name="Layer 1" xmlns="http://www.w3.org/2000/svg" xmlns:xlink="http://www.w3.org/1999/xlink" viewBox="0 0 1000 1000">
  <defs>
    <style>
      .cls-1, .cls-2, .cls-3, .cls-4, .cls-5, .cls-6 {
        fill: none;
      }

      .cls-2 {
        stroke-width: 12px;
      }

      .cls-2, .cls-3, .cls-5 {
        stroke-linecap: round;
      }

      .cls-2, .cls-3, .cls-5, .cls-7 {
        stroke-miterlimit: 10;
      }

      .cls-2, .cls-3, .cls-7 {
        stroke: #000;
      }

      .cls-3, .cls-7 {
        stroke-width: 3px;
      }

      .cls-4 {
        clip-path: url(#clippath-1);
      }

      .cls-8 {
        fill: #ffecd3;
      }

      .cls-9 {
        fill: #ffb8ab;
      }

      .cls-5 {
        stroke: #754c24;
        stroke-width: 8px;
      }

      .cls-7 {
        fill: #8b6239;
      }

      .cls-6 {
        clip-path: url(#clippath);
      }
    </style>
    <clipPath id="clippath">
      <path class="cls-1" d="m600.28,527.65c-1.87-1.9-14.14-14.62-17.39-24.4-3.5-10.5-1.01-12.04-3.09-17.71-5.11-13.91-35.04-20.62-64.64-20.5-29.6-.11-59.53,6.59-64.64,20.5-2.08,5.67.4,7.21-3.09,17.71-3.26,9.78-15.52,22.5-17.39,24.4-17.63,17.86-62.39,101.98-32.57,185.55,15.28,42.82,76.41,53.74,117.69,52.95,41.28.78,102.42-10.13,117.69-52.95,29.82-83.57-14.94-167.7-32.57-185.55Z"/>
    </clipPath>
    <clipPath id="clippath-1">
      <path class="cls-1" d="m486.23,130.85c-19.5,1.95-60.59,6.53-105.25,33.43-16.8,10.12-121.64,73.3-118.48,179.29,2.99,100.36,85.67,149.34,91.91,152.49,84.48,42.65,265.91-2.06,320.24-28.79,44.61-21.95,71.59-78.39,76.17-102.08,6.44-33.3-4.28-115.7-35.22-156.67-68.76-91.04-201.06-80.51-229.37-77.68Z"/>
    </clipPath>
  </defs>
  <path class="cls-7" d="m618.85,538.63c45.02,31.96,76.51,83.66,80.95,91.06,29.17,48.7,30.19,65.28,25.63,77.57-.79,2.13-6.45,9.34-14.5,10.16-6.11.63-13.02-4.95-23.07-24.53-20.8-40.55-15.89-46.39-34.01-74.95-7.7-12.14-18.06-26.25-27.75-34.09-20.64-16.69-34.72-15.16-39.64-29.03-3.17-8.94.53-20.85,7.42-24.28,7.23-3.6,17.11,2.52,24.96,8.09Z"/>
  <path class="cls-7" d="m503.28,729.7c3.99,33.49,9.48,53.22,5.12,101.1-.24,2.67-5.6,21.09-24.6,26.04-45.6,11.86-100.86,29.6-119.09,2.36-6.61-9.88-8.74-25.82-3.94-36.32,6.04-13.21,21.86-24.41,33.48-28.36,15.01-5.1,24.93-1.52,41.71-4.22,11.46-1.84,11.38-5.7,11.21-9.4-1.11-24.35-6.78-29.1-3.99-46.9,2.54-16.2,57.72-24.14,60.09-4.29Z"/>
  <path class="cls-7" d="m521.14,753.28c14.13,30.63,19.77,50.31,48.55,88.83,1.6,2.15,15.81,15.04,34.59,9.31,45.06-13.76,101.43-27.57,102.71-60.32.46-11.88-6.07-26.57-15.66-33.01-12.06-8.09-31.4-9.36-43.37-6.64-15.46,3.51-22.04,11.75-37.75,18.23-10.73,4.43-12.68,1.1-14.48-2.14-11.8-21.33-9.46-28.35-21.15-42.05-10.65-12.48-61.82,9.64-53.45,27.79Z"/>
  <path class="cls-7" d="m423.1,566.68c-54.61,8.11-113.13-7.38-121.46-9.66-54.76-14.94-66.98-26.2-72.21-38.22-.91-2.08-1.81-11.2,3.42-17.37,3.98-4.68,12.82-5.45,33.63,1.73,43.08,14.85,43.59,22.46,76.44,30.53,13.95,3.43,31.21,6.44,43.62,5.38,26.45-2.25,35.54-13.1,48.7-6.5,8.48,4.26,14.06,15.41,11.46,22.66-2.72,7.6-14.09,10.03-23.61,11.44Z"/>
  <g>
    <path class="cls-7" d="m602.03,530.41c-1.93-1.9-14.56-14.62-17.91-24.4-3.6-10.5-1.04-12.04-3.19-17.71-5.26-13.91-36.08-20.62-66.56-20.5-30.48-.11-61.3,6.59-66.56,20.5-2.15,5.67.41,7.21-3.19,17.71-3.35,9.78-15.98,22.5-17.91,24.4-18.15,17.86-64.24,101.98-33.53,185.55,15.73,42.82,78.68,53.74,121.19,52.95,42.51.78,105.46-10.13,121.19-52.95,30.7-83.57-15.38-167.7-33.53-185.55Z"/>
    <g class="cls-6">
      <ellipse class="cls-8" cx="515.15" cy="663.9" rx="106.35" ry="130.03"/>
    </g>
  </g>
  <g>
    <path class="cls-7" d="m854.81,265.86c-1.52-2.86-22.45-40.98-56.68-39.94-29.28.89-46.99,29.77-53.01,40.6-6.18-22.63-15.1-44.19-26.93-59.81-69.93-92.31-204.58-81.57-233.39-78.68-19.85,1.99-61.67,6.65-107.12,33.96-15.75,9.46-107.48,64.59-119.44,157.2-12.04-8.86-29.28-17.41-48.11-12.76-33.25,8.2-43.17,50.54-43.87,53.7-11.57,52.79,32.98,120.87,77.14,118.39,23.97-1.34,40.6-23.06,47.79-34.6,25.16,34.91,55.58,52.74,59.3,54.61,85.95,43.22,270.61-2.21,325.92-29.35,40.38-19.82,66.56-67.27,75.16-94.43,3.12,3.44,30.64,32.5,60.78,25.89,43.2-9.48,67.81-87.03,42.48-134.77Z"/>
    <path class="cls-8" d="m260.2,359.59c-7.88-2.94-19.11-.45-22.35,6.15-4.14,8.44,6.96,19.2,2.53,26.41-3.17,5.18-12.94,6.23-18.23,2.09-9.11-7.13-7.22-31.43,3.48-41.98,6.16-6.07,7.77-8.42,8.13-12.38.46-5.03-4.8-9.69-14.73-9.03-13.86.92-21.61,17.7-22.39,19.44-7.71,17.31-4.27,40.13.83,56.75,6.57,21.41,18.84,34.99,36.82,41.48,13.21,4.77,30.33,2.11,40.52-9.19,20.52-22.75,5.53-72.22-14.63-79.75Z"/>
    <path class="cls-8" d="m764.67,290.49c6.74-4.94,18.15-5.54,23.02-.05,6.22,7.02-1.5,20.36,4.66,26.12,4.42,4.14,14.04,2.55,17.99-2.85,6.8-9.3-1.53-32.2-14.59-39.51-7.51-4.2-9.69-6.04-11.1-9.75-1.79-4.73,1.99-10.62,11.66-12.64,13.5-2.82,25.41,11.28,26.62,12.74,12.02,14.61,14.85,37.51,14.43,54.89-.54,22.38-8.63,38.74-24.07,49.8-11.35,8.13-28.42,10.14-41.2,1.98-25.72-16.43-24.66-68.09-7.41-80.73Z"/>
    <g class="cls-4">
      <path class="cls-8" d="m368.77,548.62c-8.92-7.07-30.32-24.05-32.76-49.11-2.18-22.49,13.05-29.44,13.7-52.86.86-31.25-25.76-37.31-39.06-75.46-11.83-33.93-6.18-73.34,11.08-102.47,12.7-21.43,42.34-55.26,73.79-51.72,24.43,2.75,25.32,25.28,54.64,31.68,31.69,6.92,62.33-12.48,75.26-20.67,27.8-17.61,24.42-28.8,45.36-38.12,28.8-12.82,72.34-8.18,93.25,16.8,18.64,22.26,19.52,60.92,15.1,84.68-2.48,13.36-7.13,24.68-1.08,36.68,5.59,11.07,14.22,10.69,28.01,23.02,1.14,1.02,20.05,18.29,26.45,42.05,0,0,6.39,23.73-5.94,54.32-32.19,79.84-277.22,165.11-357.82,101.18Z"/>
    </g>
    <path d="m618.7,308.86c3.1,22.67-9.14,43.07-27.35,45.56-18.21,2.49-35.48-13.86-38.59-36.53-1.87-13.66,1.79-31.29,14.72-40.4,2.3-1.62,6.6-4.58,12.63-5.15,16.82-1.61,35.83,16.37,38.59,36.53Z"/>
    <path class="cls-2" d="m564.6,288.68c3.41-5,9.56-12.17,19.14-15.66,17.34-6.31,38.68,2.09,54.15,21.16"/>
    <path d="m378.16,341.79c3.1,22.67,20.38,39.02,38.59,36.53,18.21-2.49,30.45-22.89,27.35-45.56-1.87-13.66-10.13-29.66-25.04-34.96-2.65-.94-7.59-2.63-13.55-1.57-16.63,2.96-30.11,25.39-27.35,45.56Z"/>
    <path class="cls-2" d="m424.85,307.81c-4.63-3.9-12.48-9.15-22.65-9.94-18.4-1.42-36.69,12.4-46.47,34.93"/>
    <path class="cls-5" d="m491.15,389.8c2.42,2.42,8.62,7.81,16.69,6.06,8.83-1.92,14.53-11.23,16.47-14.73"/>
    <path class="cls-5" d="m407.89,447.86c19.92,8.58,58.65,10.85,109.22,4.54,57.84-7.22,98.82-25.28,115.68-39.71"/>
    <g>
      <ellipse class="cls-9" cx="385.15" cy="406.37" rx="27.5" ry="18.5" transform="translate(-51.56 55.99) rotate(-7.8)"/>
      <ellipse class="cls-9" cx="642.75" cy="371.1" rx="27.5" ry="18.5" transform="translate(-44.39 90.6) rotate(-7.8)"/>
    </g>
  </g>
  <g>
    <path class="cls-3" d="m202.71,531.34c-.11,1.59-.64,11.45,5.96,19.37,5.66,6.79,12.77,7.61,14.48,7.75"/>
    <path class="cls-3" d="m209.81,526.33c0,1.59.17,11.47,7.31,18.9,6.12,6.37,13.27,6.67,14.99,6.69"/>
    <path class="cls-3" d="m312.32,498.76c-.2-1.58-1.61-11.36-9.63-17.84-6.87-5.55-14.01-4.97-15.71-4.77"/>
    <path class="cls-3" d="m306.34,505.06c-.31-1.56-2.41-11.22-10.86-17.11-7.25-5.05-14.32-3.95-16.01-3.64"/>
  </g>
</svg>