<?xml version="1.0" encoding="UTF-8"?>
<svg id="Layer_1" data-name="Layer 1" xmlns="http://www.w3.org/2000/svg" xmlns:xlink="http://www.w3.org/1999/xlink" viewBox="0 0 1000 1000">
  <defs>
    <style>
      .cls-1, .cls-2, .cls-3, .cls-4, .cls-5, .cls-6 {
        fill: none;
      }

      .cls-2 {
        stroke-width: 12px;
      }

      .cls-2, .cls-3, .cls-5 {
        stroke-linecap: round;
      }

      .cls-2, .cls-3, .cls-5, .cls-7 {
        stroke-miterlimit: 10;
      }

      .cls-2, .cls-3, .cls-7 {
        stroke: #000;
      }

      .cls-3, .cls-7 {
        stroke-width: 3px;
      }

      .cls-4 {
        clip-path: url(#clippath-1);
      }

      .cls-8 {
        fill: #ffecd3;
      }

      .cls-9 {
        fill: #ffb8ab;
      }

      .cls-5 {
        stroke: #754c24;
        stroke-width: 8px;
      }

      .cls-7 {
        fill: #8b6239;
      }

      .cls-6 {
        clip-path: url(#clippath);
      }
    </style>
    <clipPath id="clippath">
      <path class="cls-1" d="m578.96,511.12c-1.87-1.9-14.14-14.62-17.39-24.4-3.5-10.5-1.01-12.04-3.09-17.71-5.11-13.91-35.04-20.62-64.64-20.5-29.6-.11-59.53,6.59-64.64,20.5-2.08,5.67.4,7.21-3.09,17.71-3.26,9.78-15.52,22.5-17.39,24.4-17.63,17.86-62.39,101.98-32.57,185.55,15.28,42.82,76.41,53.74,117.69,52.95,41.28.78,102.42-10.13,117.69-52.95,29.82-83.57-14.94-167.7-32.57-185.55Z"/>
    </clipPath>
    <clipPath id="clippath-1">
      <path class="cls-1" d="m537.03,115.63c-19.43-2.62-60.46-7.7-110.13,8.12-18.69,5.95-135.32,43.09-156.83,146.93-20.36,98.32,48.7,165.14,54.04,169.65,72.28,61.08,259.13,59.66,318.19,46.26,48.49-11.01,87.81-59.65,97.76-81.63,13.99-30.9,22.67-113.54,2.07-160.57-45.77-104.5-176.91-124.95-205.1-128.75Z"/>
    </clipPath>
  </defs>
  <g>
    <path class="cls-7" d="m413.52,537.64c-54.61,8.11-113.13-7.38-121.46-9.66-54.76-14.94-66.98-26.2-72.21-38.22-.91-2.08-1.81-11.2,3.42-17.37,3.98-4.68,12.82-5.45,33.63,1.73,43.08,14.85,43.59,22.46,76.44,30.53,13.95,3.43,31.21,6.44,43.62,5.38,26.45-2.25,35.54-13.1,48.7-6.5,8.48,4.26,14.06,15.41,11.46,22.66-2.72,7.6-14.09,10.03-23.61,11.44Z"/>
    <path class="cls-7" d="m574.42,537.64c54.61,8.11,113.13-7.38,121.46-9.66,54.76-14.94,66.98-26.2,72.21-38.22.91-2.08,1.81-11.2-3.42-17.37-3.98-4.68-12.82-5.45-33.63,1.73-43.08,14.85-43.59,22.46-76.44,30.53-13.95,3.43-31.21,6.44-43.62,5.38-26.45-2.25-35.54-13.1-48.7-6.5-8.48,4.26-14.06,15.41-11.46,22.66,2.72,7.6,14.09,10.03,23.61,11.44Z"/>
  </g>
  <path class="cls-7" d="m477.59,707.49c13.05,31.1,23.77,48.55,32.75,95.79.5,2.63.42,21.82-16.49,31.8-40.58,23.95-88.82,56.21-113.84,35.05-9.08-7.68-15.51-22.42-13.78-33.83,2.17-14.36,14.3-29.48,24.39-36.48,13.03-9.04,23.55-8.33,38.94-15.54,10.51-4.93,9.37-8.61,8.19-12.13-7.77-23.1-14.53-26.11-16.74-44-2.02-16.28,48.85-39.1,56.58-20.66Z"/>
  <path class="cls-7" d="m514.36,736.9c17.39,28.9,25.14,47.85,57.95,83.01,1.83,1.96,17.36,13.23,35.4,5.48,43.3-18.59,97.82-38.47,95.52-71.15-.84-11.86-8.93-25.76-19.16-31.11-12.87-6.73-32.23-5.88-43.84-1.87-14.99,5.17-20.63,14.08-35.54,22.24-10.18,5.57-12.48,2.48-14.62-.55-14.05-19.92-12.49-27.15-25.61-39.5-11.94-11.24-60.4,16.32-50.1,33.45Z"/>
  <g>
    <path class="cls-7" d="m580.71,513.87c-1.93-1.9-14.56-14.62-17.91-24.4-3.6-10.5-1.04-12.04-3.19-17.71-5.26-13.91-36.08-20.62-66.56-20.5-30.48-.11-61.3,6.59-66.56,20.5-2.15,5.67.41,7.21-3.19,17.71-3.35,9.78-15.98,22.5-17.91,24.4-18.15,17.86-64.24,101.98-33.53,185.55,15.73,42.82,78.68,53.74,121.19,52.95,42.51.78,105.46-10.13,121.19-52.95,30.7-83.57-15.38-167.7-33.53-185.55Z"/>
    <g class="cls-6">
      <ellipse class="cls-8" cx="493.84" cy="647.36" rx="106.35" ry="130.03"/>
    </g>
  </g>
  <g>
    <path class="cls-7" d="m864.25,332.43c-.81-3.13-12.34-45.07-45.88-51.99-28.69-5.92-52.61,18.06-60.98,27.19-.76-23.44-4.44-46.49-12.33-64.43-46.62-106.01-180.09-126.79-208.78-130.66-19.77-2.67-61.53-7.83-112.08,8.19-17.51,5.55-119.53,37.9-152.64,125.21-9.65-11.41-24.44-23.72-43.84-23.57-34.25.26-53.72,39.15-55.12,42.06-23.49,48.67,4.05,125.22,47.58,133.05,23.63,4.25,44.84-13.02,54.51-22.57,16.38,39.8,41.83,64.19,45.02,66.87,73.58,61.98,263.75,60.6,323.85,47.03,43.88-9.91,80.35-50,95.01-74.43,2.24,4.07,22.27,38.72,53.12,39.28,44.22.79,86.14-68.93,72.58-121.24Z"/>
    <path class="cls-8" d="m264.11,285.71c-6.98-4.69-18.49-4.87-23.17.8-5.99,7.25,2.32,20.29-3.66,26.28-4.29,4.3-14.03,3.06-18.22-2.19-7.21-9.04.26-32.25,13.12-40.02,7.4-4.47,9.51-6.39,10.78-10.16,1.62-4.79-2.42-10.54-12.23-12.2-13.69-2.32-25.13,12.21-26.29,13.72-11.52,15.05-13.46,38.04-12.35,55.39,1.43,22.35,10.22,38.41,26.2,48.89,11.74,7.7,29.01,9.09,41.55.46,25.24-17.37,22.13-68.96,4.26-80.97Z"/>
    <path class="cls-8" d="m770.86,335.48c7.7-3.24,18.94-1.18,22.4,5.29,4.43,8.27-6.18,19.45-1.52,26.49,3.34,5.05,13.07,5.73,18.16,1.4,8.77-7.47,5.98-31.68-5.03-41.81-6.34-5.83-8.03-8.12-8.53-12.06-.65-5.01,4.4-9.87,14.27-9.59,13.78.39,22.11,16.86,22.94,18.57,8.3,17,5.74,39.93,1.31,56.74-5.71,21.64-17.38,35.69-34.96,42.86-12.92,5.27-30,3.27-40.54-7.63-21.21-21.94-8.2-71.95,11.52-80.25Z"/>
    <g class="cls-4">
      <path class="cls-8" d="m325.89,494.76c-7.04-8.95-23.92-30.43-20.47-55.37,3.09-22.39,19.52-25.61,25.59-48.25,8.09-30.2-16.41-42.26-20.5-82.46-3.64-35.74,10.99-72.77,34.54-97.11,17.32-17.9,54-43.94,83.77-33.2,23.12,8.34,18.77,30.46,45.8,43.49,29.23,14.08,63.53,2.31,78-2.65,31.13-10.68,30.43-22.35,52.97-26.56,30.99-5.79,72.26,8.82,86.82,37.97,12.97,25.97,4.86,63.78-4.95,85.88-5.51,12.42-12.66,22.36-9.55,35.43,2.87,12.06,11.35,13.7,21.91,28.89.87,1.26,15.26,22.44,15.98,47.03,0,0,.72,24.56-18.37,51.46-49.82,70.2-307.95,96.33-371.53,15.45Z"/>
    </g>
    <path class="cls-2" d="m582.74,296.96c4.48-4.07,12.12-9.62,22.25-10.79,18.34-2.12,37.14,11,47.76,33.14"/>
    <path class="cls-2" d="m442.37,283.16c-3.6-4.87-10.02-11.8-19.72-14.92-17.57-5.65-38.57,3.56-53.3,23.2"/>
    <path class="cls-5" d="m481.76,368.65c1.8,2.92,6.58,9.6,14.83,9.76,9.04.18,16.74-7.56,19.44-10.51"/>
    <path class="cls-5" d="m387.31,405.82c17.39,12.96,54.53,24.16,105.19,29.74,57.93,6.39,101.99-1.68,121.74-11.8"/>
    <g>
      <ellipse class="cls-9" cx="374.81" cy="360.19" rx="18.5" ry="27.5" transform="translate(-20.32 697.96) rotate(-84.39)"/>
      <ellipse class="cls-9" cx="633.56" cy="385.62" rx="18.5" ry="27.5" transform="translate(187.81 978.42) rotate(-84.39)"/>
    </g>
  </g>
  <g>
    <path class="cls-3" d="m786.97,514.18c1.23-1.17,8.81-8.56,11.01-20.61,1.89-10.33-1.44-17.17-2.28-18.77"/>
    <path class="cls-3" d="m779.34,511.99c1.17-1.27,8.37-9.28,9.91-21.41,1.32-10.4-2.41-16.86-3.35-18.37"/>
  </g>
  <g>
    <path class="cls-3" d="m204.92,514.18c-1.23-1.17-8.81-8.56-11.01-20.61-1.89-10.33,1.44-17.17,2.28-18.77"/>
    <path class="cls-3" d="m212.55,511.99c-1.17-1.27-8.37-9.28-9.91-21.41-1.32-10.4,2.41-16.86,3.35-18.37"/>
  </g>
  <g>
    <path class="cls-3" d="m720.29,719.33c-.42-1.65-3.14-11.88-12.56-19.7-8.08-6.71-15.67-7.16-17.48-7.22"/>
    <path class="cls-3" d="m714.64,724.9c-.53-1.65-3.98-11.85-13.8-19.13-8.41-6.25-15.88-6.17-17.65-6.09"/>
  </g>
  <g>
    <path class="cls-3" d="m360.86,890.15c-1.56-.68-11.19-5.06-17.35-15.65-5.28-9.07-4.47-16.64-4.23-18.43"/>
    <path class="cls-3" d="m367.29,885.5c-1.54-.8-11.03-5.89-16.59-16.77-4.77-9.33-3.46-16.68-3.09-18.42"/>
  </g>
</svg>