<?xml version="1.0" encoding="UTF-8"?>
<svg id="Layer_1" data-name="Layer 1" xmlns="http://www.w3.org/2000/svg" xmlns:xlink="http://www.w3.org/1999/xlink" viewBox="0 0 1000 1000">
  <defs>
    <style>
      .cls-1, .cls-2, .cls-3, .cls-4, .cls-5 {
        fill: none;
      }

      .cls-2 {
        stroke-width: 12px;
      }

      .cls-2, .cls-4 {
        stroke-linecap: round;
      }

      .cls-2, .cls-4, .cls-6 {
        stroke-miterlimit: 10;
      }

      .cls-2, .cls-6 {
        stroke: #000;
      }

      .cls-3 {
        clip-path: url(#clippath-1);
      }

      .cls-7 {
        fill: #ffecd3;
      }

      .cls-8 {
        fill: #ffb8ab;
      }

      .cls-4 {
        stroke: #754c24;
        stroke-width: 8px;
      }

      .cls-6 {
        fill: #8b6239;
        stroke-width: 3px;
      }

      .cls-5 {
        clip-path: url(#clippath);
      }
    </style>
    <clipPath id="clippath">
      <path class="cls-1" d="m586.35,520.75c-1.87-1.9-14.14-14.62-17.39-24.4-3.5-10.5-1.01-12.04-3.09-17.71-5.11-13.91-35.04-20.62-64.64-20.5-29.6-.11-59.53,6.59-64.64,20.5-2.08,5.67.4,7.21-3.09,17.71-3.26,9.78-15.52,22.5-17.39,24.4-17.63,17.86-62.39,101.98-32.57,185.55,15.28,42.82,76.41,53.74,117.69,52.95,41.28.78,102.42-10.13,117.69-52.95,29.82-83.57-14.94-167.7-32.57-185.55Z"/>
    </clipPath>
    <clipPath id="clippath-1">
      <path class="cls-1" d="m500.93,124.29c-19.59-.71-60.92-1.75-108.81,18.85-18.02,7.75-130.46,56.12-141.71,161.57-10.65,99.84,64.62,159.58,70.38,163.55,77.91,53.71,263.73,34.03,321.19,14.91,47.18-15.7,81.56-67.96,89.31-90.8,10.9-32.12,11.45-115.21-13.65-160-55.77-99.52-188.29-107.04-216.71-108.07Z"/>
    </clipPath>
  </defs>
  <path class="cls-6" d="m604.92,531.73c45.02,31.96,76.51,83.66,80.95,91.06,29.17,48.7,30.19,65.28,25.63,77.57-.79,2.13-6.45,9.34-14.5,10.16-6.11.63-13.02-4.95-23.07-24.53-20.8-40.55-15.89-46.39-34.01-74.95-7.7-12.14-18.06-26.25-27.75-34.09-20.64-16.69-34.72-15.16-39.64-29.03-3.17-8.94.53-20.85,7.42-24.28,7.23-3.6,17.11,2.52,24.96,8.09Z"/>
  <path class="cls-6" d="m401.43,527.73c-45.02,31.96-76.51,83.66-80.95,91.06-29.17,48.7-30.19,65.28-25.63,77.57.79,2.13,6.45,9.34,14.5,10.16,6.11.63,13.02-4.95,23.07-24.53,20.8-40.55,15.89-46.39,34.01-74.95,7.7-12.14,18.06-26.25,27.75-34.09,20.64-16.69,34.72-15.16,39.64-29.03,3.17-8.94-.53-20.85-7.42-24.28-7.23-3.6-17.11,2.52-24.96,8.09Z"/>
  <g>
    <path class="cls-6" d="m489.36,722.8c3.99,33.49,9.48,53.22,5.12,101.1-.24,2.67-5.6,21.09-24.6,26.04-45.6,11.86-100.86,29.6-119.09,2.36-6.61-9.88-8.74-25.82-3.94-36.32,6.04-13.21,21.86-24.41,33.48-28.36,15.01-5.1,24.93-1.52,41.71-4.22,11.46-1.84,11.38-5.7,11.21-9.4-1.11-24.35-6.78-29.1-3.99-46.9,2.54-16.2,57.72-24.14,60.09-4.29Z"/>
    <path class="cls-6" d="m511.8,722.8c-3.99,33.49-9.48,53.22-5.12,101.1.24,2.67,5.6,21.09,24.6,26.04,45.6,11.86,100.86,29.6,119.09,2.36,6.61-9.88,8.74-25.82,3.94-36.32-6.04-13.21-21.86-24.41-33.48-28.36-15.01-5.1-24.93-1.52-41.71-4.22-11.46-1.84-11.38-5.7-11.21-9.4,1.11-24.35,6.78-29.1,3.99-46.9-2.54-16.2-57.72-24.14-60.09-4.29Z"/>
  </g>
  <g>
    <path class="cls-6" d="m588.1,523.51c-1.93-1.9-14.56-14.62-17.91-24.4-3.6-10.5-1.04-12.04-3.19-17.71-5.26-13.91-36.08-20.62-66.56-20.5-30.48-.11-61.3,6.59-66.56,20.5-2.15,5.67.41,7.21-3.19,17.71-3.35,9.78-15.98,22.5-17.91,24.4-18.15,17.86-64.24,101.98-33.53,185.55,15.73,42.82,78.68,53.74,121.19,52.95,42.51.78,105.46-10.13,121.19-52.95,30.7-83.57-15.38-167.7-33.53-185.55Z"/>
    <g class="cls-5">
      <ellipse class="cls-7" cx="501.22" cy="657" rx="106.35" ry="130.03"/>
    </g>
  </g>
  <path class="cls-6" d="m847.8,308.04c-1.11-3.04-16.69-43.64-50.74-47.25-29.13-3.09-50.59,23.12-58.03,33.03-3.05-23.25-8.96-45.83-18.57-62.91-56.76-100.94-191.63-108.57-220.56-109.61-19.94-.72-62-1.78-110.74,19.12-16.89,7.24-115.25,49.41-139.66,139.55-10.72-10.41-26.65-21.22-45.94-19.17-34.06,3.61-49.63,44.22-50.74,47.25-18.62,50.73,16.28,124.23,60.37,127.76,23.93,1.92,43.35-17.34,52.04-27.8,20.19,38,47.91,59.79,51.34,62.15,79.29,54.48,268.41,34.51,326.89,15.12,42.7-14.16,75.07-57.62,87.27-83.37,2.63,3.83,25.95,36.36,56.71,33.89,44.08-3.54,78.99-77.03,60.37-127.76Z"/>
  <path class="cls-7" d="m245.97,320.26c-7.4-3.98-18.87-3.03-22.98,3.06-5.25,7.8,4.29,19.97-1.07,26.51-3.85,4.7-13.67,4.42-18.35-.4-8.06-8.3-2.89-32.12,9.14-41.12,6.92-5.18,8.84-7.29,9.74-11.16,1.14-4.93-3.44-10.25-13.37-10.95-13.86-.97-23.82,14.61-24.82,16.22-9.99,16.1-9.67,39.18-6.87,56.34,3.61,22.1,13.92,37.22,30.85,46.1,12.44,6.52,29.76,6.21,41.39-3.61,23.42-19.75,15.28-70.8-3.68-81Z"/>
  <path class="cls-7" d="m755.15,320.22c7.35-3.98,18.73-3.02,22.81,3.07,5.21,7.8-4.25,19.96,1.08,26.51,3.82,4.7,13.57,4.43,18.21-.39,8-8.29,2.86-32.11-9.1-41.12-6.88-5.18-8.78-7.29-9.67-11.17-1.13-4.93,3.41-10.25,13.26-10.94,13.75-.96,23.65,14.62,24.64,16.23,9.93,16.11,9.62,39.18,6.85,56.34-3.57,22.1-13.8,37.22-30.6,46.08-12.34,6.51-29.54,6.19-41.09-3.63-23.26-19.76-15.2-70.8,3.61-80.99Z"/>
  <g class="cls-3">
    <path class="cls-7" d="m327.9,522.27c-7.88-8.22-26.78-27.94-25.79-53.1.89-22.58,16.93-27.4,20.74-50.52,5.09-30.85-20.46-40.45-28.46-80.06-7.12-35.22,3.82-73.5,24.88-100.02,15.49-19.5,49.44-49.01,80.12-41.23,23.83,6.04,21.66,28.48,49.84,38.8,30.46,11.15,63.45-3.91,77.36-10.27,29.93-13.67,28.1-25.22,50.11-31.62,30.28-8.79,72.78,1.71,90.11,29.29,15.45,24.58,11.08,63,3.48,85.95-4.27,12.9-10.41,23.49-6.04,36.2,4.03,11.73,12.64,12.53,24.63,26.61.99,1.17,17.38,20.84,20.5,45.24,0,0,3.12,24.37-13.25,53.01-42.72,74.74-297.05,125.99-368.24,51.72Z"/>
  </g>
  <path d="m608.04,318.62c0,22.88-14.9,41.43-33.28,41.43s-33.28-18.55-33.28-41.43c0-13.79,6.01-30.76,20.06-38.03,2.5-1.29,7.16-3.64,13.21-3.39,16.88.68,33.28,21.07,33.28,41.43Z"/>
  <path class="cls-2" d="m557.17,291.29c4.06-4.49,11.12-10.76,21.09-12.92,18.04-3.9,38.04,7.31,50.78,28.31"/>
  <path d="m365.25,318.62c0,22.88,14.9,41.43,33.28,41.43,18.38,0,33.28-18.55,33.28-41.43,0-13.79-6.01-30.76-20.06-38.03-2.5-1.29-7.16-3.64-13.21-3.39-16.88.68-33.28,21.07-33.28,41.43Z"/>
  <path class="cls-2" d="m416.12,291.29c-4.06-4.49-11.12-10.76-21.09-12.92-18.04-3.9-38.04,7.31-50.78,28.31"/>
  <path class="cls-4" d="m470.68,381.51c2.07,2.73,7.48,8.91,15.72,8.26,9.01-.71,15.92-9.16,18.31-12.36"/>
  <path class="cls-4" d="m380.32,427.74c18.57,11.2,56.64,18.71,107.6,19.31,58.28.69,101.33-11.64,120-23.65"/>
  <g>
    <ellipse class="cls-8" cx="363.42" cy="383.55" rx="27.5" ry="18.5"/>
    <ellipse class="cls-8" cx="623.42" cy="383.55" rx="27.5" ry="18.5"/>
  </g>
</svg>