<?xml version="1.0" encoding="UTF-8"?>
<svg id="Layer_1" data-name="Layer 1" xmlns="http://www.w3.org/2000/svg" xmlns:xlink="http://www.w3.org/1999/xlink" viewBox="0 0 1000 1000">
  <defs>
    <style>
      .cls-1, .cls-2, .cls-3, .cls-4, .cls-5, .cls-6, .cls-7, .cls-8, .cls-9 {
        fill: none;
      }

      .cls-2 {
        stroke-width: 12px;
      }

      .cls-2, .cls-3, .cls-10, .cls-8 {
        stroke: #000;
        stroke-miterlimit: 10;
      }

      .cls-2, .cls-3, .cls-8 {
        stroke-linecap: round;
      }

      .cls-3, .cls-10 {
        stroke-width: 3px;
      }

      .cls-4 {
        clip-path: url(#clippath-3);
      }

      .cls-5 {
        clip-path: url(#clippath-4);
      }

      .cls-6 {
        clip-path: url(#clippath-2);
      }

      .cls-7 {
        clip-path: url(#clippath-1);
      }

      .cls-11, .cls-10 {
        fill: #fff;
      }

      .cls-12 {
        fill: #ffb8ab;
      }

      .cls-13 {
        fill: #fbb6a9;
      }

      .cls-8 {
        stroke-width: 5px;
      }

      .cls-9 {
        clip-path: url(#clippath);
      }
    </style>
    <clipPath id="clippath">
      <path class="cls-1" d="m604.17,620.42c-1.74-1.76-13.13-13.58-16.15-22.66-3.25-9.75-.94-11.18-2.87-16.45-4.75-12.92-32.54-19.15-60.03-19.04-27.49-.11-55.29,6.12-60.03,19.04-1.94,5.27.37,6.7-2.87,16.45-3.02,9.08-14.41,20.9-16.15,22.66-16.37,16.59-57.94,94.71-30.25,172.33,14.19,39.77,70.97,49.91,109.3,49.18,38.34.73,95.12-9.41,109.3-49.18,27.69-77.62-13.87-155.74-30.25-172.33Z"/>
    </clipPath>
    <clipPath id="clippath-1">
      <path class="cls-1" d="m535.96,810.13c-3.63,29.98-8.64,47.64-4.67,90.51.22,2.39,5.1,18.88,22.42,23.31,41.56,10.62,91.92,26.49,108.53,2.11,6.03-8.85,7.97-23.11,3.59-32.51-5.51-11.82-19.92-21.85-30.52-25.39-13.68-4.57-22.72-1.36-38.01-3.78-10.44-1.65-10.37-5.1-10.22-8.42,1.01-21.8,6.18-26.05,3.63-41.99-2.32-14.5-52.61-21.61-54.76-3.84Z"/>
    </clipPath>
    <clipPath id="clippath-2">
      <path class="cls-1" d="m512.56,810.13c3.63,29.98,8.64,47.64,4.67,90.51-.22,2.39-5.1,18.88-22.42,23.31-41.56,10.62-91.92,26.49-108.53,2.11-6.03-8.85-7.97-23.11-3.59-32.51,5.51-11.82,19.92-21.85,30.52-25.39,13.68-4.57,22.72-1.36,38.01-3.78,10.44-1.65,10.37-5.1,10.22-8.42-1.01-21.8-6.18-26.05-3.63-41.99,2.32-14.5,52.61-21.61,54.76-3.84Z"/>
    </clipPath>
    <clipPath id="clippath-3">
      <path class="cls-1" d="m433.7,628.34c-41.44,29.06-70.55,76.25-74.65,83.01-26.97,44.45-27.97,59.62-23.85,70.9.71,1.95,5.87,8.58,13.26,9.36,5.61.6,11.97-4.47,21.27-22.36,19.25-37.02,14.78-42.39,31.52-68.46,7.11-11.08,16.68-23.95,25.6-31.08,19.01-15.19,31.91-13.73,36.49-26.41,2.95-8.17-.39-19.09-6.7-22.26-6.61-3.33-15.71,2.24-22.93,7.3Z"/>
    </clipPath>
    <clipPath id="clippath-4">
      <path class="cls-1" d="m620.52,632.06c41.44,29.06,70.55,76.25,74.65,83.01,26.97,44.45,27.97,59.62,23.85,70.9-.71,1.95-5.87,8.58-13.26,9.36-5.61.6-11.97-4.47-21.27-22.36-19.25-37.02-14.78-42.39-31.52-68.46-7.11-11.08-16.68-23.95-25.6-31.08-19.01-15.19-31.91-13.73-36.49-26.41-2.95-8.17.39-19.09,6.7-22.26,6.61-3.33,15.71,2.24,22.93,7.3Z"/>
    </clipPath>
  </defs>
  <g>
    <path class="cls-10" d="m621.42,629.68c41.81,29.68,71.06,77.69,75.18,84.57,27.09,45.23,28.04,60.62,23.81,72.04-.73,1.98-5.99,8.67-13.46,9.44-5.68.58-12.1-4.6-21.42-22.78-19.32-37.66-14.76-43.08-31.58-69.61-7.15-11.27-16.77-24.38-25.77-31.66-19.17-15.5-32.24-14.08-36.81-26.97-2.95-8.31.49-19.36,6.89-22.55,6.71-3.34,15.89,2.34,23.18,7.52Z"/>
    <path class="cls-10" d="m432.43,625.96c-41.81,29.68-71.06,77.69-75.18,84.57-27.09,45.23-28.04,60.62-23.81,72.04.73,1.98,5.99,8.67,13.46,9.44,5.68.58,12.1-4.6,21.42-22.78,19.32-37.66,14.76-43.08,31.58-69.61,7.15-11.27,16.77-24.38,25.77-31.66,19.17-15.5,32.24-14.08,36.81-26.97,2.95-8.31-.49-19.36-6.89-22.55-6.71-3.34-15.89,2.34-23.18,7.52Z"/>
    <g>
      <path class="cls-10" d="m514.09,807.13c3.7,31.11,8.81,49.42,4.76,93.9-.23,2.48-5.2,19.59-22.85,24.18-42.35,11.02-93.67,27.49-110.6,2.19-6.14-9.18-8.12-23.98-3.66-33.73,5.61-12.27,20.3-22.67,31.1-26.34,13.94-4.74,23.15-1.42,38.74-3.92,10.64-1.71,10.57-5.29,10.41-8.73-1.03-22.61-6.3-27.03-3.7-43.56,2.36-15.05,53.61-22.42,55.8-3.99Z"/>
      <path class="cls-10" d="m534.94,807.13c-3.7,31.11-8.81,49.42-4.76,93.9.23,2.48,5.2,19.59,22.85,24.18,42.35,11.02,93.67,27.49,110.6,2.19,6.14-9.18,8.12-23.98,3.66-33.73-5.61-12.27-20.3-22.67-31.1-26.34-13.94-4.74-23.15-1.42-38.74-3.92-10.64-1.71-10.57-5.29-10.41-8.73,1.03-22.61,6.3-27.03,3.7-43.56-2.36-15.05-53.61-22.42-55.8-3.99Z"/>
    </g>
    <g>
      <path class="cls-10" d="m605.8,622.04c-1.79-1.76-13.52-13.58-16.63-22.66-3.34-9.75-.97-11.18-2.96-16.45-4.89-12.92-33.51-19.15-61.82-19.04-28.31-.11-56.93,6.12-61.82,19.04-1.99,5.27.38,6.7-2.96,16.45-3.11,9.08-14.84,20.9-16.63,22.66-16.86,16.59-59.66,94.71-31.14,172.33,14.61,39.77,73.07,49.91,112.55,49.18,39.48.73,97.94-9.41,112.55-49.18,28.51-77.62-14.28-155.74-31.14-172.33Z"/>
      <g class="cls-9">
        <ellipse class="cls-13" cx="525.12" cy="746.95" rx="98.77" ry="120.76"/>
      </g>
    </g>
  </g>
  <path class="cls-10" d="m680.73,321.49c1.67-3.38,3.37-6.88,5.11-10.5,62.23-129.59,93.35-194.39,61.51-232.13-20.14-23.87-38.68-29.23-71.08-28.71-28.9.46-57.63,17.79-68.84,31.03-34.31,40.5-32.12,74.58-50.7,196.95-15.19-1.86-27.13-2.39-33.48-2.61-8.8-.29-22.35-.64-39.01,1.05-18.34-121.12-16.3-155.07-50.47-195.4-11.21-13.24-39.94-30.57-68.84-31.03-32.4-.52-50.94,4.84-71.08,28.71-31.84,37.74-.73,102.54,61.51,232.13,2.12,4.41,4.18,8.64,6.2,12.7-31.98,22.33-65.3,56.72-70.96,105.42-9.89,84.99,60.02,135.84,65.36,139.22,72.36,45.73,244.93,28.97,298.29,12.69,43.82-13.36,75.74-57.85,82.94-77.3,10.12-27.35,10.64-98.07-12.68-136.2-11.63-19.02-26.86-34.09-43.78-46.04Z"/>
  <path class="cls-13" d="m434.43,300.35c8.52-5.23,12.92-13.36,12.19-21.66-1.51-17.18-6.94-59.34-20.85-100.91-2.87-8.56-20.88-65.62-44.45-77.02-24.52-11.86-61.32-3.89-63.8,10.33-4.62,26.51,25.74,54.49,59.06,129.1,18.8,42.1,27.08,62.53,44.91,63.84,4.53.33,8.91-1.21,12.94-3.68Z"/>
  <path class="cls-13" d="m609.36,300.35c-8.52-5.23-12.92-13.36-12.19-21.66,1.51-17.18,6.94-59.34,20.85-100.91,2.87-8.56,20.88-65.62,44.45-77.02,24.52-11.86,61.32-3.89,63.8,10.33,4.62,26.51-25.74,54.49-59.06,129.1-18.8,42.1-27.08,62.53-44.91,63.84-4.53.33-8.91-1.21-12.94-3.68Z"/>
  <g>
    <ellipse class="cls-13" cx="395.23" cy="483.78" rx="25.54" ry="17.18"/>
    <ellipse class="cls-13" cx="636.7" cy="483.78" rx="25.54" ry="17.18"/>
  </g>
  <g>
    <path d="m633.35,418.06c0,21.25-13.84,38.47-30.9,38.47s-30.9-17.23-30.9-38.47c0-12.81,5.58-28.57,18.63-35.32,2.32-1.2,6.65-3.38,12.27-3.15,15.68.63,30.9,19.57,30.9,38.47Z"/>
    <path class="cls-2" d="m586.1,392.67c3.77-4.17,10.33-9.99,19.59-12,16.75-3.62,35.33,6.79,47.16,26.29"/>
    <path d="m407.87,418.06c0,21.25,13.84,38.47,30.9,38.47,17.07,0,30.9-17.23,30.9-38.47,0-12.81-5.58-28.57-18.63-35.32-2.32-1.2-6.65-3.38-12.27-3.15-15.68.63-30.9,19.57-30.9,38.47Z"/>
    <path class="cls-2" d="m455.11,392.67c-3.77-4.17-10.33-9.99-19.59-12-16.75-3.62-35.33,6.79-47.16,26.29"/>
  </g>
  <g>
    <path class="cls-8" d="m520.15,492.14c2.11,9.83-2.86,19.72-12.18,24.51-8.22,4.23-18.6,3.85-26.76-.93"/>
    <path class="cls-8" d="m521.05,492.14c-2.11,9.83,2.86,19.72,12.18,24.51,8.22,4.23,18.6,3.85,26.76-.93"/>
  </g>
  <g>
    <ellipse class="cls-11" cx="447.7" cy="401.13" rx="9.29" ry="11.61"/>
    <ellipse class="cls-11" cx="425.41" cy="439.67" rx="4.64" ry="6.5"/>
    <ellipse class="cls-11" cx="592.58" cy="401.13" rx="9.29" ry="11.61"/>
    <ellipse class="cls-11" cx="614.87" cy="439.67" rx="4.64" ry="6.5"/>
  </g>
  <g>
    <path class="cls-3" d="m660.08,402.56c1.18.4,3.17.89,5.49.64,1.98-.22,3.44-.9,4.34-1.44"/>
    <path class="cls-3" d="m657.83,397.98c1.21-.08,3.21-.39,5.41-1.55,1.87-.99,3.15-2.22,3.93-3.1"/>
  </g>
  <g>
    <path class="cls-3" d="m380.69,402.56c-1.18.4-3.17.89-5.49.64-1.98-.22-3.44-.9-4.34-1.44"/>
    <path class="cls-3" d="m382.93,397.98c-1.21-.08-3.21-.39-5.41-1.55-1.87-.99-3.15-2.22-3.93-3.1"/>
  </g>
  <path class="cls-12" d="m525.24,490.51l19.71-23.02c3.42-4,.58-10.18-4.68-10.18h-39.41c-5.27,0-8.11,6.18-4.68,10.18l19.71,23.02c2.46,2.88,6.91,2.88,9.37,0Z"/>
  <g class="cls-7">
    <ellipse class="cls-13" cx="669.66" cy="878.87" rx="45.91" ry="53.26" transform="translate(-419.82 694.76) rotate(-43.1)"/>
  </g>
  <g class="cls-6">
    <ellipse class="cls-13" cx="384.32" cy="876.62" rx="53.26" ry="45.91" transform="translate(-518.33 558.22) rotate(-46.9)"/>
  </g>
  <g class="cls-4">
    <circle class="cls-13" cx="328.36" cy="763.33" r="28.33"/>
  </g>
  <g class="cls-5">
    <circle class="cls-13" cx="725.85" cy="767.04" r="28.33"/>
  </g>
</svg>