<?xml version="1.0" encoding="UTF-8"?>
<svg id="Layer_1" data-name="Layer 1" xmlns="http://www.w3.org/2000/svg" xmlns:xlink="http://www.w3.org/1999/xlink" viewBox="0 0 1000 1000">
  <defs>
    <style>
      .cls-1, .cls-2, .cls-3, .cls-4, .cls-5, .cls-6, .cls-7, .cls-8, .cls-9 {
        fill: none;
      }

      .cls-2 {
        stroke-width: 12px;
      }

      .cls-2, .cls-3, .cls-10, .cls-8 {
        stroke: #000;
        stroke-miterlimit: 10;
      }

      .cls-2, .cls-3, .cls-8 {
        stroke-linecap: round;
      }

      .cls-3, .cls-10 {
        stroke-width: 3px;
      }

      .cls-4 {
        clip-path: url(#clippath-3);
      }

      .cls-5 {
        clip-path: url(#clippath-4);
      }

      .cls-6 {
        clip-path: url(#clippath-2);
      }

      .cls-7 {
        clip-path: url(#clippath-1);
      }

      .cls-11 {
        fill: #ffb8ab;
      }

      .cls-12 {
        fill: #fbb6a9;
      }

      .cls-10 {
        fill: #fff;
      }

      .cls-8 {
        stroke-width: 5px;
      }

      .cls-9 {
        clip-path: url(#clippath);
      }
    </style>
    <clipPath id="clippath">
      <path class="cls-1" d="m410.52,641.25c-46.61,4.96-95.66-10.24-102.64-12.46-45.89-14.6-55.83-24.57-59.81-34.95-.69-1.8-1.12-9.56,3.55-14.61,3.55-3.83,11.08-4.17,28.46,2.65,35.98,14.11,36.13,20.58,63.69,28.58,11.71,3.4,26.23,6.56,36.79,6.1,22.51-.98,30.63-9.86,41.54-3.79,7.03,3.91,11.35,13.56,8.88,19.61-2.59,6.35-12.33,8.01-20.45,8.87Z"/>
    </clipPath>
    <clipPath id="clippath-1">
      <path class="cls-1" d="m561.86,641.25c46.61,4.96,95.66-10.24,102.64-12.46,45.89-14.6,55.83-24.57,59.81-34.95.69-1.8,1.12-9.56-3.55-14.61-3.55-3.83-11.08-4.17-28.46,2.65-35.98,14.11-36.13,20.58-63.69,28.58-11.71,3.4-26.23,6.56-36.79,6.1-22.51-.98-30.63-9.86-41.54-3.79-7.03,3.91-11.35,13.56-8.88,19.61,2.59,6.35,12.33,8.01,20.45,8.87Z"/>
    </clipPath>
    <clipPath id="clippath-2">
      <path class="cls-1" d="m561.86,617.32c-1.61-1.63-12.16-12.57-14.96-20.98-3.01-9.03-.87-10.35-2.66-15.23-4.4-11.97-30.14-17.73-55.6-17.63-25.46-.1-51.2,5.67-55.6,17.63-1.79,4.88.35,6.2-2.66,15.23-2.8,8.41-13.35,19.35-14.96,20.98-15.16,15.36-53.66,87.72-28.01,159.6,13.14,36.83,65.72,46.22,101.23,45.55,35.51.67,88.09-8.71,101.23-45.55,25.65-71.88-12.85-144.24-28.01-159.6Z"/>
    </clipPath>
    <clipPath id="clippath-3">
      <path class="cls-1" d="m505.63,813.44c14.81,23.73,21.47,39.37,49.26,67.96,1.55,1.59,14.66,10.65,29.72,3.77,36.13-16.51,81.67-34.34,79.47-61.57-.8-9.88-7.69-21.29-16.32-25.53-10.84-5.32-27.07-4.17-36.76-.56-12.52,4.66-17.17,12.23-29.6,19.37-8.49,4.88-10.44,2.35-12.26-.13-11.94-16.3-10.69-22.37-21.79-32.38-10.1-9.11-50.49,15-41.71,29.07Z"/>
    </clipPath>
    <clipPath id="clippath-4">
      <path class="cls-1" d="m477.07,790.22c9.5,26.31,17.69,41.2,23,80.72.3,2.2-.69,18.1-15.4,25.69-35.31,18.21-77.47,42.99-97.52,24.43-7.28-6.73-11.99-19.21-9.99-28.6,2.52-11.81,13.45-23.86,22.27-29.25,11.4-6.96,20.22-5.95,33.52-11.3,9.08-3.66,8.3-6.75,7.48-9.72-5.44-19.46-10.98-22.23-11.99-37.15-.92-13.57,43-30.43,48.63-14.83Z"/>
    </clipPath>
  </defs>
  <g>
    <path class="cls-10" d="m411.08,643.68c-47.25,4.75-96.89-10.95-103.96-13.24-46.44-15.07-56.48-25.23-60.48-35.78-.69-1.83-1.1-9.7,3.65-14.78,3.61-3.86,11.24-4.16,28.83,2.85,36.41,14.51,36.53,21.07,64.43,29.34,11.85,3.51,26.55,6.8,37.26,6.4,22.81-.86,31.07-9.81,42.11-3.6,7.11,4,11.45,13.81,8.92,19.93-2.65,6.42-12.52,8.04-20.75,8.87Z"/>
    <g class="cls-9">
      <circle class="cls-12" cx="254.81" cy="611.2" r="26.23"/>
    </g>
  </g>
  <g>
    <path class="cls-10" d="m561.29,643.68c47.25,4.75,96.89-10.95,103.96-13.24,46.44-15.07,56.48-25.23,60.48-35.78.69-1.83,1.1-9.7-3.65-14.78-3.61-3.86-11.24-4.16-28.83,2.85-36.41,14.51-36.53,21.07-64.43,29.34-11.85,3.51-26.55,6.8-37.26,6.4-22.81-.86-31.07-9.81-42.11-3.6-7.11,4-11.45,13.81-8.92,19.93,2.65,6.42,12.52,8.04,20.75,8.87Z"/>
    <g class="cls-7">
      <circle class="cls-12" cx="717.56" cy="611.2" r="26.23"/>
    </g>
  </g>
  <path class="cls-10" d="m471.6,784.05c11.23,26.75,20.44,41.76,28.17,82.39.43,2.26.36,18.77-14.18,27.36-34.9,20.6-76.4,48.35-97.91,30.14-7.81-6.61-13.34-19.28-11.85-29.1,1.87-12.35,12.3-25.36,20.98-31.38,11.21-7.77,20.25-7.16,33.49-13.37,9.04-4.24,8.06-7.4,7.04-10.43-6.68-19.87-12.5-22.46-14.4-37.84-1.73-14,42.02-33.63,48.67-17.77Z"/>
  <path class="cls-10" d="m503.22,809.35c14.96,24.86,21.62,41.16,49.84,71.4,1.57,1.68,14.93,11.38,30.45,4.72,37.24-15.99,84.14-33.09,82.16-61.2-.72-10.2-7.68-22.15-16.48-26.75-11.07-5.79-27.73-5.05-37.71-1.61-12.89,4.45-17.74,12.11-30.57,19.13-8.76,4.79-10.74,2.13-12.58-.48-12.08-17.13-10.74-23.35-22.03-33.97-10.27-9.67-51.95,14.04-43.09,28.77Z"/>
  <g>
    <path class="cls-10" d="m563.37,618.83c-1.66-1.63-12.52-12.57-15.4-20.98-3.1-9.03-.89-10.35-2.74-15.23-4.53-11.97-31.04-17.73-57.25-17.63-26.21-.1-52.72,5.67-57.25,17.63-1.85,4.88.36,6.2-2.74,15.23-2.88,8.41-13.75,19.35-15.4,20.98-15.61,15.36-55.25,87.72-28.84,159.6,13.53,36.83,67.68,46.22,104.24,45.55,36.56.67,90.71-8.71,104.24-45.55,26.41-71.88-13.23-144.24-28.84-159.6Z"/>
    <g class="cls-6">
      <ellipse class="cls-12" cx="488.64" cy="734.51" rx="91.47" ry="111.84"/>
    </g>
  </g>
  <path class="cls-10" d="m659.81,361.88c1.84-2.97,3.73-6.03,5.66-9.21,69.1-113.81,103.65-170.71,77.72-208.38-16.4-23.83-33.01-30.44-62.91-32.9-26.68-2.19-54.73,11.18-66.26,22.36-35.29,34.22-36.36,65.83-64.58,176.94-13.83-3.09-24.79-4.67-30.62-5.43-8.09-1.07-20.54-2.62-36.05-2.57-5.93-113.3-.98-144.41-28.81-184.67-9.14-13.22-34.05-31.8-60.64-34.84-29.81-3.41-47.39-.16-68.12,20.02-32.77,31.9-9.96,94.44,35.66,219.53,1.55,4.26,3.07,8.34,4.56,12.27-31.5,17.69-65.32,46.37-74.96,90.73-16.81,77.44,43.01,130.65,47.63,134.24,62.55,48.7,223.13,48.89,273.79,38.72,41.6-8.35,75.05-46.46,83.45-63.73,11.8-24.29,18.69-89.43.66-126.69-9-18.59-21.67-33.85-36.18-46.4Z"/>
  <path class="cls-12" d="m434.71,320.07c8.33-4.04,13.12-11.14,13.2-18.86.16-15.97-1.02-55.32-10.08-94.9-1.86-8.15-13.3-62.37-34-75.02-21.52-13.16-56.16-9.14-59.74,3.75-6.66,24.02,18.79,52.56,42.74,124.34,13.51,40.5,19.3,60.09,35.61,62.91,4.15.72,8.33-.31,12.26-2.22Z"/>
  <path class="cls-12" d="m595.94,335.92c-7.38-5.59-10.7-13.48-9.27-21.07,2.95-15.7,11.78-54.06,28.36-91.12,3.42-7.63,25.19-58.59,47.95-66.96,23.67-8.71,56.87,1.97,57.87,15.31,1.86,24.85-28.67,47.89-66.13,113.64-21.14,37.1-30.63,55.18-47.18,54.77-4.21-.1-8.11-1.92-11.6-4.57Z"/>
  <g>
    <ellipse class="cls-12" cx="381.96" cy="485.59" rx="15.91" ry="23.65" transform="translate(-138.67 818.22) rotate(-84.39)"/>
    <ellipse class="cls-12" cx="604.52" cy="507.47" rx="15.91" ry="23.65" transform="translate(40.34 1059.45) rotate(-84.39)"/>
  </g>
  <g>
    <path class="cls-8" d="m496.34,504.62c1.05,9.25-4.42,17.92-13.44,21.49-7.96,3.15-17.49,1.87-24.58-3.28"/>
    <path class="cls-8" d="m497.16,504.7c-2.83,8.87.85,18.43,9,23.69,7.19,4.64,16.79,5.24,24.75,1.57"/>
  </g>
  <g>
    <path class="cls-2" d="m564.96,430.89c3.85-3.5,10.43-8.28,19.14-9.28,15.77-1.82,31.95,9.46,41.08,28.5"/>
    <path class="cls-2" d="m444.22,419.03c-3.1-4.19-8.62-10.15-16.97-12.83-15.11-4.86-33.18,3.06-45.85,19.96"/>
    <g>
      <path class="cls-3" d="m632.25,446.71c1.05.47,2.84,1.11,5,1.08,1.84-.02,3.25-.52,4.13-.93"/>
      <path class="cls-3" d="m630.6,442.28c1.12.03,3-.07,5.12-.94,1.81-.74,3.11-1.76,3.9-2.5"/>
    </g>
    <g>
      <path class="cls-3" d="m374.74,421.4c-1.12.26-3,.54-5.12.09-1.8-.38-3.09-1.14-3.87-1.72"/>
      <path class="cls-3" d="m377.22,417.38c-1.11-.19-2.93-.65-4.84-1.92-1.63-1.08-2.71-2.34-3.34-3.21"/>
    </g>
  </g>
  <path class="cls-11" d="m501.57,503.21l19.15-18.38c3.8-3.65,1.57-10.07-3.67-10.59l-34.36-3.38c-5.24-.52-8.67,5.35-5.66,9.67l15.21,21.76c2.17,3.1,6.59,3.54,9.32.92Z"/>
  <g class="cls-4">
    <ellipse class="cls-12" cx="641.99" cy="785.26" rx="42.52" ry="49.33" transform="translate(-225.1 1311.52) rotate(-81.99)"/>
  </g>
  <g class="cls-5">
    <ellipse class="cls-12" cx="375.13" cy="876.85" rx="49.33" ry="42.52" transform="translate(-571.51 760.78) rotate(-59.85)"/>
  </g>
  <g>
    <path class="cls-3" d="m741.59,618.31c1.06-1.01,7.58-7.37,9.47-17.73,1.62-8.88-1.24-14.77-1.96-16.15"/>
    <path class="cls-3" d="m735.03,616.42c1.01-1.09,7.2-7.98,8.52-18.41,1.13-8.94-2.07-14.5-2.88-15.8"/>
  </g>
  <g>
    <path class="cls-3" d="m232.35,618.31c-1.06-1.01-7.58-7.37-9.47-17.73-1.62-8.88,1.24-14.77,1.96-16.15"/>
    <path class="cls-3" d="m238.91,616.42c-1.01-1.09-7.2-7.98-8.52-18.41-1.13-8.94,2.07-14.5,2.88-15.8"/>
  </g>
  <g>
    <path class="cls-3" d="m677.97,794.25c-.36-1.42-2.7-10.22-10.81-16.95-6.95-5.77-13.48-6.16-15.03-6.21"/>
    <path class="cls-3" d="m673.11,799.04c-.46-1.42-3.43-10.19-11.87-16.46-7.24-5.37-13.66-5.3-15.18-5.24"/>
  </g>
  <g>
    <path class="cls-3" d="m368.81,941.18c-1.34-.59-9.63-4.36-14.93-13.46-4.54-7.81-3.85-14.31-3.63-15.85"/>
    <path class="cls-3" d="m374.34,937.18c-1.32-.69-9.49-5.06-14.27-14.43-4.1-8.03-2.97-14.34-2.66-15.84"/>
  </g>
</svg>