<?xml version="1.0" encoding="UTF-8"?>
<svg id="Layer_1" data-name="Layer 1" xmlns="http://www.w3.org/2000/svg" xmlns:xlink="http://www.w3.org/1999/xlink" viewBox="0 0 1000 1000">
  <defs>
    <style>
      .cls-1, .cls-2, .cls-3, .cls-4, .cls-5, .cls-6, .cls-7, .cls-8, .cls-9 {
        fill: none;
      }

      .cls-2 {
        stroke-width: 12px;
      }

      .cls-2, .cls-3, .cls-10, .cls-8 {
        stroke: #000;
        stroke-miterlimit: 10;
      }

      .cls-2, .cls-3, .cls-8 {
        stroke-linecap: round;
      }

      .cls-3, .cls-10 {
        stroke-width: 3px;
      }

      .cls-4 {
        clip-path: url(#clippath-3);
      }

      .cls-5 {
        clip-path: url(#clippath-4);
      }

      .cls-6 {
        clip-path: url(#clippath-2);
      }

      .cls-7 {
        clip-path: url(#clippath-1);
      }

      .cls-11, .cls-10 {
        fill: #fff;
      }

      .cls-12 {
        fill: #ffb8ab;
      }

      .cls-13 {
        fill: #fbb6a9;
      }

      .cls-8 {
        stroke-width: 5px;
      }

      .cls-9 {
        clip-path: url(#clippath);
      }
    </style>
    <clipPath id="clippath">
      <path class="cls-1" d="m529.42,793.48c11.14,25.53,15.42,41.9,38.64,74.11,1.29,1.79,12.89,12.62,28.72,8.03,37.99-11.01,85.44-21.96,87.23-49.1.65-9.85-4.48-22.09-12.36-27.52-9.91-6.82-26.06-8.04-36.13-5.89-13.01,2.77-18.69,9.55-31.98,14.78-9.07,3.58-10.63.8-12.06-1.91-9.39-17.79-7.28-23.59-16.76-35.07-8.63-10.44-51.92,7.44-45.31,22.57Z"/>
    </clipPath>
    <clipPath id="clippath-1">
      <path class="cls-1" d="m439.61,616.43c-46.41,4.94-95.25-10.2-102.2-12.41-45.69-14.54-55.59-24.46-59.56-34.8-.69-1.79-1.12-9.52,3.53-14.54,3.53-3.81,11.03-4.15,28.33,2.64,35.83,14.05,35.97,20.49,63.41,28.46,11.66,3.38,26.11,6.53,36.63,6.07,22.42-.98,30.5-9.81,41.37-3.78,7,3.89,11.3,13.5,8.84,19.53-2.58,6.32-12.27,7.97-20.36,8.83Z"/>
    </clipPath>
    <clipPath id="clippath-2">
      <path class="cls-1" d="m585.13,592.6c-1.6-1.62-12.11-12.52-14.89-20.89-2.99-8.99-.86-10.31-2.65-15.17-4.38-11.91-30.01-17.66-55.36-17.56-25.35-.1-50.98,5.64-55.36,17.56-1.79,4.86.34,6.18-2.65,15.17-2.79,8.37-13.29,19.27-14.89,20.89-15.1,15.29-53.43,87.34-27.89,158.92,13.09,36.68,65.44,46.02,100.8,45.35,35.36.67,87.71-8.67,100.8-45.35,25.54-71.58-12.79-143.62-27.89-158.92Z"/>
    </clipPath>
    <clipPath id="clippath-3">
      <path class="cls-1" d="m500.64,767.55c3.35,27.65,7.97,43.93,4.3,83.46-.2,2.2-4.71,17.41-20.68,21.5-38.32,9.79-84.77,24.43-100.08,1.95-5.56-8.16-7.35-21.31-3.31-29.98,5.08-10.9,18.37-20.15,28.14-23.41,12.62-4.21,20.95-1.26,35.05-3.49,9.63-1.52,9.57-4.7,9.42-7.76-.94-20.1-5.7-24.03-3.35-38.72,2.14-13.38,48.51-19.93,50.5-3.54Z"/>
    </clipPath>
    <clipPath id="clippath-4">
      <path class="cls-1" d="m600.2,603.34c38.22,26.8,65.06,70.31,68.84,76.55,24.87,40.99,25.8,54.98,21.99,65.38-.66,1.8-5.42,7.91-12.22,8.64-5.17.55-11.04-4.13-19.61-20.62-17.76-34.14-13.63-39.09-29.07-63.13-6.56-10.21-15.38-22.09-23.61-28.66-17.53-14-29.43-12.66-33.65-24.35-2.72-7.54.36-17.6,6.18-20.53,6.1-3.07,14.49,2.06,21.15,6.73Z"/>
    </clipPath>
  </defs>
  <path class="cls-10" d="m601.03,601.15c38.56,27.37,65.53,71.65,69.33,77.99,24.98,41.71,25.85,55.91,21.95,66.44-.68,1.82-5.52,8-12.42,8.7-5.24.54-11.15-4.24-19.76-21.01-17.81-34.73-13.61-39.73-29.13-64.19-6.59-10.39-15.46-22.49-23.76-29.19-17.68-14.29-29.73-12.98-33.95-24.87-2.72-7.66.45-17.85,6.35-20.8,6.19-3.08,14.66,2.16,21.38,6.93Z"/>
  <g>
    <path class="cls-10" d="m527.21,791.58c11.61,26.45,16.12,43.4,40.15,76.84,1.34,1.86,13.3,13.14,29.47,8.53,38.81-11.06,87.3-21.99,88.91-50,.59-10.17-4.77-22.85-12.88-28.52-10.2-7.12-26.74-8.51-37.03-6.38-13.3,2.76-19.06,9.71-32.62,15.01-9.26,3.62-10.87.74-12.36-2.07-9.76-18.45-7.64-24.42-17.44-36.35-8.92-10.85-53.09,7.26-46.21,22.94Z"/>
    <g class="cls-9">
      <ellipse class="cls-13" cx="667.83" cy="785.55" rx="42.34" ry="49.12" transform="translate(-274.38 1204.28) rotate(-73.59)"/>
    </g>
  </g>
  <g>
    <path class="cls-10" d="m440.17,618.85c-47.05,4.73-96.48-10.9-103.51-13.18-46.24-15-56.24-25.12-60.22-35.62-.69-1.82-1.1-9.66,3.63-14.72,3.59-3.85,11.19-4.14,28.7,2.84,36.25,14.45,36.38,20.98,64.15,29.22,11.8,3.5,26.44,6.77,37.1,6.37,22.72-.86,30.94-9.77,41.93-3.59,7.08,3.98,11.4,13.75,8.89,19.85-2.64,6.39-12.46,8.01-20.66,8.83Z"/>
    <g class="cls-7">
      <circle class="cls-13" cx="284.57" cy="586.51" r="26.12"/>
    </g>
  </g>
  <path class="cls-10" d="m502.06,764.79c3.41,28.69,8.12,45.58,4.39,86.59-.21,2.29-4.8,18.07-21.07,22.3-39.05,10.16-86.38,25.35-101.99,2.02-5.66-8.46-7.49-22.11-3.37-31.11,5.17-11.31,18.72-20.9,28.68-24.29,12.86-4.37,21.35-1.3,35.72-3.62,9.82-1.58,9.75-4.88,9.6-8.05-.95-20.85-5.81-24.93-3.41-40.17,2.18-13.88,49.44-20.68,51.46-3.68Z"/>
  <g>
    <path class="cls-10" d="m586.63,594.1c-1.65-1.62-12.47-12.52-15.34-20.89-3.08-8.99-.89-10.31-2.73-15.17-4.51-11.91-30.9-17.66-57.01-17.56-26.1-.1-52.5,5.64-57.01,17.56-1.84,4.86.35,6.18-2.73,15.17-2.87,8.37-13.69,19.27-15.34,20.89-15.55,15.29-55.02,87.34-28.72,158.92,13.47,36.68,67.39,46.02,103.79,45.35,36.4.67,90.32-8.67,103.79-45.35,26.3-71.58-13.17-143.62-28.72-158.92Z"/>
    <g class="cls-6">
      <ellipse class="cls-13" cx="512.23" cy="709.29" rx="91.08" ry="111.36"/>
    </g>
  </g>
  <g>
    <path class="cls-10" d="m630.93,296.94c1.1-3.3,2.22-6.7,3.35-10.23,40.65-126.19,60.98-189.28,27.16-219.78-21.39-19.29-39-21.86-68.53-17.34-26.34,4.03-50.42,23.46-59.01,36.96-26.28,41.29-20.02,72.16-21.69,186.29-14.11.2-25.09,1.21-30.91,1.81-8.08.83-20.5,2.21-35.51,5.84-31.9-108.37-34.29-139.64-70.55-172.21-11.9-10.69-40.32-22.93-66.78-19.74-29.66,3.58-45.94,10.79-61.35,35.12-24.37,38.47,12.16,93.78,85.23,204.39,2.49,3.77,4.9,7.37,7.25,10.83-26.42,24.41-52.56,59.99-51.65,105.19,1.59,78.89,71.83,116.61,77.13,119.02,71.83,32.73,227.4-4.17,274.12-25.71,38.36-17.69,61.97-62.33,66.11-81,5.82-26.25-2.55-90.93-28.62-122.86-13.01-15.93-28.81-27.78-45.76-36.59Z"/>
    <path class="cls-13" d="m403.24,308.43c7.13-5.84,10.14-13.82,8.43-21.31-3.53-15.51-13.77-53.34-31.67-89.59-3.69-7.47-27.29-57.34-50.25-64.81-23.88-7.77-56.51,4.11-57,17.42-.91,24.8,30.34,46.56,70.11,110.56,22.44,36.11,32.57,53.75,49.02,52.71,4.18-.26,7.99-2.22,11.37-4.98Z"/>
    <path class="cls-13" d="m563.07,286.55c-8.44-3.71-13.48-10.59-13.85-18.26-.77-15.89-1.08-55.08,6.43-94.8,1.55-8.18,10.87-62.56,30.98-75.93,20.92-13.91,55.54-11.23,59.58,1.46,7.54,23.64-16.71,53-37.81,125.34-11.91,40.81-16.92,60.52-33.05,63.94-4.1.87-8.3,0-12.29-1.75Z"/>
    <g>
      <ellipse class="cls-13" cx="390.37" cy="480.92" rx="23.55" ry="15.84" transform="translate(-61.62 57.39) rotate(-7.8)"/>
      <ellipse class="cls-13" cx="610.99" cy="450.72" rx="23.55" ry="15.84" transform="translate(-55.49 87.03) rotate(-7.8)"/>
    </g>
    <g>
      <path d="m599.71,391.09c2.66,19.41-7.83,36.88-23.42,39.02-15.59,2.13-30.39-11.87-33.05-31.29-1.6-11.7,1.53-26.8,12.61-34.6,1.97-1.39,5.65-3.92,10.82-4.41,14.4-1.38,30.68,14.02,33.05,31.29Z"/>
      <path class="cls-2" d="m553.37,373.8c2.92-4.28,8.19-10.42,16.39-13.41,14.85-5.41,33.13,1.79,46.37,18.12"/>
      <path d="m393.7,419.29c2.66,19.41,17.45,33.42,33.05,31.29,15.59-2.13,26.08-19.6,23.42-39.02-1.6-11.7-8.68-25.4-21.44-29.94-2.27-.81-6.5-2.26-11.6-1.35-14.25,2.54-25.79,21.75-23.42,39.02Z"/>
      <path class="cls-2" d="m433.68,390.19c-3.97-3.34-10.69-7.84-19.4-8.51-15.76-1.21-31.43,10.62-39.8,29.92"/>
    </g>
    <g>
      <path class="cls-8" d="m505.55,472.94c3.16,8.72-.15,18.37-8.06,23.92-6.98,4.89-16.51,5.85-24.56,2.5"/>
      <path class="cls-8" d="m506.37,472.82c-.7,9.25,5.08,17.66,14.19,20.87,8.04,2.83,17.47,1.19,24.33-4.19"/>
    </g>
    <g>
      <ellipse class="cls-11" cx="427.98" cy="398.84" rx="8.56" ry="10.71" transform="translate(-50.14 61.73) rotate(-7.8)"/>
      <ellipse class="cls-11" cx="412.43" cy="436.84" rx="4.28" ry="6" transform="translate(-55.44 59.97) rotate(-7.8)"/>
      <ellipse class="cls-11" cx="560.35" cy="380.72" rx="8.56" ry="10.71" transform="translate(-46.46 79.52) rotate(-7.8)"/>
      <ellipse class="cls-11" cx="585.53" cy="413.15" rx="4.28" ry="6" transform="translate(-50.62 83.23) rotate(-7.8)"/>
    </g>
    <g>
      <path class="cls-3" d="m622.19,373.59c1.13.21,3.01.42,5.09-.1,1.78-.45,3.03-1.25,3.79-1.86"/>
      <path class="cls-3" d="m619.57,369.68c1.09-.23,2.89-.76,4.75-2.09,1.58-1.14,2.6-2.43,3.21-3.32"/>
    </g>
    <g>
      <path class="cls-3" d="m366.93,408.53c-1.03.51-2.78,1.21-4.93,1.27-1.83.05-3.25-.39-4.15-.77"/>
      <path class="cls-3" d="m368.41,404.07c-1.12.07-2.99.05-5.13-.74-1.83-.67-3.16-1.64-3.98-2.34"/>
    </g>
    <path class="cls-12" d="m510.31,470.34l14.26-22.15c2.85-4.43-.8-10.16-6.02-9.45l-33.94,4.65c-5.22.71-7.2,7.22-3.26,10.72l19.69,17.51c2.83,2.52,7.23,1.91,9.28-1.27Z"/>
  </g>
  <g class="cls-4">
    <ellipse class="cls-13" cx="382.39" cy="828.86" rx="49.12" ry="42.34" transform="translate(-484.08 541.69) rotate(-46.9)"/>
  </g>
  <g class="cls-5">
    <circle class="cls-13" cx="697.34" cy="727.82" r="26.12"/>
  </g>
  <path class="cls-3" d="m262.43,587.69c-.09,1.36-.55,9.81,5.11,16.59,4.85,5.81,10.93,6.51,12.4,6.64"/>
  <path class="cls-3" d="m268.5,583.4c0,1.36.15,9.82,6.26,16.18,5.24,5.45,11.37,5.71,12.84,5.73"/>
  <path class="cls-3" d="m322.35,545.54c-.46-1.29-3.4-9.22-11.28-13.2-6.76-3.41-12.62-1.64-14.02-1.16"/>
  <path class="cls-3" d="m318.47,551.89c-.55-1.25-4.04-8.96-12.18-12.36-6.98-2.92-12.7-.73-14.06-.16"/>
</svg>