<?xml version="1.0" encoding="UTF-8"?>
<svg id="Layer_1" data-name="Layer 1" xmlns="http://www.w3.org/2000/svg" xmlns:xlink="http://www.w3.org/1999/xlink" viewBox="0 0 1000 1000">
  <defs>
    <style>
      .cls-1, .cls-2, .cls-3, .cls-4, .cls-5, .cls-6, .cls-7, .cls-8, .cls-9 {
        fill: none;
      }

      .cls-2 {
        stroke-width: 12px;
      }

      .cls-2, .cls-3 {
        stroke-linecap: round;
      }

      .cls-2, .cls-3, .cls-10, .cls-8 {
        stroke: #000;
        stroke-miterlimit: 10;
      }

      .cls-3, .cls-10 {
        stroke-width: 3px;
      }

      .cls-4 {
        clip-path: url(#clippath-3);
      }

      .cls-5 {
        clip-path: url(#clippath-4);
      }

      .cls-6 {
        clip-path: url(#clippath-2);
      }

      .cls-7 {
        clip-path: url(#clippath-1);
      }

      .cls-11, .cls-10 {
        fill: #fff;
      }

      .cls-12 {
        fill: #ffb8ab;
      }

      .cls-13 {
        fill: #fbb6a9;
      }

      .cls-8 {
        stroke-width: 9px;
      }

      .cls-9 {
        clip-path: url(#clippath);
      }
    </style>
    <clipPath id="clippath">
      <path class="cls-1" d="m438.57,642.84c-50.27,5.35-103.17-11.05-110.7-13.44-49.49-15.74-60.21-26.5-64.51-37.69-.74-1.94-1.21-10.31,3.83-15.75,3.83-4.13,11.95-4.49,30.69,2.86,38.81,15.22,38.96,22.2,68.68,30.82,12.63,3.66,28.28,7.07,39.68,6.58,24.28-1.06,33.03-10.63,44.8-4.09,7.59,4.21,12.24,14.62,9.57,21.15-2.79,6.85-13.29,8.63-22.05,9.57Z"/>
    </clipPath>
    <clipPath id="clippath-1">
      <path class="cls-1" d="m595.89,622.18c-1.74-1.76-13.11-13.56-16.13-22.63-3.24-9.74-.94-11.17-2.87-16.43-4.74-12.91-32.51-19.12-59.96-19.02-27.46-.11-55.22,6.11-59.96,19.02-1.93,5.26.37,6.69-2.87,16.43-3.02,9.07-14.4,20.87-16.13,22.63-16.35,16.57-57.87,94.6-30.21,172.12,14.17,39.73,70.88,49.85,109.18,49.12,38.29.73,95-9.4,109.18-49.12,27.66-77.53-13.86-155.56-30.21-172.12Z"/>
    </clipPath>
    <clipPath id="clippath-2">
      <path class="cls-1" d="m527.76,811.67c-3.63,29.95-8.63,47.58-4.66,90.4.22,2.39,5.1,18.86,22.4,23.28,41.51,10.61,91.81,26.46,108.4,2.11,6.02-8.84,7.96-23.09,3.58-32.48-5.5-11.81-19.9-21.82-30.48-25.36-13.67-4.56-22.69-1.36-37.97-3.78-10.43-1.65-10.36-5.09-10.21-8.41,1.01-21.77,6.17-26.02,3.63-41.94-2.31-14.49-52.54-21.59-54.69-3.84Z"/>
    </clipPath>
    <clipPath id="clippath-3">
      <path class="cls-1" d="m504.38,811.67c3.63,29.95,8.63,47.58,4.66,90.4-.22,2.39-5.1,18.86-22.4,23.28-41.51,10.61-91.81,26.46-108.4,2.11-6.02-8.84-7.96-23.09-3.58-32.48,5.5-11.81,19.9-21.82,30.48-25.36,13.67-4.56,22.69-1.36,37.97-3.78,10.43-1.65,10.36-5.09,10.21-8.41-1.01-21.77-6.17-26.02-3.63-41.94,2.31-14.49,52.54-21.59,54.69-3.84Z"/>
    </clipPath>
    <clipPath id="clippath-4">
      <path class="cls-1" d="m683.21,755.01c-13.09,19.84-33.16,30.61-53.34,35.11-32.82,7.34-65.94-1.86-69.88-15.43-12.14-41.9,63.34-34.18,76.12-57.64,1.06-1.95,1.69-4.12,1.8-6.54.94-21.22-6.78-36.77-17.24-48.62-7.95-18.25-16.93-31.61-22.75-37.39-1.52-1.52-10.44-10.59-14.71-18.83,2.11-.72,4.43-1.06,6.8-.9,10.54.71,50.57,28.32,69.62,43.91,53.63,43.88,38.09,84.33,23.58,106.33Z"/>
    </clipPath>
  </defs>
  <g>
    <path class="cls-10" d="m505.92,808.68c3.7,31.07,8.8,49.36,4.75,93.79-.23,2.48-5.19,19.57-22.82,24.15-42.3,11-93.56,27.45-110.47,2.19-6.13-9.17-8.11-23.95-3.65-33.69,5.6-12.25,20.28-22.64,31.06-26.3,13.93-4.73,23.13-1.41,38.69-3.92,10.63-1.71,10.56-5.28,10.4-8.72-1.03-22.59-6.29-27-3.7-43.51,2.36-15.03,53.55-22.4,55.74-3.98Z"/>
    <path class="cls-10" d="m526.74,808.68c-3.7,31.07-8.8,49.36-4.75,93.79.23,2.48,5.19,19.57,22.82,24.15,42.3,11,93.56,27.45,110.47,2.19,6.13-9.17,8.11-23.95,3.65-33.69-5.6-12.25-20.28-22.64-31.06-26.3-13.93-4.73-23.13-1.41-38.69-3.92-10.63-1.71-10.56-5.28-10.4-8.72,1.03-22.59,6.29-27,3.7-43.51-2.36-15.03-53.55-22.4-55.74-3.98Z"/>
  </g>
  <g>
    <path class="cls-10" d="m439.18,645.46c-50.96,5.12-104.5-11.8-112.12-14.28-50.09-16.25-60.91-27.21-65.23-38.58-.75-1.97-1.19-10.46,3.93-15.94,3.89-4.17,12.12-4.48,31.09,3.08,39.27,15.65,39.4,22.73,69.48,31.64,12.78,3.79,28.63,7.34,40.18,6.9,24.61-.93,33.51-10.58,45.41-3.88,7.67,4.32,12.35,14.89,9.63,21.5-2.85,6.92-13.5,8.67-22.38,9.57Z"/>
    <g class="cls-9">
      <circle class="cls-13" cx="270.65" cy="610.44" r="28.29"/>
    </g>
  </g>
  <path class="cls-10" d="m597.51,623.81c-1.79-1.76-13.5-13.56-16.61-22.63-3.34-9.74-.96-11.17-2.96-16.43-4.88-12.91-33.47-19.12-61.74-19.02-28.27-.11-56.86,6.11-61.74,19.02-1.99,5.26.38,6.69-2.96,16.43-3.11,9.07-14.82,20.87-16.61,22.63-16.84,16.57-59.59,94.6-31.11,172.12,14.59,39.73,72.99,49.85,112.42,49.12,39.43.73,97.82-9.4,112.42-49.12,28.48-77.53-14.27-155.56-31.11-172.12Z"/>
  <g class="cls-7">
    <ellipse class="cls-13" cx="516.93" cy="748.57" rx="98.65" ry="120.62"/>
  </g>
  <g class="cls-6">
    <ellipse class="cls-13" cx="661.3" cy="880.34" rx="45.86" ry="53.2" transform="translate(-423.07 689.44) rotate(-43.1)"/>
  </g>
  <g class="cls-4">
    <ellipse class="cls-13" cx="376.3" cy="878.08" rx="53.2" ry="45.86" transform="translate(-521.95 552.83) rotate(-46.9)"/>
  </g>
  <path class="cls-10" d="m684.75,755.89c-13.39,20.08-33.91,30.97-54.55,35.53-33.56,7.43-67.44-1.88-71.46-15.61-12.42-42.4,64.78-34.59,77.85-58.33,1.09-1.98,1.73-4.17,1.84-6.62.96-21.47-6.94-37.21-17.63-49.2-8.14-18.47-17.32-31.98-23.26-37.84-1.56-1.54-10.68-10.71-15.05-19.05,2.16-.73,4.53-1.08,6.96-.91,10.78.72,51.72,28.66,71.2,44.43,54.85,44.41,38.96,85.34,24.12,107.6Z"/>
  <g>
    <path class="cls-10" d="m656.93,312.23c1.42-3.49,2.87-7.09,4.34-10.82,52.78-133.54,79.18-200.31,44.76-235.64-21.76-22.35-40.62-26.36-72.86-23.55-28.76,2.51-56.15,21.83-66.38,35.81-31.3,42.79-26.69,76.59-36.5,199.83-15.26-.77-27.2-.46-33.54-.21-8.79.34-22.31.95-38.79,3.82-26.88-119.36-27.28-153.33-64.18-191.08-12.11-12.39-41.97-27.61-70.79-26.02-32.31,1.79-50.41,8.44-68.77,33.66-29.04,39.87,6.57,102.21,77.79,226.89,2.42,4.24,4.78,8.31,7.08,12.22-30.27,24.53-61.02,61.16-63.2,110.07-3.81,85.38,69.46,131.07,75.03,134.05,75.34,40.41,246.08,11.43,298.09-8.58,42.7-16.43,71.35-63.02,77.13-82.91,8.14-27.96,3.62-98.47-22.32-134.79-12.94-18.13-29.19-32.05-46.89-42.75Z"/>
    <path class="cls-13" d="m410.04,308.69c8.12-5.81,11.92-14.23,10.6-22.44-2.73-17.01-11.14-58.62-27.95-99.05-3.46-8.33-25.47-63.89-49.77-73.57-25.27-10.08-61.37.48-62.82,14.83-2.72,26.74,29.53,52.46,68.02,124.42,21.72,40.6,31.43,60.38,49.29,60.41,4.54,0,8.79-1.84,12.63-4.59Z"/>
    <path class="cls-13" d="m584.32,296.24c-8.86-4.6-13.82-12.39-13.69-20.71.29-17.22,2.7-59.61,13.59-102.02,2.25-8.74,16.14-66.86,38.81-79.9,23.58-13.56,60.81-8.24,64.29,5.76,6.49,26.08-21.77,56.12-49.65,132.82-15.73,43.28-22.53,64.23-40.2,66.8-4.49.65-8.97-.57-13.16-2.75Z"/>
    <g>
      <ellipse class="cls-13" cx="384.03" cy="494.23" rx="25.51" ry="17.16" transform="translate(-34.23 28.61) rotate(-4.08)"/>
      <ellipse class="cls-13" cx="624.6" cy="477.05" rx="25.51" ry="17.16" transform="translate(-32.39 45.7) rotate(-4.08)"/>
    </g>
    <g>
      <path d="m616.59,411.81c1.51,21.17-11.05,39.32-28.05,40.53-17,1.21-32.01-14.96-33.53-36.13-.91-12.76,3.53-28.86,16.05-36.52,2.22-1.36,6.39-3.84,12-4.01,15.67-.49,32.18,17.3,33.53,36.13Z"/>
      <path class="cls-2" d="m567.72,389.87c3.46-4.42,9.58-10.69,18.66-13.34,16.43-4.8,35.68,4.25,48.85,22.84"/>
      <path d="m391.95,427.85c1.51,21.17,16.52,37.35,33.53,36.13,17-1.21,29.56-19.36,28.05-40.53-.91-12.76-7.6-28.06-21.08-33.87-2.39-1.03-6.87-2.89-12.45-2.27-15.58,1.75-29.4,21.7-28.05,40.53Z"/>
      <path class="cls-2" d="m437.21,399.19c-4.05-3.89-11-9.22-20.37-10.56-16.95-2.42-34.71,9.28-45.11,29.55"/>
    </g>
    <g>
      <ellipse class="cls-11" cx="430.43" cy="408.14" rx="9.28" ry="11.6" transform="translate(-27.98 31.7) rotate(-4.08)"/>
      <ellipse class="cls-11" cx="410.97" cy="448.13" rx="4.64" ry="6.49" transform="translate(-30.88 30.41) rotate(-4.08)"/>
      <ellipse class="cls-11" cx="574.77" cy="397.84" rx="9.28" ry="11.6" transform="translate(-26.88 41.95) rotate(-4.08)"/>
      <ellipse class="cls-11" cx="599.72" cy="434.65" rx="4.64" ry="6.49" transform="translate(-29.44 43.82) rotate(-4.08)"/>
    </g>
    <g>
      <path class="cls-3" d="m642.12,394.46c1.2.31,3.22.66,5.51.24,1.95-.36,3.36-1.14,4.22-1.74"/>
      <path class="cls-3" d="m639.56,390.06c1.2-.17,3.18-.61,5.28-1.93,1.79-1.12,2.98-2.44,3.7-3.36"/>
    </g>
    <g>
      <path class="cls-3" d="m363.77,414.34c-1.15.48-3.09,1.12-5.42,1.03-1.99-.08-3.49-.65-4.43-1.12"/>
      <path class="cls-3" d="m365.68,409.62c-1.21,0-3.23-.16-5.5-1.16-1.93-.85-3.3-1.99-4.14-2.8"/>
    </g>
    <path class="cls-12" d="m513.35,481.92l17.98-24.32c3.13-4.23-.14-10.19-5.4-9.82l-39.23,2.8c-5.25.38-7.65,6.74-3.95,10.48l21.25,21.52c2.66,2.69,7.1,2.38,9.35-.67Z"/>
    <ellipse cx="510.93" cy="521.39" rx="25.51" ry="35.25" transform="translate(-35.84 37.72) rotate(-4.08)"/>
  </g>
  <g class="cls-5">
    <ellipse class="cls-13" cx="601.21" cy="793.11" rx="37.64" ry="38.04"/>
  </g>
  <g>
    <path d="m730.25,264.65v32.69s-7.99-6.75-14.47-2.42c-4.23,2.83-6,8.48-3.88,13.32,2.45,5.61,9.86,5.47,12.35,5.25,2.29-.2,6.7-1.61,8.12-5.65.51-1.47.95-1.8,1.06-6.86.31-13.99.14-36.33.14-36.33h-3.32Z"/>
    <line class="cls-8" x1="730.48" y1="266.36" x2="763.47" y2="258.9"/>
    <path d="m760.6,256.98v32.69s-7.99-6.75-14.47-2.42c-4.23,2.83-6,8.48-3.88,13.32,2.45,5.61,9.86,5.47,12.35,5.25,2.29-.2,6.7-1.61,8.12-5.65.51-1.47.95-1.8,1.06-6.86.31-13.99.14-36.33.14-36.33h-3.32Z"/>
  </g>
  <g>
    <path d="m783.29,291.96v32.69s-7.99-6.75-14.47-2.42c-4.23,2.83-6,8.48-3.88,13.32,2.45,5.61,9.86,5.47,12.35,5.25,2.29-.2,6.7-1.61,8.12-5.65.51-1.47.95-1.8,1.06-6.86.31-13.99.14-36.33.14-36.33h-3.32Z"/>
    <line class="cls-8" x1="783.52" y1="293.67" x2="816.51" y2="286.2"/>
    <path d="m813.64,284.29v32.69s-7.99-6.75-14.47-2.42c-4.23,2.83-6,8.48-3.88,13.32,2.45,5.61,9.86,5.47,12.35,5.25,2.29-.2,6.7-1.61,8.12-5.65.51-1.47.95-1.8,1.06-6.86.31-13.99.14-36.33.14-36.33h-3.32Z"/>
  </g>
  <g>
    <path class="cls-3" d="m703.34,764.01c1.39-.75,9.97-5.53,14.86-15.78,4.19-8.79,2.87-15.72,2.51-17.36"/>
    <path class="cls-3" d="m697.05,760.2c1.36-.85,9.75-6.28,14.07-16.76,3.7-8.99,1.93-15.68,1.46-17.26"/>
  </g>
</svg>