<svg width="80" height="80" viewBox="0 0 80 80" fill="none" xmlns="http://www.w3.org/2000/svg">
<mask id="mask0_1855_4225" style="mask-type:alpha" maskUnits="userSpaceOnUse" x="0" y="0" width="80" height="80">
<circle cx="40" cy="40" r="40" fill="#D9D9D9"/>
</mask>
<g mask="url(#mask0_1855_4225)">
<rect x="-7.11108" y="-3.55566" width="94.2222" height="85.3333" fill="#0455BF"/>
</g>
<path fill-rule="evenodd" clip-rule="evenodd" d="M45.0973 25.7785C41.4981 21.2994 38.1834 19.939 37.0358 20.8641C35.9936 21.7042 35.79 34.5606 34.7406 43.771C34.2752 44.9174 34.1648 46.1963 34.243 47.3976C33.8528 49.7256 33.3676 51.5429 32.7443 52.4437C32.2618 49.7055 30.8481 44.8003 24.8602 44.0962C18.872 43.392 17.5749 49.5637 17.5749 52.4437C17.5749 56.5353 18.4592 59.2438 22.0656 62.6016C24.8603 65.2027 30.4683 67.5349 34.2335 64.2629C36.0246 62.7063 36.8575 59.2589 37.3071 55.1197C38.5207 56.557 40.1666 57.6899 42.6362 58.7224C46.1499 60.1913 52.2121 60.4285 54.6246 56.0475C57.635 50.5804 49.997 35.1948 48.8847 26.614C48.6432 24.7511 51.9595 23.9113 54.0362 24.704C55.6227 25.3096 61.2522 29.5005 62.726 31.7802C64.1979 34.0569 62.0549 24.4927 56.4541 19.6752C49.1614 13.4031 43.3755 12.6893 42.3839 14.3429C41.9566 15.0563 43.4116 19.9877 45.0973 25.7785ZM49.0971 41.6643C47.6903 38.8662 45.3629 35.466 44.4212 34.6424C42.7439 33.1762 39.3436 32.81 38.9319 34.6424C38.5509 36.3389 38.3229 38.3849 38.1642 40.6044C38.4018 40.5213 38.6529 40.4472 38.9178 40.3827C44.7788 38.9597 47.7862 43.0718 49.1775 45.4732C49.3937 44.6424 49.3382 43.314 49.0971 41.6643Z" fill="#FDCC39"/>
<path fill-rule="evenodd" clip-rule="evenodd" d="M43.8306 23.4815C42.2257 21.8538 40.737 20.8448 39.5449 20.3659C38.2562 19.8483 37.2501 19.9495 36.6767 20.4119C36.5624 20.5042 36.4363 20.6629 36.3321 20.9047C36.1891 21.2373 36.0546 21.7985 35.9373 22.5471C35.3244 26.4607 35.025 35.9191 34.2186 43.2677C34.2101 43.3442 34.217 43.4187 34.2366 43.4886C33.6858 44.8236 33.5804 46.323 33.6973 47.7024C33.6785 47.7437 33.6639 47.7885 33.6551 47.8352C33.4604 48.8666 33.209 49.8612 32.9338 50.6654C32.1261 47.7812 30.1744 44.1376 24.927 43.5207C18.4757 42.7625 17 49.3413 17 52.4437C17 56.7061 17.9184 59.5293 21.6759 63.0269C23.1378 64.3881 25.3356 65.6778 27.6603 66.2004C30.0563 66.7385 32.5788 66.4658 34.6091 64.7017C35.3826 64.0292 36.0017 63.0393 36.4858 61.7997C37.0638 60.3188 37.4555 58.4713 37.7307 56.4122C38.8921 57.4956 40.387 58.4091 42.4158 59.2574C44.2541 60.026 46.759 60.4718 49.1197 60.1531C51.5529 59.8244 53.8266 58.6907 55.1275 56.3287C55.65 55.3797 55.8899 54.1583 55.8972 52.733C55.9076 50.7202 55.4583 48.2802 54.7818 45.6509C53.1313 39.2382 50.1201 31.669 49.4551 26.5391C49.3899 26.0358 49.7613 25.6801 50.2577 25.4244C51.2328 24.9218 52.7304 24.8253 53.8328 25.2459C55.3686 25.8319 60.8176 29.8899 62.2443 32.0966C62.5425 32.5578 62.851 32.6861 63.0028 32.7011C63.2922 32.7297 63.7391 32.5605 63.7514 31.8684C63.7598 31.4045 63.5605 30.4079 63.1266 29.1332C62.1615 26.2977 60.0476 22.0044 56.8271 19.2345C51.5751 14.7172 47.0637 13.0397 44.4906 13.0007C43.1468 12.9806 42.2652 13.4213 41.8918 14.0432C41.768 14.2498 41.6941 14.7072 41.7768 15.3808C41.9183 16.5315 42.4265 18.5288 43.1146 20.9789C43.3369 21.7696 43.5776 22.6081 43.8306 23.4815ZM34.217 50.4008C33.9066 51.4329 33.5543 52.2865 33.2162 52.7751C33.0832 52.9675 32.8483 53.0598 32.621 53.0096C32.3937 52.9594 32.2193 52.7759 32.1783 52.5449C31.7244 49.9709 30.4228 45.3334 24.7936 44.6718C19.268 44.0221 18.1499 49.7862 18.1499 52.4437C18.1499 56.3643 19.0001 58.9588 22.4559 62.176C23.7886 63.4162 25.7917 64.5932 27.9106 65.0694C29.9586 65.5295 32.1227 65.3321 33.8579 63.8241C34.5076 63.2598 35.0093 62.4162 35.4156 61.3752C36.0523 59.7448 36.4428 57.6459 36.7077 55.3113C35.7334 54.1 35.0327 52.682 34.401 50.952C34.3386 50.7809 34.2768 50.5966 34.217 50.4008ZM62.2995 30.3318C60.0874 27.9335 55.6396 24.6963 54.2398 24.1621C52.8504 23.6317 50.9634 23.7592 49.7338 24.3927C48.7594 24.8952 48.1868 25.7009 48.3148 26.689C48.9848 31.856 52.0063 39.4831 53.6687 45.9418C54.3172 48.4614 54.7573 50.7979 54.7473 52.7272C54.7412 53.9301 54.563 54.9656 54.1222 55.7663C53.0102 57.7857 51.0469 58.7236 48.9672 59.0044C46.8153 59.2948 44.532 58.8877 42.8566 58.187C38.5108 56.3705 36.8239 54.2313 35.4804 50.5518C34.5697 48.0577 33.6444 42.2592 39.0523 40.9463C44.5623 39.6083 47.373 43.5076 48.6808 45.7656C48.7981 45.968 49.025 46.0793 49.2554 46.0476C49.4858 46.0156 49.6747 45.8472 49.7338 45.6204C50.0285 44.486 49.8652 42.4654 49.3934 39.9675C48.3385 34.386 45.8061 26.307 44.2212 20.6633C43.5542 18.2886 43.0551 16.3534 42.9179 15.2383C42.8861 14.9799 42.8942 14.6743 42.8965 14.6114C43.0333 14.414 43.2982 14.3 43.6443 14.2278C44.1441 14.1235 44.7926 14.1351 45.5665 14.2703C48.0836 14.7095 51.8132 16.4453 56.0808 20.116C59.468 23.0295 61.5528 27.7311 62.2995 30.3318ZM48.4972 41.5291C48.4394 41.4793 48.3903 41.4175 48.3543 41.3441C47.0035 38.5878 44.9847 35.9021 44.0445 35.0801C43.1541 34.3018 41.7155 33.8715 40.6281 34.0036C40.075 34.0712 39.6039 34.2755 39.4928 34.7703C39.1654 36.2281 38.9539 37.9485 38.8013 39.8153C43.9164 38.5816 46.989 41.3047 48.7349 43.7235L48.7353 43.7243C48.7088 43.0873 48.6249 42.348 48.4972 41.5291ZM44.5788 26.0544C42.5285 23.524 40.5905 22.0334 39.119 21.4424C38.6809 21.2663 38.2919 21.1732 37.9626 21.1693C37.7449 21.167 37.5606 21.1998 37.4245 21.2945C37.4019 21.3481 37.3072 21.5776 37.2566 21.7808C37.1071 22.3756 36.9798 23.2798 36.8603 24.4093C36.4279 28.504 36.1282 35.4695 35.5532 41.5152C36.0948 40.9845 36.774 40.5318 37.618 40.1907C37.7783 38.0825 38.0063 36.1404 38.3712 34.5146C38.5897 33.5424 39.4035 32.9854 40.4901 32.8533C41.8608 32.6865 43.6753 33.2237 44.798 34.2049C45.4707 34.7927 46.6731 36.2748 47.8238 38.0752C46.9959 34.3984 45.7359 30.0294 44.5788 26.0544Z" fill="#0455BF"/>
<circle cx="26.5" cy="35.5" r="2.5" fill="#8EE5FB"/>
<circle cx="21" cy="24" r="3" fill="#72FE55"/>
<circle cx="28.5" cy="13.5" r="4.5" fill="#FE212B"/>
</svg>
