<svg width="17" height="25" viewBox="0 0 17 25" fill="none" xmlns="http://www.w3.org/2000/svg">
<g clip-path="url(#clip0_1602_3346)">
<path fill-rule="evenodd" clip-rule="evenodd" d="M1.28517 0C1.11573 0 0.916781 0.0993209 0.730564 0.257471C0.375783 0.55849 0.0474804 1.05968 0.0474804 1.05968C0.00653288 1.12246 0.00320416 1.20268 0.0389428 1.26864C0.0746814 1.33459 0.143701 1.37572 0.218795 1.37572H16.6225C16.6978 1.37572 16.7669 1.33434 16.8025 1.26813C16.8383 1.20178 16.8345 1.12131 16.793 1.05853C16.793 1.05853 16.4574 0.553906 16.0603 0.250722C15.8616 0.0990666 15.6457 0 15.4452 0H1.28517ZM1.28517 0.408744H15.4452C15.6163 0.408744 15.7927 0.546648 15.9525 0.694611C16.0478 0.782981 16.1356 0.878864 16.2103 0.967107L0.621614 0.96698C0.693525 0.876954 0.77759 0.778906 0.867009 0.688499C0.948036 0.60675 1.03326 0.53124 1.1179 0.476741C1.1765 0.438922 1.23206 0.408744 1.28517 0.408744Z" fill="#033E8C"/>
<path fill-rule="evenodd" clip-rule="evenodd" d="M1.28517 24.8594H15.4452C15.6517 24.8594 15.8764 24.7438 16.081 24.5636C16.4773 24.2142 16.8124 23.6329 16.8124 23.6329C16.8511 23.5653 16.851 23.4819 16.8118 23.4145C16.7727 23.347 16.7005 23.3054 16.6225 23.3054H0.218797C0.140954 23.3054 0.0690403 23.3467 0.0298291 23.4139C-0.00938212 23.4811 -0.0099589 23.564 0.0282395 23.6318C0.0282395 23.6318 0.355964 24.209 0.709588 24.5556C0.901738 24.744 1.11038 24.8594 1.28517 24.8594ZM1.28517 24.4218C1.23771 24.4218 1.19025 24.388 1.13773 24.3491C1.05337 24.2863 0.968584 24.1994 0.887846 24.1053C0.786563 23.9871 0.692079 23.8574 0.614235 23.7428L16.219 23.7429C16.1384 23.8555 16.0399 23.9824 15.9315 24.0984C15.844 24.192 15.7502 24.2788 15.6543 24.3413C15.5838 24.3871 15.5142 24.4218 15.4452 24.4218H1.28517Z" fill="#033E8C"/>
<path fill-rule="evenodd" clip-rule="evenodd" d="M15.0658 23.5547C15.0658 23.5547 15.2794 21.8948 15.0252 20.1335C14.8516 18.9304 14.4561 17.685 13.65 16.8627C12.2609 15.4459 11.4153 14.6028 10.9271 13.9544C10.4795 13.3606 10.3535 12.948 10.3857 12.368C10.4184 11.7807 10.5426 11.391 10.9792 10.8188C11.4502 10.2018 12.2606 9.3897 13.65 7.97254C14.4561 7.15032 14.8516 5.90489 15.0252 4.70179C15.2794 2.94051 15.0658 1.28055 15.0658 1.28055C15.0501 1.15865 14.9468 1.06731 14.8238 1.06666L2.0199 1.00342C1.89599 1.00277 1.79121 1.0946 1.77552 1.21731C1.77552 1.21731 1.56188 2.87728 1.81606 4.63855C1.98966 5.84166 2.38523 7.08708 3.19126 7.90931C4.58069 9.32646 5.39113 10.1386 5.86206 10.7555C6.29866 11.3278 6.4229 11.7175 6.45559 12.3047C6.48779 12.8848 6.3616 13.2974 5.9142 13.8912C5.42578 14.5395 4.58036 15.3827 3.19126 16.7995C2.38523 17.6217 1.98966 18.8671 1.81606 20.0703C1.56188 21.8315 1.77552 23.4915 1.77552 23.4915C1.79268 23.6256 1.91561 23.7206 2.04997 23.7034C2.18417 23.6861 2.27915 23.5632 2.26182 23.4291C2.26182 23.4291 2.057 21.8333 2.30138 20.1402C2.4601 19.0402 2.80451 17.8944 3.54156 17.1426C4.95272 15.7033 5.80975 14.8448 6.30602 14.1861C6.84316 13.4732 6.9839 12.974 6.94516 12.2776C6.90691 11.5884 6.76437 11.1297 6.25192 10.4582C5.77363 9.83169 4.95256 9.00522 3.54156 7.56617C2.80451 6.81437 2.4601 5.66845 2.30138 4.56862C2.11062 3.24721 2.19349 1.98528 2.2391 1.49476L14.6019 1.55571C14.6475 2.04476 14.7308 3.30849 14.5399 4.63185C14.3812 5.73169 14.0368 6.8776 13.2997 7.6294C11.8887 9.06845 11.0677 9.89493 10.5894 10.5214C10.0769 11.193 9.93438 11.6516 9.89613 12.3408C9.85739 13.0372 9.99813 13.5364 10.5353 14.2493C11.0315 14.908 11.8884 15.7665 13.2997 17.2059C14.0368 17.9577 14.3812 19.1034 14.5399 20.2034C14.7843 21.8966 14.5795 23.4923 14.5795 23.4923C14.5621 23.6265 14.6571 23.7493 14.7913 23.7667C14.9255 23.7838 15.0486 23.6889 15.0658 23.5547Z" fill="#033E8C"/>
<path fill-rule="evenodd" clip-rule="evenodd" d="M2.01749 23.7055L14.8214 23.7688C14.9568 23.7694 15.0671 23.6601 15.0678 23.5248C15.0686 23.3897 14.9592 23.2792 14.8239 23.2786L2.01994 23.2153C1.8846 23.2147 1.77426 23.324 1.77344 23.4593C1.77279 23.5946 1.88214 23.7049 2.01749 23.7055Z" fill="#033E8C"/>
<path fill-rule="evenodd" clip-rule="evenodd" d="M13.3325 23.5237C13.3325 23.5237 12.0524 23.5821 10.6539 22.2237C9.80247 21.3967 9.05139 22.5321 8.60647 18.7148C8.39184 16.8722 8.53859 12.8645 8.60647 12.3861C8.82499 10.8473 10.9396 8.97852 12.0524 7.7054C12.5804 7.10129 4.02637 6.97425 5.07916 8.08187C7.12956 10.2391 8.1387 11.3536 8.1883 12.3861C8.21196 12.8802 8.4171 16.3497 8.1883 17.8449C7.51802 22.2237 6.84511 21.6111 5.45768 22.6232C3.35026 24.1601 3.073 23.1818 3.073 23.1818L13.3325 23.5237Z" fill="#033E8C"/>
</g>
<defs>
<clipPath id="clip0_1602_3346">
<rect width="17" height="25" fill="white"/>
</clipPath>
</defs>
</svg>
