<svg width="116" height="153" viewBox="0 0 116 153" fill="none" xmlns="http://www.w3.org/2000/svg">
<g clip-path="url(#clip0_1628_1599)">
<path fill-rule="evenodd" clip-rule="evenodd" d="M25.7108 66.6813C24.619 66.4321 23.5082 67.0148 23.0916 68.0557C23.0916 68.0557 5.14143 112.938 1.18009 133.073C0.41313 136.973 0.194517 140.039 0.56571 141.849C0.859028 143.277 1.52246 144.199 2.2925 144.721C3.07349 145.249 4.19023 145.564 5.64423 145.474C7.77346 145.342 10.9923 144.274 14.8977 142.453C35.3979 132.89 77.0477 102.489 77.0477 102.489C77.5437 102.126 77.873 101.578 77.96 100.969C78.0462 100.359 77.8838 99.7407 77.5083 99.2534C63.929 81.6201 46.3232 71.3884 25.7108 66.6813ZM5.04901 140.899C4.99772 140.597 4.93103 140.124 4.92969 139.725C4.92484 138.242 5.19174 136.278 5.64879 133.956C9.08748 116.477 23.2228 80.1241 26.5941 71.5802C44.6316 76.0557 60.1823 85.1035 72.4436 100.194C64.1003 106.215 30.6165 130.088 12.9736 138.317C10.1491 139.635 7.77088 140.546 6.01514 140.842C5.6999 140.895 5.31112 140.903 5.04901 140.899Z" fill="#FF9D42"/>
<path fill-rule="evenodd" clip-rule="evenodd" d="M31.4905 128.732C31.4905 128.732 19.4496 123.177 5.11904 124.739L5.60991 129.275C18.639 127.855 29.5901 132.879 29.5901 132.879L31.4905 128.732Z" fill="#FF9D42"/>
<path fill-rule="evenodd" clip-rule="evenodd" d="M53.0879 115.753C52.2808 114.943 50.8542 114.041 48.9338 113.185C45.0902 111.469 39.0667 109.749 32.7843 108.598C27.3999 107.611 21.8287 107.043 17.2851 107.218C13.9623 107.346 11.1518 107.898 9.22595 108.874L11.2808 112.945C12.752 112.199 14.9196 111.876 17.4599 111.777C21.7116 111.613 26.9251 112.163 31.9636 113.086C37.0232 114.013 41.9076 115.318 45.4736 116.689C47.5302 117.479 49.1158 118.224 49.8662 118.977L53.0879 115.753Z" fill="#FF9D42"/>
<path fill-rule="evenodd" clip-rule="evenodd" d="M19.4255 92.0656C19.3496 92.2553 18.9553 92.7118 18.9553 92.7118C18.9553 92.7118 23.4272 91.9124 27.5543 92.0021C35.4251 92.1739 46.5016 93.665 55.4468 97.0733C61.0378 99.203 65.8097 102.029 68.1435 105.909L72.0434 103.553C68.8863 98.304 62.1498 94.4037 54.2844 91.8251C43.0588 88.1442 29.5951 87.0271 22.3022 87.544C19.8555 87.7178 18.0236 88.1111 17.0242 88.5804C15.9794 89.0706 15.4412 89.7631 15.1991 90.3695L19.4255 92.0656Z" fill="#FF9D42"/>
<path fill-rule="evenodd" clip-rule="evenodd" d="M50.7161 46.5081L50.2886 53.7064C50.0971 56.9317 52.4255 56.1262 52.4255 56.1262C52.4255 56.1262 54.6423 57.2016 54.8338 53.9763L55.2612 46.7779L50.7161 46.5081Z" fill="#FF9D42"/>
<path fill-rule="evenodd" clip-rule="evenodd" d="M52.855 66.0961C50.457 72.13 50.1931 72.7939 50.1931 72.7939L52.1733 75.9229C52.1733 75.9229 53.4372 76.971 54.4256 74.4842L57.0874 67.7863L52.855 66.0961Z" fill="#FF9D42"/>
<path fill-rule="evenodd" clip-rule="evenodd" d="M68.0042 81.4984C62.9143 85.524 62.3543 85.9669 62.3543 85.9669L63.6234 90.0389C63.6234 90.0389 63.8973 90.5574 65.1741 89.5476L70.824 85.079L68.0042 81.4984Z" fill="#FF9D42"/>
<path fill-rule="evenodd" clip-rule="evenodd" d="M76.7229 29.5619L69.5046 45.7362L73.6627 47.5933L80.8809 31.419L76.7229 29.5619Z" fill="#FF9D42"/>
<path fill-rule="evenodd" clip-rule="evenodd" d="M58.6649 63.4375C62.1704 55.4053 66.3904 27.2852 57.691 2.91417L53.4 4.45171C61.616 27.4712 57.8003 54.0273 54.4899 61.6131L58.6649 63.4375Z" fill="#FF9D42"/>
<path fill-rule="evenodd" clip-rule="evenodd" d="M105.278 39.0674C97.5002 41.63 88.1684 48.1339 77.3654 58.6941L80.5444 61.957C90.6959 52.0325 99.3874 45.8083 106.697 43.4002L105.278 39.0674Z" fill="#FF9D42"/>
<path fill-rule="evenodd" clip-rule="evenodd" d="M82.712 86.5722C92.7851 80.0648 111.125 75.8965 111.125 75.8965L110.114 71.4525C110.114 71.4525 90.843 75.8972 80.2459 82.7428L82.712 86.5722Z" fill="#FF9D42"/>
<path fill-rule="evenodd" clip-rule="evenodd" d="M38.3227 61.6868C39.4419 54.0922 37.8418 44.7061 34.4251 37.6573C31.9885 32.6283 28.5925 28.8037 24.733 27.3047L23.0863 31.558C26.0414 32.7063 28.4629 35.7996 30.3293 39.6514C33.3681 45.9213 34.8141 54.2661 33.8185 61.0209L38.3227 61.6868Z" fill="#FF9D42"/>
<path fill-rule="evenodd" clip-rule="evenodd" d="M49.9463 27.5099C48.6805 27.4347 47.5929 28.4031 47.5177 29.6708C47.4424 30.9384 48.4077 32.0287 49.6736 32.1038C50.9386 32.179 52.027 31.2106 52.1022 29.943C52.1775 28.6753 51.2114 27.585 49.9463 27.5099ZM49.8111 29.7871C49.8217 29.7878 49.8303 29.7967 49.8296 29.808C49.829 29.8187 49.8194 29.8272 49.8088 29.8266C49.7974 29.8259 49.7896 29.8163 49.7903 29.8057C49.7909 29.7943 49.7998 29.7865 49.8111 29.7871Z" fill="#FF9D42"/>
<path fill-rule="evenodd" clip-rule="evenodd" d="M89.8459 32.204C88.449 32.121 87.2475 33.1901 87.1643 34.5898C87.0813 35.9888 88.1478 37.1925 89.5447 37.2754C90.9416 37.3584 92.1424 36.2893 92.2254 34.8903C92.3086 33.4906 91.2427 32.2869 89.8459 32.204ZM89.7106 34.4812C89.853 34.4897 89.9613 34.6127 89.9528 34.7554C89.9444 34.8981 89.8224 35.0066 89.6799 34.9982C89.5375 34.9897 89.4285 34.8674 89.4369 34.7247C89.4454 34.582 89.5682 34.4728 89.7106 34.4812Z" fill="#FF9D42"/>
<path fill-rule="evenodd" clip-rule="evenodd" d="M101.321 56.8936C99.7011 56.7975 98.3077 58.0371 98.2114 59.66C98.115 61.2822 99.3519 62.678 100.971 62.7742C102.59 62.8703 103.984 61.6307 104.08 60.0085C104.176 58.3856 102.94 56.9897 101.321 56.8936ZM101.185 59.1709C101.551 59.1925 101.829 59.5077 101.807 59.8736C101.786 60.2394 101.472 60.5187 101.107 60.497C100.742 60.4753 100.462 60.1609 100.484 59.795C100.506 59.4291 100.82 59.1492 101.185 59.1709Z" fill="#FF9D42"/>
<path fill-rule="evenodd" clip-rule="evenodd" d="M76.061 66.7202C75.0535 66.6604 74.1867 67.4316 74.1267 68.4412C74.0667 69.4515 74.8362 70.3192 75.8437 70.379C76.8512 70.4388 77.718 69.6683 77.778 68.658C77.838 67.6484 77.0685 66.78 76.061 66.7202ZM75.9258 68.9975C75.6796 68.9828 75.4907 68.7705 75.5054 68.5231C75.5201 68.2764 75.7327 68.0871 75.9789 68.1017C76.2259 68.1164 76.414 68.3294 76.3993 68.5761C76.3846 68.8236 76.1727 69.0121 75.9258 68.9975Z" fill="#FF9D42"/>
<path fill-rule="evenodd" clip-rule="evenodd" d="M89.3955 86.8362C88.3872 86.7764 87.5204 87.5476 87.4604 88.5579C87.4005 89.5675 88.1699 90.4359 89.1782 90.4958C90.1857 90.5556 91.0525 89.7844 91.1125 88.7748C91.1725 87.7644 90.403 86.8961 89.3955 86.8362ZM89.2602 89.1135C89.0133 89.0988 88.8252 88.8865 88.8399 88.6398C88.8546 88.3924 89.0664 88.2039 89.3134 88.2185C89.5596 88.2331 89.7477 88.4454 89.733 88.6929C89.7184 88.9396 89.5064 89.1281 89.2602 89.1135Z" fill="#FF9D42"/>
<path fill-rule="evenodd" clip-rule="evenodd" d="M44.1672 61.7071C42.9809 61.6366 41.9608 62.5443 41.8902 63.733C41.8197 64.9209 42.7252 65.9429 43.9115 66.0133C45.097 66.0837 46.1172 65.1761 46.1877 63.9882C46.2583 62.7994 45.3527 61.7775 44.1672 61.7071ZM44.032 63.9843C43.9631 63.9802 43.911 63.9215 43.9151 63.8532C43.9192 63.7849 43.9778 63.732 44.0467 63.7361C44.1149 63.7402 44.1668 63.7996 44.1628 63.8679C44.1587 63.9362 44.1002 63.9884 44.032 63.9843Z" fill="#FF9D42"/>
<path fill-rule="evenodd" clip-rule="evenodd" d="M74.2643 5.95419C73.0431 5.88168 71.9917 6.81715 71.9191 8.04078C71.8464 9.26518 72.7797 10.3177 74.0009 10.3903C75.2228 10.4628 76.2734 9.52805 76.3461 8.30366C76.4187 7.08002 75.4862 6.02675 74.2643 5.95419ZM74.1291 8.23143C74.0965 8.2295 74.0716 8.20135 74.0735 8.16871C74.0754 8.13607 74.1035 8.11108 74.1361 8.11301C74.1687 8.11495 74.1936 8.14309 74.1917 8.17573C74.1897 8.20837 74.1616 8.23336 74.1291 8.23143Z" fill="#FF9D42"/>
</g>
<defs>
<clipPath id="clip0_1628_1599">
<rect width="107" height="146" fill="white" transform="translate(8.6543) rotate(3.39822)"/>
</clipPath>
</defs>
</svg>
