<svg width="30" height="30" viewBox="0 0 30 30" fill="none" xmlns="http://www.w3.org/2000/svg">
<g clip-path="url(#clip0_17_39)">
<mask id="mask0_17_39" style="mask-type:luminance" maskUnits="userSpaceOnUse" x="0" y="0" width="30" height="30">
<path d="M30 0H0V30H30V0Z" fill="white"/>
</mask>
<g mask="url(#mask0_17_39)">
<mask id="mask1_17_39" style="mask-type:luminance" maskUnits="userSpaceOnUse" x="0" y="0" width="30" height="30">
<path d="M29.9278 0H0V29.9278H29.9278V0Z" fill="white"/>
</mask>
<g mask="url(#mask1_17_39)">
<mask id="mask2_17_39" style="mask-type:alpha" maskUnits="userSpaceOnUse" x="0" y="0" width="30" height="30">
<path d="M14.9639 29.9278C23.2283 29.9278 29.9278 23.2283 29.9278 14.9639C29.9278 6.69957 23.2283 0 14.9639 0C6.69957 0 0 6.69957 0 14.9639C0 23.2283 6.69957 29.9278 14.9639 29.9278Z" fill="#D9D9D9"/>
</mask>
<g mask="url(#mask2_17_39)">
<path d="M-11.492 -1.78395C-2.15818 -4.57941 5.99416 -1.52981 26.5522 -1.52981C37.7764 -1.52981 41.3209 -1.27568 62.7061 -3.56287V32.778H-29.2151V0.787799C-27.9188 -0.491812 -20.8259 1.01151 -11.492 -1.78395Z" fill="#FFF301"/>
<path d="M-10.8309 5.0549C13.3279 5.74345 21.3416 3.64261 38.4295 0.929918C49.5071 -0.82866 60.742 0.339739 62.7061 0.929918V32.7781H-29.2151V8.39195C-26.0332 7.11327 -16.1116 4.9044 -10.8309 5.0549Z" fill="#FFE901"/>
<path d="M6.18458 11.2275C23.137 8.44074 19.3663 10.8975 35.5663 9.8623C50.0461 7.46692 45.4782 11.0443 62.7061 7.83826V32.7781H-29.2151V16.9999C-26.0332 16.0371 -16.2352 14.913 6.18458 11.2275Z" fill="#FFDC01"/>
<path d="M-9.27326 22.2254C7.10962 18.1836 2.86864 17.6251 28.0144 18.4841C42.0563 18.9637 45.4782 16.4905 62.7061 14.2513V32.778H-29.2151V26.7694C-26.0332 26.097 -22.8431 25.5733 -9.27326 22.2254Z" fill="#FFCB01"/>
<path d="M-3.01114 28.7543C14.1073 28.7543 15.0404 24.6398 36.8675 26.74C51.1303 28.1123 47.84 28.7543 62.7061 22.8021V32.778H-29.2037C-29.1645 32.7694 -29.2432 32.7603 -29.2037 32.7508C-26.0389 31.9917 -21.8891 28.7543 -3.01114 28.7543Z" fill="#FFB901"/>
<g style="mix-blend-mode:lighten">
<path d="M14.9639 29.9278C23.2283 29.9278 29.9278 23.2283 29.9278 14.9639C29.9278 6.69957 23.2283 0 14.9639 0C6.69957 0 0 6.69957 0 14.9639C0 23.2283 6.69957 29.9278 14.9639 29.9278Z" fill="#FFE901" fill-opacity="0.57"/>
</g>
<mask id="mask3_17_39" style="mask-type:luminance" maskUnits="userSpaceOnUse" x="0" y="0" width="30" height="30">
<path fill-rule="evenodd" clip-rule="evenodd" d="M14.9639 0C23.2227 0 29.9278 6.70335 29.9278 14.9599C29.9278 23.2166 23.2227 29.9199 14.9639 29.9199C6.70512 29.9199 0 23.2166 0 14.9599C0 6.70335 6.70512 0 14.9639 0ZM14.9639 0.674307C7.07741 0.674307 0.674573 7.07554 0.674573 14.9599C0.674573 22.8444 7.07741 29.2455 14.9639 29.2455C22.8504 29.2455 29.2533 22.8444 29.2533 14.9599C29.2533 7.07554 22.8504 0.674307 14.9639 0.674307Z" fill="#53C71E"/>
</mask>
<g mask="url(#mask3_17_39)">
<path d="M14.9639 0.882382C22.7356 0.882382 29.0455 7.1909 29.0455 14.96H30.8102C30.8102 6.21584 23.7098 -0.882324 14.9639 -0.882324V0.882382ZM29.0455 14.96C29.0455 22.7291 22.7356 29.0376 14.9639 29.0376V30.8023C23.7098 30.8023 30.8102 23.7041 30.8102 14.96H29.0455ZM14.9639 29.0376C7.19224 29.0376 0.882382 22.7291 0.882382 14.96H-0.882324C-0.882324 23.7041 6.21806 30.8023 14.9639 30.8023V29.0376ZM0.882382 14.96C0.882382 7.1909 7.19224 0.882382 14.9639 0.882382V-0.882324C6.21806 -0.882324 -0.882324 6.21584 -0.882324 14.96H0.882382ZM14.9639 -0.208017C6.59035 -0.208017 -0.207751 6.58805 -0.207751 14.96H1.55696C1.55696 7.56309 7.56454 1.55668 14.9639 1.55668V-0.208017ZM-0.207751 14.96C-0.207751 23.3319 6.59036 30.1279 14.9639 30.1279V28.3632C7.56454 28.3632 1.55696 22.3569 1.55696 14.96H-0.207751ZM14.9639 30.1279C23.3375 30.1279 30.1356 23.3319 30.1356 14.96H28.3709C28.3709 22.3569 22.3633 28.3632 14.9639 28.3632V30.1279ZM30.1356 14.96C30.1356 6.58805 23.3375 -0.208017 14.9639 -0.208017V1.55668C22.3633 1.55668 28.3709 7.56309 28.3709 14.96H30.1356Z" fill="#FFCB01"/>
</g>
</g>
</g>
</g>
</g>
<defs>
<clipPath id="clip0_17_39">
<rect width="30" height="30" fill="white"/>
</clipPath>
</defs>
</svg>
