<svg width="30" height="30" viewBox="0 0 30 30" fill="none" xmlns="http://www.w3.org/2000/svg">
<g clip-path="url(#clip0_17_65)">
<mask id="mask0_17_65" style="mask-type:luminance" maskUnits="userSpaceOnUse" x="0" y="0" width="30" height="30">
<path d="M30 0H0V30H30V0Z" fill="white"/>
</mask>
<g mask="url(#mask0_17_65)">
<mask id="mask1_17_65" style="mask-type:luminance" maskUnits="userSpaceOnUse" x="0" y="0" width="30" height="30">
<path d="M30 0H0V30H30V0Z" fill="white"/>
</mask>
<g mask="url(#mask1_17_65)">
<mask id="mask2_17_65" style="mask-type:luminance" maskUnits="userSpaceOnUse" x="0" y="0" width="30" height="30">
<path fill-rule="evenodd" clip-rule="evenodd" d="M15 0C23.2787 0 30 6.71952 30 14.996C30 23.2726 23.2787 29.9921 15 29.9921C6.72129 29.9921 0 23.2726 0 14.996C0 6.71952 6.72129 0 15 0ZM15 0.675933C7.09448 0.675933 0.6762 7.0926 0.6762 14.996C0.6762 22.8994 7.09448 29.316 15 29.316C22.9055 29.316 29.3238 22.8994 29.3238 14.996C29.3238 7.0926 22.9055 0.675933 15 0.675933Z" fill="#53C71E"/>
</mask>
<g mask="url(#mask2_17_65)">
<path d="M15 0.882382C22.7916 0.882382 29.1176 7.20707 29.1176 14.9961H30.8824C30.8824 6.23201 23.7658 -0.882324 15 -0.882324V0.882382ZM29.1176 14.9961C29.1176 22.785 22.7916 29.1097 15 29.1097V30.8744C23.7658 30.8744 30.8824 23.7601 30.8824 14.9961H29.1176ZM15 29.1097C7.20841 29.1097 0.882382 22.785 0.882382 14.9961H-0.882324C-0.882324 23.7601 6.23423 30.8744 15 30.8744V29.1097ZM0.882382 14.9961C0.882382 7.20707 7.20841 0.882382 15 0.882382V-0.882324C6.23423 -0.882324 -0.882324 6.23201 -0.882324 14.9961H0.882382ZM15 -0.206392C6.60741 -0.206392 -0.206124 6.60511 -0.206124 14.9961H1.55858C1.55858 7.58016 7.58161 1.55832 15 1.55832V-0.206392ZM-0.206124 14.9961C-0.206124 23.387 6.60742 30.1984 15 30.1984V28.4337C7.5816 28.4337 1.55858 22.412 1.55858 14.9961H-0.206124ZM15 30.1984C23.3926 30.1984 30.2061 23.387 30.2061 14.9961H28.4414C28.4414 22.412 22.4185 28.4337 15 28.4337V30.1984ZM30.2061 14.9961C30.2061 6.60511 23.3926 -0.206392 15 -0.206392V1.55832C22.4184 1.55832 28.4414 7.58016 28.4414 14.9961H30.2061Z" fill="#FFB801"/>
</g>
<mask id="mask3_17_65" style="mask-type:luminance" maskUnits="userSpaceOnUse" x="0" y="0" width="30" height="30">
<path fill-rule="evenodd" clip-rule="evenodd" d="M15 0C23.2787 0 30 6.71952 30 14.996C30 23.2726 23.2787 29.9921 15 29.9921C6.72129 29.9921 0 23.2726 0 14.996C0 6.71952 6.72129 0 15 0ZM15 0.675933C7.09448 0.675933 0.6762 7.0926 0.6762 14.996C0.6762 22.8994 7.09448 29.316 15 29.316C22.9055 29.316 29.3238 22.8994 29.3238 14.996C29.3238 7.0926 22.9055 0.675933 15 0.675933Z" fill="#4CA124"/>
</mask>
<g mask="url(#mask3_17_65)">
<path d="M15 0.882382C22.7916 0.882382 29.1176 7.20707 29.1176 14.9961H30.8824C30.8824 6.23201 23.7658 -0.882324 15 -0.882324V0.882382ZM29.1176 14.9961C29.1176 22.785 22.7916 29.1097 15 29.1097V30.8744C23.7658 30.8744 30.8824 23.7601 30.8824 14.9961H29.1176ZM15 29.1097C7.20841 29.1097 0.882382 22.785 0.882382 14.9961H-0.882324C-0.882324 23.7601 6.23423 30.8744 15 30.8744V29.1097ZM0.882382 14.9961C0.882382 7.20707 7.20841 0.882382 15 0.882382V-0.882324C6.23423 -0.882324 -0.882324 6.23201 -0.882324 14.9961H0.882382ZM15 -0.206392C6.60741 -0.206392 -0.206124 6.60511 -0.206124 14.9961H1.55858C1.55858 7.58016 7.58161 1.55832 15 1.55832V-0.206392ZM-0.206124 14.9961C-0.206124 23.387 6.60742 30.1984 15 30.1984V28.4337C7.5816 28.4337 1.55858 22.412 1.55858 14.9961H-0.206124ZM15 30.1984C23.3926 30.1984 30.2061 23.387 30.2061 14.9961H28.4414C28.4414 22.412 22.4185 28.4337 15 28.4337V30.1984ZM30.2061 14.9961C30.2061 6.60511 23.3926 -0.206392 15 -0.206392V1.55832C22.4184 1.55832 28.4414 7.58016 28.4414 14.9961H30.2061Z" fill="#FFB801"/>
</g>
</g>
</g>
</g>
<defs>
<clipPath id="clip0_17_65">
<rect width="30" height="30" fill="white"/>
</clipPath>
</defs>
</svg>
