<svg width="23" height="26" viewBox="0 0 23 26" fill="none" xmlns="http://www.w3.org/2000/svg">
<g clip-path="url(#clip0_1601_3312)">
<path fill-rule="evenodd" clip-rule="evenodd" d="M13.1965 5.07599C12.4072 4.28776 11.6749 3.79918 11.0886 3.56724C10.4548 3.31659 9.95994 3.3656 9.6779 3.5895C9.62172 3.63421 9.5597 3.71108 9.50842 3.82818C9.4381 3.98923 9.37194 4.26101 9.31425 4.62351C9.0128 6.51871 8.86556 11.099 8.4689 14.6576C8.46475 14.6947 8.46815 14.7308 8.47776 14.7646C8.20685 15.4111 8.15501 16.1372 8.21251 16.8052C8.20327 16.8252 8.1961 16.8469 8.19176 16.8695C8.09599 17.3689 7.97233 17.8506 7.83697 18.24C7.43975 16.8433 6.47977 15.0789 3.89887 14.7802C0.725814 14.413 0 17.5988 0 19.1012C0 21.1653 0.4517 22.5325 2.29981 24.2262C3.01884 24.8854 4.09985 25.5099 5.24325 25.763C6.42172 26.0236 7.66239 25.8915 8.661 25.0373C9.04145 24.7116 9.34591 24.2322 9.58402 23.6319C9.86831 22.9148 10.061 22.0201 10.1963 21.023C10.7676 21.5476 11.5028 21.99 12.5007 22.4008C13.4048 22.773 14.6369 22.9889 15.798 22.8346C16.9947 22.6754 18.1131 22.1264 18.7529 20.9826C19.0099 20.523 19.1279 19.9315 19.1315 19.2413C19.1366 18.2666 18.9156 17.085 18.5829 15.8117C17.7711 12.7063 16.29 9.04089 15.9629 6.55668C15.9309 6.31295 16.1136 6.14068 16.3577 6.01685C16.8373 5.7735 17.5739 5.72674 18.1161 5.93043C18.8715 6.21419 21.5516 8.17934 22.2533 9.24796C22.3999 9.4713 22.5517 9.5334 22.6263 9.54069C22.7687 9.55453 22.9885 9.4726 22.9945 9.13741C22.9987 8.91276 22.9006 8.43017 22.6872 7.81291C22.2125 6.43977 21.1728 4.36071 19.5888 3.01937C17.0057 0.831817 14.7867 0.0194556 13.5212 0.000563525C12.8602 -0.00916309 12.4266 0.204262 12.243 0.505413C12.1821 0.605485 12.1457 0.82695 12.1864 1.15317C12.256 1.71039 12.506 2.67763 12.8444 3.86409C12.9537 4.24698 13.0721 4.65307 13.1965 5.07599ZM8.46814 18.1119C8.31544 18.6117 8.14219 19.0251 7.97591 19.2617C7.91049 19.3549 7.79492 19.3996 7.68313 19.3752C7.57133 19.3509 7.48556 19.2621 7.46538 19.1502C7.24217 17.9037 6.60194 15.658 3.83327 15.3376C1.1155 15.023 0.565574 17.8143 0.565574 19.1012C0.565574 20.9998 0.983723 22.2562 2.68346 23.8141C3.33896 24.4148 4.32418 24.9847 5.36635 25.2153C6.37363 25.4381 7.43804 25.3425 8.29149 24.6123C8.61104 24.339 8.85782 23.9305 9.05766 23.4264C9.3708 22.6368 9.5629 21.6204 9.69317 20.4899C9.21394 19.9033 8.86933 19.2166 8.55864 18.3788C8.52791 18.296 8.49755 18.2067 8.46814 18.1119ZM22.2804 8.39332C21.1924 7.23193 19.0048 5.66426 18.3163 5.40557C17.6329 5.14875 16.7048 5.21048 16.1 5.51724C15.6208 5.76059 15.3391 6.15078 15.4021 6.62925C15.7316 9.13142 17.2178 12.8249 18.0354 15.9526C18.3544 17.1727 18.5708 18.3042 18.5659 19.2385C18.5629 19.821 18.4752 20.3225 18.2584 20.7102C17.7115 21.6881 16.7459 22.1423 15.7229 22.2783C14.6646 22.4189 13.5415 22.2218 12.7175 21.8825C10.58 21.0028 9.7503 19.9669 9.08952 18.185C8.64159 16.9773 8.18648 14.1693 10.8464 13.5335C13.5564 12.8855 14.9389 14.7738 15.5821 15.8673C15.6398 15.9653 15.7514 16.0192 15.8647 16.0038C15.978 15.9883 16.071 15.9068 16.1 15.797C16.245 15.2476 16.1647 14.2691 15.9326 13.0595C15.4138 10.3566 14.1682 6.44426 13.3886 3.71127C13.0606 2.56129 12.8151 1.62416 12.7477 1.08415C12.732 0.959009 12.736 0.81105 12.7371 0.78056C12.8044 0.684978 12.9347 0.629801 13.1049 0.594823C13.3507 0.544319 13.6697 0.549928 14.0504 0.615396C15.2884 0.828072 17.1227 1.66868 19.2218 3.44622C20.8878 4.85714 21.9132 7.13391 22.2804 8.39332ZM15.4918 13.8157C15.4634 13.7916 15.4392 13.7617 15.4215 13.7261C14.7571 12.3913 13.7642 11.0908 13.3017 10.6927C12.8638 10.3158 12.1563 10.1075 11.6214 10.1714C11.3494 10.2042 11.1177 10.3031 11.063 10.5427C10.902 11.2486 10.7979 12.0818 10.7229 12.9858C13.2388 12.3883 14.75 13.7071 15.6087 14.8784L15.6089 14.8787C15.5959 14.5703 15.5546 14.2123 15.4918 13.8157ZM13.5645 6.32193C12.5561 5.09656 11.6029 4.37474 10.8792 4.08855C10.6637 4.00326 10.4724 3.95818 10.3104 3.95631C10.2033 3.95518 10.1126 3.97108 10.0457 4.01691C10.0346 4.04291 9.98803 4.15401 9.96314 4.2524C9.88962 4.54046 9.82703 4.97835 9.76821 5.52528C9.55555 7.50821 9.40813 10.8813 9.12534 13.809C9.39173 13.552 9.72579 13.3328 10.1409 13.1676C10.2197 12.1467 10.3319 11.2062 10.5114 10.4189C10.6188 9.94809 11.0191 9.67836 11.5535 9.61439C12.2277 9.53359 13.1202 9.79377 13.6724 10.2689C14.0032 10.5536 14.5946 11.2713 15.1606 12.1431C14.7534 10.3626 14.1337 8.24686 13.5645 6.32193Z" fill="#033E8C"/>
</g>
<defs>
<clipPath id="clip0_1601_3312">
<rect width="23" height="26" fill="white"/>
</clipPath>
</defs>
</svg>
