<svg width="19" height="23" viewBox="0 0 19 23" fill="none" xmlns="http://www.w3.org/2000/svg">
<g clip-path="url(#clip0_1602_3670)">
<path fill-rule="evenodd" clip-rule="evenodd" d="M3.6885 8.6573H2.063C0.924496 8.6573 0 9.56164 0 10.6759V20.953C0 22.0668 0.924496 22.9716 2.063 22.9716H16.7785C17.917 22.9716 18.841 22.0668 18.841 20.953V10.6759C18.841 9.56164 17.917 8.6573 16.7785 8.6573H15.153V4.35727C15.153 3.38246 14.777 2.27259 13.814 1.40789C12.9245 0.608758 11.507 0 9.3495 0C7.1805 0 5.797 0.618055 4.943 1.42257C4.0265 2.28629 3.6885 3.39029 3.6885 4.35727V8.6573ZM17.341 10.6759V20.953C17.341 21.2569 17.089 21.5035 16.7785 21.5035H2.063C1.7525 21.5035 1.5 21.2569 1.5 20.953V10.6759C1.5 10.372 1.7525 10.1254 2.063 10.1254H16.7785C17.089 10.1254 17.341 10.372 17.341 10.6759ZM8.3175 16.6461V18.8468C8.3175 19.2461 8.6485 19.5701 9.0565 19.5701H9.785C10.1925 19.5701 10.524 19.2461 10.524 18.8468V16.6461C11.0695 16.2948 11.4295 15.6899 11.4295 15.0033C11.4295 13.9179 10.5295 13.0371 9.4205 13.0371C8.312 13.0371 7.412 13.9179 7.412 15.0033C7.412 15.6899 7.772 16.2948 8.3175 16.6461ZM9.774 18.836H9.0675V16.4347C9.0675 16.2957 8.987 16.1685 8.86 16.1064C8.4465 15.9043 8.162 15.4863 8.162 15.0033C8.162 14.3231 8.726 13.7711 9.4205 13.7711C10.1155 13.7711 10.6795 14.3231 10.6795 15.0033C10.6795 15.4863 10.395 15.9043 9.9815 16.1064C9.8545 16.1685 9.774 16.2957 9.774 16.4347V18.836ZM13.653 8.6573V4.35727C13.653 3.03061 12.528 1.46809 9.3495 1.46809C7.7035 1.46809 6.6315 1.86936 5.9835 2.48008C5.398 3.03208 5.1885 3.7397 5.1885 4.35727V8.6573H13.653Z" fill="#003294"/>
</g>
<defs>
<clipPath id="clip0_1602_3670">
<rect width="19" height="23" fill="white"/>
</clipPath>
</defs>
</svg>
