<svg width="30" height="30" viewBox="0 0 30 30" fill="none" xmlns="http://www.w3.org/2000/svg">
<g clip-path="url(#clip0_17_4)">
<path d="M15.0043 29.9433C23.2301 29.9433 29.8985 23.2584 29.8985 15.0122C29.8985 6.76594 23.2301 0.0810547 15.0043 0.0810547C6.77847 0.0810547 0.110107 6.76594 0.110107 15.0122C0.110107 23.2584 6.77847 29.9433 15.0043 29.9433Z" fill="#53C71E"/>
<mask id="mask0_17_4" style="mask-type:alpha" maskUnits="userSpaceOnUse" x="0" y="0" width="30" height="30">
<path d="M15.0043 29.9433C23.2301 29.9433 29.8985 23.2584 29.8985 15.0122C29.8985 6.76594 23.2301 0.0810547 15.0043 0.0810547C6.77847 0.0810547 0.110107 6.76594 0.110107 15.0122C0.110107 23.2584 6.77847 29.9433 15.0043 29.9433Z" fill="#FFB72B"/>
</mask>
<g mask="url(#mask0_17_4)">
<path d="M21.4049 1.16676L18.3552 -1L-1.8056e-05 24.8345L3.04964 27.0013L21.4049 1.16676Z" fill="#569616" fill-opacity="0.2"/>
<path d="M32.1597 6.32367L30.2966 5L12.0001 30.752L13.8631 32.0756L32.1597 6.32367Z" fill="#569616" fill-opacity="0.2"/>
</g>
<path d="M16.3964 28.4994C19.2864 28.5732 22.496 27.4668 25.6134 23.9975C25.7868 23.6247 26.0084 23.1482 25.3609 22.5863C23.2167 24.9513 20.1167 27.7537 16.7973 27.1645C15.9669 27.9842 16.273 28.2717 16.3964 28.4994Z" fill="white"/>
<mask id="mask1_17_4" style="mask-type:luminance" maskUnits="userSpaceOnUse" x="3" y="6" width="24" height="19">
<path d="M27 6H3V25H27V6Z" fill="white"/>
</mask>
<g mask="url(#mask1_17_4)">
<path fill-rule="evenodd" clip-rule="evenodd" d="M21.7993 10.4656C20.9841 11.6775 19.9929 13.0882 19.1527 14.4993C16.5782 18.8263 14.0311 23.7135 11.4583 24.417C7.46301 25.5092 3.27839 20.7389 3.3583 17.3568C3.48809 11.9149 11.807 12.2173 12.8002 19.0174C15.3973 14.7832 16.9878 12.4884 18.9092 9.65779C21.0887 6.44623 21.6447 5.56274 23.2988 7.10551C23.474 7.26885 23.4365 7.59134 23.2507 8.0349C23.5925 8.93679 24.3749 10.5904 26.0113 12.4655C27.4076 14.0641 24.8795 15.5029 24.6042 14.1238C24.3629 12.918 22.5222 11.8714 21.7993 10.4656Z" fill="white"/>
</g>
</g>
<defs>
<clipPath id="clip0_17_4">
<rect width="30" height="30" fill="white"/>
</clipPath>
</defs>
</svg>
