<svg width="27" height="27" viewBox="0 0 27 27" fill="none" xmlns="http://www.w3.org/2000/svg">
<g clip-path="url(#clip0_1602_3578)">
<path d="M13.4087 0.000135156C14.0588 0.00373516 14.7075 0.0541105 15.3502 0.154911C16.541 0.338511 17.7056 0.687712 18.803 1.19171C20.1203 1.79651 21.3378 2.61731 22.3961 3.61811C23.491 4.65131 24.4137 5.8681 25.1121 7.2109C25.7093 8.3557 26.1417 9.59051 26.3903 10.8613C26.676 12.3193 26.7214 13.8277 26.5271 15.3001C26.3456 16.6753 25.9523 18.0217 25.3654 19.2745C24.6886 20.7217 23.7564 22.0393 22.6274 23.1553C21.4394 24.3325 20.0357 25.2793 18.5063 25.9381C16.8966 26.6257 15.1562 26.9857 13.4087 26.9965C11.6579 27.0109 9.90968 26.6725 8.28897 25.9993C6.75068 25.3621 5.33532 24.4297 4.13275 23.2705C2.99129 22.1653 2.0438 20.8585 1.34997 19.4221C0.748868 18.1765 0.339602 16.8409 0.141365 15.4693C-0.0671742 14.0257 -0.0451495 12.5461 0.208508 11.1097C0.429482 9.85693 0.82702 8.64012 1.38585 7.50252C2.05232 6.14172 2.94653 4.89971 4.01765 3.84131C5.08983 2.77931 6.33751 1.90454 7.69497 1.26014C8.78456 0.745335 9.94343 0.381735 11.13 0.180135C11.7698 0.0721351 12.4164 0.0145352 13.0648 0.000135156C13.1795 0.000135156 13.2939 -0.00346484 13.4087 0.000135156ZM13.246 1.51212C12.6932 1.51572 12.1411 1.55531 11.594 1.63811C10.5122 1.79651 9.45317 2.1133 8.45701 2.5705C7.24379 3.1249 6.12613 3.8917 5.16266 4.8241C4.20025 5.7529 3.39309 6.84373 2.78666 8.04613C2.29071 9.02533 1.92976 10.0765 1.71838 11.1565C1.45975 12.4777 1.4228 13.8421 1.60718 15.1741C1.77558 16.3945 2.13155 17.5861 2.65876 18.6913C3.27798 19.9945 4.13097 21.1789 5.16266 22.1761C6.23058 23.2057 7.4875 24.0337 8.85349 24.5989C10.2927 25.1965 11.8448 25.4953 13.3991 25.4881C14.9505 25.4773 16.4956 25.1569 17.9248 24.5449C19.2829 23.9617 20.5296 23.1193 21.5851 22.0753C22.605 21.0637 23.4441 19.8721 24.0477 18.5617C24.5625 17.4457 24.9043 16.2469 25.0578 15.0265C25.2254 13.6909 25.1721 12.3265 24.8975 11.0089C24.6677 9.90732 24.2833 8.84171 23.7589 7.85171C23.1315 6.66371 22.3052 5.58733 21.3271 4.67293C20.3644 3.77653 19.2552 3.04212 18.0566 2.50932C17.0537 2.06652 15.9893 1.76413 14.904 1.61653C14.354 1.54093 13.8005 1.50852 13.246 1.51212ZM13.3518 24.2101C12.6889 24.2101 12.1578 24.0049 11.7581 23.5873C11.3584 23.1733 11.1584 22.6405 11.1584 21.9889C11.1584 21.3553 11.3584 20.8369 11.7581 20.4337C12.1578 20.0269 12.6889 19.8253 13.3518 19.8253C14.0343 19.8253 14.5654 20.0269 14.9455 20.4337C15.3257 20.8369 15.5157 21.3553 15.5157 21.9889C15.5157 22.6405 15.3257 23.1733 14.9455 23.5873C14.5654 24.0049 14.0343 24.2101 13.3518 24.2101ZM13.3518 18.0469C12.5916 18.0469 12.1819 17.5933 12.1237 16.6861L11.2462 5.3641C11.1879 4.6333 11.3439 4.04654 11.7141 3.60014C12.0846 3.15734 12.6306 2.9341 13.3518 2.9341C14.0538 2.9341 14.5849 3.15734 14.9455 3.60014C15.3061 4.04654 15.4575 4.6333 15.3988 5.3641L14.5217 16.6861C14.4631 17.5933 14.073 18.0469 13.3518 18.0469Z" fill="#E83D3D"/>
</g>
<defs>
<clipPath id="clip0_1602_3578">
<rect width="27" height="27" fill="white"/>
</clipPath>
</defs>
</svg>
