<svg width="30" height="30" viewBox="0 0 30 30" fill="none" xmlns="http://www.w3.org/2000/svg">
<g clip-path="url(#clip0_17_18)">
<path d="M15.0043 29.9433C23.2302 29.9433 29.8985 23.2584 29.8985 15.0122C29.8985 6.766 23.2302 0.0811157 15.0043 0.0811157C6.77847 0.0811157 0.110107 6.766 0.110107 15.0122C0.110107 23.2584 6.77847 29.9433 15.0043 29.9433Z" fill="#FFD600"/>
<mask id="mask0_17_18" style="mask-type:luminance" maskUnits="userSpaceOnUse" x="3" y="6" width="24" height="19">
<path d="M27 6H3V25H27V6Z" fill="white"/>
</mask>
<g mask="url(#mask0_17_18)">
<path fill-rule="evenodd" clip-rule="evenodd" d="M21.7993 10.4655C20.9841 11.6774 19.9929 13.0881 19.1527 14.4992C16.5782 18.8262 14.0311 23.7134 11.4583 24.4169C7.46301 25.5091 3.27839 20.7388 3.3583 17.3567C3.48809 11.9148 11.807 12.2172 12.8002 19.0173C15.3973 14.7831 16.9878 12.4883 18.9092 9.65773C21.0887 6.44617 21.6447 5.56268 23.2988 7.10545C23.474 7.26879 23.4365 7.59128 23.2507 8.03484C23.5925 8.93673 24.3749 10.5903 26.0113 12.4654C27.4076 14.064 24.8795 15.5028 24.6042 14.1237C24.3629 12.9179 22.5222 11.8713 21.7993 10.4655Z" fill="white"/>
</g>
</g>
<defs>
<clipPath id="clip0_17_18">
<rect width="30" height="30" fill="white"/>
</clipPath>
</defs>
</svg>
