<svg width="28" height="19" viewBox="0 0 28 19" fill="none" xmlns="http://www.w3.org/2000/svg">
<g clip-path="url(#clip0_1602_3574)">
<path d="M0 0L0 19H28V0L0 0ZM16.38 11.6192C15.75 12.2769 14.91 12.6423 14 12.6423C13.09 12.6423 12.25 12.2769 11.62 11.6192L1.89001 1.46154H26.04L16.38 11.6192ZM8.60999 9.5L1.4 17.0269V1.97309L8.60999 9.5ZM9.1 10.0115L11.13 12.1308C11.9 12.9346 12.95 13.3731 14 13.3731C15.12 13.3731 16.1 12.9346 16.87 12.1308L18.9 10.0115L26.11 17.5385H1.89001L9.1 10.0115ZM19.39 9.5L26.6 1.97309V17.1L19.39 9.5Z" fill="#003294"/>
</g>
<defs>
<clipPath id="clip0_1602_3574">
<rect width="28" height="19" fill="white"/>
</clipPath>
</defs>
</svg>
