<svg width="29" height="21" viewBox="0 0 29 21" fill="none" xmlns="http://www.w3.org/2000/svg">
<g clip-path="url(#clip0_1858_6489)">
<path fill-rule="evenodd" clip-rule="evenodd" d="M16.5864 11.6315C16.8911 11.9019 17.2704 11.8113 17.4772 11.6433C17.833 11.3198 19.237 10.121 19.4643 9.9047C19.9709 9.4217 20.4584 9.18148 20.9279 9.15127C21.4224 9.11996 21.9355 9.30528 22.4695 9.81407C23.0688 10.3851 26.8396 14.0653 28.1199 15.315C28.184 15.3776 28.2583 15.4789 28.3039 15.6322C28.3387 15.7497 28.3642 15.9424 28.3708 16.1863C28.4002 17.2613 28.1284 19.6093 28.1284 19.6093C28.0959 19.8882 27.8488 20.0996 27.5546 20.1007L1.33507 20.2127C1.04468 20.2138 0.619734 19.1484 0.579907 18.8739C0.579907 18.8739 0.402815 17.2713 0.444961 16.1026C0.454628 15.8374 0.487891 15.6244 0.534678 15.4881C0.583011 15.3463 0.654155 15.2457 0.722595 15.1779C2.57434 13.348 8.03523 7.57149 8.79503 6.84754C9.3932 6.27759 10.0045 6.09375 10.5486 6.11806C11.1061 6.14275 11.61 6.39475 11.9901 6.75691C13.0507 7.76749 15.24 10.3262 16.5864 11.6315Z" fill="#033E8C"/>
<path fill-rule="evenodd" clip-rule="evenodd" d="M28.709 2.52123V18.2706C28.709 19.6622 27.5232 20.7919 26.0629 20.7919H2.64612C1.18574 20.7919 0 19.6622 0 18.2706V2.52123C0 1.12967 1.18574 -0.000244141 2.64612 -0.000244141H26.0629C27.5232 -0.000244141 28.709 1.12967 28.709 2.52123ZM27.5491 2.52123C27.5491 1.73955 26.883 1.10523 26.0629 1.10523H2.64612C1.82595 1.10523 1.15993 1.73955 1.15993 2.52123V18.2706C1.15993 19.0521 1.82595 19.6866 2.64612 19.6866H26.0629C26.883 19.6866 27.5491 19.0521 27.5491 18.2706V2.52123Z" fill="#033E8C"/>
<path d="M22.662 7.03699C23.907 7.03699 24.9162 6.07535 24.9162 4.8891C24.9162 3.70285 23.907 2.74121 22.662 2.74121C21.417 2.74121 20.4077 3.70285 20.4077 4.8891C20.4077 6.07535 21.417 7.03699 22.662 7.03699Z" fill="#033E8C"/>
<path fill-rule="evenodd" clip-rule="evenodd" d="M22.6619 2.18848C24.2264 2.18848 25.4962 3.39837 25.4962 4.889C25.4962 6.37963 24.2264 7.58952 22.6619 7.58952C21.0974 7.58952 19.8276 6.37963 19.8276 4.889C19.8276 3.39837 21.0974 2.18848 22.6619 2.18848ZM22.6619 3.29374C21.7378 3.29374 20.9876 4.00847 20.9876 4.889C20.9876 5.76952 21.7378 6.48426 22.6619 6.48426C23.586 6.48426 24.3362 5.76952 24.3362 4.889C24.3362 4.00847 23.586 3.29374 22.6619 3.29374Z" fill="#033E8C"/>
</g>
<defs>
<clipPath id="clip0_1858_6489">
<rect width="29" height="21" fill="white"/>
</clipPath>
</defs>
</svg>
