<svg width="28" height="28" viewBox="0 0 28 28" fill="none" xmlns="http://www.w3.org/2000/svg">
    <path d="M0 4.08084L0 23.5178C0 25.7715 1.82705 27.5986 4.08084 27.5986C6.33462 27.5986 8.16168 25.7715 8.16168 23.5178L8.16168 4.08084C8.16168 1.82706 6.33462 1.90735e-06 4.08084 1.90735e-06C1.82705 1.90735e-06 0 1.82706 0 4.08084Z" fill="white"/>
    <path d="M20 4.08084V23.5178C20 25.7715 21.8271 27.5986 24.0808 27.5986C26.3346 27.5986 28.1617 25.7715 28.1617 23.5178V4.08084C28.1617 1.82706 26.3346 1.90735e-06 24.0808 1.90735e-06C21.8271 1.90735e-06 20 1.82706 20 4.08084Z" fill="white"/>
</svg>
