<svg width="25" height="25" viewBox="0 0 25 25" fill="none" xmlns="http://www.w3.org/2000/svg">
<path fill-rule="evenodd" clip-rule="evenodd" d="M7.55093 6.25239L12.7189 0.50277C12.7919 0.422914 13.6136 -0.551291 13.6136 0.446914V23.725C13.6136 25.4658 12.6458 24.1643 12.4815 23.9966L7.55093 18.5104H1.09568C0.493061 18.5104 0 18.0233 0 17.4164V7.34652C0 6.73961 0.493061 6.25239 1.09568 6.25239H7.55093Z" fill="#033E8C"/>
<path fill-rule="evenodd" clip-rule="evenodd" d="M19.9007 5.45227C19.4739 5.22629 19.311 4.69641 19.5357 4.26783C19.7603 3.84705 20.2883 3.68344 20.7151 3.90942C23.1806 5.21072 25.0002 8.49124 25.0002 12.364C25.0002 16.2835 23.1469 19.5874 20.6421 20.8653C20.2153 21.0835 19.6873 20.9121 19.4683 20.4835C19.2492 20.055 19.4178 19.5329 19.8502 19.3069C21.8776 18.2783 23.2535 15.5354 23.2535 12.364C23.2535 9.22371 21.9 6.50422 19.9007 5.45227Z" fill="#033E8C"/>
<path fill-rule="evenodd" clip-rule="evenodd" d="M16.5961 8.73673C16.2086 8.49498 16.091 7.98512 16.3342 7.59392C16.5774 7.20712 17.0878 7.09286 17.4753 7.33461C18.7179 8.1126 19.6827 10.0598 19.6827 12.3718C19.6827 14.7146 18.6966 16.6705 17.4352 17.4354C17.045 17.6727 16.5346 17.5496 16.2968 17.1584C16.0616 16.7672 16.1872 16.2574 16.5774 16.02C17.4699 15.4794 18.0231 14.0289 18.0231 12.3718C18.0231 10.7279 17.478 9.29056 16.5961 8.73673Z" fill="#033E8C"/>
</svg>
