<svg width="62" height="62" viewBox="0 0 62 62" xmlns="http://www.w3.org/2000/svg">
    <path fill="#033E8C" d="m31,52.46892c-0.96944,0 -1.71067,-0.2566 -2.22387,-0.7698c-0.5132,-0.57017 -0.7698,-1.33997 -0.7698,-2.30941l0,-15.73817l-15.48157,0c-0.96944,0 -1.71067,-0.2566 -2.22387,-0.7698c-0.5132,-0.5132 -0.7698,-1.22604 -0.7698,-2.13834c0,-0.9123 0.2566,-1.62514 0.7698,-2.13834c0.5132,-0.5132 1.25444,-0.7698 2.22387,-0.7698l15.48157,0l0,-15.22497c0,-1.0264 0.2566,-1.7962 0.7698,-2.30941c0.5132,-0.5132 1.283,-0.7698 2.30941,-0.7698c0.96927,0 1.6821,0.2566 2.13834,0.7698c0.5132,0.5132 0.7698,1.283 0.7698,2.30941l0,15.22497l15.48157,0c0.96927,0 1.71067,0.2566 2.22387,0.7698c0.5132,0.5132 0.7698,1.22604 0.7698,2.13834c0,0.9123 -0.2566,1.62514 -0.7698,2.13834c-0.5132,0.5132 -1.25461,0.7698 -2.22387,0.7698l-15.48157,0l0,15.73817c0,0.96944 -0.2566,1.73924 -0.7698,2.30941c-0.45624,0.5132 -1.19747,0.7698 -2.22387,0.7698z"/>
</svg>