<svg width="12" height="14" viewBox="0 0 12 14" fill="none" xmlns="http://www.w3.org/2000/svg">
<path fill-rule="evenodd" clip-rule="evenodd" d="M7.21191 3.27991C6.28809 2.13024 5.43727 1.78106 5.14271 2.01851C4.8752 2.23414 4.82296 5.53404 4.55359 7.89812C4.43415 8.19238 4.40581 8.52065 4.42588 8.82899C4.32573 9.42653 4.20118 9.893 4.04121 10.1242C3.91734 9.42137 3.5545 8.16234 2.01755 7.9816C0.480509 7.80087 0.147583 9.38498 0.147583 10.1242C0.147583 11.1744 0.374554 11.8696 1.30024 12.7315C2.01756 13.3991 3.45701 13.9977 4.42343 13.1579C4.88317 12.7583 5.09696 11.8735 5.21236 10.8111C5.52385 11.18 5.94631 11.4708 6.58019 11.7358C7.48207 12.1128 9.0381 12.1737 9.65733 11.0492C10.43 9.64593 8.46955 5.69684 8.18404 3.49436C8.12206 3.01619 8.97327 2.80065 9.50631 3.00409C9.91352 3.15955 11.3585 4.23526 11.7368 4.82041C12.1146 5.40476 11.5645 2.94986 10.1269 1.71334C8.25507 0.103445 6.76997 -0.0797719 6.51545 0.344662C6.40576 0.527781 6.77922 1.79355 7.21191 3.27991ZM8.23855 7.3574C7.87748 6.6392 7.28009 5.76644 7.03836 5.55506C6.60784 5.17871 5.73508 5.08472 5.62941 5.55506C5.53162 5.9905 5.47308 6.51566 5.43235 7.08534C5.49335 7.06403 5.55779 7.04499 5.62577 7.02844C7.13016 6.66319 7.90207 7.71868 8.2592 8.33505C8.31469 8.12179 8.30043 7.78084 8.23855 7.3574Z" fill="white"/>
<path fill-rule="evenodd" clip-rule="evenodd" d="M6.88674 2.69034C6.47481 2.27254 6.09269 2.01358 5.78672 1.89064C5.45595 1.75779 5.19769 1.78377 5.05051 1.90244C5.02119 1.92614 4.98883 1.96688 4.96207 2.02895C4.92537 2.11431 4.89084 2.25837 4.86074 2.45051C4.70342 3.45503 4.62658 5.88276 4.41958 7.76897C4.41742 7.7886 4.41919 7.80774 4.42421 7.82568C4.28283 8.16832 4.25578 8.5532 4.28578 8.90724C4.28096 8.91785 4.27722 8.92935 4.27496 8.94135C4.22498 9.20606 4.16044 9.46135 4.0898 9.66777C3.88251 8.92747 3.38154 7.99224 2.03467 7.83391C0.378773 7.63929 0 9.32791 0 10.1242C0 11.2183 0.235724 11.9429 1.20018 12.8407C1.57541 13.1901 2.13955 13.5211 2.73624 13.6552C3.35124 13.7933 3.9987 13.7233 4.51983 13.2706C4.71837 13.0979 4.87726 12.8438 5.00152 12.5257C5.14988 12.1456 5.25043 11.6714 5.32107 11.1428C5.61917 11.4209 6.00287 11.6554 6.52361 11.8731C6.99546 12.0704 7.63839 12.1848 8.24434 12.103C8.86888 12.0187 9.45249 11.7277 9.7864 11.1214C9.9205 10.8778 9.98209 10.5643 9.98396 10.1985C9.98661 9.68185 9.87131 9.05556 9.69766 8.38069C9.27402 6.7347 8.50112 4.79188 8.33042 3.47516C8.3137 3.34597 8.40903 3.25466 8.53644 3.18903C8.78673 3.06004 9.17111 3.03526 9.45406 3.14322C9.84829 3.29362 11.2469 4.33523 11.6131 4.90164C11.6896 5.02001 11.7688 5.05293 11.8078 5.0568C11.8821 5.06413 11.9968 5.02071 11.9999 4.84304C12.0021 4.72397 11.9509 4.46818 11.8396 4.14101C11.5918 3.41319 11.0493 2.31121 10.2226 1.60025C8.87459 0.440765 7.71661 0.0101828 7.05616 0.000169286C6.71123 -0.00498619 6.48495 0.108137 6.38912 0.267759C6.35734 0.320801 6.33836 0.438185 6.35961 0.611092C6.39591 0.906441 6.52637 1.41911 6.70296 2.04798C6.76003 2.25093 6.82181 2.46617 6.88674 2.69034ZM4.41919 9.59986C4.3395 9.86477 4.24909 10.0839 4.16231 10.2093C4.12817 10.2587 4.06786 10.2824 4.00952 10.2695C3.95118 10.2566 3.90641 10.2095 3.89589 10.1502C3.7794 9.48951 3.44529 8.29919 2.00043 8.12936C0.582136 7.9626 0.29515 9.44212 0.29515 10.1242C0.29515 11.1305 0.513366 11.7965 1.40039 12.6223C1.74247 12.9406 2.25662 13.2427 2.80048 13.3649C3.32615 13.483 3.88162 13.4324 4.327 13.0453C4.49376 12.9005 4.62255 12.6839 4.72683 12.4167C4.89025 11.9982 4.9905 11.4595 5.05848 10.8603C4.80839 10.5494 4.62855 10.1854 4.46641 9.74134C4.45038 9.69742 4.43453 9.65012 4.41919 9.59986ZM11.6273 4.44865C11.0595 3.83306 9.91784 3.00214 9.55855 2.86503C9.20191 2.7289 8.71756 2.76162 8.40195 2.92422C8.15186 3.0532 8.00487 3.26001 8.03773 3.51362C8.20971 4.83987 8.98526 6.79756 9.41195 8.45535C9.57842 9.10206 9.69136 9.70178 9.6888 10.197C9.68723 10.5057 9.64148 10.7715 9.52834 10.9771C9.24293 11.4954 8.73901 11.7361 8.20518 11.8082C7.65285 11.8827 7.06679 11.7782 6.63675 11.5984C5.52128 11.1321 5.08829 10.5831 4.74346 9.63863C4.5097 8.99845 4.2722 7.51011 5.66029 7.17312C7.07456 6.82968 7.796 7.83054 8.13169 8.41013C8.16179 8.46208 8.22004 8.49064 8.27917 8.48251C8.33829 8.47428 8.3868 8.43106 8.40195 8.37286C8.4776 8.08167 8.43569 7.56305 8.31458 6.92189C8.04383 5.48926 7.39382 3.41557 6.987 1.96698C6.81581 1.35745 6.68771 0.860737 6.65249 0.574509C6.64433 0.508182 6.6464 0.429757 6.64699 0.413597C6.68211 0.362934 6.75009 0.333689 6.83893 0.315149C6.96722 0.28838 7.13368 0.291353 7.33232 0.326053C7.9784 0.43878 8.93568 0.884332 10.0311 1.82649C10.9005 2.57434 11.4356 3.78111 11.6273 4.44865ZM8.08457 7.32273C8.06971 7.30994 8.05711 7.29407 8.04786 7.27524C7.70116 6.56775 7.18298 5.8784 6.94164 5.66742C6.7131 5.46765 6.34386 5.3572 6.06475 5.39111C5.92278 5.40846 5.80187 5.4609 5.77334 5.58791C5.68932 5.96208 5.63501 6.40366 5.59586 6.88282C6.90878 6.56616 7.69743 7.26512 8.14556 7.88596L8.14566 7.88616C8.13887 7.72267 8.11733 7.53291 8.08457 7.32273ZM7.07879 3.35073C6.55254 2.70124 6.05511 2.31865 5.67741 2.16696C5.56496 2.12175 5.4651 2.09785 5.38059 2.09686C5.32471 2.09627 5.27739 2.10469 5.24246 2.12898C5.23666 2.14276 5.21235 2.20165 5.19937 2.2538C5.161 2.40649 5.12833 2.63858 5.09764 2.92848C4.98666 3.9795 4.90973 5.76736 4.76215 7.31916C4.90117 7.18293 5.0755 7.06674 5.29214 6.97919C5.33327 6.43807 5.39181 5.93957 5.48547 5.52228C5.54155 5.27273 5.75042 5.12977 6.02933 5.09586C6.38115 5.05303 6.8469 5.19094 7.13507 5.44276C7.30773 5.59366 7.61636 5.97407 7.9117 6.43618C7.6992 5.49243 7.37581 4.37102 7.07879 3.35073Z" fill="#FF9519"/>
</svg>
