<svg width="27" height="24" viewBox="0 0 27 24" fill="none" xmlns="http://www.w3.org/2000/svg">
<path fill-rule="evenodd" clip-rule="evenodd" d="M5.29879 4.8799C4.4223 5.40145 3.61914 5.98819 2.92012 6.61794C1.10738 8.25049 0 10.1787 0 11.9955C0 13.8119 1.10738 15.74 2.92012 17.3726C5.50613 19.7019 9.51236 21.4445 13.3746 21.4445C15.7094 21.4445 18.0966 20.7984 20.191 19.7716L24.2108 23.7919C24.4761 24.0567 24.9062 24.0567 25.1715 23.7919C25.4363 23.5271 25.4363 23.0965 25.1715 22.8316L21.4364 19.0966C22.3179 18.5696 23.1265 17.9765 23.83 17.3413C25.6428 15.7047 26.7493 13.7815 26.7493 11.9955C26.7493 10.1787 25.6432 8.25048 23.8318 6.61838C21.2472 4.28862 17.2423 2.54605 13.3746 2.54605C11.0358 2.54605 8.64402 3.18532 6.54651 4.20669L2.53848 0.198636C2.27363 -0.0662121 1.84308 -0.0662121 1.57823 0.198636C1.31293 0.463485 1.31293 0.894048 1.57823 1.1589L5.29879 4.8799ZM6.29026 5.87092C5.37755 6.38794 4.54362 6.98329 3.82876 7.62708C2.34244 8.96581 1.3582 10.5051 1.3582 11.9955C1.3582 13.4854 2.34244 15.0247 3.82876 16.3635C6.19066 18.4904 9.84739 20.0863 13.3746 20.0863C15.3508 20.0863 17.3673 19.5779 19.1741 18.7553L16.0471 15.6278C15.2992 16.1792 14.3747 16.5056 13.3746 16.5056C10.8855 16.5056 8.8645 14.4846 8.8645 11.9955C8.8645 10.9954 9.19047 10.0709 9.7419 9.323L6.29026 5.87092ZM20.4454 18.1056C21.3635 17.5831 22.2015 16.9819 22.92 16.3331C24.4059 14.9921 25.3911 13.4592 25.3911 11.9955C25.3911 10.5051 24.4082 8.96581 22.9227 7.62708C20.5627 5.50014 16.9064 3.90425 13.3746 3.90425C11.3948 3.90425 9.37428 4.40679 7.56426 5.22443L10.7026 8.36277C11.4505 7.81134 12.375 7.48491 13.3746 7.48491C15.8637 7.48491 17.8847 9.50591 17.8847 11.9955C17.8847 12.9951 17.5588 13.9196 17.0074 14.6675L20.4454 18.1056ZM10.718 10.2991L15.071 14.6517C14.5812 14.9654 13.9989 15.1474 13.3746 15.1474C11.6352 15.1474 10.2227 13.7349 10.2227 11.9955C10.2227 11.3712 10.4047 10.789 10.718 10.2991ZM16.0313 13.6914L11.6787 9.33886C12.1685 9.02512 12.7508 8.84311 13.3746 8.84311C15.1145 8.84311 16.5265 10.2556 16.5265 11.9955C16.5265 12.6194 16.345 13.2016 16.0313 13.6914Z" fill="#003294"/>
</svg>
