<svg width="18" height="25" viewBox="0 0 18 25" fill="none" xmlns="http://www.w3.org/2000/svg">
<path fill-rule="evenodd" clip-rule="evenodd" d="M1.57915 17.9279L9.74937 6.73911L12.9783 9.22341C12.9783 9.22341 4.87816 20.3643 4.8081 20.4122C3.06604 21.6039 1.16351 22.3299 1.03212 22.2409C0.900726 22.1521 1.10652 19.9 1.57915 17.9279Z" fill="#FAFAFA"/>
<path fill-rule="evenodd" clip-rule="evenodd" d="M14.7526 6.66247L11.4686 4.25053L13.1522 1.95873C14.6869 2.03625 16.0634 2.37277 16.3861 4.43269L14.7526 6.66247Z" fill="#FAFAFA"/>
<path fill-rule="evenodd" clip-rule="evenodd" d="M0.984935 17.7734C1.0044 17.6925 1.03935 17.6165 1.08818 17.5496L9.25955 6.36391C9.46101 6.08809 9.84396 6.03335 10.1147 6.24176L13.344 8.72551C13.6144 8.9335 13.6709 9.3252 13.4703 9.60104C13.4703 9.60104 6.90555 18.6265 5.54156 20.4665C5.31506 20.772 5.16035 20.9247 5.14986 20.9319C3.6892 21.9307 2.1185 22.6121 1.47914 22.7991C1.25174 22.8656 1.08699 22.8764 1.00655 22.8692C0.865456 22.8564 0.765749 22.8067 0.696999 22.7603C0.611167 22.7022 0.43842 22.5527 0.396216 22.2279C0.334802 21.7564 0.536456 19.6441 0.984935 17.7734ZM2.17357 18.161C2.17042 18.2092 2.15404 18.2566 2.12115 18.3022C1.88802 19.3577 1.74333 20.6023 1.66917 21.3641C2.35211 21.0744 3.46069 20.563 4.3888 19.9416C4.42966 19.8875 4.49594 19.7995 4.56579 19.7052C5.73521 18.1276 10.7301 11.2649 12.1249 9.3477L9.87557 7.61767L2.17357 18.161Z" fill="#FAFAFA"/>
<path fill-rule="evenodd" clip-rule="evenodd" d="M14.3968 7.1679L11.113 4.75546C10.9792 4.65715 10.8895 4.50836 10.864 4.34273C10.8385 4.17709 10.8794 4.00856 10.9775 3.87486L12.661 1.58263C12.7819 1.41792 12.9755 1.32551 13.1779 1.33581C14.2475 1.38988 15.2398 1.58918 15.9525 2.22732C16.4513 2.67411 16.8328 3.33379 16.9903 4.33915C17.0162 4.50498 16.9756 4.67404 16.8774 4.80798L15.244 7.0383C15.0452 7.30968 14.6683 7.36733 14.3968 7.1679ZM14.619 5.79912C14.619 5.79912 15.7343 4.2763 15.7342 4.27605C15.6207 3.76777 15.4236 3.40806 15.1479 3.16108C14.7054 2.76475 14.0998 2.64998 13.4473 2.6008L12.3322 4.11915L14.619 5.79912Z" fill="#FAFAFA"/>
</svg>
