<svg width="18" height="18" viewBox="0 0 18 18" fill="none" xmlns="http://www.w3.org/2000/svg">
<g clip-path="url(#clip0_1947_4912)">
<path fill-rule="evenodd" clip-rule="evenodd" d="M3.01876 17.9964H1.2592C0.564307 17.9964 0 17.432 0 16.7367V1.25925C0 0.563926 0.564307 -0.000488281 1.2592 -0.000488281H5.2423V5.05672C5.2423 5.63186 5.70757 6.06537 6.23733 6.06537H11.7593C12.289 6.06537 12.7543 5.63186 12.7543 5.05672V-0.000488281H13.7771C13.8846 -0.000488281 13.9877 0.0435056 14.0629 0.119691L17.8831 4.03519C17.9559 4.10923 17.9966 4.21009 17.9966 4.31417V16.7367C17.9966 17.432 17.4324 17.9964 16.7374 17.9964H14.9779V10.4165C14.9779 9.79738 14.4631 9.27267 13.8017 9.27267H4.19502C3.5336 9.27267 3.01876 9.79738 3.01876 10.4165V17.9964ZM6.7424 -0.000488281H11.2543V4.57922H6.7424V-0.000488281ZM13.4779 17.9964H4.51876V10.7631H13.4779V17.9964Z" fill="#FAFAFA"/>
</g>
<defs>
<clipPath id="clip0_1947_4912">
<rect width="18" height="18" fill="white"/>
</clipPath>
</defs>
</svg>
