<svg width="30" height="25" viewBox="0 0 30 25" fill="none" xmlns="http://www.w3.org/2000/svg">
<path fill-rule="evenodd" clip-rule="evenodd" d="M7.55093 6.25239L12.7189 0.50277C12.7919 0.422914 13.6136 -0.551291 13.6136 0.446914V23.725C13.6136 25.4658 12.6458 24.1643 12.4815 23.9966L7.55093 18.5104H1.09568C0.493061 18.5104 0 18.0233 0 17.4164V7.34652C0 6.73961 0.493061 6.25239 1.09568 6.25239H7.55093Z" fill="#033E8C"/>
<path d="M18 17C18 17 21.3469 13.5476 23 11.7825C21.3469 10.1325 18 7 18 7" stroke="#033E8C" stroke-width="2.828" stroke-linecap="round" stroke-linejoin="round"/>
<path d="M28 17C28 17 24.1592 13.0597 23 11.7825C24.1592 10.6204 28 7 28 7" stroke="#033E8C" stroke-width="2.828" stroke-linecap="round" stroke-linejoin="round"/>
</svg>
