<svg width="27" height="18" viewBox="0 0 27 18" fill="none" xmlns="http://www.w3.org/2000/svg">
<g clip-path="url(#clip0_1602_3647)">
<path fill-rule="evenodd" clip-rule="evenodd" d="M13.2939 0C9.4545 0 5.47245 1.64958 2.90205 3.85458C1.1007 5.40001 0 7.22529 0 8.94515C0 10.6646 1.1007 12.4899 2.90205 14.0353C5.47245 16.2403 9.4545 17.8898 13.2939 17.8898C17.1329 17.8898 21.1154 16.2159 23.6862 14.0057C25.488 12.4564 26.5878 10.6359 26.5878 8.94515C26.5878 7.22529 25.488 5.4 23.688 3.855C21.1189 1.65 17.1378 0 13.2939 0ZM13.2939 1.28571C16.8044 1.28571 20.4381 2.79644 22.7839 4.80987C24.2608 6.07715 25.2378 7.53472 25.2378 8.94515C25.2378 10.3307 24.2582 11.7819 22.7812 13.0513C20.434 15.0699 16.7999 16.6041 13.2939 16.6041C9.78795 16.6041 6.15285 15.0934 3.80565 13.08C2.3283 11.8127 1.35 10.3556 1.35 8.94515C1.35 7.53472 2.3283 6.07758 3.80565 4.80987C6.15285 2.79644 9.78795 1.28571 13.2939 1.28571Z" fill="#003294"/>
<path fill-rule="evenodd" clip-rule="evenodd" d="M13.2937 4.67554C10.8196 4.67554 8.81079 6.5887 8.81079 8.94498C8.81079 11.3013 10.8196 13.2144 13.2937 13.2144C15.7678 13.2144 17.7766 11.3013 17.7766 8.94498C17.7766 6.5887 15.7678 4.67554 13.2937 4.67554ZM13.2937 5.96125C15.0226 5.96125 16.4266 7.29798 16.4266 8.94498C16.4266 10.5916 15.0226 11.9287 13.2937 11.9287C11.5643 11.9287 10.1608 10.5916 10.1608 8.94498C10.1608 7.29798 11.5643 5.96125 13.2937 5.96125Z" fill="#003294"/>
</g>
<defs>
<clipPath id="clip0_1602_3647">
<rect width="27" height="18" fill="white"/>
</clipPath>
</defs>
</svg>
