<svg width="16" height="16" viewBox="0 0 16 16" fill="none" xmlns="http://www.w3.org/2000/svg">
<path d="M8.01169 16.01C7.67169 16.01 7.41169 15.92 7.23169 15.74C7.05169 15.54 6.96169 15.27 6.96169 14.93V9.40995H1.53169C1.19169 9.40995 0.931689 9.31995 0.751689 9.13995C0.571689 8.95995 0.481689 8.70995 0.481689 8.38995C0.481689 8.06995 0.571689 7.81995 0.751689 7.63995C0.931689 7.45995 1.19169 7.36995 1.53169 7.36995H6.96169V2.02995C6.96169 1.66995 7.05169 1.39995 7.23169 1.21995C7.41169 1.03995 7.68169 0.949951 8.04169 0.949951C8.38169 0.949951 8.63169 1.03995 8.79169 1.21995C8.97169 1.39995 9.06169 1.66995 9.06169 2.02995V7.36995H14.4917C14.8317 7.36995 15.0917 7.45995 15.2717 7.63995C15.4517 7.81995 15.5417 8.06995 15.5417 8.38995C15.5417 8.70995 15.4517 8.95995 15.2717 9.13995C15.0917 9.31995 14.8317 9.40995 14.4917 9.40995H9.06169V14.93C9.06169 15.27 8.97169 15.54 8.79169 15.74C8.63169 15.92 8.37169 16.01 8.01169 16.01Z" fill="#FAFAFA"/>
</svg>
