<svg width="31" height="42" viewBox="0 0 31 42" fill="none" xmlns="http://www.w3.org/2000/svg">
<g clip-path="url(#clip0_1660_3677)">
<path fill-rule="evenodd" clip-rule="evenodd" d="M1.23567 41.8544C0.997769 41.8382 0.800375 41.7757 0.644303 41.6838C0.412983 41.5473 0.205718 41.2939 0.0968684 40.8887C-0.0409351 40.3751 -0.0294913 39.4902 0.126347 38.3564C0.93139 32.5024 5.36136 19.2954 5.36136 19.2954C5.46418 18.9891 5.77533 18.8024 6.09504 18.8551C10.2551 19.5409 14.0466 21.0054 17.3836 23.4312L18.5658 22.3826L19.4418 23.3628L18.4444 24.2472C19.5564 25.152 20.6136 26.1721 21.6126 27.3154C21.7293 27.4488 21.7867 27.6238 21.7721 27.8004C21.7572 27.977 21.6713 28.1402 21.5341 28.2531C21.5341 28.2531 20.9888 28.7005 20.0763 29.4328C20.0329 29.4863 19.981 29.5331 19.9219 29.5712C19.8892 29.5925 19.8557 29.6143 19.8216 29.6369C16.3946 32.3799 8.64508 38.4461 4.24861 40.8135C3.24361 41.3546 2.39409 41.7043 1.78731 41.8171C1.73597 41.8305 1.68835 41.8414 1.64476 41.8491C1.48269 41.8779 1.34575 41.8743 1.23567 41.8544ZM19.6521 28.0886C19.8486 27.9301 20.0204 27.7909 20.1649 27.6736C16.3672 23.5503 11.7208 21.2204 6.43293 20.2474C6.15541 21.0877 5.58253 22.8424 4.91667 24.9959C5.08265 24.9632 5.26371 24.9336 5.45878 24.9083C7.55782 24.6338 11.4683 24.7222 14.7754 25.5858C16.782 26.11 18.561 26.9333 19.6521 28.0886ZM2.78648 32.3504C2.47028 33.5446 2.18214 34.7073 1.94607 35.7766C5.10221 35.439 7.80106 36.2368 8.58407 36.5007C10.1276 35.4227 11.7353 34.2393 13.256 33.0897C13.0757 33.0201 12.8721 32.9507 12.6502 32.8809C11.5963 32.5488 10.1625 32.258 8.68448 32.079C7.21238 31.9007 5.69612 31.8327 4.46996 31.9533C3.78492 32.0208 3.19731 32.1391 2.78648 32.3504ZM1.63406 40.4688C1.92997 40.3478 2.47181 40.1176 2.92413 39.8741C4.23053 39.1713 5.90445 38.1287 7.01491 37.42C5.8138 37.1358 3.91127 36.8421 1.81281 37.1143C1.69459 37.922 1.55158 39.0002 1.56176 39.8418C1.56424 40.0493 1.60266 40.2984 1.63406 40.4688ZM4.63537 26.4374C4.43918 26.9578 3.77889 28.7648 3.27573 30.813C3.60176 30.7398 3.95978 30.6842 4.34219 30.6466C5.65246 30.5177 7.27255 30.5851 8.84545 30.7755C10.6808 30.9977 12.451 31.3879 13.5909 31.8144C13.8859 31.9248 14.143 32.0408 14.3565 32.1574C15.1854 31.486 17.2002 29.8699 18.5957 28.8848C17.7987 28.0817 16.5778 27.5031 15.2005 27.0735C12.5572 26.2488 9.33044 26.0116 7.05247 26.0982C6.00622 26.1379 4.89507 26.3782 4.63537 26.4374Z" fill="white"/>
<path fill-rule="evenodd" clip-rule="evenodd" d="M1.22934 36.5282C1.02311 37.9234 0.557668 40.9319 1.33201 41.192C2.10635 41.4523 8.57568 37.1897 8.57568 37.1897C8.57568 37.1897 5.15996 35.8667 1.22934 36.5282Z" fill="white"/>
<path fill-rule="evenodd" clip-rule="evenodd" d="M14.4 32.973C13.0305 31.7618 4.74908 30.4412 2.3667 31.8222C2.95878 28.887 4.07017 26.0468 4.07017 26.0468C4.41513 25.0169 16.6645 24.8229 19.5671 29.0274C17.9179 30.0914 14.4 32.973 14.4 32.973Z" fill="white"/>
<path fill-rule="evenodd" clip-rule="evenodd" d="M12.9631 12.6383H14.2823V14.7127C14.2823 15.6422 13.6227 15.3711 13.6227 15.3711C13.6227 15.3711 12.9631 15.6422 12.9631 14.7127V12.6383Z" fill="white"/>
<path fill-rule="evenodd" clip-rule="evenodd" d="M13.9211 18.2268L15.1713 18.638L14.5143 20.6083C14.2703 21.3399 13.888 21.061 13.888 21.061L13.2641 20.1971L13.9211 18.2268Z" fill="white"/>
<path fill-rule="evenodd" clip-rule="evenodd" d="M20.1886 7.32713L21.4228 7.79199L19.623 12.5601L18.3888 12.0952L20.1886 7.32713Z" fill="white"/>
<path fill-rule="evenodd" clip-rule="evenodd" d="M15.5594 17.3654L14.3237 16.9114C15.1461 14.6774 15.7837 6.98671 13.0135 0.513365L14.224 -0.000105857C17.1571 6.85329 16.4302 14.9999 15.5594 17.3654Z" fill="white"/>
<path fill-rule="evenodd" clip-rule="evenodd" d="M28.6132 9.57163L29.0994 10.7935C27.0269 11.6082 24.6211 13.543 21.8578 16.5661L20.8809 15.6813C23.8216 12.4645 26.4076 10.4386 28.6132 9.57163Z" fill="white"/>
<path fill-rule="evenodd" clip-rule="evenodd" d="M22.9085 23.5982L22.1278 22.5365C25.0716 20.3891 30.5662 18.7887 30.5662 18.7887L30.9369 20.0515C30.9369 20.0515 25.7068 21.5568 22.9085 23.5982Z" fill="white"/>
<path fill-rule="evenodd" clip-rule="evenodd" d="M9.63952 17.2084L8.32543 17.094C8.49736 15.1373 7.93583 12.7656 6.94933 11.0169C6.3434 9.94262 5.58995 9.09562 4.71558 8.81627L5.11879 7.56677C6.26074 7.93143 7.30858 8.9718 8.09963 10.3744C9.20881 12.3403 9.83277 15.0084 9.63952 17.2084Z" fill="white"/>
<path fill-rule="evenodd" clip-rule="evenodd" d="M12.4143 7.1958C12.0469 7.1958 11.749 7.49243 11.749 7.85774C11.749 8.22305 12.0469 8.51968 12.4143 8.51968C12.7815 8.51968 13.0796 8.22305 13.0796 7.85774C13.0796 7.49243 12.7815 7.1958 12.4143 7.1958ZM12.4143 7.85205C12.4174 7.85205 12.42 7.85446 12.42 7.85774C12.42 7.8608 12.4174 7.86343 12.4143 7.86343C12.411 7.86343 12.4086 7.8608 12.4086 7.85774C12.4086 7.85446 12.411 7.85205 12.4143 7.85205Z" fill="white"/>
<path fill-rule="evenodd" clip-rule="evenodd" d="M24.0344 7.8634C23.6289 7.8634 23.2998 8.19087 23.2998 8.59425C23.2998 8.9974 23.6289 9.32487 24.0344 9.32487C24.4398 9.32487 24.7687 8.9974 24.7687 8.59425C24.7687 8.19087 24.4398 7.8634 24.0344 7.8634ZM24.0344 8.51965C24.0757 8.51965 24.1091 8.55312 24.1091 8.59425C24.1091 8.63537 24.0757 8.66862 24.0344 8.66862C23.993 8.66862 23.9594 8.63537 23.9594 8.59425C23.9594 8.55312 23.993 8.51965 24.0344 8.51965Z" fill="white"/>
<path fill-rule="evenodd" clip-rule="evenodd" d="M27.777 14.7578C27.307 14.7578 26.9253 15.1376 26.9253 15.6053C26.9253 16.0727 27.307 16.4525 27.777 16.4525C28.2469 16.4525 28.6285 16.0727 28.6285 15.6053C28.6285 15.1376 28.2469 14.7578 27.777 14.7578ZM27.777 15.4141C27.883 15.4141 27.969 15.4998 27.969 15.6053C27.969 15.7107 27.883 15.7962 27.777 15.7962C27.6711 15.7962 27.5849 15.7107 27.5849 15.6053C27.5849 15.4998 27.6711 15.4141 27.777 15.4141Z" fill="white"/>
<path fill-rule="evenodd" clip-rule="evenodd" d="M20.6404 18.0104C20.348 18.0104 20.1106 18.2466 20.1106 18.5376C20.1106 18.8287 20.348 19.0648 20.6404 19.0648C20.9329 19.0648 21.1703 18.8287 21.1703 18.5376C21.1703 18.2466 20.9329 18.0104 20.6404 18.0104ZM20.6404 18.6666C20.569 18.6666 20.5107 18.6089 20.5107 18.5376C20.5107 18.4665 20.569 18.4085 20.6404 18.4085C20.7121 18.4085 20.7702 18.4665 20.7702 18.5376C20.7702 18.6089 20.7121 18.6666 20.6404 18.6666Z" fill="white"/>
<path fill-rule="evenodd" clip-rule="evenodd" d="M24.8423 23.5596C24.5497 23.5596 24.3123 23.7958 24.3123 24.087C24.3123 24.3779 24.5497 24.6142 24.8423 24.6142C25.1347 24.6142 25.3722 24.3779 25.3722 24.087C25.3722 23.7958 25.1347 23.5596 24.8423 23.5596ZM24.8423 24.2158C24.7706 24.2158 24.7126 24.1581 24.7126 24.087C24.7126 24.0157 24.7706 23.9579 24.8423 23.9579C24.9138 23.9579 24.9718 24.0157 24.9718 24.087C24.9718 24.1581 24.9138 24.2158 24.8423 24.2158Z" fill="white"/>
<path fill-rule="evenodd" clip-rule="evenodd" d="M11.3303 17.1146C10.986 17.1146 10.7065 17.3927 10.7065 17.7352C10.7065 18.0776 10.986 18.3556 11.3303 18.3556C11.6744 18.3556 11.9538 18.0776 11.9538 17.7352C11.9538 17.3927 11.6744 17.1146 11.3303 17.1146ZM11.3303 17.7709C11.3103 17.7709 11.2942 17.7549 11.2942 17.7352C11.2942 17.7155 11.3103 17.6993 11.3303 17.6993C11.3501 17.6993 11.3661 17.7155 11.3661 17.7352C11.3661 17.7549 11.3501 17.7709 11.3303 17.7709Z" fill="white"/>
<path fill-rule="evenodd" clip-rule="evenodd" d="M19.0772 0.591064C18.7228 0.591064 18.4348 0.877627 18.4348 1.23025C18.4348 1.5831 18.7228 1.86944 19.0772 1.86944C19.4319 1.86944 19.7197 1.5831 19.7197 1.23025C19.7197 0.877627 19.4319 0.591064 19.0772 0.591064ZM19.0772 1.24731C19.0678 1.24731 19.0601 1.23966 19.0601 1.23025C19.0601 1.22085 19.0678 1.21319 19.0772 1.21319C19.0867 1.21319 19.0944 1.22085 19.0944 1.23025C19.0944 1.23966 19.0867 1.24731 19.0772 1.24731Z" fill="white"/>
</g>
<defs>
<clipPath id="clip0_1660_3677">
<rect width="31" height="42" fill="white"/>
</clipPath>
</defs>
</svg>
